<?xml version="1.0" standalone="no"?>
<!DOCTYPE svg PUBLIC "-//W3C//DTD SVG 20010904//EN"
 "http://www.w3.org/TR/2001/REC-SVG-20010904/DTD/svg10.dtd">
<svg version="1.0" xmlns="http://www.w3.org/2000/svg"
 width="225.000000pt" height="225.000000pt" viewBox="0 0 225.000000 225.000000"
 preserveAspectRatio="xMidYMid meet">
<metadata>
Created by potrace 1.10, written by Peter Selinger 2001-2011
</metadata>
<g transform="translate(0.000000,225.000000) scale(0.100000,-0.100000)"
fill="#000000" stroke="none">
<path d="M370 2091 c-19 -10 -35 -24 -35 -30 0 -6 -17 -21 -37 -34 -20 -12
-55 -43 -78 -69 -54 -62 -64 -125 -30 -189 32 -63 22 -126 -45 -270 -68 -148
-85 -209 -92 -339 -12 -218 75 -457 243 -669 110 -140 334 -288 494 -326 165
-39 423 -25 534 29 54 27 190 141 228 191 12 17 46 56 75 88 44 48 51 61 43
77 -5 10 -10 30 -10 44 0 14 -7 29 -16 34 -14 8 -10 12 22 22 141 45 345 149
419 213 28 25 39 43 46 80 5 31 5 56 -1 67 -6 10 -10 29 -10 42 0 23 -49 60
-108 82 -22 8 -21 10 37 62 33 30 69 69 79 87 24 38 72 182 72 215 0 13 -17
41 -39 64 l-39 42 -123 -13 c-175 -18 -258 -35 -390 -80 -365 -122 -549 -125
-686 -10 -32 27 -78 64 -102 82 -111 80 -144 124 -186 240 -20 55 -21 64 -8
94 17 41 6 67 -36 81 -16 6 -34 19 -40 30 -15 28 -97 82 -124 82 -12 0 -38 -8
-57 -19z m91 -40 l20 -19 -24 -26 c-13 -14 -30 -26 -36 -26 -7 0 -10 -4 -6 -9
7 -12 -43 -67 -52 -58 -3 4 -1 7 5 7 7 0 12 5 12 11 0 8 -5 8 -15 -1 -8 -7
-15 -19 -15 -26 0 -18 -80 -16 -87 2 -2 7 -11 10 -19 7 -8 -3 -14 0 -14 6 0 7
10 15 23 20 12 5 21 12 19 17 -2 5 4 14 14 19 9 6 28 20 42 33 14 12 29 22 34
22 5 0 6 5 3 10 -3 6 1 10 9 10 9 0 16 5 16 10 0 17 50 11 71 -9z m117 -85
c12 -4 22 -13 22 -20 0 -22 -66 -106 -108 -137 -57 -42 -91 -37 -109 15 l-13
39 48 51 c26 28 57 65 67 83 l18 31 26 -27 c15 -16 36 -31 49 -35z m-278 -100
c38 -11 45 -17 48 -41 3 -25 2 -27 -12 -16 -9 8 -16 9 -16 3 0 -5 7 -12 15
-16 8 -3 15 -10 15 -17 0 -6 -6 -9 -14 -6 -8 3 -16 0 -19 -7 -6 -14 -77 -21
-77 -6 0 5 -7 10 -15 10 -8 0 -16 6 -16 13 -1 6 -3 23 -4 37 -2 14 -1 35 2 48
4 19 10 22 27 17 11 -4 41 -13 66 -19z m290 -44 c0 -26 63 -152 94 -189 15
-18 44 -42 64 -54 20 -13 70 -51 111 -85 113 -97 183 -123 326 -124 99 0 281
42 428 100 117 45 193 64 327 80 52 6 107 13 123 16 23 5 27 2 27 -18 0 -13 6
-33 14 -44 13 -19 6 -24 -140 -108 -188 -108 -392 -199 -432 -191 -20 4 -22 3
-8 -3 17 -8 18 -9 3 -15 -10 -4 -20 0 -26 11 -10 16 -10 16 -11 -1 0 -21 -45
-40 -77 -32 -15 3 -23 1 -24 -7 0 -9 -3 -8 -6 2 -12 28 -33 44 -46 31 -8 -8
-7 -11 6 -11 10 0 17 -8 17 -20 0 -19 -6 -21 -70 -19 -53 1 -70 5 -70 16 0 8
-5 11 -10 8 -6 -4 -8 -11 -5 -16 4 -5 -3 -9 -14 -9 -26 0 -27 18 -3 36 14 11
14 13 2 14 -9 0 -22 -9 -30 -20 -14 -20 -31 -27 -29 -12 3 19 -2 26 -11 12 -7
-11 -14 -12 -32 -3 -13 6 -43 19 -67 29 -24 10 -49 23 -55 29 -6 5 -29 20 -51
32 -22 11 -44 31 -50 42 -5 12 -15 19 -21 17 -6 -2 -28 11 -50 30 -21 18 -33
33 -26 34 6 0 12 7 12 16 0 13 -3 14 -14 5 -11 -9 -20 -3 -46 29 -17 22 -27
40 -21 40 6 0 11 5 11 11 0 6 -6 9 -13 6 -8 -3 -26 8 -41 24 -15 16 -23 29
-17 29 6 0 11 7 11 15 0 8 -4 15 -10 15 -5 0 -10 -5 -10 -12 0 -6 -6 -3 -14 8
-8 10 -10 21 -5 22 12 5 12 32 0 32 -5 0 -11 -6 -14 -12 -4 -15 -28 50 -29 84
-1 13 -5 28 -9 33 -10 14 -9 76 3 98 11 22 28 22 28 -1z m-43 -198 c32 -83
199 -312 278 -381 55 -49 178 -115 260 -139 84 -25 274 -23 495 6 221 28 313
23 447 -27 46 -17 58 -37 48 -81 -5 -25 -11 -28 -97 -45 -50 -10 -157 -40
-237 -68 -275 -95 -264 -93 -476 -93 -218 -1 -269 9 -398 76 -174 91 -293 248
-337 444 -39 177 -91 427 -88 429 2 2 19 9 38 17 l35 15 6 -51 c4 -28 15 -74
26 -102z m-137 130 c0 -3 -11 -19 -24 -34 -29 -35 -61 -178 -54 -247 7 -71 95
-358 134 -437 47 -93 82 -142 145 -201 93 -87 206 -154 322 -191 31 -10 57
-22 57 -27 0 -4 9 -5 20 -2 13 4 20 2 20 -6 0 -10 3 -10 11 -2 8 8 20 8 35 3
13 -5 31 -7 39 -4 8 4 15 2 15 -3 0 -6 21 -8 50 -5 32 3 50 1 50 -6 0 -7 10
-5 28 4 15 8 50 14 77 15 66 0 122 5 168 14 23 4 37 3 37 -3 0 -5 9 -12 21
-15 29 -8 22 -51 -8 -55 -13 -2 -23 1 -23 7 0 6 -5 11 -11 11 -6 0 -9 -6 -6
-13 4 -10 -14 -18 -61 -30 -135 -34 -201 -41 -372 -41 -147 0 -187 4 -251 22
-216 59 -367 187 -469 397 -90 185 -113 323 -86 515 10 63 21 132 27 152 5 21
10 63 10 93 1 50 4 56 33 74 30 19 66 27 66 15z m-114 -56 c-3 -13 -17 -95
-32 -183 -39 -234 -28 -372 43 -545 68 -168 194 -327 318 -402 73 -44 186 -83
286 -99 172 -27 544 14 650 71 20 10 29 4 29 -21 0 -27 -104 -144 -186 -209
-107 -85 -158 -102 -330 -108 -159 -5 -258 10 -373 56 -81 32 -222 125 -301
199 -170 157 -295 416 -307 638 -8 142 12 233 82 386 42 89 59 139 63 181 5
56 6 58 34 58 24 0 28 -3 24 -22z m143 -62 c6 -28 23 -111 37 -185 46 -253 87
-344 214 -472 71 -71 101 -94 180 -133 123 -60 213 -78 395 -79 165 0 250 16
405 75 137 53 208 75 300 92 41 8 83 18 92 21 11 4 20 -1 28 -15 9 -17 7 -24
-12 -41 -42 -36 -143 -88 -288 -149 -171 -72 -296 -98 -520 -107 -122 -4 -160
-2 -244 15 -111 23 -219 71 -310 136 -66 47 -156 137 -156 155 0 6 -5 11 -11
11 -6 0 -9 7 -5 15 3 8 0 14 -7 12 -7 -1 -11 6 -9 16 2 9 -2 17 -7 17 -6 0
-20 18 -31 40 -11 22 -16 40 -10 40 5 0 10 5 10 10 0 6 -5 9 -11 8 -13 -3 -52
100 -46 122 2 9 -2 21 -10 29 -11 10 -11 16 -2 27 8 10 8 14 0 14 -15 0 -14
27 2 34 10 5 10 7 0 12 -18 8 -16 24 3 24 14 0 14 3 4 15 -10 12 -9 15 6 16
11 0 14 3 9 5 -6 2 -9 34 -7 77 3 52 -2 90 -16 134 -11 34 -17 65 -14 68 9 9
17 -7 31 -59z m-43 -31 c5 -26 -9 -55 -28 -55 -5 0 -3 10 4 23 6 12 11 33 9
47 -4 33 8 20 15 -15z m14 -57 c-1 -17 -50 -53 -50 -37 0 15 29 49 42 49 4 0
8 -6 8 -12z m-19 -71 c-29 -30 -39 -12 -10 19 14 15 25 20 27 14 3 -7 -5 -21
-17 -33z m10 -36 c-6 -11 -11 -29 -11 -40 0 -12 -5 -21 -11 -21 -6 0 -9 9 -6
20 3 11 1 23 -5 26 -5 3 1 17 14 31 24 26 36 17 19 -16z m1707 -30 c-72 -75
-131 -151 -123 -159 3 -4 22 11 41 33 89 105 107 125 116 125 11 0 -16 -52
-56 -108 -39 -55 -175 -160 -185 -143 -4 6 -15 9 -24 5 -10 -3 -17 -1 -17 5 0
8 -6 7 -20 -1 -16 -11 -22 -9 -34 7 -12 16 -15 17 -16 4 0 -13 -13 -15 -72
-15 -40 1 -79 -3 -85 -8 -9 -6 -13 -3 -13 8 0 10 -5 14 -10 11 -6 -4 -8 -10
-5 -15 7 -11 -77 -24 -104 -15 -12 4 -21 2 -21 -4 0 -6 -12 -11 -27 -11 -45 0
-11 22 36 24 23 0 41 5 41 9 0 5 7 7 15 3 8 -3 15 -1 15 4 0 6 9 10 20 10 11
0 20 4 20 8 0 4 17 14 38 21 72 26 259 119 376 189 66 39 124 68 129 65 5 -3
-11 -26 -35 -52z"/>
<path d="M1497 467 c-37 -34 -67 -69 -67 -77 0 -8 34 19 75 60 41 41 75 76 75
77 0 12 -26 -6 -83 -60z"/>
</g>
</svg>
