<?xml version="1.0" standalone="no"?>
<!DOCTYPE svg PUBLIC "-//W3C//DTD SVG 20010904//EN"
 "http://www.w3.org/TR/2001/REC-SVG-20010904/DTD/svg10.dtd">
<svg version="1.0" xmlns="http://www.w3.org/2000/svg"
 width="300.000000pt" height="421.000000pt" viewBox="0 0 300.000000 421.000000"
 preserveAspectRatio="xMidYMid meet">
<metadata>
Created by potrace 1.10, written by Peter Selinger 2001-2011
</metadata>
<g transform="translate(0.000000,421.000000) scale(0.100000,-0.100000)"
fill="#000000" stroke="none">
<path d="M1970 4180 c-124 -22 -341 -57 -465 -75 -16 -2 -86 -13 -155 -25 -69
-11 -154 -25 -190 -30 -36 -6 -101 -16 -145 -24 -44 -8 -105 -17 -135 -21 -30
-3 -62 -8 -70 -10 -8 -2 -33 -7 -55 -10 -22 -2 -51 -7 -65 -10 -31 -7 -191
-33 -245 -40 -22 -3 -47 -7 -55 -8 -8 -2 -37 -7 -65 -11 -80 -12 -88 -14 -125
-21 -19 -3 -46 -7 -60 -9 -14 -2 -46 -7 -73 -11 l-47 -7 0 -40 c0 -35 2 -39
15 -28 8 7 15 21 15 32 0 10 4 17 9 14 5 -3 22 -2 37 4 16 5 54 11 84 15 30 3
76 9 102 14 31 5 51 4 58 -3 8 -8 11 -7 8 3 -2 9 6 15 22 16 14 1 54 7 90 13
36 7 76 14 90 16 14 2 33 7 43 11 10 5 17 3 17 -5 0 -9 4 -9 13 -2 7 6 30 13
52 16 22 3 51 7 65 10 14 2 44 7 67 10 23 4 57 9 75 12 18 3 44 7 58 8 14 2
54 9 90 16 36 6 81 14 100 15 19 2 49 7 65 10 67 12 82 15 130 21 28 3 53 8
57 10 3 2 32 7 62 9 31 3 67 10 81 15 18 7 25 6 25 -3 0 -9 2 -9 8 1 8 11 69
21 152 26 14 0 27 4 30 7 5 6 71 18 135 24 17 2 30 4 30 5 0 1 11 3 25 4 14 2
49 6 78 10 41 5 52 3 52 -8 0 -8 -6 -17 -12 -19 -7 -3 -4 -6 7 -6 17 -1 21 6
22 39 1 22 1 40 0 39 -1 0 -49 -9 -107 -19z"/>
<path d="M2100 4181 c0 -13 41 -41 51 -36 4 3 9 -2 13 -10 3 -9 12 -12 22 -8
10 3 15 2 12 -3 -4 -5 6 -10 20 -11 15 0 28 -6 30 -12 2 -5 9 -8 16 -5 8 3 20
-2 29 -10 8 -8 17 -12 21 -9 3 4 6 1 6 -6 0 -7 4 -10 10 -6 8 5 45 -10 60 -25
3 -3 16 -6 30 -8 13 -1 28 -8 32 -15 4 -6 8 -8 8 -3 0 5 10 1 22 -10 13 -12
18 -13 13 -4 -8 13 -7 13 8 1 9 -7 17 -10 17 -6 0 5 9 0 21 -11 12 -10 24 -18
28 -16 6 2 7 -2 10 -32 0 -8 8 -17 17 -20 12 -5 15 1 12 35 -3 40 -4 41 -73
69 -38 15 -149 60 -246 99 -96 39 -178 71 -182 71 -4 0 -7 -4 -7 -9z"/>
<path d="M2019 4126 c-2 -2 -22 -7 -43 -10 -54 -9 -58 -16 -8 -14 23 1 47 7
53 15 10 12 9 19 -2 9z"/>
<path d="M2021 4084 c-30 -8 -56 -16 -58 -18 -2 -2 8 -11 23 -21 15 -9 24 -13
20 -7 -3 5 1 13 10 16 28 11 40 7 41 -14 1 -11 -4 -20 -10 -20 -8 0 -8 -3 -2
-8 16 -11 15 -44 -1 -38 -8 3 -14 1 -14 -4 0 -6 7 -10 15 -10 8 0 15 -7 15
-17 0 -9 3 -14 6 -11 3 4 6 33 6 65 1 32 5 68 9 81 10 25 11 25 -60 6z"/>
<path d="M2109 4068 c4 -13 8 -80 7 -150 -1 -90 2 -128 10 -128 14 0 351 -111
423 -140 28 -11 54 -20 56 -20 3 0 5 61 5 135 0 123 -2 135 -18 135 -10 0 -26
6 -37 14 -11 7 -58 26 -105 41 -47 15 -103 37 -125 48 -44 22 -206 87 -217 87
-4 0 -4 -10 1 -22z m80 -43 c12 -12 12 -15 2 -15 -8 0 -11 -7 -8 -20 3 -11 1
-20 -5 -20 -5 0 -2 -7 7 -16 9 -10 14 -25 12 -35 -6 -23 5 -31 71 -54 31 -12
52 -25 53 -34 0 -11 2 -12 6 -3 8 20 23 14 23 -9 0 -17 -5 -20 -22 -16 -13 3
-34 8 -48 11 -14 4 -5 -3 20 -14 66 -29 75 -35 78 -54 3 -14 0 -15 -22 -5 -14
7 -23 16 -19 22 3 6 1 7 -5 3 -18 -11 -62 5 -62 23 0 11 -3 12 -8 4 -4 -7 -17
-10 -29 -7 -18 5 -22 13 -21 45 0 45 -9 61 -22 39 -5 -9 -5 -19 2 -27 7 -9 7
-13 -1 -13 -7 0 -9 -4 -6 -10 7 -12 -24 -13 -41 -2 -15 9 -14 95 0 104 8 6 8
8 0 8 -8 0 -12 22 -13 59 0 56 1 60 21 56 12 -3 29 -11 37 -20z m54 -28 c8 7
87 -26 87 -37 0 -4 10 -6 22 -6 15 1 24 -6 26 -19 7 -42 11 -48 27 -35 7 6 11
18 9 25 -5 11 2 11 40 0 25 -8 46 -11 46 -7 0 4 4 3 8 -3 4 -5 20 -17 36 -25
21 -11 30 -23 30 -42 1 -16 -3 -28 -9 -28 -6 0 -6 -3 1 -8 11 -7 15 -132 4
-132 -50 3 -196 60 -173 67 10 4 8 29 -4 63 -4 8 -5 19 -4 23 1 5 -3 5 -10 2
-6 -4 -8 -18 -5 -31 4 -15 2 -24 -5 -24 -7 0 -10 12 -7 31 4 25 1 32 -18 39
-12 5 -25 13 -28 19 -4 5 -15 8 -26 6 -11 -2 -20 0 -20 6 0 5 -3 8 -7 7 -19
-5 -53 15 -52 30 0 11 2 12 6 4 2 -6 9 -10 14 -6 5 3 9 0 9 -5 0 -6 6 -11 14
-11 8 0 27 -5 43 -12 31 -12 36 -14 73 -23 l25 -7 -24 20 c-13 10 -48 27 -77
36 -30 9 -54 21 -54 26 0 5 -7 7 -15 4 -12 -5 -15 3 -15 37 1 39 2 42 14 27 7
-10 16 -15 19 -11z"/>
<path d="M2426 3894 c-41 -40 -4 -174 49 -174 32 0 47 29 43 83 l-3 42 -30
-52 c-16 -29 -33 -53 -36 -53 -8 0 -23 60 -21 85 4 41 13 66 22 60 6 -4 8 -11
5 -16 -4 -5 -1 -9 5 -9 7 0 10 -6 7 -12 -2 -7 -10 -12 -16 -10 -16 3 -14 -15
3 -21 8 -3 24 6 37 20 l24 25 -28 24 c-33 28 -40 29 -61 8z"/>
<path d="M1827 4070 c-48 -9 -84 -35 -122 -89 -25 -36 -30 -51 -30 -106 0 -49
5 -70 21 -92 97 -134 317 -27 311 151 -4 103 -73 155 -180 136z m64 -30 c27
-15 24 -32 -11 -52 -29 -17 -30 -17 -36 7 -3 13 -13 27 -22 30 -15 6 -15 8 3
15 28 12 43 12 66 0z m-93 -46 c-5 -28 -28 -29 -28 -1 0 13 3 27 7 31 10 10
25 -10 21 -30z m161 -2 c-8 -11 -36 -48 -63 -83 -26 -35 -59 -85 -72 -111 -13
-27 -28 -48 -33 -48 -5 0 -19 17 -31 38 -12 20 -28 41 -36 45 -8 4 -14 12 -14
17 0 15 34 12 56 -5 27 -20 28 -20 56 23 35 52 122 142 137 142 11 0 11 -3 0
-18z m-132 -50 c-3 -50 -12 -72 -28 -72 -14 0 -11 22 8 42 16 18 16 18 0 12
-23 -8 -23 23 0 48 9 10 18 18 19 18 2 0 2 -22 1 -48z m-59 16 c18 -18 15 -38
-5 -38 -17 -1 -17 -1 0 -14 9 -7 17 -19 17 -25 0 -7 -8 -11 -17 -9 -14 2 -18
14 -19 51 -2 48 3 56 24 35z m216 -35 c5 -11 1 -22 -9 -29 -12 -9 -13 -13 -3
-17 9 -3 8 -9 -7 -21 -15 -11 -16 -15 -5 -16 9 0 5 -6 -10 -17 -14 -9 -28 -21
-31 -26 -3 -4 -18 -15 -32 -22 -23 -12 -27 -12 -27 1 0 21 55 115 63 107 4 -3
7 1 7 10 0 16 26 47 40 47 4 0 11 -8 14 -17z"/>
<path d="M1640 4030 c-19 -4 -66 -12 -105 -19 -38 -6 -126 -21 -195 -32 -69
-12 -154 -25 -190 -29 -36 -4 -126 -17 -200 -29 -74 -12 -162 -26 -195 -31
-33 -5 -89 -15 -125 -21 -36 -6 -74 -12 -85 -13 -11 -2 -49 -8 -85 -15 -63
-11 -297 -46 -392 -58 l-48 -6 0 -129 c0 -130 0 -130 22 -125 13 3 66 11 118
17 95 10 181 22 295 40 33 5 103 14 155 20 52 6 113 15 135 20 22 4 101 16
175 24 74 9 180 23 235 31 55 8 163 21 240 30 77 9 172 21 210 27 39 5 76 10
82 11 10 0 10 4 1 14 -7 9 -21 12 -37 8 -24 -6 -56 -11 -118 -19 -13 -2 -23 1
-23 7 0 5 -7 4 -15 -3 -13 -11 -14 -10 -9 5 6 15 4 16 -13 7 -11 -6 -22 -10
-24 -8 -2 2 -19 6 -38 10 l-34 6 23 -20 23 -20 -29 -1 c-16 0 -38 -2 -49 -5
-20 -3 -56 -5 -85 -3 -8 0 -26 -2 -40 -6 -60 -15 -100 -18 -100 -5 0 6 8 14
18 17 10 2 18 13 19 23 3 32 -14 32 -27 1 -6 -16 -19 -32 -28 -36 -14 -5 -14
-7 -2 -15 11 -7 7 -10 -16 -10 -44 0 -60 43 -28 74 23 24 43 20 36 -6 -3 -14
-2 -19 6 -14 7 4 12 13 12 19 0 7 10 18 21 26 18 11 23 11 30 0 6 -11 11 -11
21 -1 19 19 40 15 33 -7 -3 -11 -1 -22 5 -26 6 -4 10 5 10 20 0 20 4 26 15 21
8 -3 15 -1 15 5 0 6 6 9 14 6 21 -8 33 10 28 43 -5 36 -22 40 -22 5 0 -14 -4
-25 -10 -25 -5 0 -10 12 -10 26 0 16 -5 24 -12 21 -7 -2 -12 -10 -10 -17 2 -7
0 -20 -3 -28 -4 -11 -8 -12 -19 -3 -8 7 -16 8 -18 3 -1 -5 -13 -13 -25 -16
-21 -7 -23 -4 -23 27 0 27 5 36 22 40 14 4 26 0 34 -11 12 -16 13 -16 14 0 0
16 9 19 93 34 37 6 55 -10 20 -19 -14 -4 -12 -5 5 -6 13 -1 22 5 22 13 0 13
20 26 41 26 17 0 9 -18 -11 -23 -15 -4 -18 -10 -13 -24 7 -17 8 -17 11 0 2 9
10 17 18 17 8 0 14 6 14 14 0 17 35 31 51 21 6 -4 9 -16 6 -26 -8 -31 10 -22
22 11 13 39 27 38 45 -2 l14 -33 1 38 c1 27 5 37 17 37 12 0 15 -7 12 -25 -4
-19 -1 -25 13 -25 11 0 19 -4 19 -10 0 -5 -9 -10 -19 -10 -33 0 -53 -29 -49
-72 2 -26 0 -38 -9 -38 -7 0 -13 7 -13 15 0 13 -2 14 -14 3 -12 -11 -10 -14
10 -21 32 -11 62 -1 46 15 -16 16 -15 40 1 63 12 16 18 17 48 7 27 -10 31 -9
18 1 -14 10 -14 14 -3 25 8 7 14 23 13 35 0 12 -3 16 -6 10 -2 -7 -9 -13 -14
-13 -6 0 -7 5 -4 10 3 6 1 10 -6 10 -6 0 -17 6 -23 14 -12 16 -86 31 -86 18 0
-5 -30 -9 -66 -9 -82 -1 -71 13 16 20 36 3 99 12 140 20 41 8 78 13 81 11 4
-2 14 5 24 16 18 19 17 20 -6 19 -13 -1 -40 -4 -59 -9z m-270 -82 c0 -4 -6 -8
-12 -9 -7 0 -23 -2 -35 -5 -13 -2 -23 0 -23 5 0 5 10 11 23 13 37 6 47 5 47
-4z m-134 -30 c5 -7 2 -9 -8 -5 -21 8 -85 -16 -101 -37 -11 -15 -16 -16 -28
-5 -17 16 -81 21 -90 7 -4 -7 -13 -7 -24 -1 -10 6 -35 7 -62 2 -24 -5 -65 -11
-90 -15 -31 -4 -54 -14 -69 -31 -28 -30 -27 -28 -12 -56 24 -45 35 -48 146
-31 36 6 42 4 42 -11 0 -10 8 -24 18 -31 11 -9 13 -13 4 -14 -7 0 -10 -4 -7
-10 5 -8 -52 -15 -112 -13 -7 1 -13 -2 -13 -6 0 -4 -24 -8 -54 -9 -30 0 -64
-5 -75 -11 -26 -14 -52 -15 -31 -1 8 5 11 10 6 10 -5 0 -3 7 4 15 10 12 10 15
-3 15 -8 0 -17 -9 -20 -21 -3 -12 -10 -18 -16 -15 -12 8 -3 35 17 55 11 11 11
15 0 22 -10 7 -10 9 2 9 12 0 13 2 1 9 -7 5 -14 30 -16 58 l-3 49 97 17 c53 9
112 19 131 21 62 7 135 17 165 22 17 3 62 9 100 13 39 4 75 9 82 10 6 0 15 -4
19 -11z m-146 -68 c0 -12 7 -20 16 -20 23 0 11 -24 -14 -28 -19 -3 -22 1 -22
32 0 20 5 36 10 36 6 0 10 -9 10 -20z m-103 -7 c-1 -10 -6 -23 -9 -29 -4 -6
-1 -11 7 -11 8 0 19 13 24 29 12 35 28 36 41 2 13 -33 13 -35 -2 -33 -24 3
-41 -1 -35 -8 4 -3 -3 -11 -16 -17 -12 -6 -23 -22 -25 -34 -4 -26 10 -29 29
-5 10 11 10 14 2 9 -7 -4 -13 -3 -13 3 0 9 39 27 44 19 1 -1 -1 -21 -5 -43 -3
-22 -7 -34 -8 -27 0 8 -9 10 -24 7 -15 -4 -28 0 -37 10 -12 15 -12 21 1 44 15
26 15 26 -16 25 -18 -1 -37 -4 -43 -8 -8 -5 -12 4 -12 27 0 37 26 59 42 35 5
-9 8 -9 8 -1 0 6 10 14 23 16 12 2 23 5 24 6 2 0 2 -7 0 -16z m-107 -13 c0 -5
-7 -10 -16 -10 -14 0 -14 -1 0 -16 21 -21 20 -34 -3 -34 -10 0 -32 -3 -49 -6
-25 -5 -31 -2 -37 15 -9 29 9 49 48 54 18 2 38 5 45 5 6 1 12 -2 12 -8z m-250
-24 c0 -12 -47 -26 -93 -26 -27 0 -11 18 26 29 47 14 67 13 67 -3z m-180 -30
c0 -13 7 -26 15 -30 11 -4 15 2 15 24 0 20 5 30 15 30 12 0 15 -16 15 -84 l0
-83 -32 -7 c-25 -5 -36 -2 -45 11 -17 22 -21 113 -8 151 8 21 25 13 25 -12z
m-42 -12 c-4 -3 -52 -13 -107 -21 l-100 -16 -3 -70 c-4 -89 -20 -97 -52 -25
l-24 53 -4 -55 c-2 -39 -7 -55 -17 -55 -19 0 -19 154 0 166 18 11 26 4 48 -46
11 -25 23 -45 26 -45 3 0 3 22 -1 49 l-6 50 33 6 c164 30 230 33 207 9z m212
-13 c17 -33 12 -51 -14 -51 -31 0 -56 -10 -56 -21 0 -13 34 -11 47 2 20 20 34
6 18 -19 -23 -31 -72 -30 -86 2 -13 28 -6 68 17 90 21 22 61 20 74 -3z m-220
-26 c13 -16 9 -18 -27 -15 -13 1 -23 -3 -23 -9 0 -6 8 -11 18 -11 23 0 42 -19
42 -42 0 -38 -81 -51 -88 -15 -3 16 1 18 27 12 20 -4 31 -3 31 4 0 6 -6 11
-13 11 -7 0 -21 6 -31 13 -22 16 -14 53 12 60 31 8 39 7 52 -8z m-94 -31 c7
-29 -7 -44 -43 -44 -24 0 -31 -14 -12 -25 5 -4 18 0 28 9 22 20 31 20 31 1 0
-25 -45 -48 -69 -36 -53 29 -30 121 30 121 22 0 30 -6 35 -26z"/>
<path d="M454 3716 c-8 -22 -1 -59 14 -64 8 -2 12 9 12 37 0 40 -15 55 -26 27z"/>
<path d="M247 3693 c-13 -12 -7 -23 13 -23 11 0 20 7 20 15 0 15 -21 21 -33 8z"/>
<path d="M2330 4032 c0 -10 69 -36 77 -29 2 3 -5 8 -16 12 -12 3 -21 11 -21
16 0 5 -9 9 -20 9 -11 0 -20 -4 -20 -8z"/>
<path d="M2060 3907 c0 -9 -6 -17 -14 -17 -8 0 -17 -12 -21 -27 -3 -15 -16
-40 -27 -56 l-22 -30 44 7 c24 4 47 9 52 12 8 5 3 112 -7 122 -3 3 -5 -2 -5
-11z m-10 -87 c0 -11 -7 -20 -15 -20 -15 0 -21 21 -8 33 12 13 23 7 23 -13z"/>
<path d="M1440 3866 c0 -8 -8 -15 -17 -15 -16 0 -48 -6 -63 -11 -3 -1 -14 -1
-24 0 -14 1 -18 -3 -13 -19 3 -12 1 -21 -4 -21 -5 0 -9 -12 -9 -27 1 -27 1
-27 16 -8 8 11 13 28 10 38 -2 10 2 17 11 17 12 0 14 -7 8 -27 -6 -27 -6 -27
14 -9 22 20 28 32 11 21 -5 -3 -10 -2 -10 3 0 11 49 26 58 18 3 -3 -2 -14 -12
-25 -15 -17 -15 -19 -1 -25 9 -3 13 -2 10 4 -7 11 38 60 55 60 6 0 8 -10 4
-25 -4 -15 -2 -25 5 -25 6 0 11 8 11 19 0 10 12 27 27 36 22 15 24 19 10 27
-11 5 -23 4 -37 -4 -16 -10 -24 -10 -40 0 -17 10 -20 10 -20 -2z"/>
<path d="M1420 3680 c-18 -6 -11 -8 24 -4 27 2 52 6 54 9 8 8 -50 4 -78 -5z"/>
<path d="M2575 3560 c0 -32 3 -56 7 -54 4 3 6 -5 5 -16 -1 -11 -4 -20 -7 -20
-7 0 -4 -155 3 -174 3 -8 1 -17 -6 -20 -8 -3 -9 -7 -2 -13 12 -9 11 -58 -1
-112 -5 -25 -4 -32 4 -27 9 5 9 0 2 -18 -5 -14 -7 -26 -4 -26 4 0 1 -6 -5 -14
-9 -10 -9 -16 -1 -21 6 -4 11 -30 10 -58 0 -29 0 -60 0 -69 0 -10 -1 -24 -2
-30 0 -7 2 -24 7 -38 7 -23 7 -24 -11 -10 -17 13 -18 13 -7 0 7 -9 10 -53 9
-117 -1 -57 2 -103 7 -103 4 0 5 -6 0 -12 -11 -19 -10 -198 2 -198 7 0 7 -3 0
-8 -5 -4 -17 -16 -25 -27 -14 -19 -14 -19 3 -6 15 12 17 11 18 -5 1 -11 1 -23
0 -28 -6 -32 -6 -125 0 -148 4 -14 5 -29 1 -32 -3 -3 -4 -81 -3 -173 3 -229 2
-304 -6 -316 -3 -5 1 -13 8 -18 10 -6 10 -9 2 -9 -9 0 -11 -11 -7 -36 4 -28 3
-34 -8 -28 -10 6 -11 5 -2 -7 16 -19 15 -211 0 -202 -8 5 -8 3 0 -8 7 -9 10
-62 8 -149 -2 -74 -3 -139 -3 -145 0 -5 1 -187 3 -403 3 -392 3 -394 -18 -408
-12 -7 -33 -15 -46 -16 -14 -2 -31 -9 -39 -16 -8 -8 -22 -11 -33 -9 -10 3 -16
1 -12 -4 3 -5 0 -9 -7 -9 -6 0 -53 -20 -103 -43 -117 -56 -192 -77 -183 -53 3
8 0 19 -6 25 -7 7 -7 11 -1 11 6 0 9 17 7 37 -1 20 3 43 9 50 9 11 8 13 -2 11
-10 -2 -13 7 -11 35 1 20 -1 37 -6 37 -4 0 -8 -57 -9 -126 -1 -96 -4 -128 -15
-135 -9 -5 -15 -4 -17 5 -2 8 -12 11 -29 8 -15 -3 -29 1 -34 9 -6 10 -9 10 -9
2 0 -7 -7 -13 -16 -13 -8 0 -13 4 -10 8 3 5 -9 10 -27 11 -84 4 -103 7 -114
14 -7 5 -13 5 -13 0 0 -4 -5 -1 -10 7 -7 11 -10 11 -10 2 0 -8 -5 -10 -12 -5
-7 4 -24 8 -38 9 -14 0 -47 4 -75 9 -27 4 -59 9 -70 10 -11 1 -21 4 -22 5 -2
1 -15 4 -30 5 -16 1 -39 6 -53 9 -14 4 -43 9 -65 11 -22 2 -53 6 -70 9 -16 3
-51 8 -77 11 -26 3 -58 9 -72 14 -13 6 -26 8 -29 5 -4 -5 -133 15 -247 38 -30
6 -71 12 -90 13 -19 2 -62 8 -95 15 -33 6 -76 13 -95 16 -19 2 -73 11 -120 18
-47 8 -137 22 -200 32 -63 9 -117 20 -120 23 -3 3 -18 6 -35 7 -56 2 -130 15
-140 25 -13 13 -14 2044 -1 2044 5 0 16 -20 25 -45 31 -86 61 -114 139 -126
21 -3 40 -8 45 -11 4 -2 7 0 7 4 0 5 11 10 26 11 14 1 33 6 44 12 27 15 107
15 125 0 15 -13 15 -12 15 27 0 11 -122 2 -187 -14 -76 -19 -102 -13 -152 32
-50 45 -72 115 -73 228 -1 99 18 166 63 220 35 43 104 68 155 57 23 -5 45 -1
79 13 34 15 52 18 63 10 22 -13 34 -61 27 -102 -5 -28 -4 -33 10 -27 9 3 25 6
36 6 10 0 19 5 19 11 0 6 -8 8 -19 4 -19 -6 -22 -1 -35 71 -3 12 -10 31 -17
41 -10 17 -17 19 -53 11 -23 -5 -77 -13 -121 -18 -120 -13 -161 -36 -186 -103
-7 -20 -17 -37 -22 -37 -5 0 -7 -9 -4 -20 6 -22 -8 -28 -16 -7 -7 19 -2 801 6
814 7 12 -17 26 -27 16 -7 -7 -8 -3143 -1 -3143 4 0 67 -10 445 -71 102 -16
241 -38 310 -49 306 -49 572 -91 785 -125 127 -20 297 -47 379 -61 l149 -24
203 85 c111 46 227 94 258 105 l56 21 0 1688 c0 1599 -1 1687 -17 1688 -15 1
-18 -8 -18 -57z"/>
<path d="M1282 3195 c0 -27 4 -63 8 -80 6 -26 8 -23 8 20 0 28 -4 64 -8 80 -6
26 -8 23 -8 -20z"/>
<path d="M1533 3170 c-72 -58 -122 -104 -118 -108 2 -3 35 21 72 54 38 32 70
59 72 61 2 2 2 5 0 7 -2 2 -14 -4 -26 -14z"/>
<path d="M1380 3156 c-5 -15 -15 -36 -20 -47 -6 -10 -7 -19 -2 -19 10 0 44 81
37 88 -2 3 -9 -7 -15 -22z"/>
<path d="M1190 3152 c0 -18 33 -82 42 -82 5 0 -1 19 -13 43 -25 49 -29 54 -29
39z"/>
<path d="M1080 3072 c0 -7 92 -62 104 -62 21 0 -2 20 -49 43 -30 15 -55 23
-55 19z"/>
<path d="M1566 3048 c-16 -22 -15 -24 3 -39 16 -13 17 -17 4 -25 -9 -5 -12
-16 -8 -26 8 -20 23 -23 45 -7 12 8 10 9 -7 4 -28 -8 -40 13 -17 29 17 13 16
14 -4 25 -12 7 -19 17 -16 26 8 21 45 30 56 14 8 -11 9 -11 5 1 -6 25 -43 24
-61 -2z"/>
<path d="M1685 3030 c-14 -16 -20 -17 -27 -8 -6 10 -8 9 -8 -2 0 -13 -1 -13
-11 0 -8 12 -9 9 -5 -12 4 -16 1 -28 -6 -30 -7 -3 -6 -7 5 -11 12 -4 17 -1 17
11 0 9 15 27 33 40 30 21 33 21 45 5 17 -24 15 -41 -5 -46 -17 -4 -17 -5 0 -6
23 -1 30 19 18 52 -12 32 -31 34 -56 7z"/>
<path d="M1258 3008 c-23 -19 -30 -48 -13 -48 8 0 15 6 15 14 0 8 7 22 16 30
18 19 5 21 -18 4z"/>
<path d="M1340 3013 c-32 -13 -63 -51 -55 -70 6 -17 8 -16 16 5 6 17 15 22 38
20 29 -2 29 -3 15 -30 -18 -34 -18 -33 11 -34 14 -1 25 2 25 7 0 5 -4 9 -10 9
-5 0 -10 5 -10 11 0 5 4 8 9 5 5 -3 11 1 15 9 3 8 1 15 -4 15 -5 0 -10 12 -12
27 -3 28 -14 35 -38 26z"/>
<path d="M1434 2986 c9 -28 -11 -90 -37 -114 -53 -50 -139 -46 -179 8 -27 37
-39 37 -75 4 l-28 -26 40 22 c30 17 40 19 44 9 2 -8 17 -27 33 -42 15 -16 28
-30 28 -33 0 -2 -14 -2 -30 0 -17 2 -32 0 -35 -3 -2 -4 -21 -8 -42 -9 -51 -4
-71 -7 -78 -14 -3 -3 -19 -4 -35 -2 -17 2 -30 -1 -30 -6 0 -13 46 -24 67 -15
29 11 124 27 183 30 30 1 70 6 88 10 26 6 32 4 32 -9 0 -28 26 -29 68 -1 38
25 153 52 173 40 20 -13 120 -6 152 10 21 11 53 17 92 16 52 -1 63 -5 82 -29
27 -32 30 -82 7 -121 -16 -27 -15 -29 15 -71 51 -70 40 -168 -24 -219 -63 -49
-159 -51 -214 -5 l-30 25 -21 -21 c-32 -32 -69 -42 -150 -39 -76 3 -195 -9
-186 -18 3 -3 60 -5 126 -4 115 1 177 10 209 30 9 6 34 2 70 -11 40 -14 69
-18 101 -13 25 3 53 7 63 8 9 1 17 5 17 9 0 5 16 16 35 25 30 14 40 25 33 36
-1 1 5 13 12 27 16 29 21 120 7 120 -5 0 -7 13 -5 29 2 17 2 30 -1 29 -23 -2
-27 7 -24 55 1 28 4 58 5 64 3 21 -25 93 -33 87 -5 -3 -9 0 -9 5 0 6 -7 11
-16 11 -8 0 -13 3 -10 8 5 9 -145 -1 -161 -11 -17 -11 -153 -16 -153 -6 0 4
-12 4 -27 0 -16 -4 -38 -7 -50 -6 -13 1 -23 -2 -23 -7 0 -5 -4 -7 -9 -3 -5 3
-16 -2 -25 -10 -13 -14 -16 -13 -26 5 -6 11 -16 20 -22 20 -6 0 -3 -9 7 -20
17 -19 17 -20 -9 -31 -20 -9 -29 -10 -38 -1 -8 8 -3 20 19 46 35 39 51 105 33
133 -11 17 -11 17 -6 -1z"/>
<path d="M1687 2938 c-5 -19 -8 -20 -23 -7 -15 12 -17 12 -12 -1 7 -23 35 -24
47 -1 6 11 7 22 2 25 -5 3 -11 -4 -14 -16z"/>
<path d="M1239 2920 c-8 -21 1 -50 15 -50 7 0 13 7 13 15 0 8 -4 15 -8 15 -4
0 -9 8 -11 18 -3 14 -5 14 -9 2z"/>
<path d="M1460 2921 c0 -4 17 -13 38 -20 20 -8 43 -16 50 -18 6 -3 12 -1 12 4
0 5 -22 16 -50 25 -27 9 -50 13 -50 9z"/>
<path d="M1810 2823 c-28 -10 -59 -45 -65 -74 -10 -46 11 -93 58 -126 67 -49
97 -83 97 -113 0 -74 -103 -82 -128 -10 -16 44 -32 37 -32 -14 0 -56 17 -70
85 -70 83 0 145 57 145 134 0 42 -16 63 -95 126 -84 66 -85 69 -57 104 27 33
69 21 88 -27 11 -25 19 -32 26 -25 16 16 0 80 -22 92 -20 11 -75 12 -100 3z"/>
<path d="M371 2803 c-26 -11 -31 -17 -21 -23 10 -6 15 -38 17 -117 1 -59 5
-154 7 -210 5 -96 4 -102 -17 -117 -21 -15 -17 -15 48 -9 76 6 90 11 59 19
-19 5 -22 16 -27 132 -7 139 2 172 47 172 42 0 47 -19 44 -164 l-3 -136 55 0
c38 0 50 3 40 10 -11 7 -17 44 -25 156 -10 143 -11 148 -37 167 -24 18 -32 19
-67 8 -22 -6 -46 -20 -53 -30 -11 -16 -13 -5 -13 67 0 49 -4 86 -10 88 -5 1
-25 -4 -44 -13z"/>
<path d="M1535 2796 c-95 -30 -136 -86 -137 -190 -2 -111 35 -172 120 -197 79
-23 167 24 203 109 48 111 -4 255 -100 282 -42 12 -36 12 -86 -4z m-28 -56 c1
-11 -2 -21 -8 -21 -5 -1 -15 -2 -21 -3 -7 -1 -12 -9 -10 -19 2 -9 -2 -17 -8
-17 -5 0 -10 11 -10 25 0 22 9 30 26 23 3 -2 10 5 15 15 13 22 14 21 16 -3z
m159 -5 l23 -25 -23 0 c-25 0 -50 22 -39 34 4 4 0 4 -10 0 -10 -3 -17 -1 -17
5 0 20 42 11 66 -14z m-47 -46 c58 -63 22 -189 -54 -189 -18 0 -43 8 -55 18
-23 19 -37 83 -26 126 15 62 95 88 135 45z m76 2 c-3 -5 -1 -12 3 -15 15 -9
14 -96 -2 -102 -8 -3 -16 -15 -20 -27 -5 -21 -5 -21 9 -3 14 18 15 18 15 2 0
-9 -5 -27 -11 -38 -9 -17 -13 -18 -21 -7 -7 10 -7 8 -3 -8 5 -18 1 -25 -18
-32 -14 -6 -27 -14 -30 -18 -8 -13 -65 -15 -72 -3 -3 5 1 10 10 10 8 0 18 7
22 16 3 8 12 13 19 10 8 -3 14 0 14 6 0 6 6 5 17 -3 15 -12 16 -12 10 4 -3 9
-2 17 4 17 6 0 8 4 5 8 -3 5 6 27 20 51 24 43 29 75 18 105 -3 9 -10 13 -15
10 -5 -3 -9 -1 -9 5 0 5 6 12 13 14 20 9 29 8 22 -2z m-229 -159 c-3 -3 1 -14
11 -24 9 -11 11 -18 5 -18 -7 0 -12 4 -12 10 0 5 -7 7 -15 4 -14 -6 -15 5 -6
44 1 2 6 0 12 -3 6 -4 8 -10 5 -13z m56 -60 c16 -7 16 -8 -3 -21 -19 -11 -21
-11 -16 2 4 10 0 13 -13 10 -10 -3 -21 0 -24 6 -8 12 28 14 56 3z"/>
<path d="M910 2786 c0 -8 -9 -18 -20 -21 -11 -3 -20 -10 -20 -14 0 -9 -50 -9
-65 1 -21 13 -107 21 -114 10 -4 -7 -16 -13 -26 -15 -11 -1 -27 -7 -35 -12
-15 -9 -34 -15 -57 -17 -18 -2 -16 -6 8 -18 17 -9 29 -6 69 20 63 40 89 43
141 14 52 -30 60 -30 89 1 13 14 28 25 34 25 6 0 18 5 26 10 13 9 13 11 0 20
-21 14 -30 12 -30 -4z"/>
<path d="M182 2770 c-22 -14 -42 -40 -60 -78 -23 -48 -27 -70 -26 -142 1 -112
17 -166 62 -208 33 -32 39 -34 91 -30 46 4 59 10 83 37 28 31 37 61 18 61 -5
0 -14 -9 -20 -19 -14 -27 -70 -44 -102 -32 -41 16 -53 61 -53 208 0 118 2 134
21 160 15 19 30 28 50 28 24 0 32 -7 49 -42 11 -24 23 -43 27 -43 17 0 8 87
-10 103 -25 23 -90 21 -130 -3z"/>
<path d="M1313 2767 c-41 -15 -51 -26 -34 -36 10 -6 15 -49 19 -164 5 -153 5
-155 -17 -162 -38 -12 -14 -18 57 -16 70 2 104 17 64 27 -16 5 -22 14 -23 38
-10 248 -16 320 -24 322 -5 1 -24 -3 -42 -9z"/>
<path d="M1197 2743 c-26 -27 -27 -27 -27 -5 0 18 -3 20 -22 12 -13 -5 -36
-12 -53 -15 -26 -6 -28 -8 -13 -19 20 -15 26 -52 29 -195 2 -97 0 -115 -14
-126 -9 -7 -17 -15 -17 -18 0 -6 132 3 139 9 3 3 -4 10 -14 18 -17 12 -20 31
-23 143 -4 110 -2 132 12 146 9 9 23 14 31 11 13 -6 35 30 35 57 0 19 -36 8
-63 -18z m-51 -281 c-8 -9 -18 -13 -22 -9 -3 3 1 13 10 22 9 9 17 22 17 28 1
7 3 4 6 -7 3 -10 -2 -25 -11 -34z"/>
<path d="M919 2727 c-44 -30 -61 -80 -62 -182 -1 -82 8 -111 46 -152 55 -61
153 -26 181 65 6 16 3 22 -9 22 -8 0 -18 -8 -22 -17 -12 -34 -36 -53 -68 -53
-36 0 -49 20 -59 96 l-6 41 77 7 c42 3 79 8 82 11 8 8 2 76 -10 112 -13 40
-53 73 -89 73 -15 0 -42 -10 -61 -23z m88 -19 c-1 -7 2 -33 7 -57 10 -52 -6
-71 -61 -71 -30 0 -33 3 -33 30 0 53 25 98 57 103 15 2 29 5 29 6 1 0 1 -5 1
-11z"/>
<path d="M667 2700 c-36 -28 -51 -81 -51 -175 0 -124 28 -165 115 -165 52 0
60 3 77 28 29 41 37 72 17 72 -8 0 -18 -8 -22 -17 -11 -33 -36 -53 -64 -53
-34 0 -49 23 -56 91 l-5 49 53 1 c30 1 65 4 79 8 23 6 25 11 22 52 -2 24 -10
58 -18 75 -26 54 -99 71 -147 34z m90 -40 c7 -14 12 -41 11 -60 -3 -34 -5 -35
-47 -38 l-44 -3 5 50 c8 80 47 106 75 51z"/>
<path d="M1225 2359 c-16 -6 -68 -12 -115 -13 -104 -4 -102 -4 -96 -14 3 -5
40 -7 83 -4 43 2 99 5 125 6 27 0 48 4 48 9 0 4 10 7 23 8 21 0 21 1 2 9 -25
11 -33 11 -70 -1z"/>
<path d="M910 2342 c0 -23 27 -72 40 -72 8 0 32 -3 54 -7 34 -5 38 -4 34 13
-3 15 -11 18 -46 16 -23 -2 -42 1 -42 6 0 6 9 8 20 5 13 -4 20 0 20 9 0 8 -17
18 -40 25 -22 5 -40 8 -40 5z"/>
<path d="M631 2317 c-5 -12 -10 -29 -13 -37 -3 -9 -8 -2 -12 18 -4 17 -14 32
-21 32 -11 0 -10 -10 3 -51 10 -28 22 -50 27 -50 6 1 18 22 27 49 l16 47 1
-52 c1 -54 8 -61 45 -47 23 9 20 24 -4 24 -11 0 -20 5 -20 10 0 6 9 10 20 10
11 0 20 5 20 10 0 6 -9 10 -19 10 -11 0 -23 5 -26 10 -4 6 5 10 19 10 32 0 35
20 4 21 -13 0 -31 2 -41 4 -11 2 -21 -5 -26 -18z"/>
<path d="M735 2328 c-8 -24 0 -103 10 -100 6 2 9 14 7 27 -5 34 4 31 23 -5 9
-17 20 -28 25 -25 12 8 13 115 2 115 -17 0 -21 -12 -12 -36 14 -35 -6 -30 -25
6 -17 33 -23 37 -30 18z"/>
<path d="M835 2290 c-18 -55 -15 -71 10 -50 12 10 19 10 27 2 7 -7 18 -12 24
-12 16 0 -16 102 -33 107 -6 2 -19 -19 -28 -47z"/>
<path d="M515 2279 c-9 -28 -14 -53 -10 -57 4 -4 10 -1 12 6 6 15 39 16 48 2
4 -6 10 -8 14 -6 11 7 -22 106 -36 106 -6 0 -19 -23 -28 -51z"/>
<path d="M1113 2289 c-65 -19 -45 -29 56 -29 56 0 101 2 101 5 0 20 -111 37
-157 24z"/>
<path d="M1621 2278 c0 -14 5 -29 12 -31 10 -4 10 -6 0 -6 -7 -1 -13 -7 -13
-13 0 -7 13 1 28 19 32 35 76 45 115 24 33 -17 53 -84 38 -124 -14 -36 -14
-37 3 -37 12 0 15 14 14 63 -1 48 -6 68 -23 89 -13 15 -26 24 -29 21 -3 -4 -6
-1 -6 5 0 19 -65 14 -93 -8 -32 -25 -35 -25 -40 3 -4 19 -4 19 -6 -5z"/>
<path d="M1963 2288 c-13 -6 -23 -16 -23 -22 0 -6 5 -5 12 2 7 7 27 12 44 12
53 0 64 -26 64 -153 0 -70 4 -106 10 -102 6 4 10 56 10 124 0 131 -4 140 -62
147 -18 2 -43 -2 -55 -8z"/>
<path d="M2195 2280 c-16 -9 -29 -23 -27 -29 1 -6 -2 -11 -7 -11 -5 0 -16 -20
-25 -45 -9 -27 -11 -43 -4 -39 7 5 9 -2 6 -19 -3 -15 -2 -24 2 -22 4 3 11 -6
14 -19 3 -13 17 -31 30 -39 31 -21 86 -31 86 -17 0 6 -8 10 -17 9 -51 -5 -91
33 -91 87 0 20 -6 40 -13 45 -9 6 -10 9 -2 9 6 0 17 15 23 34 6 19 21 41 34
49 23 16 70 13 96 -7 10 -7 9 -4 -2 10 -22 25 -65 27 -103 4z"/>
<path d="M1325 2280 c-4 -7 -2 -17 4 -23 13 -13 15 -197 3 -197 -5 0 -7 -13
-4 -30 5 -38 20 -39 21 -2 1 32 8 87 11 87 8 0 5 112 -2 122 -5 6 -8 19 -6 29
4 20 -17 30 -27 14z"/>
<path d="M990 2190 c-38 -38 -17 -105 31 -98 19 2 25 10 27 36 3 27 0 32 -17
32 -23 0 -28 -16 -8 -23 9 -3 9 -8 1 -16 -16 -17 -38 12 -29 39 5 15 13 20 26
17 27 -7 34 10 10 23 -17 8 -25 6 -41 -10z"/>
<path d="M1253 2203 c-8 -3 -13 -24 -13 -59 l0 -54 35 0 c23 0 35 5 35 14 0 9
-7 12 -19 9 -17 -4 -20 1 -23 44 -2 35 -7 48 -15 46z"/>
<path d="M1624 2154 c-1 -30 3 -54 8 -54 9 0 9 98 -1 104 -3 2 -7 -20 -7 -50z"/>
<path d="M1897 2203 c-4 -6 -5 -30 -2 -53 3 -23 1 -39 -4 -36 -4 3 -6 -6 -3
-19 5 -29 18 -41 24 -22 6 22 -7 142 -15 130z"/>
<path d="M488 2183 c-4 -16 3 -18 54 -18 32 0 58 4 58 8 0 5 12 7 27 5 19 -2
29 -10 34 -28 4 -14 7 -18 8 -10 0 8 -2 24 -5 36 -5 19 -13 21 -72 20 -37 0
-70 -5 -74 -11 -5 -6 -8 -5 -8 3 0 18 -17 15 -22 -5z"/>
<path d="M710 2145 c0 -30 5 -55 10 -55 6 0 10 25 10 55 0 30 -4 55 -10 55 -5
0 -10 -25 -10 -55z"/>
<path d="M740 2145 c0 -34 4 -55 11 -55 8 0 10 14 6 40 -3 22 -1 40 4 40 5 0
9 7 9 15 0 8 -7 15 -15 15 -12 0 -15 -13 -15 -55z"/>
<path d="M796 2173 c6 -24 5 -26 -8 -16 -23 20 -27 6 -9 -32 21 -44 35 -39 39
13 2 30 8 42 18 42 12 0 15 -10 13 -42 -2 -26 1 -43 9 -46 8 -2 12 10 12 42 0
25 5 46 10 46 6 0 10 5 10 10 0 6 -23 10 -50 10 -50 0 -50 0 -44 -27z"/>
<path d="M900 2145 l0 -55 36 0 c42 0 43 23 1 28 -30 4 -27 22 4 22 10 0 19 5
19 10 0 6 -9 10 -20 10 -11 0 -20 5 -20 10 0 6 11 10 25 10 14 0 25 5 25 10 0
6 -16 10 -35 10 l-35 0 0 -55z"/>
<path d="M1060 2176 c0 -14 8 -31 18 -38 10 -7 21 -21 25 -30 7 -21 47 -24 65
-6 10 10 17 10 33 0 12 -8 23 -11 26 -8 9 9 -28 106 -41 106 -7 0 -20 -23 -30
-51 -14 -39 -21 -48 -27 -36 -5 9 -5 26 0 40 12 31 -3 47 -41 47 -23 0 -28 -4
-28 -24z"/>
<path d="M1475 2070 c-16 -18 -19 -18 -30 -3 -10 14 -12 13 -10 -8 2 -33 32
-37 46 -5 7 14 16 23 22 19 6 -3 7 -1 3 5 -9 16 -10 15 -31 -8z"/>
<path d="M1621 2068 c-8 -21 7 -78 20 -78 3 0 3 19 -1 42 -6 29 -5 45 3 50 9
6 9 8 -1 8 -7 0 -16 -10 -21 -22z"/>
<path d="M1777 2072 c-21 -23 -21 -32 -2 -32 8 0 15 5 15 10 0 6 7 10 16 10 9
0 14 5 12 12 -7 20 -23 20 -41 0z"/>
<path d="M751 2065 c8 -7 158 -10 165 -2 4 4 -32 7 -81 7 -49 0 -86 -2 -84 -5z"/>
<path d="M930 2062 c0 -23 93 -37 110 -16 11 12 6 14 -26 14 -22 0 -49 3 -61
6 -13 4 -23 2 -23 -4z"/>
<path d="M1674 2046 c30 -25 46 -26 46 -1 0 7 -8 12 -17 10 -10 -1 -27 2 -38
7 -12 5 -8 -1 9 -16z"/>
<path d="M1090 2048 c38 -15 111 -16 145 -2 27 12 20 13 -70 13 -78 0 -95 -3
-75 -11z"/>
<path d="M726 2009 c4 -29 3 -39 -5 -35 -6 4 -25 0 -43 -8 -17 -9 -42 -16 -55
-16 -14 0 -22 -4 -18 -11 4 -5 12 -8 18 -6 7 2 20 0 30 -5 15 -8 20 -5 24 11
6 24 12 25 36 7 20 -16 67 -10 83 11 10 12 15 9 33 -15 23 -32 75 -49 97 -31
7 6 18 8 24 4 13 -8 60 20 60 36 0 6 -4 8 -8 5 -5 -3 -24 -8 -42 -11 -19 -3
-40 -11 -47 -17 -9 -7 -13 -7 -13 1 0 6 -8 11 -18 11 -11 0 -27 9 -37 20 -19
21 -50 26 -60 10 -3 -5 -15 -10 -26 -10 -19 0 -25 22 -20 73 1 9 -2 17 -8 17
-6 0 -8 -16 -5 -41z"/>
<path d="M1839 2034 c-10 -13 -10 -17 2 -25 8 -5 17 -9 20 -9 4 0 12 -14 19
-30 9 -23 16 -28 25 -20 22 18 1 71 -36 90 -12 7 -21 5 -30 -6z"/>
<path d="M1517 2023 c-3 -5 1 -17 9 -28 14 -18 14 -18 34 3 12 12 19 22 18 23
-24 7 -58 8 -61 2z"/>
<path d="M1352 1975 c-7 -14 -12 -30 -12 -35 0 -18 45 -10 70 13 14 12 20 18
12 12 -10 -6 -18 -4 -28 10 -8 10 -14 15 -14 9 0 -5 -4 -3 -8 4 -6 9 -12 5
-20 -13z"/>
<path d="M1485 1990 c-4 -6 1 -18 11 -26 11 -9 13 -12 6 -9 -18 9 -52 -23 -52
-50 0 -35 23 -56 66 -62 41 -5 84 9 84 28 0 6 -8 5 -21 -2 -16 -8 -24 -8 -33
2 -6 8 -7 11 -2 7 9 -8 46 33 46 51 0 18 -19 12 -30 -10 -12 -21 -46 -59 -55
-59 -2 0 -2 7 2 16 5 13 2 15 -13 10 -16 -5 -19 -1 -18 24 2 44 4 47 14 23 14
-35 25 -27 25 19 0 40 -16 61 -30 38z"/>
<path d="M1290 1972 c-8 -3 -33 -24 -56 -47 -27 -28 -50 -42 -67 -42 -17 0
-24 4 -20 13 3 8 9 14 14 14 5 0 8 12 8 28 -1 20 -2 22 -6 7 -3 -11 -13 -27
-23 -35 -19 -15 -23 -29 -21 -64 1 -13 5 -16 14 -9 6 5 31 16 55 23 44 14 92
59 92 87 0 10 6 14 20 10 11 -3 20 -1 20 3 0 13 -13 18 -30 12z"/>
<path d="M2166 1971 c-8 -12 29 -34 65 -38 33 -5 79 13 79 29 0 8 -3 9 -8 3
-18 -24 -85 -25 -111 -1 -12 11 -21 13 -25 7z"/>
<path d="M1112 1950 c-24 -23 -29 -36 -9 -24 9 6 9 4 -1 -8 -7 -9 -22 -18 -32
-21 -16 -4 -20 0 -20 20 0 22 -2 24 -15 13 -34 -28 -4 -81 34 -60 12 6 21 15
21 20 0 6 7 10 15 10 9 0 15 9 15 25 0 13 8 29 18 34 9 6 12 11 6 11 -5 0 -20
-9 -32 -20z"/>
<path d="M520 1955 c0 -13 53 -26 64 -15 6 6 6 10 1 11 -6 0 -22 3 -37 5 -16
3 -28 2 -28 -1z"/>
<path d="M1700 1944 c-13 -15 -35 -20 -26 -5 4 5 -3 7 -14 4 -28 -7 -26 -33 3
-32 39 2 72 14 74 26 4 18 -24 23 -37 7z"/>
<path d="M1766 1924 c4 -17 1 -22 -11 -21 -9 1 -24 -8 -32 -20 -13 -20 -13
-21 6 -16 12 3 24 10 27 15 4 5 10 5 17 -1 7 -5 28 -13 47 -18 34 -9 35 -11
36 -62 1 -29 6 -57 12 -63 13 -13 49 -1 56 19 8 21 -3 32 -13 14 -17 -27 -33
0 -26 45 5 36 3 43 -10 38 -10 -4 -15 0 -15 15 0 13 -5 19 -14 15 -9 -4 -18 6
-27 30 -10 28 -18 35 -36 34 -18 -2 -21 -7 -17 -24z"/>
<path d="M502 1894 c-12 -8 -22 -19 -22 -25 0 -15 26 -10 43 9 30 33 17 43
-21 16z"/>
<path d="M1291 1891 c-6 -10 -8 -21 -5 -24 3 -3 -2 -17 -12 -31 -9 -15 -14
-29 -10 -33 3 -3 6 0 6 8 0 8 6 3 13 -10 6 -13 21 -29 32 -35 11 -6 23 -15 26
-20 4 -4 11 0 17 10 9 15 4 21 -29 36 -43 19 -46 29 -24 82 16 37 4 51 -14 17z"/>
<path d="M627 1880 c-19 -12 -25 -20 -17 -25 6 -4 9 -13 6 -21 -7 -17 3 -44
16 -44 5 0 7 9 3 20 -3 10 1 33 10 50 9 18 15 33 13 35 -2 1 -16 -6 -31 -15z"/>
<path d="M729 1889 c-7 -5 -10 -9 -6 -9 5 0 -3 -14 -17 -31 -38 -45 -33 -67 7
-31 18 15 20 15 14 1 -4 -13 -1 -16 14 -12 21 6 24 25 8 55 -17 31 -3 33 25 3
15 -16 26 -24 26 -19 -1 28 -49 57 -71 43z"/>
<path d="M291 1864 c-16 -12 -20 -19 -11 -24 12 -8 50 17 50 32 0 12 -13 9
-39 -8z"/>
<path d="M1341 1866 c-9 -11 -4 -19 24 -40 30 -23 36 -25 41 -11 4 10 -3 26
-16 41 -27 28 -33 29 -49 10z"/>
<path d="M570 1861 c0 -7 -3 -10 -7 -8 -5 3 -24 -4 -43 -14 -19 -11 -27 -19
-18 -19 9 0 20 -9 23 -21 8 -24 9 -24 -30 -36 -30 -10 -30 -10 -7 -22 15 -8
28 -9 40 -2 9 6 14 11 10 11 -4 0 5 25 19 56 14 30 22 58 19 61 -3 4 -6 1 -6
-6z"/>
<path d="M947 1854 c-7 -7 14 -44 26 -44 12 0 4 43 -9 47 -5 2 -13 1 -17 -3z"/>
<path d="M1004 1835 c1 -27 4 -29 24 -16 11 6 10 11 -3 25 -22 21 -23 21 -21
-9z"/>
<path d="M168 1827 c-56 -45 -62 -114 -27 -317 13 -76 15 -89 27 -135 6 -22
13 -51 16 -65 9 -45 25 -92 36 -106 7 -7 9 -17 6 -23 -3 -5 -3 -11 1 -13 5 -1
21 -28 37 -58 48 -90 86 -142 147 -200 82 -79 109 -102 109 -93 0 4 7 -1 15
-11 8 -11 15 -17 15 -13 0 3 21 -6 48 -21 42 -25 175 -85 194 -88 5 -1 10 -3
13 -4 3 -1 8 -3 13 -5 4 -1 14 -4 22 -7 13 -5 68 -15 185 -34 69 -11 225 -1
225 15 0 4 13 8 29 9 16 1 45 9 65 17 20 8 37 15 38 14 6 -4 97 42 103 51 4 6
10 8 15 5 4 -3 11 2 14 11 3 8 10 13 14 10 5 -3 15 4 22 15 8 10 22 19 31 19
9 0 29 15 46 33 17 17 39 39 49 48 37 31 101 105 128 147 14 23 31 42 37 42 5
0 8 4 4 10 -3 5 -1 17 4 27 13 24 44 122 47 153 7 61 12 77 32 109 15 26 18
39 11 53 -5 10 -7 18 -3 18 3 0 -1 11 -9 24 -16 23 -15 25 18 48 19 12 37 29
40 37 7 18 -33 61 -50 55 -28 -11 -23 16 10 52 19 21 35 45 34 53 0 10 -4 7
-9 -6 -5 -13 -16 -23 -24 -23 -21 0 -62 -60 -64 -92 -2 -32 13 -36 40 -11 17
15 19 15 39 -3 19 -17 19 -19 3 -31 -10 -7 -26 -13 -35 -13 -21 0 -49 -36 -49
-63 0 -14 5 -18 20 -14 18 5 20 0 20 -38 0 -32 -4 -44 -16 -47 -13 -2 -18 -16
-19 -60 -6 -117 -83 -268 -194 -378 -124 -123 -287 -222 -428 -261 -66 -18
-95 -21 -193 -16 -325 15 -609 174 -758 423 -50 84 -110 222 -118 274 -3 14
-7 32 -10 40 -15 43 -41 195 -43 256 -3 91 15 164 40 164 10 0 21 5 25 12 5 7
3 8 -6 3 -10 -6 -12 -4 -7 8 8 22 7 21 -25 -6z"/>
<path d="M438 1833 c-18 -3 -28 -11 -28 -21 0 -14 -2 -15 -10 -2 -12 19 -24 6
-13 -15 8 -14 11 -14 28 5 10 11 24 20 31 20 7 0 16 5 19 10 3 6 5 9 3 9 -2
-1 -15 -4 -30 -6z"/>
<path d="M810 1829 c0 -5 -4 -7 -10 -4 -5 3 -10 2 -10 -3 0 -5 -10 -14 -22
-20 -16 -7 -18 -11 -7 -11 24 -1 80 29 74 40 -8 12 -25 11 -25 -2z"/>
<path d="M275 1814 c-5 -1 -23 -5 -38 -8 -37 -9 -30 -29 13 -37 27 -6 40 -3
62 16 21 18 24 24 12 29 -8 3 -17 -1 -21 -11 -6 -14 -7 -15 -12 -1 -3 8 -10
14 -16 12z"/>
<path d="M1430 1806 c0 -9 -9 -20 -21 -26 -11 -7 -19 -14 -16 -16 3 -3 18 3
35 13 24 15 27 20 16 31 -11 10 -14 10 -14 -2z"/>
<path d="M899 1808 c0 -2 -2 -14 -5 -28 -2 -14 -11 -30 -20 -36 -11 -9 -12
-13 -3 -16 8 -3 10 -11 5 -23 -5 -14 -9 -16 -18 -7 -17 17 -48 15 -48 -3 0
-21 104 -19 122 3 11 13 10 15 -4 9 -22 -8 -33 24 -19 52 14 25 14 51 1 51 -5
0 -10 -1 -11 -2z"/>
<path d="M1177 1783 c-4 -3 -7 -19 -7 -35 0 -21 5 -28 19 -28 11 0 22 -4 25
-9 13 -21 57 -21 87 -1 39 29 37 36 -11 32 -22 -2 -37 -8 -34 -13 6 -10 -29
-12 -39 -3 -3 4 3 18 14 33 25 31 8 42 -23 15 -20 -17 -21 -18 -15 -1 6 17 -3
23 -16 10z"/>
<path d="M1460 1770 c-26 -26 -25 -34 5 -54 31 -21 49 -12 41 20 -4 14 -2 24
4 24 5 0 10 -4 10 -8 0 -5 7 -17 15 -28 13 -18 14 -18 15 -1 0 19 -42 67 -60
67 -5 0 -19 -9 -30 -20z"/>
<path d="M417 1773 c-14 -4 -16 -8 -6 -19 9 -11 15 -12 25 -3 15 12 19 30 7
28 -5 -1 -16 -3 -26 -6z"/>
<path d="M1008 1755 c-6 -14 -16 -25 -22 -25 -20 0 9 -18 42 -25 30 -6 32 -5
32 22 0 17 -8 33 -20 41 -18 11 -22 9 -32 -13z"/>
<path d="M175 1708 c-8 -78 -2 -138 30 -273 30 -127 42 -156 82 -189 75 -63
412 -233 440 -222 7 3 13 2 13 -3 0 -13 152 -64 334 -111 95 -25 305 -44 391
-36 118 11 126 14 164 44 47 38 172 199 146 187 -76 -32 -191 -57 -287 -62
-68 -4 -108 -10 -108 -17 0 -8 -2 -8 -8 0 -8 13 -72 24 -72 12 0 -4 12 -8 27
-8 14 0 23 -3 20 -6 -10 -11 -57 -13 -57 -3 0 5 -4 9 -10 9 -5 0 -9 -3 -7 -7
3 -11 -5 -13 -30 -7 -12 3 -19 12 -17 19 4 8 -3 11 -23 9 -15 -1 -40 3 -56 11
-15 7 -25 9 -22 4 8 -12 -1 -11 -26 4 -17 10 -23 9 -26 -1 -3 -6 -8 -10 -13
-7 -4 3 -13 -1 -19 -9 -9 -11 -3 -15 36 -22 27 -4 60 -7 76 -6 24 0 26 -2 22
-26 -5 -24 -4 -24 4 -6 7 16 16 20 35 17 20 -4 24 -10 23 -32 -3 -29 -3 -29
-69 -18 -31 5 -48 14 -51 25 -4 16 -5 16 -6 0 0 -10 -5 -18 -9 -18 -17 0 -21
13 -11 31 7 13 6 19 -2 19 -6 0 -13 -9 -16 -20 -3 -11 -9 -17 -14 -15 -4 3
-27 8 -51 11 -63 8 -73 22 -45 61 12 17 37 39 55 47 42 21 58 21 42 1 -7 -8
-16 -12 -21 -9 -5 3 -9 0 -9 -7 0 -7 -3 -9 -6 -6 -9 8 -44 -11 -44 -24 0 -21
43 -3 77 33 9 9 21 14 26 11 6 -3 7 -1 3 5 -4 7 -1 12 8 12 9 0 16 -4 16 -10
0 -11 68 -31 107 -30 15 1 60 -3 98 -8 45 -6 72 -5 77 1 8 12 -14 37 -26 29
-5 -3 -6 0 -2 6 4 7 14 12 22 12 8 0 14 4 14 9 0 6 -8 8 -18 6 -15 -3 -18 2
-14 21 2 14 0 24 -7 24 -7 0 -9 5 -5 11 3 6 17 8 33 4 39 -10 71 -13 71 -6 0
3 24 6 53 6 28 -1 57 3 64 8 7 5 17 6 24 2 6 -4 15 -2 19 6 7 10 11 10 24 0
11 -9 16 -10 16 -2 0 6 10 11 23 11 12 1 33 7 47 15 33 19 70 19 70 0 0 -8 -4
-15 -9 -15 -5 0 -11 -8 -13 -18 -7 -24 -87 -71 -128 -75 -18 -2 -35 -9 -39
-16 -9 -15 -101 -21 -101 -7 0 5 -7 1 -16 -10 -11 -14 -17 -16 -21 -6 -4 10
-8 10 -19 1 -7 -6 -21 -9 -29 -5 -9 3 -15 0 -15 -10 0 -12 9 -14 38 -10 20 2
64 7 97 11 65 7 98 15 188 47 54 19 60 25 87 79 30 58 52 134 43 143 -3 3 -20
-6 -37 -19 -149 -114 -476 -126 -835 -30 -145 39 -278 84 -355 121 -57 27 -73
31 -92 22 -24 -11 -32 -28 -14 -28 6 0 10 6 10 13 0 9 3 8 9 -2 5 -7 14 -10
20 -7 6 4 11 0 11 -8 0 -9 4 -16 10 -16 5 0 7 -7 4 -15 -4 -8 -1 -15 6 -15 6
0 8 -5 5 -10 -4 -6 -11 -8 -16 -5 -5 4 -6 -2 -2 -11 5 -13 3 -16 -10 -11 -9 3
-17 2 -17 -3 0 -6 6 -10 14 -10 8 0 18 -5 22 -12 5 -7 3 -8 -6 -3 -8 5 -11 4
-6 -3 4 -6 14 -8 23 -5 13 5 15 2 10 -11 -5 -13 -3 -17 7 -13 7 3 19 0 25 -6
6 -6 11 -8 11 -4 0 3 11 2 25 -3 23 -9 27 -7 36 17 5 14 8 32 5 40 -4 9 3 12
19 11 27 -2 32 -24 15 -63 -7 -17 -9 -14 -11 15 -2 31 -2 32 -6 8 -2 -16 -9
-28 -14 -28 -5 0 -9 -4 -9 -10 0 -5 5 -10 11 -10 20 0 99 -41 99 -51 0 -6 9
-9 20 -6 11 3 20 1 20 -5 0 -5 6 -8 13 -5 6 2 21 0 32 -6 11 -6 30 -10 42 -8
18 2 21 -1 16 -15 -5 -14 -2 -16 15 -12 32 9 36 -7 6 -21 -32 -14 -47 -14 -38
1 4 7 3 8 -4 4 -7 -4 -12 -1 -12 6 0 9 -3 9 -10 -2 -9 -13 -11 -13 -20 0 -6
10 -10 11 -10 3 0 -7 -7 -13 -15 -13 -8 0 -15 5 -15 10 0 6 -6 10 -14 10 -8 0
-22 8 -32 17 -9 10 -31 18 -48 19 -43 2 -40 2 -66 24 -13 12 -31 18 -41 15 -9
-3 -20 -1 -23 4 -7 12 -36 3 -36 -10 0 -5 16 -16 36 -24 43 -18 47 -18 39 -5
-10 17 7 11 20 -6 13 -19 85 -46 85 -33 0 5 5 9 11 9 5 0 8 -4 4 -10 -3 -5 9
-13 27 -18 27 -7 32 -13 30 -33 -2 -13 -5 -25 -7 -27 -2 -2 -43 10 -91 27 -49
17 -90 31 -92 31 -2 0 0 9 3 20 4 11 2 20 -4 20 -6 0 -11 -7 -11 -15 0 -19 -9
-19 -46 -1 -16 8 -41 19 -55 25 -22 8 -26 14 -22 36 7 32 29 27 25 -6 -2 -13
0 -20 5 -16 4 5 8 14 8 20 0 7 5 12 11 12 6 0 19 9 30 19 18 19 18 19 -10 14
-30 -6 -55 3 -90 34 -11 10 -27 20 -37 23 -9 3 -19 15 -22 25 -5 18 -34 27
-62 20 -5 -2 -19 -3 -30 -4 -12 -1 -32 -9 -47 -18 -25 -16 -26 -16 -38 10 -8
15 -12 33 -11 40 1 6 -3 12 -9 12 -5 0 -10 13 -10 29 0 16 -6 41 -14 56 -8 15
-12 34 -9 41 3 8 -1 14 -8 14 -10 0 -10 3 -2 11 8 8 8 20 3 34 -5 13 -6 26 -3
29 4 3 1 6 -5 6 -9 0 -9 7 0 26 10 21 9 27 -3 35 -11 7 -10 9 5 9 20 0 68 -49
60 -62 -3 -4 2 -8 10 -8 21 0 76 -53 81 -78 6 -32 37 -82 51 -82 7 0 14 -7 18
-15 3 -8 15 -15 26 -15 11 0 20 -6 20 -14 0 -17 18 -31 28 -21 3 3 0 10 -8 15
-12 8 -12 10 3 10 30 0 13 23 -24 33 -19 5 -41 15 -51 24 -17 16 -32 58 -29
84 1 8 -21 35 -49 58 -48 40 -131 135 -156 177 -10 16 -13 8 -19 -48z m482
-364 c3 -8 17 -20 30 -25 19 -7 23 -14 17 -32 -3 -12 -7 -23 -8 -24 -1 -1 -19
3 -39 9 -32 10 -37 15 -37 43 0 44 24 63 37 29z m-229 -76 c-2 -25 -9 -43 -17
-46 -10 -3 -12 0 -8 11 4 11 2 14 -9 10 -7 -3 -14 -11 -14 -19 0 -8 -3 -14 -8
-14 -12 0 -42 39 -42 55 0 8 -6 15 -12 16 -7 0 -3 4 10 9 12 5 28 7 36 4 8 -3
17 -1 21 5 3 6 15 11 26 11 17 0 20 -6 17 -42z m411 -3 c1 6 5 5 9 -2 4 -6 20
-14 35 -17 14 -2 31 -7 37 -11 5 -3 10 -1 10 4 0 6 5 11 11 11 5 0 7 -4 4 -10
-3 -5 14 -15 38 -21 40 -11 43 -14 39 -41 -5 -33 -3 -32 -48 -13 -19 8 -37 14
-39 14 -3 -1 -28 5 -55 12 -33 8 -50 18 -50 28 0 14 -1 14 -10 1 -7 -11 -10
-11 -10 -2 0 7 -4 10 -10 7 -6 -4 -10 6 -10 24 0 23 4 29 15 25 9 -4 15 0 16
7 0 8 4 5 9 -6 5 -11 9 -15 9 -10z m-359 -16 c0 -5 5 -7 12 -3 8 5 9 2 5 -9
-4 -11 -1 -17 8 -17 10 0 15 -10 15 -30 0 -33 -11 -38 -33 -15 -8 8 -17 12
-19 9 -3 -2 -11 2 -18 11 -7 8 -8 15 -3 15 6 0 8 11 5 25 -3 18 0 25 12 25 9
0 16 -5 16 -11z m587 -85 c-6 -20 -19 -40 -29 -45 -22 -12 -24 3 -3 21 8 7 15
25 15 41 0 20 4 27 14 23 11 -4 12 -12 3 -40z m99 21 c9 -8 27 -15 42 -16 15
0 35 -2 44 -4 10 -2 21 1 24 7 4 6 9 6 14 -3 5 -7 19 -13 31 -14 18 -1 23 -8
23 -26 0 -21 -4 -24 -39 -23 -22 1 -56 3 -75 6 -152 22 -140 18 -140 51 0 28
2 29 30 23 19 -3 29 -2 25 4 -9 15 5 12 21 -5z m-232 -140 c-6 -32 -9 -36 -29
-31 -13 3 -25 3 -28 -2 -2 -4 -2 -1 0 6 1 8 3 20 3 27 0 12 50 45 58 39 2 -1
0 -19 -4 -39z m749 -37 c-2 -5 -8 -8 -14 -8 -5 0 -19 -10 -31 -22 l-22 -22
-14 22 c-8 12 -23 22 -33 22 -11 0 -19 2 -19 4 0 2 -3 13 -6 23 -6 14 -4 16 6
6 7 -6 19 -9 26 -6 8 3 14 -1 14 -8 0 -10 2 -11 8 -2 15 24 56 32 73 14 9 -9
15 -19 12 -23z m-338 -42 c-5 -29 -4 -29 7 -8 6 12 16 22 22 22 6 0 4 5 -4 10
-12 8 -11 10 8 10 12 0 22 -6 22 -12 0 -9 4 -8 10 2 9 13 10 13 10 0 0 -9 9
-16 20 -16 11 0 20 6 20 14 0 7 5 10 10 7 6 -4 7 -12 4 -18 -4 -7 -4 -9 1 -5
4 4 14 3 22 -3 10 -9 13 -7 13 10 0 13 4 19 10 16 6 -4 8 -11 5 -16 -6 -9 14
-13 48 -10 17 2 20 -21 5 -45 -6 -9 -37 -11 -58 -4 -3 1 -31 2 -62 1 -56 0
-58 1 -59 27 -1 26 -1 26 -7 4 -4 -13 -10 -23 -14 -23 -5 1 -17 1 -28 1 -13 0
-20 7 -20 20 0 11 -4 20 -10 20 -5 0 -10 -9 -10 -20 0 -13 -7 -20 -19 -20 -24
0 -35 15 -24 33 4 6 8 15 9 20 1 4 2 8 3 10 0 2 17 3 36 3 34 0 35 -1 30 -30z"/>
<path d="M340 1759 c0 -6 -7 -9 -15 -5 -8 3 -15 1 -15 -4 0 -6 -8 -10 -17 -11
-11 0 -13 -3 -5 -6 6 -2 10 -8 7 -13 -3 -4 2 -13 9 -19 17 -14 45 0 65 32 10
16 10 21 -1 28 -18 12 -28 11 -28 -2z"/>
<path d="M690 1755 c0 -8 -8 -12 -20 -10 -21 4 -60 -29 -60 -52 0 -17 15 -17
30 2 9 11 16 12 31 2 10 -6 17 -16 15 -22 -2 -5 0 -17 5 -26 6 -13 4 -16 -14
-14 -12 1 -32 3 -45 4 -13 0 -21 5 -17 10 3 6 -4 8 -15 6 -11 -2 -24 3 -29 13
-9 15 -11 16 -26 1 -12 -12 -27 -14 -67 -9 -29 4 -54 12 -56 18 -5 15 -62 16
-62 2 0 -5 8 -10 18 -10 11 0 27 -9 37 -20 15 -16 15 -22 5 -35 -8 -10 -9 -15
-1 -15 6 0 11 4 11 8 0 15 84 30 148 26 54 -2 67 -7 93 -33 39 -40 46 -39 41
4 -4 30 -1 35 22 41 18 4 33 1 45 -10 20 -18 37 -10 20 11 -6 7 -9 24 -7 38 6
30 -7 34 -15 4 -4 -15 -11 -20 -21 -16 -9 4 -16 2 -16 -3 0 -6 -7 -10 -16 -10
-13 0 -15 9 -12 50 3 35 1 51 -9 54 -7 3 -13 -1 -13 -9z"/>
<path d="M796 1755 c-10 -26 -7 -35 9 -35 17 0 19 18 6 38 -7 11 -10 10 -15
-3z"/>
<path d="M1924 1725 c-23 -35 -12 -41 20 -12 14 13 23 27 19 30 -12 12 -22 7
-39 -18z"/>
<path d="M1400 1705 c-8 -10 -20 -33 -26 -52 -10 -28 -10 -32 2 -22 8 6 14 19
14 29 0 26 9 29 45 14 39 -16 65 -18 65 -5 0 5 -14 11 -31 15 -18 3 -37 13
-43 22 -11 14 -13 14 -26 -1z"/>
<path d="M1727 1702 c-21 -23 -21 -40 -2 -85 16 -38 52 -70 68 -60 6 3 6 8 0
12 -6 3 -13 18 -17 33 -3 15 -19 35 -34 43 -15 9 -19 14 -10 11 15 -4 16 -1 8
19 -7 20 -6 25 5 25 8 0 15 -5 15 -11 0 -6 9 -8 20 -4 12 4 27 1 35 -5 22 -18
18 -29 -7 -22 l-22 5 20 -33 c24 -42 40 -48 47 -18 4 13 2 25 -3 26 -6 2 -10
9 -10 15 0 20 -53 67 -75 67 -12 0 -29 -8 -38 -18z"/>
<path d="M1003 1688 c9 -25 -8 -31 -28 -11 -16 16 -17 15 -13 -3 4 -24 46 -31
54 -9 4 9 1 22 -6 28 -10 10 -12 8 -7 -5z"/>
<path d="M1547 1678 c-2 -13 -8 -31 -12 -41 -5 -13 -3 -16 8 -11 10 3 17 -2
21 -14 4 -11 13 -23 21 -26 11 -4 15 2 15 24 0 17 -4 30 -9 30 -5 0 -12 8 -15
17 -6 16 -6 16 12 0 32 -29 37 -19 7 13 -34 36 -41 37 -48 8z"/>
<path d="M1115 1660 c-8 -13 14 -42 26 -34 5 3 12 -2 15 -10 9 -23 27 -20 19
3 -3 11 0 23 6 27 9 5 7 10 -7 15 -28 11 -52 10 -59 -1z"/>
<path d="M916 1643 c-11 -12 -25 -19 -32 -16 -19 7 -17 0 5 -26 l20 -22 16 25
c9 14 15 33 13 43 -3 16 -5 16 -22 -4z"/>
<path d="M1431 1648 c0 -9 -6 -20 -13 -24 -7 -5 -8 -3 -3 5 6 10 3 11 -13 2
-11 -6 -22 -17 -26 -26 -3 -8 -12 -15 -21 -15 -8 0 -15 -6 -15 -14 0 -26 -33
-28 -52 -4 -10 13 -18 26 -18 31 0 4 -4 7 -9 7 -17 0 -22 -51 -8 -74 12 -18
12 -23 1 -34 -22 -20 -16 -48 14 -63 46 -23 48 -23 20 6 -33 33 -34 40 -10 61
29 26 106 74 120 74 7 0 10 5 7 10 -9 14 21 24 43 15 15 -7 14 -9 -8 -15 -24
-8 -24 -8 6 -9 17 -1 37 6 44 14 11 13 8 16 -18 21 -21 4 -32 13 -35 28 -3 14
-5 15 -6 4z"/>
<path d="M367 1625 c21 -28 33 -32 33 -9 0 8 -4 12 -10 9 -5 -3 -10 1 -10 9 0
9 -7 16 -15 16 -14 0 -13 -3 2 -25z"/>
<path d="M1205 1607 c-12 -19 -13 -30 -4 -55 6 -18 17 -32 25 -32 12 0 13 4 3
23 -18 32 -17 67 1 77 9 6 10 10 3 10 -7 0 -19 -11 -28 -23z"/>
<path d="M746 1604 c-3 -9 -6 -27 -6 -40 0 -14 -5 -23 -12 -21 -8 1 -12 -7
-10 -20 4 -30 -16 -29 -50 2 -15 14 -30 25 -33 25 -11 0 -4 -28 10 -40 8 -7
15 -19 15 -27 0 -12 -3 -12 -16 2 -15 15 -18 14 -41 -7 -21 -20 -22 -23 -8
-26 10 -2 20 0 24 5 9 12 82 14 118 2 18 -6 42 -22 53 -36 38 -49 20 -57 -38
-18 -36 24 -82 34 -82 16 0 -4 27 -18 59 -30 52 -19 65 -20 112 -10 30 6 61
19 71 30 20 23 22 23 42 4 18 -19 66 -4 66 21 0 12 -8 15 -32 12 -29 -3 -33 0
-33 21 0 13 -6 26 -12 28 -8 3 -13 -5 -13 -19 0 -32 -39 -68 -74 -68 -15 0
-25 4 -21 10 3 6 2 10 -3 10 -4 0 -18 9 -31 21 -12 11 -29 18 -37 15 -20 -7
-19 69 1 108 18 34 18 33 1 39 -8 3 -17 -1 -20 -9z"/>
<path d="M510 1594 c0 -8 -4 -13 -9 -10 -5 3 -11 -7 -13 -23 -4 -27 -2 -29 15
-19 10 5 28 8 38 5 16 -4 19 -2 13 16 -13 42 -44 64 -44 31z"/>
<path d="M2125 1588 c-10 -27 -12 -79 -3 -70 5 5 11 26 12 46 3 36 -1 46 -9
24z"/>
<path d="M1048 1585 c-4 -4 -4 -14 -1 -22 3 -9 -2 -16 -14 -19 -20 -6 -47 -47
-36 -57 2 -3 18 -1 34 5 21 7 33 7 43 -1 11 -9 15 -6 18 13 3 14 0 30 -6 36
-8 8 -7 13 3 19 10 7 10 10 1 16 -7 4 -16 2 -20 -5 -6 -10 -9 -8 -11 4 -2 10
-7 15 -11 11z"/>
<path d="M855 1540 c-14 -16 -15 -24 -5 -54 11 -36 34 -48 43 -23 2 6 0 20 -5
31 -6 11 -6 16 0 13 5 -4 7 4 4 18 -6 34 -16 38 -37 15z"/>
<path d="M1438 1542 c-24 -5 -23 -29 3 -42 17 -9 23 -8 35 7 7 10 14 21 14 24
0 9 -31 16 -52 11z"/>
<path d="M1144 1493 c1 -10 -2 -18 -5 -18 -3 0 -13 -8 -23 -17 -10 -10 -34
-19 -54 -19 -37 -1 -37 -2 8 -9 38 -6 50 -4 72 14 16 12 26 29 25 40 -3 25
-24 33 -23 9z"/>
<path d="M1312 1488 l-23 -11 27 -28 c24 -25 25 -31 19 -83 -8 -64 -18 -71
-31 -23 -8 25 -16 33 -37 35 -15 2 -27 8 -27 13 0 5 -9 9 -20 9 -11 0 -20 7
-20 16 0 11 6 14 23 9 21 -7 21 -6 4 11 -13 14 -21 16 -34 8 -9 -6 -19 -16
-21 -24 -3 -7 0 -10 7 -6 6 4 11 1 11 -8 0 -23 -21 -19 -27 5 -4 15 -8 17 -14
7 -5 -7 -2 -22 6 -34 14 -22 11 -58 -8 -82 -7 -9 -7 -16 0 -23 14 -14 26 5 33
56 5 35 8 40 30 37 14 -1 35 -13 47 -27 12 -14 42 -36 66 -49 l44 -25 -2 32
c-2 21 5 40 18 55 l20 22 -23 0 c-20 0 -22 4 -17 30 6 29 -9 91 -21 89 -4 0
-17 -5 -30 -11z"/>
<path d="M1481 1473 c-1 -34 7 -38 44 -23 18 7 18 8 -7 15 -15 4 -29 14 -31
23 -3 10 -5 2 -6 -15z"/>
<path d="M1631 1490 c-1 -8 -5 -22 -11 -30 -7 -12 -12 -12 -29 4 -19 17 -21
17 -27 2 -8 -22 -7 -22 44 -29 35 -4 44 -2 52 14 8 15 7 19 -4 19 -8 0 -17 8
-19 18 -3 12 -5 13 -6 2z"/>
<path d="M1703 1489 c-19 -19 -4 -46 23 -41 33 6 40 20 18 37 -23 18 -27 18
-41 4z"/>
<path d="M1752 1430 c-7 -12 -17 -18 -22 -15 -6 3 -10 2 -10 -3 0 -13 -39 -22
-46 -11 -8 14 -24 11 -24 -5 0 -22 29 -41 42 -28 21 21 38 13 38 -17 0 -17 5
-33 10 -36 6 -3 10 1 10 11 0 12 3 14 13 6 13 -11 51 0 62 17 8 14 3 14 -31 1
-19 -7 -30 -7 -40 1 -18 15 -18 29 0 29 8 0 21 9 29 21 15 21 35 10 21 -13 -4
-7 -3 -8 4 -4 15 9 9 45 -9 57 -22 14 -33 11 -47 -11z"/>
<path d="M1457 1381 c-6 -28 -2 -39 21 -65 16 -18 32 -31 38 -30 29 7 123 9
112 3 -7 -5 -11 -9 -8 -10 49 -9 61 -8 67 6 3 9 1 21 -6 28 -8 8 -11 5 -11
-11 0 -12 -4 -22 -10 -22 -5 0 -10 6 -10 13 0 8 -15 22 -34 32 -33 18 -34 18
-70 -3 -20 -12 -36 -17 -36 -11 0 6 -5 7 -11 3 -8 -5 -10 1 -7 19 3 15 1 24
-3 21 -5 -3 -9 0 -9 5 0 11 13 15 38 12 17 -3 15 28 -3 35 -8 4 -22 1 -29 -5
-11 -9 -15 -9 -18 1 -3 7 -8 -2 -11 -21z"/>
<path d="M1016 1371 c-26 -28 -12 -40 37 -34 54 7 57 11 28 34 -29 24 -43 24
-65 0z"/>
<path d="M532 1358 c2 -13 10 -23 18 -23 8 0 16 10 18 23 3 17 -2 22 -18 22
-16 0 -21 -5 -18 -22z"/>
<path d="M495 1324 c10 -8 12 -13 5 -16 -7 -2 5 -11 25 -21 34 -16 37 -16 31
-2 -3 9 -6 21 -6 27 0 6 -7 8 -15 4 -8 -3 -15 0 -15 7 0 7 -9 13 -21 13 -18 0
-19 -2 -4 -12z"/>
<path d="M1410 1275 c0 -11 11 -15 38 -15 35 1 36 2 18 15 -26 19 -56 19 -56
0z"/>
<path d="M270 1225 c0 -15 73 -147 105 -191 121 -161 262 -255 480 -319 122
-37 289 -45 401 -20 117 25 123 36 21 33 -48 -2 -87 0 -87 5 0 4 -16 7 -35 7
-37 0 -243 41 -318 64 -44 13 -46 13 -49 -8 -4 -28 -42 -29 -46 -1 -3 20 -3
20 13 1 14 -18 16 -17 19 14 1 6 -35 26 -79 44 -123 50 -244 116 -263 143 -9
14 -24 33 -33 42 -9 10 -22 32 -30 49 -8 18 -17 32 -20 32 -12 0 -19 32 -10
44 6 7 -3 20 -30 39 -21 16 -39 26 -39 22z m430 -400 c5 3 7 0 4 -8 -7 -20
-37 -11 -53 16 -14 21 -14 21 13 4 15 -10 31 -15 36 -12z m180 -65 c0 -5 22
-12 50 -16 27 -4 55 -13 61 -20 8 -9 8 -14 1 -14 -6 0 -14 5 -17 10 -4 6 -12
10 -18 9 -13 -3 -88 11 -100 18 -9 5 1 23 14 23 5 0 9 -4 9 -10z"/>
<path d="M2117 1153 c2 -57 12 -86 14 -42 0 13 2 37 3 52 1 15 -3 32 -9 37 -8
7 -10 -7 -8 -47z"/>
<path d="M470 1092 c0 -10 44 -32 63 -32 7 0 -3 9 -21 20 -36 22 -42 24 -42
12z"/>
<path d="M520 1033 c0 -5 9 -18 20 -28 11 -10 20 -31 20 -46 0 -22 4 -27 17
-22 11 4 14 3 9 -5 -5 -8 -2 -10 9 -6 9 4 14 13 11 21 -3 8 -6 17 -6 20 0 3
-7 0 -15 -7 -12 -10 -15 -10 -15 4 0 9 4 16 9 16 5 0 16 14 25 30 12 26 12 30
0 30 -8 0 -14 -7 -14 -15 0 -20 -29 -19 -52 2 -10 9 -18 12 -18 6z"/>
<path d="M646 958 c-9 -36 -7 -41 9 -28 9 7 13 15 10 18 -3 3 0 11 6 19 9 10
8 13 -4 13 -8 0 -17 -10 -21 -22z"/>
<path d="M2119 978 c-5 -27 -3 -98 4 -98 4 0 5 5 2 10 -3 6 -3 10 2 10 4 0 8
18 8 40 0 22 -3 40 -7 40 -5 0 -8 -1 -9 -2z"/>
<path d="M676 943 c-3 -3 -6 -15 -6 -26 0 -13 5 -17 15 -13 8 3 15 1 15 -4 0
-6 5 -10 10 -10 6 0 9 5 8 11 -2 6 2 13 9 16 7 3 9 -3 6 -16 -4 -15 -1 -21 11
-21 26 0 21 46 -6 55 -40 13 -55 15 -62 8z"/>
<path d="M195 923 c-38 -9 -87 -56 -107 -101 -25 -57 -21 -141 10 -200 12 -24
22 -58 22 -76 l0 -33 88 -12 c187 -27 172 -27 172 9 0 17 12 52 28 78 89 153
-51 374 -213 335z m63 -30 c2 -9 -8 -13 -32 -13 -56 0 -104 -50 -115 -117 -5
-35 -4 -64 4 -87 7 -19 10 -38 7 -41 -3 -3 0 -5 6 -5 7 0 12 -4 12 -10 0 -5
-6 -10 -13 -10 -31 0 -52 174 -24 202 8 7 12 18 10 25 -2 6 10 19 26 29 17 10
31 22 31 25 0 8 44 17 69 15 8 -1 16 -7 19 -13z m101 -42 c12 -16 21 -34 21
-40 0 -6 4 -11 10 -11 14 0 24 -70 11 -83 -8 -8 -11 -3 -11 20 0 30 -40 101
-66 116 -15 8 -10 27 6 27 5 0 18 -13 29 -29z m-47 -13 c56 -39 83 -138 57
-205 l-11 -28 -29 60 c-15 33 -35 77 -44 99 -9 21 -18 36 -21 33 -3 -3 2 -19
10 -36 26 -49 29 -130 5 -115 -5 3 -6 -1 -3 -9 3 -8 -2 -14 -11 -14 -10 0 -15
10 -15 29 0 15 -4 28 -10 28 -10 0 -9 48 2 65 10 18 19 85 11 85 -4 -1 -28
-43 -53 -95 -25 -52 -48 -95 -52 -95 -8 0 -28 66 -28 93 0 29 28 87 52 107 32
27 101 26 140 -2z m-86 -184 c12 -31 22 -43 31 -40 10 4 13 1 8 -14 -5 -17 0
-20 45 -26 58 -8 77 -22 22 -16 -33 3 -35 2 -19 -11 22 -18 23 -52 1 -43 -18
7 -125 21 -136 18 -5 -1 -8 9 -8 23 0 24 10 32 23 18 11 -10 96 -12 103 -2 3
5 -9 9 -25 9 -24 0 -31 4 -31 19 0 11 -4 22 -9 25 -5 4 -16 26 -25 51 -19 58
-3 49 20 -11z m-6 -46 c0 -9 -58 -4 -67 5 -3 4 2 9 11 13 9 3 16 16 16 28 0
19 2 18 20 -9 11 -16 20 -33 20 -37z m101 23 c7 11 9 10 9 -4 0 -11 12 -22 30
-28 16 -6 27 -15 24 -21 -4 -6 -9 -6 -13 -2 -3 5 -24 10 -46 12 -49 4 -50 5
-34 34 8 16 14 19 17 9 4 -11 6 -11 13 0z"/>
<path d="M250 717 c0 -28 6 -32 28 -19 9 7 8 13 -8 27 -20 18 -20 18 -20 -8z"/>
<path d="M797 914 c-10 -11 -8 -54 2 -54 14 0 25 40 14 51 -5 5 -12 6 -16 3z"/>
<path d="M852 898 c-17 -17 -15 -58 3 -58 8 0 15 5 15 10 0 6 9 10 20 10 22 0
27 15 9 26 -6 3 -16 0 -21 -7 -7 -10 -7 -7 -3 9 7 24 -4 29 -23 10z"/>
<path d="M937 883 c-14 -13 -7 -63 8 -63 8 0 15 5 15 11 0 5 -4 7 -10 4 -5 -3
-10 1 -10 10 0 10 7 15 18 13 11 -2 16 -11 14 -26 -2 -12 2 -22 7 -22 6 0 11
9 11 20 0 11 0 22 0 25 0 3 -3 5 -7 4 -3 0 -10 6 -15 15 -10 17 -20 20 -31 9z"/>
<path d="M1005 851 c-8 -36 3 -51 38 -51 12 0 17 8 17 25 0 23 -4 27 -27 24
-4 0 -10 8 -14 18 -5 14 -8 11 -14 -16z"/>
<path d="M1485 845 c-22 -14 -71 -37 -110 -52 -66 -27 -68 -28 -36 -31 40 -4
144 44 181 83 30 32 17 32 -35 0z"/>
<path d="M2119 868 c-4 -21 -3 -98 1 -98 3 0 4 -16 2 -35 -2 -19 0 -35 4 -35
7 0 8 99 2 158 -1 10 -7 17 -9 10z"/>
<path d="M1077 843 c-4 -3 -7 -17 -7 -30 0 -33 24 -24 28 10 3 26 -7 35 -21
20z"/>
<path d="M2114 649 c4 -45 21 -73 21 -33 0 13 -3 24 -8 24 -4 0 -5 11 -1 25 4
15 2 25 -4 25 -7 0 -10 -17 -8 -41z"/>
<path d="M2115 511 c2 -79 14 -127 16 -60 1 19 2 55 3 81 0 25 -2 44 -6 42 -3
-2 -8 1 -10 7 -2 6 -3 -25 -3 -70z"/>
<path d="M2465 437 c14 -26 24 -51 22 -55 -3 -4 -1 -16 4 -27 6 -14 7 -7 4 22
-4 47 -16 73 -40 93 -11 9 -7 -3 10 -33z"/>
<path d="M2374 428 c-4 -7 -3 -8 4 -4 8 5 12 -2 12 -21 0 -19 -3 -24 -9 -15
-7 11 -9 10 -15 -3 -3 -9 -10 -14 -15 -11 -5 3 -14 -1 -21 -9 -7 -8 -19 -15
-26 -15 -8 0 -14 -4 -14 -10 0 -14 12 -13 35 4 11 7 35 17 54 21 33 7 34 6 27
-20 -4 -17 -3 -24 4 -20 15 9 12 51 -5 85 -17 33 -21 35 -31 18z"/>
<path d="M2436 395 c-3 -8 -1 -15 5 -15 6 0 8 -9 4 -20 -4 -11 -2 -20 4 -20
13 0 15 57 2 64 -5 3 -11 -1 -15 -9z"/>
<path d="M2460 325 c-7 -8 -21 -15 -30 -15 -10 0 -20 -6 -23 -12 -3 -10 -8
-10 -17 -2 -9 9 -17 6 -34 -11 -25 -25 -44 -74 -22 -56 7 6 17 7 21 3 5 -4 5
1 2 10 -4 12 -2 15 9 11 9 -3 14 1 15 13 0 11 3 14 5 7 4 -8 10 -8 27 0 27 14
70 57 64 63 -2 2 -10 -2 -17 -11z"/>
<path d="M2301 313 c-1 -7 -7 -13 -15 -13 -16 0 -29 -27 -17 -34 12 -8 44 31
38 46 -4 10 -6 10 -6 1z"/>
<path d="M2224 265 c8 -32 46 -73 46 -50 0 8 5 15 10 15 6 0 10 -5 10 -11 0
-5 4 -8 9 -5 5 3 7 15 4 27 -4 14 -9 17 -16 10 -21 -21 -47 -13 -47 14 0 14
-5 25 -11 25 -7 0 -9 -10 -5 -25z"/>
</g>
</svg>
