<?xml version="1.0" standalone="no"?>
<!DOCTYPE svg PUBLIC "-//W3C//DTD SVG 20010904//EN"
 "http://www.w3.org/TR/2001/REC-SVG-20010904/DTD/svg10.dtd">
<svg version="1.0" xmlns="http://www.w3.org/2000/svg"
 width="300.000000pt" height="300.000000pt" viewBox="0 0 300.000000 300.000000"
 preserveAspectRatio="xMidYMid meet">
<metadata>
Created by potrace 1.10, written by Peter Selinger 2001-2011
</metadata>
<g transform="translate(0.000000,300.000000) scale(0.100000,-0.100000)"
fill="#000000" stroke="none">
<path d="M1356 2970 c3 -19 8 -61 10 -94 5 -77 11 -81 13 -8 0 32 -6 76 -14
98 l-15 39 6 -35z"/>
<path d="M2196 2975 c-70 -30 -76 -33 -42 -31 14 0 26 5 26 10 0 4 7 5 16 2
10 -4 13 -2 8 6 -5 7 0 9 14 6 14 -4 20 -2 16 4 -4 6 1 8 12 4 11 -3 37 1 59
9 l40 14 -45 0 c-25 0 -71 -11 -104 -24z"/>
<path d="M2269 2950 c-70 -22 -152 -51 -184 -65 -51 -22 -56 -27 -44 -42 13
-15 14 -15 17 1 4 21 38 35 182 75 213 61 242 72 183 70 -16 0 -85 -18 -154
-39z"/>
<path d="M931 2946 c-12 -13 -39 -32 -59 -42 -76 -39 -113 -65 -106 -76 5 -7
10 -5 15 5 5 8 38 29 72 46 35 17 76 45 90 61 32 35 21 41 -12 6z"/>
<path d="M2750 2934 c-29 -16 -54 -23 -74 -20 -16 3 -42 -2 -57 -10 -15 -7
-34 -11 -42 -8 -8 3 -18 1 -21 -4 -3 -6 -23 -8 -44 -5 -29 4 -41 0 -56 -16
-24 -27 -23 -78 2 -103 17 -17 24 -18 60 -9 35 10 45 9 75 -9 24 -15 37 -17
42 -10 4 6 13 9 21 6 9 -4 14 2 14 16 0 12 8 31 18 42 14 15 17 28 11 46 l-7
25 -1 -27 c-1 -23 -6 -28 -25 -28 -18 0 -25 -7 -30 -31 -4 -22 -11 -30 -23
-27 -13 2 -17 14 -17 53 -1 47 1 50 26 53 19 2 25 8 21 18 -3 8 0 14 6 14 6 0
12 -17 12 -37 1 -28 3 -32 6 -13 8 43 39 53 53 18 9 -22 9 -22 9 3 1 18 8 28
21 32 16 4 20 0 21 -21 1 -19 4 -16 8 12 3 22 12 42 20 44 11 4 13 -3 8 -32
-5 -29 -3 -36 10 -36 9 0 24 -7 34 -16 15 -14 15 -10 -3 28 -40 88 -36 86 -98
52z m-168 -95 c4 -43 -10 -65 -19 -30 -7 26 -23 28 -23 2 0 -11 -4 -23 -10
-26 -5 -3 -10 -1 -10 6 0 7 -6 4 -14 -6 -27 -37 -59 19 -40 69 7 17 44 22 44
6 0 -5 11 -10 25 -10 16 0 25 6 25 15 0 34 18 12 22 -26z"/>
<path d="M2480 2826 c0 -14 4 -27 9 -31 12 -7 25 31 16 45 -11 18 -25 10 -25
-14z"/>
<path d="M948 2818 c-33 -65 -44 -95 -35 -100 14 -9 14 -9 19 22 3 27 28 59
41 53 4 -2 7 1 7 6 0 6 -4 11 -10 11 -5 0 0 18 11 40 11 22 19 44 17 50 -1 5
-24 -32 -50 -82z"/>
<path d="M2774 2846 c-24 -6 -52 -23 -66 -41 -24 -29 -27 -55 -7 -55 6 0 7 5
3 12 -4 7 -3 8 4 4 6 -4 9 -13 6 -21 -4 -8 -10 -12 -15 -9 -14 8 -10 -20 5
-42 14 -18 15 -18 21 -1 10 23 56 47 94 47 52 0 82 -68 40 -91 -23 -12 -35 -4
-41 26 -5 31 -42 26 -46 -7 -4 -30 28 -58 66 -58 32 0 72 -43 72 -77 -1 -35
-15 -54 -60 -82 -65 -39 -140 -18 -140 38 0 52 51 73 60 26 4 -25 10 -30 34
-30 35 0 56 27 40 52 -6 10 -31 23 -55 30 -52 15 -79 44 -79 84 0 29 -24 50
-47 42 -6 -2 -14 1 -18 6 -8 15 -71 14 -98 -1 -12 -7 -37 -13 -55 -13 -34 -2
-82 -38 -82 -63 0 -9 -7 -6 -19 9 -11 13 -16 26 -12 29 5 3 13 14 19 26 26 50
-51 100 -92 59 -21 -21 -21 -63 1 -87 11 -12 12 -18 4 -18 -15 0 -50 -40 -51
-57 0 -6 7 -19 16 -28 13 -12 15 -25 9 -53 -4 -20 -8 -47 -9 -59 -1 -15 -4
-19 -13 -11 -7 6 -11 35 -10 80 2 66 0 71 -27 95 -23 20 -37 24 -63 20 l-33
-6 0 50 c0 43 -3 51 -24 61 -20 9 -32 7 -65 -9 -30 -15 -41 -17 -45 -7 -3 7
-17 18 -33 26 -15 8 -27 21 -27 30 1 11 -5 14 -20 11 -21 -4 -21 -4 -2 11 22
18 46 21 46 7 0 -5 8 -12 17 -15 13 -5 11 0 -6 18 l-24 26 -46 -26 c-116 -66
-201 -120 -201 -127 0 -4 19 5 43 21 91 62 157 86 173 60 4 -6 3 -8 -3 -5 -16
10 -80 -12 -112 -39 -41 -34 -89 -137 -97 -204 -18 -163 96 -266 239 -216 20
8 37 10 37 5 0 -17 76 -10 93 9 9 10 20 53 27 102 12 89 16 100 31 100 5 0 7
-30 4 -71 -8 -122 32 -161 125 -122 42 18 51 19 79 7 17 -7 31 -10 31 -6 0 4
12 9 28 10 19 1 23 -1 13 -7 -13 -8 -13 -12 -1 -28 9 -11 9 -14 1 -7 -8 8 -25
9 -52 3 -22 -5 -44 -7 -49 -4 -5 3 -11 2 -13 -2 -3 -5 -131 -8 -284 -7 -241 1
-292 4 -383 23 -58 11 -122 23 -143 27 -21 3 -49 9 -63 14 -22 9 -23 12 -11
37 20 46 153 189 242 262 22 17 30 27 19 22 -68 -33 -314 -297 -299 -321 4 -7
81 -25 150 -36 22 -3 42 -7 45 -9 3 -2 71 -11 150 -21 156 -19 546 -25 658
-11 52 7 62 6 62 -7 0 -15 -39 -22 -155 -29 -27 -2 -6 -4 47 -5 l97 -2 3 -42
c3 -40 5 -43 35 -46 42 -4 83 34 83 76 0 29 1 29 73 36 116 10 139 14 233 43
49 14 101 26 117 25 30 -1 37 14 10 21 -17 4 -17 5 0 6 9 0 17 8 17 16 0 19 5
20 -76 -11 -64 -24 -261 -74 -347 -89 -34 -5 -38 -4 -35 12 2 10 14 19 28 21
114 15 430 112 430 132 0 19 -19 17 -100 -12 -85 -29 -103 -35 -150 -45 -14
-3 -27 -9 -30 -13 -3 -4 -23 -10 -45 -14 -22 -3 -57 -9 -77 -12 -54 -9 -51 19
5 44 23 11 53 31 66 45 22 25 25 25 52 12 55 -29 131 -15 182 33 38 36 39 104
1 143 -20 21 -24 31 -16 45 5 11 12 41 15 67 4 45 4 47 -13 32 -15 -14 -18
-14 -30 0 -10 12 -10 15 3 15 8 0 19 6 25 13 9 10 6 17 -8 30 -28 23 -37 21
-15 -3 18 -19 17 -20 -2 -20 -11 0 -28 9 -39 21 -15 17 -16 22 -4 29 8 5 19 6
25 2 5 -3 4 2 -4 11 -7 9 -16 16 -20 16 -3 -1 -24 -7 -47 -13z m34 -48 c20
-20 13 -33 -25 -45 -42 -13 -53 -10 -53 16 0 23 19 41 45 41 12 0 26 -5 33
-12z m-434 -64 c21 -20 20 -30 -4 -54 -17 -17 -24 -18 -41 -10 -29 16 -34 38
-14 60 22 24 38 25 59 4z m-406 -14 c24 -23 30 -78 10 -98 -29 -29 -77 -1 -53
32 33 44 -24 64 -64 22 -47 -50 -69 -211 -38 -273 25 -47 62 -58 128 -36 l54
18 17 130 c9 72 17 133 17 138 1 4 -6 7 -14 7 -28 0 -15 30 19 47 59 28 70 15
62 -72 l-7 -75 25 25 c28 28 63 32 92 11 17 -13 19 -25 16 -115 -3 -109 3
-121 46 -83 28 24 42 172 17 172 -27 0 -13 32 23 53 27 16 35 17 48 6 14 -11
16 -30 12 -111 -6 -110 1 -124 43 -102 28 14 29 16 29 100 0 50 -4 83 -9 79
-5 -3 -13 0 -17 6 -9 16 40 59 67 59 11 0 22 -7 26 -15 5 -14 7 -13 19 3 7 11
27 25 44 32 28 11 34 11 58 -7 38 -28 52 -60 52 -118 -1 -97 -61 -175 -135
-175 l-30 0 3 -99 c4 -108 -6 -131 -54 -131 l-24 0 0 122 0 121 -23 -21 c-33
-31 -83 -39 -107 -17 -18 16 -20 16 -41 -4 -33 -31 -85 -38 -110 -15 -19 17
-20 26 -14 111 7 88 6 93 -12 93 -34 0 -50 -32 -62 -125 -13 -97 -16 -102 -46
-105 -37 -4 -47 0 -41 15 7 19 1 19 -29 -1 -38 -25 -124 -29 -165 -7 -99 52
-108 237 -16 357 48 63 141 86 184 46z m-54 -49 c3 -5 -1 -14 -9 -21 -12 -10
-13 -16 -3 -27 31 -38 72 -36 106 6 15 18 15 24 -9 -151 l-12 -86 -44 -13
c-106 -29 -145 58 -101 226 14 53 57 92 72 66z m509 -164 c-8 -72 -23 -56 -23
26 1 66 2 70 14 47 9 -16 12 -42 9 -73z"/>
<path d="M2541 2594 c-17 -22 -21 -41 -21 -100 0 -67 2 -74 19 -74 11 0 33 11
48 24 25 22 28 30 28 90 0 48 -4 69 -15 76 -24 15 -37 12 -59 -16z m46 -45 c3
-37 -13 -72 -28 -63 -6 3 -9 17 -6 30 2 13 0 21 -4 18 -13 -7 -11 3 3 26 18
29 33 24 35 -11z"/>
<path d="M1120 2755 c0 -7 -6 -18 -14 -22 -7 -4 -17 -19 -21 -31 -6 -19 0 -16
28 14 33 36 38 54 16 54 -5 0 -9 -7 -9 -15z"/>
<path d="M1355 2704 c-10 -19 -38 -53 -62 -74 -23 -22 -39 -40 -35 -40 22 0
132 133 121 145 -3 2 -13 -12 -24 -31z"/>
<path d="M156 2574 c-22 -8 -49 -12 -60 -9 -20 6 -20 5 -3 -6 15 -9 31 -8 70
4 29 9 63 18 77 20 18 3 15 4 -10 5 -19 0 -53 -6 -74 -14z"/>
<path d="M148 2501 c18 -17 37 -31 40 -31 13 0 102 -95 102 -108 0 -7 5 -12
11 -12 5 0 8 -4 5 -8 -2 -4 4 -14 16 -21 15 -10 13 -2 -11 33 -38 55 -120 135
-164 160 l-32 19 33 -32z"/>
<path d="M525 2469 c-5 -7 -4 -10 2 -6 14 9 51 -34 48 -56 -2 -9 0 -15 4 -12
4 2 15 -11 24 -30 9 -19 20 -35 25 -35 4 0 8 -8 9 -17 1 -10 5 -37 9 -61 8
-49 -14 -110 -48 -131 -30 -19 -68 -23 -84 -10 -8 7 -14 7 -14 1 0 -20 29 -34
59 -27 60 13 111 74 111 133 0 49 -30 131 -60 166 -16 18 -27 35 -25 38 3 2
-8 17 -24 32 -21 20 -31 24 -36 15z"/>
<path d="M1644 2228 c-16 -18 -37 -46 -47 -61 -18 -27 -18 -28 3 -15 11 7 20
16 20 20 0 5 13 22 30 39 30 32 42 33 150 14 36 -6 118 -15 155 -17 22 -1 45
-4 50 -7 6 -3 26 -7 45 -8 23 -1 42 -11 58 -28 26 -31 29 -24 5 16 -10 16 -23
29 -29 29 -48 0 -301 30 -385 46 -19 4 -32 -3 -55 -28z"/>
<path d="M2118 2223 c23 -2 59 -2 80 0 20 2 1 4 -43 4 -44 0 -61 -2 -37 -4z"/>
<path d="M319 2191 c7 -12 16 -19 22 -16 5 4 9 2 9 -4 0 -11 68 -53 114 -71
26 -10 28 -9 16 5 -12 15 -72 45 -87 44 -3 -1 -9 3 -12 8 -3 5 -21 20 -40 32
-33 24 -33 24 -22 2z"/>
<path d="M1296 2084 c-51 -18 -53 -21 -16 -22 17 0 28 3 25 8 -8 13 38 20 54
7 11 -10 13 -9 9 3 -6 20 -26 22 -72 4z"/>
<path d="M2800 1993 c-30 -32 -45 -49 -32 -38 22 18 23 18 45 -6 12 -13 21
-27 19 -32 -1 -5 2 -5 9 -2 7 5 1 17 -17 36 -23 24 -25 31 -14 44 16 20 30 19
46 -2 7 -10 14 -13 14 -7 0 6 -7 17 -15 24 -12 10 -13 16 -4 26 28 34 -1 9
-51 -43z"/>
<path d="M1335 2008 c-58 -42 -60 -45 -45 -63 12 -14 16 -12 41 17 42 51 47
25 6 -34 -37 -52 -41 -74 -10 -46 36 31 49 28 49 -9 0 -34 0 -34 -37 -28 -22
4 -40 2 -44 -4 -4 -7 5 -11 22 -11 15 0 34 -4 41 -9 14 -8 105 -211 99 -218
-3 -2 -23 25 -45 60 -68 103 -75 109 -134 101 -42 -6 -53 -4 -64 11 -8 11 -21
16 -33 12 -14 -3 -22 1 -26 12 -3 10 -19 30 -35 46 -23 22 -32 26 -43 17 -16
-14 -27 -6 -27 20 0 23 -47 25 -76 3 -19 -15 -19 -16 1 -13 11 2 23 7 27 13 4
5 18 -1 33 -15 16 -15 36 -24 49 -22 17 2 29 -8 51 -42 17 -27 32 -41 36 -35
3 6 14 -10 24 -35 14 -35 24 -48 44 -52 14 -3 34 -8 44 -11 12 -3 24 3 33 16
9 12 21 21 27 21 11 0 20 -12 67 -90 9 -14 34 -44 56 -68 33 -36 40 -50 39
-83 0 -21 -4 -39 -8 -39 -4 0 -20 0 -37 0 -17 0 -30 5 -30 13 0 7 -10 17 -22
22 -31 13 -34 51 -9 86 12 16 17 29 12 29 -12 0 -35 -43 -44 -81 -4 -16 -16
-29 -28 -32 -17 -4 -19 -3 -10 6 17 17 13 45 -9 67 -15 15 -20 33 -20 72 0 28
-3 49 -6 46 -3 -4 -6 -26 -6 -50 0 -39 -3 -45 -28 -55 -40 -15 -72 -69 -66
-110 4 -31 4 -32 -25 -26 -34 6 -74 -16 -84 -47 -3 -11 -12 -20 -19 -20 -20 0
-45 -33 -52 -67 -5 -24 -10 -29 -28 -26 -18 4 -22 10 -18 29 2 13 -1 31 -8 39
-10 12 -9 16 4 21 20 8 21 28 1 44 -19 16 -19 44 -1 59 11 9 18 5 35 -21 11
-18 21 -28 21 -22 0 5 -5 15 -12 22 -9 9 -7 16 7 32 l19 21 18 -23 c13 -17 18
-19 18 -7 0 8 -5 20 -10 25 -17 17 -2 40 35 54 19 8 35 19 35 25 0 7 11 17 24
23 17 7 29 25 36 53 6 22 9 43 7 46 -3 2 -8 -9 -12 -26 -8 -38 -55 -73 -93
-70 -15 2 -40 15 -56 29 l-28 25 7 -25 c10 -35 15 -39 62 -41 40 -3 52 -19 13
-19 -10 0 -21 -4 -25 -10 -3 -5 -12 -7 -20 -4 -18 7 -49 -22 -42 -40 3 -7 1
-19 -4 -27 -7 -11 -9 -9 -9 9 0 12 -5 22 -10 22 -6 0 -16 12 -22 26 -10 22
-10 28 6 40 17 12 21 11 33 -4 10 -14 10 -11 -1 17 -8 21 -26 40 -47 51 -19 9
-46 24 -61 34 -18 12 -28 14 -33 6 -4 -6 -5 -12 -4 -13 2 -1 26 -13 53 -25 67
-32 50 -47 -54 -47 -43 0 -82 -3 -86 -7 -3 -4 4 -6 17 -6 60 4 129 -3 129 -12
0 -6 -11 -15 -24 -20 -14 -5 -32 -21 -42 -35 -9 -14 -23 -25 -30 -25 -8 0 -14
-4 -14 -9 0 -5 -17 -16 -37 -26 -70 -32 -82 -77 -34 -126 26 -26 32 -28 60
-18 17 6 29 14 26 19 -8 13 55 34 67 22 7 -7 4 -14 -10 -23 -12 -7 -18 -19
-14 -27 3 -9 1 -13 -5 -9 -7 4 -22 -17 -39 -53 -21 -46 -30 -57 -36 -45 -18
31 -88 5 -88 -33 0 -7 -15 -11 -39 -10 -51 2 -85 -21 -112 -74 -35 -69 -16
-188 42 -262 25 -31 91 -65 127 -66 30 0 103 43 120 70 7 11 20 20 31 20 24 0
51 31 51 58 0 12 -11 46 -24 77 -14 30 -21 55 -16 55 5 0 11 -9 15 -19 10 -32
56 -71 84 -71 44 0 73 12 67 26 -6 16 10 19 19 4 8 -12 35 13 35 32 0 7 16 26
35 41 34 27 55 29 55 5 0 -6 11 -26 25 -44 l25 -33 -92 -74 c-106 -84 -219
-162 -328 -224 -41 -24 -68 -43 -60 -43 20 0 87 35 180 94 70 44 194 129 200
135 3 4 25 22 50 41 25 19 48 38 51 43 4 5 9 4 13 -2 10 -15 52 6 64 34 8 18
5 31 -15 66 l-25 44 23 15 c12 8 47 39 77 67 77 74 110 69 49 -7 -12 -16 -30
-29 -39 -29 -9 -1 -19 -5 -22 -10 -4 -5 6 -8 21 -6 15 1 29 8 31 14 2 6 15 11
29 11 15 0 23 3 20 7 -15 14 18 33 59 33 26 0 49 6 59 16 12 13 19 14 30 4 8
-7 12 -16 9 -21 -3 -5 0 -17 5 -27 6 -11 12 -39 15 -63 2 -24 11 -60 19 -79
16 -39 31 -107 21 -97 -4 3 -22 0 -41 -8 -18 -8 -40 -12 -48 -9 -8 4 -15 1
-15 -4 0 -6 -10 -13 -22 -15 -15 -3 -11 -5 13 -6 19 0 39 3 45 8 5 6 24 12 42
16 24 4 32 2 32 -10 0 -15 34 -82 51 -100 15 -15 11 13 -7 48 -9 17 -29 96
-45 176 -35 175 -55 241 -76 241 -8 0 -17 -8 -20 -19 -2 -10 -16 -24 -30 -30
-22 -10 -35 -7 -88 18 -35 16 -66 27 -68 24 -3 -2 -16 1 -29 8 -12 7 -36 16
-53 20 -29 7 -29 7 9 8 51 1 103 51 112 110 4 22 7 41 8 41 1 0 16 -4 34 -9
25 -8 32 -7 32 5 0 8 4 14 9 14 5 0 7 -16 6 -36 -3 -23 2 -42 12 -52 10 -10
13 -25 9 -44 -3 -15 -1 -28 4 -28 6 0 10 9 10 19 0 33 20 34 26 2 4 -17 10
-31 14 -31 5 0 1 22 -8 50 -11 33 -22 49 -32 47 -10 -1 -14 5 -12 18 2 11 4
25 4 31 1 11 -90 258 -122 329 -28 62 -37 112 -39 205 -1 47 -5 88 -9 91 -4 4
-25 -7 -47 -23z m-42 -267 c16 -1 18 -4 8 -10 -9 -6 -10 -11 -2 -15 6 -4 11
-12 11 -18 0 -15 -81 -3 -91 14 -20 32 -13 34 74 29z m21 -217 c12 -12 13 -20
6 -35 -13 -23 -26 -25 -34 -4 -6 17 -32 20 -41 5 -3 -5 -1 -19 5 -31 12 -21
29 -22 102 -4 19 5 31 2 47 -14 57 -57 -22 -186 -94 -153 -27 12 -34 49 -14
69 9 9 16 6 30 -10 14 -18 21 -20 36 -11 23 14 28 47 9 63 -12 10 -23 11 -47
2 -69 -24 -109 -3 -109 57 0 64 65 105 104 66z m-356 -15 c18 -28 5 -40 -14
-14 -15 19 -15 19 -9 -6 4 -17 1 -30 -10 -39 -11 -9 -14 -22 -10 -40 8 -34
-20 -64 -32 -34 -4 11 -15 28 -25 38 -22 24 -23 40 -3 56 17 14 17 14 33 -15
8 -14 11 -15 11 -5 0 8 -6 24 -14 34 -17 22 -19 36 -7 36 5 0 16 -15 25 -32 9
-20 16 -26 16 -16 1 9 -4 20 -9 23 -8 5 -7 11 1 21 16 20 32 17 47 -7z m-120
-85 c24 -36 21 -64 -2 -32 -17 23 -27 12 -19 -20 4 -16 2 -23 -4 -19 -6 4 -13
-2 -16 -13 -13 -49 -68 -9 -72 51 -2 25 1 26 26 19 22 -7 34 -4 51 10 13 11
17 19 11 20 -7 0 -13 5 -13 10 0 20 15 9 38 -26z m380 -46 c26 -22 52 -88 52
-133 0 -38 -5 -52 -30 -77 -16 -16 -30 -32 -30 -34 0 -3 20 -35 45 -72 25 -37
45 -72 45 -78 0 -12 -38 -50 -44 -43 -1 2 -27 42 -56 88 -50 77 -54 82 -62 60
-14 -36 -39 -59 -64 -59 -17 0 -27 -9 -37 -32 -36 -85 -82 -76 -133 24 -30 60
-38 69 -49 57 -23 -24 -21 -42 15 -123 l34 -79 -24 -19 c-18 -14 -25 -16 -31
-6 -9 14 -8 14 -33 -25 -24 -38 -74 -67 -117 -67 -86 0 -161 101 -163 221 -1
74 16 110 67 139 35 20 78 4 92 -34 8 -23 6 -30 -9 -41 -23 -18 -45 -9 -39 16
7 23 -21 36 -42 19 -38 -32 9 -190 70 -238 42 -33 72 -28 116 18 l38 39 -52
110 c-33 71 -56 107 -64 104 -20 -8 -16 31 5 57 24 30 35 22 73 -48 l30 -57
-6 47 c-6 47 8 95 41 146 l16 24 19 -21 c11 -12 26 -21 34 -21 10 0 11 -6 2
-29 -13 -35 -4 -61 22 -61 10 0 21 -9 24 -20 7 -28 -10 -25 -50 10 -18 17 -39
30 -46 30 -18 0 -57 -29 -57 -42 0 -6 8 -4 18 5 41 37 71 19 117 -70 30 -58
46 -66 63 -29 9 19 5 33 -23 82 -22 40 -38 58 -49 56 -9 -2 -16 2 -16 8 0 21
31 70 44 70 7 0 34 -36 60 -81 26 -44 52 -79 59 -76 7 2 17 14 24 27 10 20 7
30 -24 80 -21 33 -43 57 -52 56 -11 -1 -15 6 -13 23 3 32 21 53 41 49 10 -2
20 7 26 27 18 52 74 63 123 23z m135 -5 c-5 -12 -3 -14 8 -8 8 5 11 5 6 -1
-17 -19 -53 -3 -41 18 10 16 34 8 27 -9z m-403 -58 c20 -24 3 -57 -28 -53 -30
3 -41 30 -22 53 16 19 34 19 50 0z m139 -135 c22 -39 22 -78 1 -65 -9 5 -80
121 -80 130 0 2 13 -3 28 -11 15 -7 38 -32 51 -54z m197 -5 c-9 -13 -26 -30
-38 -36 -21 -10 -20 -8 4 18 15 16 31 44 35 63 8 34 8 34 11 7 2 -16 -4 -39
-12 -52z m84 34 c0 -4 -5 -11 -10 -14 -6 -4 -22 -24 -36 -46 -15 -24 -32 -39
-44 -39 -27 0 -25 22 4 50 14 12 28 35 31 51 6 25 8 27 31 17 13 -6 24 -15 24
-19z m-631 -161 c42 -91 59 -138 51 -143 -5 -3 -7 -12 -4 -19 7 -18 -33 -46
-66 -46 -31 0 -59 28 -88 85 -25 50 -35 99 -27 125 8 27 23 25 27 -2 5 -35 52
-37 73 -4 9 14 14 30 10 36 -3 5 -4 10 -1 10 2 0 14 -19 25 -42z"/>
<path d="M745 1391 c-7 -13 12 -51 25 -51 6 0 10 8 10 19 0 23 -25 46 -35 32z"/>
<path d="M1120 1321 c-15 -29 -13 -34 25 -93 39 -59 53 -65 72 -28 16 31 9 65
-23 108 -28 36 -58 41 -74 13z m70 -33 c21 -35 26 -83 11 -93 -11 -6 -71 76
-71 98 0 38 35 35 60 -5z"/>
<path d="M1007 1968 c-25 -29 -43 -55 -41 -58 3 -2 9 2 14 10 7 10 10 11 10 3
0 -7 5 -13 11 -13 6 0 9 7 5 15 -3 8 -1 15 4 15 6 0 10 5 10 10 0 6 11 22 24
36 21 23 26 25 47 13 22 -11 23 -11 10 4 -23 28 -47 19 -94 -35z"/>
<path d="M948 1993 c-10 -2 -18 -9 -18 -14 0 -6 -5 -7 -11 -3 -8 4 -9 -1 -4
-17 7 -21 6 -22 -9 -10 -9 8 -19 12 -21 9 -3 -3 2 -11 11 -19 14 -11 20 -8 45
20 25 29 35 44 27 40 -2 -1 -11 -3 -20 -6z"/>
<path d="M1912 1980 c-40 -6 -39 -26 1 -22 52 6 78 -44 37 -70 -11 -7 -20 -19
-20 -27 0 -10 12 -4 33 16 17 17 43 33 57 36 21 3 19 5 -8 6 -18 0 -31 5 -28
10 3 5 -1 12 -9 15 -9 3 -19 14 -23 23 -5 14 -15 17 -40 13z"/>
<path d="M1180 1973 c0 -7 -7 -13 -15 -13 -8 0 -14 -3 -14 -7 3 -21 -3 -24
-18 -12 -16 13 -17 12 -4 -3 9 -12 21 -16 38 -12 16 4 28 2 34 -7 7 -11 9 -9
9 7 0 22 -29 68 -30 47z"/>
<path d="M1796 1971 c-3 -5 1 -11 9 -15 8 -3 15 -1 15 4 0 5 6 7 14 4 8 -3 17
-1 21 5 4 7 -5 11 -24 11 -16 0 -32 -4 -35 -9z"/>
<path d="M1640 1934 c-55 -25 -104 -64 -121 -96 -14 -27 -6 -22 41 22 23 22
47 37 54 33 6 -3 8 -2 3 2 -8 10 93 56 105 49 5 -3 8 0 8 5 0 18 -32 12 -90
-15z"/>
<path d="M869 1937 c19 -24 6 -34 -17 -13 -20 17 -57 12 -46 -6 4 -6 10 -5 15
3 6 11 13 9 32 -9 20 -19 26 -20 35 -9 9 11 7 18 -10 33 -19 16 -21 16 -9 1z"/>
<path d="M2766 1935 c-12 -9 -15 -15 -7 -15 9 0 11 -8 6 -27 l-7 -28 26 24
c28 27 36 52 10 30 -15 -12 -16 -11 -10 9 9 26 7 26 -18 7z"/>
<path d="M270 1900 c-11 -20 -47 -27 -66 -12 -5 4 0 -1 11 -12 12 -10 19 -29
18 -45 -1 -18 0 -20 4 -6 2 11 21 37 41 58 26 27 31 37 19 37 -9 0 -21 -9 -27
-20z"/>
<path d="M928 1883 c-26 -31 -30 -43 -14 -43 9 0 16 7 16 16 0 9 8 23 18 30 9
7 12 14 6 14 -6 0 -18 -8 -26 -17z"/>
<path d="M1249 1880 c-1 -8 -1 -19 0 -24 1 -4 -4 -14 -10 -22 -9 -11 -8 -14 5
-14 19 0 33 47 17 63 -8 8 -11 7 -12 -3z"/>
<path d="M800 1858 c16 -19 12 -28 -16 -38 -14 -6 -23 -14 -20 -19 3 -5 -18
-42 -48 -82 -29 -41 -67 -101 -85 -133 -17 -32 -31 -55 -31 -50 -1 5 -14 -17
-31 -48 -16 -32 -31 -58 -34 -58 -11 0 -66 68 -71 88 -6 21 -15 26 -41 23 -7
-1 -13 4 -13 10 0 7 -3 9 -6 6 -4 -3 17 -32 46 -64 29 -32 59 -73 67 -92 l14
-34 41 79 c51 100 133 226 214 330 35 45 60 84 57 88 -10 10 -25 7 -18 -4 3
-5 2 -10 -2 -10 -5 0 -14 5 -21 10 -9 7 -9 7 -2 -2z"/>
<path d="M2443 1795 c4 -5 33 -12 64 -16 52 -7 61 -13 102 -58 46 -49 87 -78
99 -67 3 3 0 6 -7 6 -6 0 -43 29 -81 65 -61 57 -74 65 -109 65 -22 0 -48 3
-58 7 -10 3 -15 2 -10 -2z"/>
<path d="M761 1674 c-36 -49 -35 -75 0 -30 17 22 28 27 51 24 34 -5 36 16 2
38 -19 13 -23 11 -53 -32z"/>
<path d="M550 1700 c-8 -5 -27 -10 -42 -10 -18 0 -28 -5 -28 -14 0 -17 39 -13
84 10 36 17 33 18 39 -6 5 -21 4 -21 -115 -55 -45 -12 -48 -12 -48 6 0 10 7
19 15 19 8 0 15 5 15 11 0 7 -9 9 -22 5 -13 -3 -30 -6 -38 -6 -24 0 -43 -17
-35 -29 5 -9 11 -7 20 6 15 20 19 18 29 -14 5 -16 3 -23 -6 -24 -7 0 -23 -2
-35 -5 -18 -3 -23 1 -23 17 0 18 -2 19 -15 9 -21 -17 -19 -23 17 -50 24 -17
30 -19 25 -7 -4 10 -1 18 6 18 7 1 23 3 37 4 14 2 31 -4 38 -13 11 -14 12 -14
12 5 0 21 25 35 82 49 38 9 65 41 52 62 -13 20 -43 26 -64 12z"/>
<path d="M190 1696 c0 -24 118 -221 128 -212 2 3 -6 19 -18 36 -12 17 -20 34
-16 37 5 5 47 -30 129 -105 29 -27 77 -104 77 -123 0 -30 -19 -69 -33 -69 -9
0 -18 -17 -22 -42 -6 -31 -9 -37 -12 -20 -3 12 -9 22 -14 22 -5 0 -9 8 -9 18
0 18 -49 154 -49 138 -1 -10 28 -126 36 -146 8 -19 7 -13 22 -93 7 -37 15 -66
17 -64 2 2 15 41 28 88 13 46 34 106 45 132 l21 49 -37 46 c-20 26 -70 82
-112 124 -61 63 -76 74 -85 62 -9 -11 -16 -5 -36 33 -25 49 -60 101 -60 89z"/>
<path d="M2023 1680 c-32 -13 -29 -17 7 -12 45 6 73 -4 129 -48 48 -38 54 -40
119 -40 98 0 162 -14 245 -55 41 -20 61 -26 47 -15 -61 48 -219 94 -300 89
-27 -2 -49 6 -92 35 -31 20 -71 41 -90 46 -38 11 -36 12 -65 0z"/>
<path d="M1993 1629 c-25 -25 37 -98 118 -139 54 -28 58 -25 14 10 -21 17 -44
30 -51 30 -8 0 -14 4 -14 9 0 5 -14 24 -30 42 -17 17 -29 38 -26 46 7 16 4 17
-11 2z"/>
<path d="M714 1559 c-10 -12 -28 -25 -39 -29 -29 -11 -121 -190 -111 -215 7
-17 11 -12 27 27 10 26 30 65 43 87 14 21 23 41 20 44 -3 2 18 28 47 56 28 28
47 51 42 51 -6 0 -18 -10 -29 -21z"/>
<path d="M1165 1560 c-3 -5 -1 -18 5 -29 13 -26 -5 -38 -20 -14 -11 17 -11 17
-6 -1 9 -28 -12 -50 -32 -34 -13 11 -15 10 -9 -4 6 -18 -24 -56 -60 -77 -14
-8 -15 -12 -6 -22 9 -9 20 -4 47 23 20 20 38 33 42 29 4 -3 4 -1 0 6 -6 12 31
40 47 35 4 -1 7 6 7 16 0 10 5 23 12 30 8 8 9 12 1 12 -6 0 -9 9 -6 20 5 20
-11 28 -22 10z"/>
<path d="M2167 1464 c-3 -4 6 -19 21 -33 35 -35 73 -81 66 -81 -3 0 3 -12 14
-27 11 -16 37 -67 59 -114 38 -81 112 -201 132 -213 5 -3 -11 29 -35 72 -24
42 -53 100 -64 129 -30 82 -62 143 -70 138 -4 -2 -13 7 -20 20 -7 14 -17 25
-22 25 -4 0 -8 6 -8 13 0 6 -16 23 -34 37 -19 14 -32 28 -29 33 5 9 -1 9 -10
1z"/>
<path d="M987 1390 c25 -49 33 -56 46 -44 9 9 -4 34 -18 34 -7 0 -18 14 -25
30 -7 17 -16 30 -21 30 -4 0 4 -22 18 -50z"/>
<path d="M1975 1300 l-50 -7 45 -1 c25 -1 52 3 60 8 8 5 11 9 5 8 -5 -1 -32
-4 -60 -8z"/>
<path d="M512 1223 c-17 -43 -38 -108 -48 -144 l-18 -67 29 -98 c16 -55 33
-108 39 -119 5 -11 11 -28 13 -37 2 -15 53 -148 59 -156 5 -7 205 98 301 158
54 34 144 96 200 138 99 75 102 77 82 93 -20 15 -23 13 -72 -38 -68 -71 -290
-226 -327 -227 -18 -1 -26 -5 -23 -13 3 -8 -3 -13 -15 -13 -11 0 -30 -12 -41
-26 -22 -28 -66 -40 -77 -22 -4 6 -9 6 -14 -2 -10 -15 -27 13 -32 53 -2 14
-12 35 -22 46 -17 18 -17 19 0 23 16 3 16 4 1 19 -9 9 -13 19 -10 23 4 3 1 6
-6 6 -8 0 -11 6 -7 16 9 23 -25 119 -35 102 -7 -10 -9 -8 -10 7 0 11 -2 29 -4
40 -6 30 41 200 68 250 20 36 23 46 12 55 -10 9 -19 -5 -43 -67z"/>
<path d="M2732 1240 c-1 -25 -5 -56 -8 -70 -5 -19 -4 -22 5 -14 8 7 11 33 8
70 -3 51 -3 53 -5 14z"/>
<path d="M273 1173 c-7 -2 -13 -9 -13 -15 0 -6 7 -5 16 3 14 11 18 11 28 -1 6
-8 20 -22 31 -30 11 -8 7 0 -9 18 -31 33 -32 34 -53 25z"/>
<path d="M2739 1137 c-44 -37 -65 -92 -31 -80 9 3 14 2 10 -2 -5 -5 6 -16 22
-26 30 -19 39 -42 20 -54 -6 -4 -8 -11 -4 -16 8 -14 24 -1 24 20 0 9 16 32 35
51 19 19 35 39 35 46 0 6 7 14 15 18 20 7 19 19 -4 33 -16 10 -18 9 -14 -8 6
-23 -5 -24 -31 -4 -11 8 -28 15 -38 15 -23 0 -24 17 0 23 12 3 12 5 2 5 -8 1
-27 -9 -41 -21z m66 -31 c16 -12 18 -19 10 -43 -11 -31 -47 -42 -71 -23 -19
16 -18 39 3 62 19 22 33 23 58 4z"/>
<path d="M1579 1110 c3 -18 17 -40 29 -48 23 -15 23 -15 11 14 -7 16 -20 37
-30 48 -16 18 -17 17 -10 -14z"/>
<path d="M1525 1046 c-7 -56 -1 -121 15 -146 5 -9 9 26 8 93 0 114 -12 142
-23 53z"/>
<path d="M1580 1024 c0 -27 -3 -67 -6 -89 -7 -55 11 -24 22 35 12 71 12 80 -3
91 -10 9 -13 2 -13 -37z"/>
<path d="M2660 1019 c-6 -11 -26 -29 -43 -39 -18 -11 -27 -20 -21 -20 6 0 23
9 38 21 15 12 34 18 43 15 13 -5 14 -4 4 8 -7 8 -10 20 -6 26 3 5 4 10 1 10
-3 0 -10 -9 -16 -21z"/>
<path d="M2802 968 c-17 -17 -15 -28 4 -28 9 0 31 -9 48 -19 45 -28 146 -53
146 -36 0 7 -19 15 -45 18 -51 7 -120 39 -132 62 -7 12 -12 12 -21 3z"/>
<path d="M1330 903 c32 -42 70 -103 70 -113 0 -26 135 -109 152 -92 6 6 -2 12
-21 15 -41 9 -105 68 -158 149 -25 38 -49 68 -55 68 -5 0 0 -12 12 -27z"/>
<path d="M1530 810 c13 -9 13 -10 0 -10 -8 -1 5 -11 29 -22 31 -15 48 -19 59
-11 30 18 22 29 -29 41 -61 15 -79 15 -59 2z"/>
<path d="M1636 764 c-4 -9 -5 -17 -4 -18 93 -44 174 -106 174 -135 0 -12 -5
-21 -11 -21 -5 -1 -23 -7 -40 -14 l-30 -13 32 1 c17 1 29 4 26 9 -9 15 25 6
40 -11 26 -28 22 -49 -5 -26 l-21 19 18 -27 c17 -28 9 -38 -13 -16 -9 9 -12 8
-12 -5 0 -15 -3 -16 -22 -6 -21 11 -22 11 -9 -4 21 -26 -7 -22 -38 6 l-26 22
19 -23 c20 -23 14 -44 -6 -24 -17 17 -28 15 -22 -3 9 -22 -6 -18 -34 8 l-25
22 19 -29 19 -30 -23 6 c-12 4 -20 2 -16 -3 8 -14 -20 -11 -35 4 -7 6 -12 8
-11 2 5 -22 -1 -27 -15 -15 -12 10 -15 10 -15 -3 0 -10 -6 -14 -15 -11 -8 4
-15 1 -15 -5 0 -6 -3 -10 -7 -9 -5 1 -18 -3 -31 -10 -12 -7 -26 -10 -31 -7 -5
3 -11 -1 -14 -7 -3 -10 -7 -10 -21 1 -14 12 -16 12 -10 -3 7 -19 -6 -21 -26
-3 -11 9 -11 8 0 -7 14 -18 13 -19 -9 -13 -17 4 -21 3 -13 -5 8 -8 34 -2 94
20 46 17 142 47 213 67 217 61 206 57 199 80 -28 94 -107 240 -125 230 -5 -3
-22 1 -38 10 -38 19 -57 19 -65 -1z"/>
<path d="M1028 699 c-23 -17 -98 -111 -98 -124 0 -15 33 12 47 39 9 17 34 48
56 69 43 39 40 50 -5 16z"/>
<path d="M1580 705 c-11 -13 -9 -15 12 -15 13 0 57 -16 97 -35 41 -20 76 -34
78 -32 3 3 -117 71 -168 95 -3 1 -12 -4 -19 -13z"/>
<path d="M2356 675 c-10 -8 -22 -12 -26 -10 -23 14 -155 -49 -202 -96 -26 -25
-51 -39 -78 -44 -39 -7 -80 -37 -80 -59 1 -39 74 -71 136 -60 64 12 135 -13
214 -73 41 -31 77 -59 80 -62 3 -3 34 -19 69 -36 51 -24 77 -30 132 -30 60 0
69 -2 69 -18 0 -10 5 -15 10 -12 6 3 10 2 10 -4 0 -6 9 -15 20 -21 22 -12 55
3 65 29 4 11 3 11 -9 2 -22 -18 -39 -3 -31 27 5 22 4 24 -10 12 -8 -7 -19 -10
-23 -6 -4 4 2 14 12 22 25 18 46 2 39 -29 -3 -15 -2 -18 4 -9 5 7 16 10 24 7
9 -3 34 15 64 47 28 28 42 46 33 39 -10 -7 -25 -11 -34 -7 -12 5 -14 1 -8 -17
6 -20 4 -20 -25 7 -23 23 -28 32 -20 43 16 18 36 16 48 -4 5 -10 12 -15 16
-12 3 4 -1 14 -10 22 -19 20 -19 26 3 51 9 12 -5 1 -33 -24 l-50 -45 -12 67
c-7 37 -18 78 -25 90 -7 13 -11 26 -10 30 1 4 -23 33 -52 65 -63 67 -133 101
-232 110 -35 3 -61 10 -58 14 7 12 2 11 -20 -6z m170 -42 c71 -24 165 -120
189 -193 25 -74 26 -152 2 -178 -26 -29 -104 -44 -166 -32 -64 12 -111 36
-186 95 -98 77 -145 95 -250 95 -88 0 -135 14 -135 41 0 24 42 49 81 49 35 0
48 6 82 41 40 40 97 74 147 90 47 14 184 10 236 -8z m274 -360 c24 -21 25 -36
5 -53 -21 -17 -31 -5 -14 16 12 15 12 16 -6 11 -11 -4 -26 -2 -34 2 -12 8 -12
12 -2 25 17 20 26 20 51 -1z m-83 -85 c13 -12 23 -26 23 -31 0 -10 -59 34 -59
46 -1 13 12 8 36 -15z"/>
<path d="M870 579 c-39 -24 -70 -53 -70 -68 0 -5 -4 -11 -8 -13 -31 -12 -125
-198 -109 -214 3 -3 17 21 32 53 38 79 72 127 144 201 65 66 67 75 11 41z"/>
<path d="M1598 579 c-27 -17 3 -20 49 -6 l48 15 -43 -1 c-23 0 -48 -4 -54 -8z"/>
<path d="M1525 565 c-5 -2 -36 -11 -68 -20 -31 -9 -55 -20 -52 -25 3 -5 -3
-11 -12 -13 -17 -4 -17 -5 0 -6 10 0 34 6 55 15 20 9 48 18 62 20 54 9 70 15
70 24 0 10 -34 12 -55 5z"/>
<path d="M879 509 c-87 -103 -171 -239 -149 -239 6 0 19 14 28 31 9 17 32 51
50 75 29 38 36 43 53 33 20 -10 20 -10 4 15 -16 25 -16 27 9 57 14 17 26 27
26 23 0 -5 7 2 16 14 34 48 6 41 -37 -9z"/>
<path d="M1596 522 c-4 -4 -11 -7 -14 -8 -4 0 -20 -6 -35 -12 -16 -7 -34 -9
-40 -6 -9 5 -9 4 -1 -5 7 -8 24 -7 64 7 30 10 49 21 43 25 -5 4 -13 3 -17 -1z"/>
<path d="M1175 478 c-27 -5 -52 -12 -55 -16 -3 -4 -23 -23 -45 -41 -22 -19
-33 -32 -25 -29 8 3 32 11 53 19 20 7 37 17 37 22 0 5 6 7 14 4 16 -6 76 28
76 43 0 5 -1 9 -2 9 -2 -1 -25 -6 -53 -11z"/>
<path d="M1053 457 c-17 -7 -35 -16 -40 -20 -14 -14 51 5 67 19 17 16 15 16
-27 1z"/>
<path d="M1105 368 c-132 -43 -274 -88 -315 -99 -41 -11 -79 -24 -85 -31 -7
-8 -5 -9 9 -4 11 4 60 18 109 32 50 14 138 41 196 61 99 33 106 34 118 17 7
-10 13 -13 13 -8 0 6 -6 16 -12 23 -11 11 -9 13 10 8 12 -3 20 -2 17 3 -6 10
43 23 57 14 6 -4 8 -3 5 3 -8 12 69 37 85 27 7 -4 8 -3 4 4 -10 16 16 15 34 0
12 -11 12 -10 1 5 -11 14 -11 17 1 17 8 0 20 -6 28 -12 12 -11 12 -10 1 5 -7
9 -19 17 -25 16 -6 0 -119 -37 -251 -81z"/>
<path d="M893 364 c-16 -7 -22 -13 -13 -14 16 -2 17 -2 53 4 12 3 30 5 40 5 9
1 17 4 17 9 0 12 -67 9 -97 -4z"/>
<path d="M1289 347 c11 -15 11 -17 -1 -17 -8 0 -20 6 -28 13 -12 10 -12 9 -1
-5 11 -15 11 -18 -1 -18 -8 0 -20 6 -28 13 -12 10 -12 9 -1 -5 16 -21 26 -22
64 -5 l28 12 -23 14 c-21 13 -22 13 -9 -2z"/>
<path d="M811 319 c-35 -29 -22 -31 24 -3 29 17 34 24 20 24 -11 -1 -31 -10
-44 -21z"/>
<path d="M656 224 c5 -71 3 -82 -13 -88 -29 -11 1 -23 67 -25 46 -2 63 2 77
16 10 10 25 17 34 15 9 -2 19 4 22 13 8 19 6 19 -77 -5 -38 -11 -72 -17 -77
-15 -7 5 -24 76 -33 140 -3 17 -2 -7 0 -51z"/>
<path d="M1905 282 c-31 -6 -44 -21 -40 -44 6 -27 33 -68 45 -68 6 0 10 -9 10
-21 0 -15 -4 -19 -16 -15 -10 4 -14 1 -12 -6 7 -20 41 -15 44 6 4 25 64 86 85
86 31 0 32 21 3 49 -20 18 -23 19 -9 3 10 -12 15 -25 11 -29 -12 -13 -35 -11
-40 2 -7 20 -57 42 -81 37z m55 -26 c28 -34 -11 -93 -47 -70 -32 20 -39 41
-19 63 22 24 49 27 66 7z"/>
<path d="M161 255 c-14 -14 -22 -28 -18 -31 4 -4 7 -3 7 3 0 5 7 10 15 10 8 0
12 -4 9 -9 -7 -11 28 -57 44 -58 10 0 12 -9 7 -31 -5 -22 -4 -29 4 -25 6 4 11
15 11 25 0 21 60 81 82 81 19 0 32 27 17 35 -5 4 -8 1 -7 -6 6 -25 -33 -21
-53 5 -27 35 -84 35 -118 1z m103 -1 c20 -19 20 -24 0 -52 -26 -37 -74 -23
-74 23 0 42 44 59 74 29z"/>
<path d="M300 154 c-30 -30 -48 -52 -38 -49 14 6 105 105 96 105 -2 0 -28 -25
-58 -56z"/>
<path d="M1032 203 c-10 -4 -8 -11 9 -29 26 -28 18 -45 -9 -21 -10 10 -24 17
-32 17 -7 0 -1 -10 14 -21 23 -18 32 -20 52 -10 28 12 32 29 7 27 -13 -1 -18
6 -17 22 1 23 -2 24 -24 15z"/>
<path d="M1995 160 c-27 -27 -47 -52 -44 -55 3 -2 27 18 54 45 27 27 47 52 44
55 -3 2 -27 -18 -54 -45z"/>
<path d="M2642 148 c-16 -16 -15 -33 3 -48 18 -15 20 1 3 18 -9 9 -9 15 0 24
9 9 15 9 24 0 17 -17 33 -15 18 3 -15 18 -32 19 -48 3z"/>
<path d="M962 138 c-15 -15 -16 -45 -1 -54 6 -3 16 -1 22 5 8 8 6 11 -6 11 -9
0 -17 7 -17 15 0 8 9 15 20 15 11 0 20 -5 20 -11 0 -5 5 -7 10 -4 8 5 7 11 -1
21 -14 17 -31 18 -47 2z"/>
</g>
</svg>
