<?xml version="1.0" standalone="no"?>
<!DOCTYPE svg PUBLIC "-//W3C//DTD SVG 20010904//EN"
 "http://www.w3.org/TR/2001/REC-SVG-20010904/DTD/svg10.dtd">
<svg version="1.0" xmlns="http://www.w3.org/2000/svg"
 width="225.000000pt" height="225.000000pt" viewBox="0 0 225.000000 225.000000"
 preserveAspectRatio="xMidYMid meet">
<metadata>
Created by potrace 1.10, written by Peter Selinger 2001-2011
</metadata>
<g transform="translate(0.000000,225.000000) scale(0.100000,-0.100000)"
fill="#000000" stroke="none">
<path d="M988 2208 c-29 -10 -39 -43 -15 -51 9 -3 8 -12 -5 -35 -23 -38 -23
-70 -1 -94 15 -17 15 -29 5 -118 -12 -105 -46 -220 -119 -408 -25 -65 -42
-125 -39 -136 3 -11 -2 -45 -10 -74 -13 -42 -15 -81 -10 -176 3 -66 6 -157 6
-201 0 -44 9 -141 20 -215 25 -167 25 -229 0 -400 -24 -159 -25 -219 -6 -245
13 -18 31 -19 321 -20 292 0 307 1 321 19 21 29 18 71 -18 264 l-32 173 23
231 c15 154 19 234 12 241 -7 7 -6 17 1 31 19 36 22 223 3 286 -8 30 -17 71
-19 90 -1 19 -24 89 -50 155 -55 142 -89 265 -107 393 -7 50 -16 92 -19 92
-14 0 23 -234 45 -292 5 -12 2 -18 -8 -18 -15 0 -41 109 -53 228 -4 34 -11 62
-15 62 -11 0 -10 -103 1 -180 7 -53 7 -53 10 -15 l2 40 8 -45 c4 -25 9 -54 11
-65 4 -18 -2 -20 -89 -23 l-93 -3 2 116 c1 64 -1 118 -3 121 -7 6 -20 -195
-14 -205 3 -4 6 -82 6 -172 l2 -164 -24 3 c-12 2 -24 5 -25 6 -2 1 2 39 7 84
7 61 6 91 -4 119 l-13 38 -16 -50 c-20 -65 -37 -148 -37 -185 0 -29 -22 -42
-35 -20 -7 12 27 146 70 275 31 92 54 205 42 205 -3 0 -10 -30 -16 -67 -16
-92 -20 -103 -38 -103 -9 0 -13 6 -10 14 3 8 16 75 29 149 26 156 15 146 157
148 113 1 125 7 129 56 2 33 -2 46 -22 66 -14 14 -22 27 -19 30 11 12 -92 19
-169 12 -64 -5 -79 -4 -76 7 3 7 27 16 54 21 59 9 216 -1 208 -14 -3 -5 -1 -9
5 -9 6 0 7 -7 4 -17 -4 -11 -3 -14 5 -9 21 13 13 46 -14 56 -33 13 -231 11
-266 -2z m185 -45 c-18 -2 -48 -2 -65 0 -18 2 -4 4 32 4 36 0 50 -2 33 -4z
m-27 -13 c83 0 84 0 99 -31 24 -46 16 -81 -20 -91 -33 -9 -238 -4 -244 6 -6
11 10 95 20 101 5 4 6 11 3 17 -5 8 3 9 26 5 18 -4 70 -7 116 -7z m83 -601
c12 -78 20 -143 17 -146 -9 -9 -14 14 -31 132 -9 61 -18 120 -21 133 -2 12 0
22 4 22 5 0 19 -63 31 -141z m59 129 c8 -11 102 -280 102 -294 0 -2 -4 -4 -9
-4 -5 0 -13 15 -17 33 -4 17 -9 27 -11 21 -7 -20 16 -64 33 -64 12 0 15 6 11
23 -18 75 -18 73 -3 42 29 -63 26 -70 -31 -73 -63 -4 -59 -11 -98 168 -16 69
-32 133 -37 143 -7 14 -4 17 20 17 16 0 34 -6 40 -12z m-137 -128 c6 -56 9
-117 7 -136 -4 -33 -3 -34 26 -29 17 3 45 1 61 -4 26 -8 22 -9 -32 -10 -98 -2
-93 -11 -93 163 1 172 13 179 31 16z m-149 -32 c-6 -46 -9 -95 -9 -110 2 -26
5 -28 49 -28 38 0 46 3 42 15 -5 11 -2 13 10 9 9 -3 16 -12 16 -20 0 -19 -109
-19 -134 -1 -18 13 -17 18 5 120 12 59 24 105 27 103 2 -3 0 -42 -6 -88z m-87
-17 c-14 -51 -23 -96 -20 -101 4 -6 4 -10 1 -10 -2 0 -11 -3 -20 -6 -23 -9
-21 24 10 114 24 73 42 107 51 98 2 -2 -8 -45 -22 -95z m-5 -131 c0 -6 10 -6
27 1 18 7 30 6 37 -1 7 -7 6 -10 -3 -10 -7 0 -9 -5 -5 -11 5 -9 -1 -10 -22 -4
-16 4 -44 8 -61 9 -18 0 -33 4 -33 8 0 6 11 9 53 17 4 0 7 -3 7 -9z m-75 -81
c-15 -56 -25 -73 -25 -43 0 30 20 94 30 94 4 0 2 -23 -5 -51z m299 42 c9 -14
-8 -16 -71 -11 l-58 4 55 7 c30 3 58 6 62 7 4 1 9 -2 12 -7z m-174 -27 c0 -11
-6 -13 -19 -9 -30 9 -83 -60 -79 -105 3 -39 -4 -38 136 -24 47 4 72 3 72 -4 0
-5 -33 -12 -72 -16 -40 -3 -92 -8 -115 -12 -40 -6 -43 -4 -53 21 -7 20 -7 38
0 60 20 62 130 137 130 89z m379 -2 c6 -10 11 -9 21 3 7 8 17 15 22 15 6 0 4
-7 -3 -17 -13 -15 -12 -15 9 -4 31 16 28 5 -10 -35 -34 -36 -64 -49 -33 -14
10 11 16 23 12 26 -5 5 -31 -33 -32 -48 0 -4 -6 -13 -12 -19 -7 -7 -13 -20
-13 -28 0 -9 13 0 31 22 20 24 39 37 54 37 l24 0 -21 -37 c-17 -30 -19 -35 -5
-24 10 8 17 9 17 3 0 -15 -40 -36 -67 -35 -66 3 -65 3 -60 23 5 18 3 18 -25
-5 -35 -30 -47 -26 -46 15 1 16 5 27 9 24 5 -3 6 2 3 11 -6 14 -11 12 -35 -11
-31 -30 -39 -22 -13 14 15 22 54 31 54 12 0 -6 11 -3 26 6 24 16 25 16 31 -5
5 -20 7 -19 28 16 l23 38 -30 12 c-17 8 -32 12 -32 11 -1 -2 -7 -15 -14 -30
-15 -37 -46 -38 -39 -2 l4 25 -23 -22 c-30 -28 -57 -86 -50 -106 6 -14 9 -13
31 1 19 13 23 13 19 2 -9 -24 -61 -41 -79 -26 -22 18 -19 42 11 86 47 72 71
86 142 82 36 -2 67 -9 71 -16z m-379 -42 c0 -20 0 -20 20 0 24 24 50 26 50 5
0 -8 -5 -15 -11 -15 -5 0 -7 6 -3 13 4 6 -3 3 -15 -7 -14 -13 -21 -29 -19 -45
2 -19 -2 -27 -16 -29 -16 -3 -18 1 -14 23 l6 27 -25 -26 c-26 -28 -46 -30 -51
-4 -3 16 50 78 67 78 6 0 11 -9 11 -20z m129 -17 c-21 -34 -21 -36 -4 -23 14
10 12 6 -4 -13 -18 -19 -28 -24 -37 -16 -8 7 -14 7 -19 -1 -5 -8 -11 -8 -21 1
-21 18 42 89 79 89 l29 0 -23 -37z m351 -90 c0 -42 -3 -74 -6 -70 -10 10 -13
157 -3 151 5 -3 9 -39 9 -81z m-510 -92 c0 -26 -3 -30 -29 -29 -22 1 -28 5
-24 17 4 11 0 9 -10 -4 -16 -20 -16 -19 -17 8 0 22 4 27 24 27 15 0 26 -7 29
-17 4 -14 5 -12 6 5 2 33 21 27 21 -7z m28 -1 c-1 -16 -6 -30 -10 -30 -4 0 -8
14 -8 30 0 17 5 30 10 30 6 0 9 -13 8 -30z m53 18 c0 -10 2 -10 6 0 4 10 8 10
19 1 11 -9 14 -8 14 2 0 12 2 12 9 0 6 -9 11 -10 15 -2 13 21 26 11 26 -21 0
-25 -3 -29 -10 -18 -7 11 -10 11 -10 2 0 -8 -5 -10 -12 -5 -17 10 -39 10 -60
0 -15 -6 -18 -3 -18 23 0 28 19 45 21 18z m124 -18 c0 -16 -4 -30 -8 -30 -12
0 -20 28 -13 45 9 25 21 17 21 -15z m65 17 c0 -6 5 -5 13 0 6 6 33 11 60 12
47 2 47 2 45 -29 -3 -35 -18 -41 -19 -7 0 21 -1 21 -8 2 -8 -19 -9 -19 -12 2
-4 20 -5 21 -24 6 -16 -13 -17 -15 -2 -10 10 4 17 1 17 -6 0 -8 -19 -13 -55
-14 -53 -1 -55 0 -55 26 0 20 5 27 20 27 11 0 20 -4 20 -9z m150 -11 c0 -14
-4 -28 -10 -31 -6 -4 -10 7 -10 24 0 17 5 31 10 31 6 0 10 -11 10 -24z m58 -3
c-3 -30 -27 -44 -29 -16 -1 16 -2 16 -6 1 -8 -30 -20 -20 -15 12 3 24 9 30 29
30 21 0 24 -4 21 -27z m-568 -8 c0 -14 -4 -25 -9 -25 -5 0 -11 11 -13 25 -4
17 -1 25 8 25 8 0 14 -11 14 -25z m260 -85 c0 -13 -64 -24 -96 -16 -18 5 -24
3 -18 -5 8 -14 8 -7 18 -274 8 -196 8 -200 -13 -219 -21 -19 -21 -19 -22 10
-1 37 -38 -228 -39 -278 0 -21 -5 -38 -11 -38 -6 0 -8 16 -5 43 3 23 11 87 17
142 6 55 13 103 15 107 2 3 -5 23 -17 43 -12 19 -30 61 -40 93 -10 31 -18 49
-18 40 -1 -10 10 -51 23 -93 13 -41 22 -85 19 -98 -4 -18 -3 -19 7 -7 9 12 11
10 6 -12 -7 -31 -26 -202 -26 -235 0 -14 -6 -23 -15 -23 -11 0 -15 13 -17 53
l-2 52 -3 -53 c-2 -28 -8 -52 -14 -52 -11 0 -12 -12 10 168 l19 153 -24 187
c-13 103 -23 215 -22 250 l1 62 44 0 c26 0 45 -5 48 -12 4 -13 23 -223 31
-347 3 -36 7 -67 11 -70 6 -7 -4 273 -13 368 -6 52 -5 60 12 64 35 9 134 7
134 -3z m179 3 c24 -6 24 -6 18 -113 -4 -59 -12 -169 -19 -244 -11 -127 -11
-144 10 -259 37 -213 37 -207 13 -207 -17 0 -21 6 -21 35 0 19 -9 81 -20 137
-24 122 -24 169 -5 393 8 94 15 187 15 208 0 38 -1 38 -31 32 -36 -8 -99 2
-99 15 0 11 102 13 139 3z m129 -5 c17 -17 15 -33 -3 -18 -8 7 -24 10 -36 7
-24 -6 -49 1 -49 14 0 13 74 11 88 -3z m-290 -415 c-1 -265 -4 -359 -8 -268
l-6 140 -2 -138 c-1 -89 -6 -136 -12 -132 -6 4 -10 148 -10 400 0 395 1 401
33 404 4 1 6 -182 5 -406z m259 345 c-3 -29 -8 -82 -11 -118 -5 -64 -5 -64 5
10 6 41 15 84 20 95 13 28 3 -68 -27 -253 -23 -148 -31 -250 -15 -192 6 22 8
20 14 -18 4 -24 12 -40 17 -37 5 3 11 -9 15 -27 15 -95 25 -166 25 -192 0 -52
-15 -17 -26 62 -13 85 -33 167 -40 160 -2 -3 2 -36 10 -74 19 -94 28 -183 17
-164 -4 8 -11 42 -15 75 -4 33 -13 85 -21 115 -16 61 -14 41 9 -108 7 -45 9
-85 4 -88 -4 -3 -8 6 -8 19 0 13 -11 75 -25 137 -30 134 -28 120 -10 120 12 0
15 14 15 63 1 34 7 91 15 127 8 36 14 74 14 85 0 20 0 20 -10 0 -6 -14 -8 0
-4 45 12 163 18 210 28 210 6 0 8 -20 4 -52z m-159 13 c10 -6 10 -48 -4 -227
-15 -205 -15 -225 0 -322 l17 -103 -25 -20 c-14 -11 -26 -27 -26 -34 0 -8 -4
-17 -10 -20 -7 -4 -10 120 -10 364 l0 371 23 0 c12 0 28 -4 35 -9z m-177 -611
c2 -130 0 -145 -15 -148 -9 -2 -25 -1 -34 3 -14 5 -14 7 -2 15 13 9 13 10 0
10 -13 0 -13 1 0 10 13 9 13 10 0 10 -13 0 -13 1 0 10 13 9 13 10 0 10 -13 0
-13 1 0 10 13 9 13 10 0 10 -13 0 -13 1 0 10 8 5 10 10 4 10 -11 0 -7 32 22
168 13 64 23 16 25 -128z m188 -132 c1 -10 -5 -18 -12 -18 -9 0 -11 12 -8 43
4 37 5 39 12 17 4 -14 7 -33 8 -42z m191 -48 c-16 -5 -19 -8 -7 -9 9 -1 17 -9
16 -18 0 -11 -3 -13 -6 -5 -2 6 -9 12 -14 12 -5 0 -8 -6 -7 -12 2 -10 -56 -14
-257 -16 -255 -2 -261 -2 -262 18 -2 17 5 20 45 21 l47 2 -40 7 c-22 4 84 7
235 7 151 0 264 -3 250 -7z m-27 -67 c-23 -2 -64 -2 -90 0 -26 2 -7 3 42 3 50
0 71 -1 48 -3z"/>
<path d="M1072 2073 c-12 -2 -35 -11 -50 -19 -27 -15 -26 -15 18 -10 25 3 78
9 118 12 46 4 69 10 60 15 -13 9 -104 10 -146 2z"/>
<path d="M1276 1645 c-3 -9 -10 -14 -15 -11 -5 3 6 -52 24 -124 18 -71 30
-132 27 -135 -3 -3 0 -5 7 -5 7 0 10 7 7 18 -34 114 -47 188 -36 210 6 14 8
27 6 30 -3 3 -10 -6 -15 -19 -9 -22 -10 -22 -10 -3 -1 11 4 25 11 32 6 6 9 14
6 17 -3 3 -8 -1 -12 -10z"/>
<path d="M1306 1553 c-5 -16 26 -158 36 -169 2 -2 4 19 4 48 0 28 -3 42 -6 32
-6 -15 -8 -14 -14 10 -4 15 -4 37 -1 49 5 18 4 19 -5 7 -9 -12 -10 -10 -6 13
7 30 1 37 -8 10z"/>
<path d="M862 854 c8 -98 39 -251 65 -316 10 -25 19 -35 29 -31 9 3 11 10 6
17 -22 29 -72 287 -72 373 0 44 -3 53 -18 53 -16 0 -17 -8 -10 -96z"/>
<path d="M984 538 c0 -42 4 -71 8 -65 9 14 8 70 -1 112 -5 19 -7 3 -7 -47z"/>
<path d="M877 255 c3 -44 7 -82 9 -84 7 -8 3 84 -6 124 -6 29 -7 17 -3 -40z"/>
</g>
</svg>
