<?xml version="1.0" standalone="no"?>
<!DOCTYPE svg PUBLIC "-//W3C//DTD SVG 20010904//EN"
 "http://www.w3.org/TR/2001/REC-SVG-20010904/DTD/svg10.dtd">
<svg version="1.0" xmlns="http://www.w3.org/2000/svg"
 width="300.000000pt" height="221.000000pt" viewBox="0 0 300.000000 221.000000"
 preserveAspectRatio="xMidYMid meet">
<metadata>
Created by potrace 1.10, written by Peter Selinger 2001-2011
</metadata>
<g transform="translate(0.000000,221.000000) scale(0.100000,-0.100000)"
fill="#000000" stroke="none">
<path d="M1925 2190 c-3 -5 -13 -6 -22 -3 -12 5 -14 3 -8 -7 6 -10 2 -11 -21
-6 -17 4 -24 3 -16 -2 9 -6 -8 -17 -55 -37 -67 -28 -135 -67 -88 -50 122 43
269 114 238 114 -12 1 -24 -3 -28 -9z"/>
<path d="M2093 2185 c11 -7 25 -11 33 -8 9 3 14 -2 15 -13 0 -11 3 -14 6 -7 3
10 10 10 26 1 12 -6 24 -14 27 -18 3 -4 20 -1 39 7 40 17 38 20 -14 27 -22 3
-58 10 -80 15 -58 15 -75 14 -52 -4z"/>
<path d="M2283 2146 c0 -9 4 -13 9 -10 4 3 8 1 8 -5 0 -7 10 -6 31 1 36 12 35
13 -12 22 -28 5 -36 3 -36 -8z"/>
<path d="M1688 2123 c-21 -9 -38 -20 -38 -24 0 -15 20 -10 58 16 41 28 35 30
-20 8z"/>
<path d="M2366 2124 c-3 -8 -2 -13 2 -10 4 2 14 1 22 -4 8 -5 21 -5 31 1 12 6
19 4 23 -7 5 -12 16 -15 41 -12 28 3 32 2 22 -10 -10 -12 -5 -14 31 -11 23 3
42 1 42 -4 0 -4 5 -5 10 -2 6 4 17 2 24 -4 9 -8 43 -8 112 -2 l99 9 -80 1
c-49 0 -119 10 -180 25 -55 13 -103 22 -107 20 -3 -2 -10 1 -13 6 -4 7 -20 9
-38 5 -24 -5 -28 -4 -17 4 13 9 13 11 -1 11 -9 0 -20 -7 -23 -16z"/>
<path d="M2960 2083 c0 -5 -27 -9 -60 -11 -48 -3 -80 -13 -160 -53 -55 -27
-104 -49 -108 -49 -10 -1 -59 -40 -49 -40 4 0 47 20 96 45 94 47 118 54 191
62 25 3 50 9 57 15 6 5 20 9 30 8 33 -4 43 0 43 15 0 8 -9 15 -20 15 -11 0
-20 -3 -20 -7z"/>
<path d="M1525 2054 c-16 -8 -59 -28 -95 -44 -52 -24 -58 -29 -30 -25 40 7
112 35 121 48 3 5 8 8 10 8 15 -2 48 13 43 20 -7 12 -13 11 -49 -7z"/>
<path d="M1794 2009 c-4 -7 -22 -9 -45 -6 -22 3 -42 1 -45 -4 -3 -5 -24 -9
-47 -9 -77 0 -146 -12 -151 -27 -4 -10 -1 -11 13 -3 18 9 163 23 263 24 39 1
48 4 48 19 0 19 -25 23 -36 6z"/>
<path d="M1849 2005 c-6 -21 -2 -32 14 -47 11 -9 17 -27 15 -40 -3 -21 1 -23
31 -20 18 1 44 11 57 21 l23 18 -24 13 c-13 7 -37 10 -54 7 -17 -4 -33 -3 -36
2 -7 12 20 33 30 23 5 -4 5 -1 1 6 -4 6 -14 12 -22 12 -8 0 -12 -4 -9 -10 3
-6 -1 -7 -9 -4 -9 3 -13 10 -10 15 3 5 3 9 0 9 -3 0 -7 -2 -7 -5z"/>
<path d="M2087 1989 c-10 -6 -24 -8 -31 -6 -7 3 -19 1 -27 -4 -11 -7 -10 -9 6
-10 11 -1 25 -1 30 1 6 1 6 -3 0 -9 -6 -6 -23 -12 -37 -13 -15 -1 -25 -5 -23
-9 3 -3 16 -4 30 -1 20 3 24 1 19 -12 -12 -30 4 -16 20 19 19 39 36 46 36 14
0 -11 5 -17 10 -14 6 4 7 11 4 17 -5 7 22 8 85 3 54 -4 91 -3 91 2 0 5 -39 10
-87 11 -52 0 -89 5 -91 11 -4 13 -12 13 -35 0z"/>
<path d="M2313 1966 c2 -5 12 -11 23 -12 41 -6 86 -15 101 -21 11 -4 14 -2 9
5 -4 7 -16 12 -27 12 -10 0 -19 4 -19 9 0 5 -20 11 -45 13 -25 2 -44 -1 -42
-6z"/>
<path d="M1755 1960 c-3 -5 -1 -10 4 -10 6 0 11 -9 11 -19 0 -10 7 -21 15 -25
8 -3 15 -1 15 4 0 6 14 10 30 10 31 0 35 6 22 27 -8 13 -62 26 -61 15 1 -4 1
-14 0 -22 -1 -13 -3 -13 -10 0 -6 8 -7 18 -5 22 3 4 1 8 -5 8 -5 0 -13 -4 -16
-10z"/>
<path d="M1420 1950 c28 -6 26 -16 -2 -11 -4 0 -5 -6 -2 -14 8 -19 18 -19 34
0 7 8 19 15 26 15 8 0 14 4 14 8 0 4 -24 8 -52 9 -47 0 -49 0 -18 -7z"/>
<path d="M1567 1951 c-21 -3 -38 -10 -37 -16 0 -13 40 -15 40 -2 0 8 3 8 11 0
8 -8 26 -7 65 2 29 7 55 10 58 8 2 -2 7 0 11 6 7 12 -80 13 -148 2z"/>
<path d="M1243 1927 c-37 -17 -29 -18 32 -4 11 2 14 2 8 0 -18 -6 -16 -16 7
-30 21 -14 33 -3 24 20 -3 8 0 18 7 23 9 5 10 2 6 -9 -9 -23 9 -21 35 2 20 20
20 20 -30 18 -28 -1 -68 -10 -89 -20z"/>
<path d="M1725 1931 c3 -5 -5 -11 -17 -13 -18 -3 -19 -5 -6 -15 12 -11 18 -9
32 6 15 17 15 19 1 25 -9 3 -13 2 -10 -3z"/>
<path d="M2095 1921 c-7 -12 39 -26 54 -16 6 3 9 0 6 -8 -6 -13 -26 -14 -100
-3 -24 4 -62 0 -95 -10 -69 -20 -129 -24 -155 -10 -11 5 -29 11 -40 13 -20 3
-20 3 -1 -12 11 -8 26 -15 33 -15 7 0 10 -6 7 -15 -5 -11 1 -15 21 -15 18 0
25 4 22 13 -3 7 3 13 14 13 16 0 15 -4 -8 -35 -27 -34 -41 -101 -23 -101 6 0
10 -6 10 -13 0 -23 47 -37 120 -37 82 0 105 6 87 24 -7 7 -19 15 -27 19 -12 4
-11 6 3 6 9 1 17 5 17 10 0 4 -11 6 -25 3 -24 -4 -25 -3 -15 22 14 38 13 39
-15 34 -31 -6 -32 0 -2 12 18 7 18 9 4 9 -12 1 -16 5 -11 14 9 14 -24 -9 -45
-33 -12 -13 -13 -13 -8 3 8 21 -6 23 -23 3 -12 -15 -40 -11 -40 6 0 21 32 39
72 41 24 1 46 7 50 12 9 12 48 16 48 4 0 -4 -10 -15 -22 -23 -12 -9 -18 -16
-12 -16 15 0 34 -58 20 -64 -6 -2 -3 -5 7 -5 19 -1 22 12 8 38 -5 9 -6 23 -2
30 7 10 12 8 23 -8 13 -19 16 -20 22 -6 3 10 11 13 18 9 9 -5 8 -2 -1 9 -8 10
-11 20 -7 24 3 3 6 1 6 -5 0 -17 41 -15 66 2 14 10 30 12 54 6 19 -4 29 -8 22
-9 -7 -1 -11 -5 -8 -10 8 -13 25 -8 65 17 19 11 39 18 44 15 5 -3 -2 -13 -17
-22 -14 -8 -26 -19 -26 -23 0 -4 -17 -10 -37 -13 -57 -10 -93 -26 -93 -42 0
-8 -4 -11 -10 -8 -12 7 -53 -19 -43 -28 3 -4 1 -7 -5 -7 -7 0 -12 -4 -12 -10
0 -15 14 -12 36 8 24 21 58 26 50 6 -8 -20 40 -29 79 -15 17 6 48 11 68 11 20
0 37 4 37 9 0 5 -9 7 -20 4 -14 -4 -20 0 -20 11 0 9 -5 16 -11 16 -5 0 -7 5
-3 12 5 8 2 9 -9 5 -9 -3 -19 -2 -22 3 -4 6 1 10 10 10 9 0 28 12 42 26 16 16
33 24 45 21 14 -4 18 -2 14 10 -3 8 -6 17 -6 19 0 3 -4 2 -10 -1 -5 -3 -17 -2
-27 3 -11 7 -28 5 -51 -5 -25 -10 -42 -12 -56 -5 -12 5 -32 15 -46 21 -20 9
-21 10 -5 9 11 0 34 4 50 11 24 10 38 10 70 0 22 -7 45 -16 51 -21 11 -8 24
-1 24 12 0 10 -54 32 -71 29 -8 -1 -22 1 -32 6 -9 4 -23 3 -30 -3 -13 -11 -89
-10 -124 2 -12 4 -24 2 -28 -3z m205 -172 c0 -10 -56 -31 -75 -27 -24 5 -14
23 12 23 21 -1 22 1 8 22 l-15 23 35 -17 c19 -9 35 -20 35 -24z m-310 16 c-7
-8 -9 -15 -5 -15 4 0 1 -8 -6 -17 -10 -12 -10 -14 -1 -9 16 10 28 -22 13 -37
-8 -8 -11 -7 -11 7 0 9 -4 15 -9 12 -5 -4 -11 -1 -13 6 -3 7 -12 9 -22 5 -9
-4 -14 -12 -10 -18 4 -8 9 -7 15 2 7 11 9 10 9 -5 0 -12 -5 -16 -16 -12 -9 3
-23 6 -31 6 -10 0 -14 6 -10 20 3 11 1 18 -3 15 -5 -3 -11 -1 -14 4 -4 5 5 8
19 6 29 -3 33 9 8 24 -14 8 -8 9 24 6 23 -2 45 0 48 5 4 6 11 10 17 10 7 0 6
-6 -2 -15z"/>
<path d="M2502 1914 c4 -3 12 -7 20 -8 7 -1 23 -7 34 -14 12 -6 24 -9 27 -6 3
3 15 0 26 -8 12 -8 18 -18 13 -22 -4 -4 -2 -7 3 -6 22 5 35 -1 35 -15 0 -23
40 -23 74 1 19 13 17 14 -19 11 -28 -1 -39 2 -37 11 1 6 -7 12 -18 12 -11 0
-29 9 -40 20 -11 11 -26 17 -34 14 -8 -3 -17 -1 -21 5 -3 6 -20 11 -37 11 -17
0 -29 -3 -26 -6z"/>
<path d="M1165 1889 c-16 -5 -41 -11 -55 -14 -14 -2 -50 -10 -80 -16 -30 -6
-59 -14 -65 -19 -5 -5 -41 -20 -80 -34 -85 -32 -108 -43 -163 -80 -72 -48
-135 -76 -169 -76 -26 0 -33 -4 -33 -19 0 -11 6 -22 13 -25 9 -3 7 -9 -5 -19
-10 -8 -18 -21 -18 -30 0 -15 -28 -32 -38 -22 -3 3 0 5 6 5 7 0 12 5 12 10 0
6 -7 10 -15 10 -8 0 -15 -8 -15 -18 0 -11 -9 -27 -20 -37 -11 -10 -18 -20 -16
-22 7 -7 59 23 78 44 10 11 28 18 45 17 15 -1 35 -3 42 -3 12 -1 12 -4 3 -13
-18 -18 -15 -51 3 -44 10 3 18 -2 23 -14 7 -19 8 -19 57 5 57 28 69 30 59 13
-5 -9 -2 -8 9 1 17 13 17 15 0 34 -17 19 -17 20 0 14 9 -4 17 -3 17 1 0 4 28
7 63 7 63 0 157 28 157 46 0 18 -37 51 -45 40 -3 -6 1 -14 9 -17 27 -10 18
-24 -15 -24 -17 0 -28 -4 -24 -10 3 -5 1 -10 -4 -10 -18 0 -26 5 -23 13 1 5
-3 5 -9 2 -20 -13 -103 -14 -112 -2 -5 7 -5 2 -2 -12 6 -21 5 -23 -18 -19 -19
4 -23 1 -20 -13 8 -30 -74 -61 -106 -40 -19 12 -1 36 32 45 21 5 21 4 -3 -14
-29 -22 -23 -34 11 -21 15 5 25 18 26 31 2 18 -2 21 -22 18 -17 -4 -25 0 -29
15 -4 17 -8 18 -20 8 -8 -7 -27 -11 -43 -8 -27 4 -27 5 -5 12 12 4 22 11 22
16 0 5 7 9 15 9 8 0 15 5 15 11 0 7 11 9 27 6 24 -4 26 -4 10 8 -23 17 -21 25
7 25 13 0 29 7 36 15 7 8 18 15 25 15 7 0 25 12 41 27 36 34 70 39 85 12 6
-13 18 -19 31 -17 27 4 36 28 11 29 -14 0 -15 2 -3 6 8 4 20 13 26 22 10 13
15 13 27 2 9 -7 21 -10 27 -6 10 6 15 -14 10 -44 -1 -13 1 -13 14 -2 9 7 14
17 11 21 -3 5 8 11 25 15 16 4 30 12 31 18 0 7 3 4 7 -5 6 -14 9 -15 26 -3 17
13 17 15 3 21 -9 3 -13 12 -10 21 5 13 3 13 -16 2 -11 -8 -21 -19 -21 -26 0
-16 -58 -17 -80 -3 -13 9 -11 14 14 36 29 26 47 27 54 4 3 -9 -3 -11 -24 -6
-24 5 -26 4 -11 -5 24 -14 47 -4 47 21 0 11 4 20 9 20 5 0 16 2 24 6 9 3 18
-5 27 -25 10 -26 17 -30 44 -27 83 9 125 20 130 32 3 8 -1 14 -9 14 -8 0 -20
8 -27 18 -18 25 -37 30 -73 21z m-279 -114 c-8 -8 -27 -15 -43 -14 -28 1 -28
1 7 14 47 18 54 18 36 0z"/>
<path d="M1489 1875 c-9 -17 -4 -40 9 -37 7 1 12 -4 12 -12 0 -8 5 -18 12 -22
8 -5 9 0 6 14 -4 12 -2 22 4 22 5 0 7 4 4 9 -4 5 0 11 6 14 7 3 3 4 -9 4 -12
-1 -19 -5 -17 -9 3 -4 1 -8 -5 -8 -5 0 -11 8 -13 18 -2 9 -6 13 -9 7z"/>
<path d="M1397 1863 c-9 -2 -15 -8 -12 -12 2 -5 -7 -7 -20 -5 -14 1 -25 -2
-25 -7 0 -5 -3 -8 -7 -7 -13 5 -83 -41 -90 -58 -3 -9 0 -20 8 -25 8 -5 10 -9
4 -9 -5 -1 2 -7 17 -15 19 -11 33 -12 50 -6 13 6 17 10 10 10 -7 1 -11 5 -7
11 3 5 -6 8 -19 7 -14 -1 -25 1 -26 6 0 4 3 7 6 6 3 0 12 8 20 18 13 17 13 17
14 -2 1 -16 4 -14 12 8 11 30 23 35 32 12 3 -8 1 -15 -4 -15 -6 0 -10 -5 -10
-11 0 -8 5 -8 15 1 8 7 13 15 11 19 -3 4 -1 13 5 21 6 10 9 11 9 3 0 -7 7 -13
15 -13 8 0 15 5 15 11 0 7 11 8 30 4 23 -5 30 -3 30 9 0 9 -6 16 -12 16 -10 0
-9 3 1 9 9 6 10 11 2 15 -16 10 -31 -2 -24 -19 3 -8 0 -15 -6 -15 -6 0 -11 9
-11 20 0 20 -2 21 -33 13z"/>
<path d="M1650 1849 c-6 -10 -13 -38 -16 -61 l-6 -43 51 1 c86 1 121 52 74
106 -21 24 -90 22 -103 -3z m40 -8 c0 -5 -7 -12 -16 -15 -8 -3 -12 -11 -8 -17
4 -8 9 -7 15 2 4 7 11 10 16 6 4 -5 1 -12 -6 -16 -9 -6 -10 -11 -2 -15 19 -12
12 -22 -16 -23 -16 0 -20 1 -10 4 21 6 22 19 1 31 -14 8 -14 12 -3 30 14 23
29 29 29 13z m57 -41 c-2 -35 -15 -42 -30 -19 -13 20 -3 49 18 49 10 0 14 -9
12 -30z"/>
<path d="M1552 1848 c-17 -17 -15 -38 4 -38 8 0 12 -5 9 -10 -4 -6 -10 -8 -15
-5 -4 3 -13 -2 -20 -10 -16 -19 -34 -20 -27 -2 4 10 -3 13 -21 12 -38 -3 -39
-3 -46 -21 -8 -21 4 -41 14 -24 8 13 30 6 30 -9 0 -13 -39 -21 -46 -10 -3 6
-13 9 -22 7 -10 -1 -24 1 -32 6 -8 5 -12 6 -8 1 4 -4 0 -14 -10 -22 -15 -13
-15 -13 5 -4 13 7 24 7 28 2 3 -5 -3 -12 -12 -15 -10 -3 -7 -4 7 -3 14 2 24 8
22 15 -2 10 2 10 18 2 27 -14 56 -5 63 21 3 11 9 19 14 18 18 -3 34 1 30 9 -3
4 6 8 19 8 l24 2 -23 -20 -22 -19 23 11 c28 14 56 56 49 74 -9 23 -42 37 -55
24z"/>
<path d="M2428 1851 c41 -11 40 -9 44 -51 3 -23 -1 -39 -10 -46 -8 -6 -12 -16
-8 -22 9 -14 36 -16 36 -3 0 5 9 13 20 16 26 8 25 17 -4 47 -25 24 -25 24 -4
37 11 7 17 8 13 2 -3 -6 1 -14 9 -17 21 -8 58 -74 52 -90 -3 -8 -1 -14 5 -14
6 0 17 -6 24 -14 12 -12 11 -15 -8 -21 -21 -6 -22 -6 -2 -15 30 -13 30 -13 32
20 1 17 -1 29 -5 26 -4 -2 -8 6 -8 19 -2 29 -32 70 -61 84 -13 6 -23 17 -23
25 0 8 -10 14 -22 13 -13 0 -43 3 -68 6 -36 5 -39 5 -12 -2z"/>
<path d="M2410 1825 c0 -9 6 -12 15 -9 8 4 15 2 15 -4 0 -5 -13 -12 -29 -15
-23 -5 -28 -11 -24 -25 7 -29 49 -16 62 19 8 24 7 30 -9 39 -25 13 -30 13 -30
-5z"/>
<path d="M2738 1823 c-15 -4 -15 -8 -3 -44 8 -22 14 -43 14 -47 -5 -33 2 -44
26 -39 21 3 29 -2 43 -27 30 -57 51 -107 43 -101 -5 2 -8 -6 -7 -20 0 -14 4
-25 8 -25 14 0 29 -41 33 -85 2 -25 6 -54 10 -65 4 -12 2 -20 -5 -20 -8 0 -9
-7 -5 -17 4 -10 8 -24 8 -30 1 -20 16 -15 16 5 0 9 1 35 2 57 3 48 -10 128
-22 136 -5 3 -11 28 -13 55 -5 70 -59 154 -99 154 -13 0 -17 5 -13 16 3 8 -1
26 -10 39 -19 29 -11 60 12 51 8 -3 12 -2 9 4 -6 10 -17 11 -47 3z"/>
<path d="M2095 1783 c7 -25 -4 -30 -23 -11 -7 7 -12 10 -13 8 0 -3 -2 -12 -4
-21 -1 -8 5 -21 15 -27 24 -15 48 26 31 54 -11 17 -11 17 -6 -3z"/>
<path d="M1053 1733 c-19 -4 -21 -7 -12 -31 6 -15 11 -29 12 -32 3 -8 18 -1
34 16 18 18 65 15 71 -5 3 -10 0 -12 -11 -8 -13 5 -16 1 -15 -16 1 -16 9 -23
29 -24 25 -2 26 0 24 40 -1 23 -3 45 -4 48 -3 15 -41 16 -60 2 -18 -12 -20
-12 -15 2 6 15 -5 17 -53 8z"/>
<path d="M1742 1716 c-1 -15 1 -17 7 -7 7 10 10 10 16 1 4 -7 1 -16 -6 -21
-19 -12 -29 -11 -29 1 0 6 -4 10 -10 10 -5 0 -10 -7 -10 -15 0 -8 -5 -15 -12
-15 -9 0 -9 -3 0 -12 9 -9 21 -9 49 0 28 9 40 8 52 -1 12 -10 13 -8 7 18 -14
55 -60 85 -64 41z"/>
<path d="M1543 1703 c-23 -24 -53 -31 -53 -13 0 6 9 10 19 10 11 0 23 5 26 10
13 21 -32 8 -63 -19 l-34 -29 59 2 c61 3 155 37 119 44 -13 3 -15 6 -7 12 8 4
1 7 -16 6 -15 -1 -38 -11 -50 -23z"/>
<path d="M2340 1708 c-19 -10 -46 -16 -59 -14 -16 3 -35 -7 -62 -31 -44 -39
-47 -49 -20 -49 13 0 17 6 13 20 -4 15 -1 18 11 13 11 -4 17 1 20 16 l4 22 9
-23 9 -22 40 20 c22 11 45 20 51 20 7 0 14 6 17 13 3 9 7 9 20 -1 17 -14 57
-8 57 9 0 8 -23 14 -44 10 -4 -1 -13 2 -20 7 -6 5 -25 1 -46 -10z"/>
<path d="M2660 1710 c-11 -7 -11 -11 -1 -24 9 -11 10 -16 2 -16 -19 0 -12 -25
11 -35 27 -12 32 -42 10 -55 -19 -10 -3 -13 22 -4 13 5 14 9 5 20 -14 17 2 19
20 2 11 -10 11 -9 0 9 -12 19 -11 27 3 51 9 15 14 33 10 38 -10 15 -65 24 -82
14z"/>
<path d="M881 1690 c-20 -17 -21 -20 -5 -17 11 1 25 7 33 11 10 6 12 5 7 -2
-4 -7 -3 -12 3 -12 5 0 13 5 16 10 4 6 15 8 26 5 23 -8 26 10 3 19 -28 11 -59
6 -83 -14z"/>
<path d="M1334 1692 c4 -19 1 -22 -16 -16 -13 4 -18 2 -14 -4 3 -5 -1 -15 -9
-22 -8 -7 -13 -16 -10 -20 3 -4 -12 -6 -33 -3 -27 3 -33 1 -22 -6 12 -8 10
-11 -9 -19 -14 -5 -20 -11 -15 -15 5 -3 44 8 87 25 59 24 77 35 77 50 0 17 5
19 31 13 22 -5 29 -4 25 4 -4 6 -25 11 -46 11 -21 0 -41 6 -44 13 -4 6 -4 2
-2 -11z"/>
<path d="M846 1691 c-3 -4 -23 -11 -45 -14 -37 -5 -131 -59 -131 -76 0 -4 6
-15 13 -26 11 -14 16 -15 22 -5 6 9 4 11 -5 5 -8 -5 -11 -4 -6 3 4 6 13 9 20
6 9 -3 15 6 19 25 4 17 12 31 18 31 7 0 8 -5 3 -13 -5 -7 -2 -6 6 3 9 9 22 14
29 12 9 -3 11 0 6 9 -5 8 2 5 15 -6 13 -11 20 -14 16 -7 -5 8 1 12 21 13 17 1
21 3 11 6 -21 5 -23 14 -6 31 7 7 9 12 6 12 -4 0 -9 -4 -12 -9z"/>
<path d="M983 1668 c-7 -17 -5 -26 9 -40 10 -10 23 -16 28 -13 6 4 10 1 10 -4
0 -6 -7 -11 -15 -11 -8 0 -15 -5 -15 -11 0 -7 19 -8 58 -3 31 4 69 7 84 7 18
0 25 4 21 13 -3 9 -11 10 -30 3 -19 -7 -24 -6 -20 3 2 7 0 21 -5 31 -11 21
-40 23 -32 2 4 -9 0 -15 -10 -15 -9 0 -16 5 -16 11 0 5 -4 8 -9 4 -5 -3 -13
-1 -16 5 -5 8 -11 7 -21 -1 -11 -9 -14 -8 -14 5 0 9 7 16 16 16 8 0 12 5 9 10
-10 16 -21 12 -32 -12z"/>
<path d="M2078 1678 c-17 -6 -28 -17 -28 -28 0 -10 -3 -25 -6 -34 -5 -12 0
-16 18 -16 15 0 25 -6 25 -15 0 -11 -4 -12 -13 -4 -22 18 -38 0 -19 -21 13
-15 22 -17 42 -9 33 12 36 12 29 -6 -3 -8 -1 -15 4 -15 6 0 10 4 10 9 0 5 10
7 22 3 14 -3 19 -2 14 6 -4 7 -2 12 3 12 22 0 10 -21 -16 -31 -18 -7 -33 -7
-44 -1 -13 8 -15 4 -15 -29 1 -21 6 -37 11 -36 6 2 11 9 11 15 1 7 2 18 3 25
1 7 6 4 12 -6 9 -15 7 -22 -10 -33 -26 -19 -27 -31 -1 -39 20 -6 20 -7 1 -34
-19 -27 -19 -27 -1 -39 16 -10 18 -9 13 3 -4 13 -1 14 22 5 25 -9 27 -9 15 5
-11 13 -10 19 6 34 11 9 25 16 32 13 7 -2 11 2 10 10 -2 7 3 12 10 11 6 -2 12
2 12 8 0 6 -6 9 -12 6 -7 -2 -24 -7 -38 -11 -19 -6 -21 -5 -10 3 12 9 10 11
-11 11 -24 0 -26 4 -25 32 1 22 7 34 19 36 9 2 17 -2 17 -8 0 -7 -7 -10 -17
-6 -16 5 -15 4 1 -9 10 -8 23 -12 27 -9 5 3 9 -2 9 -10 0 -19 16 -21 26 -4 4
7 3 8 -4 4 -7 -4 -12 -2 -12 3 0 14 17 14 25 1 4 -6 11 -8 16 -4 17 10 -2 25
-29 22 -25 -3 -27 -1 -26 36 1 21 8 42 15 47 29 17 -3 21 -40 4 -45 -20 -71
-15 -71 15 0 11 -4 20 -10 20 -5 0 -2 9 7 20 10 11 24 20 31 20 12 0 12 3 2
15 -14 17 -24 18 -62 3z"/>
<path d="M922 1664 c-17 -8 -20 -13 -10 -17 7 -3 1 -6 -14 -6 -20 -1 -28 -6
-27 -18 0 -11 3 -13 6 -5 2 6 12 12 22 12 15 0 57 38 49 44 -2 2 -14 -3 -26
-10z"/>
<path d="M2470 1662 c0 -5 13 -7 29 -4 22 3 29 -1 34 -17 3 -12 2 -19 -3 -16
-4 3 -10 -2 -14 -10 -6 -18 7 -27 28 -19 11 4 15 13 10 26 -6 20 -6 20 25 2
17 -10 28 -20 26 -23 -3 -2 4 -15 16 -27 28 -30 20 -61 -11 -42 -12 8 -18 19
-14 30 6 21 -9 24 -24 6 -12 -15 32 -73 48 -63 18 11 50 14 50 4 0 -5 5 -9 11
-9 5 0 7 5 4 11 -7 10 21 49 35 49 4 0 7 -15 6 -32 -1 -24 -7 -34 -21 -36 -51
-7 -65 -14 -76 -33 -9 -17 -7 -24 10 -41 22 -20 36 -22 82 -15 39 6 54 17 38
28 -11 7 -11 9 2 9 20 0 42 -24 32 -34 -4 -4 1 -4 11 0 17 7 18 4 13 -25 -6
-29 -5 -31 13 -21 12 6 18 15 15 21 -4 5 4 18 16 28 15 12 19 20 11 25 -7 4
-15 0 -18 -8 -11 -28 -64 18 -64 55 0 16 -3 28 -7 28 -22 -4 -23 3 -3 19 21
17 21 19 5 35 -23 24 -55 21 -89 -8 -36 -31 -38 -31 -53 2 -18 37 -16 45 6 38
11 -3 22 -2 25 3 2 4 -27 19 -66 33 -38 13 -72 27 -75 31 -6 11 -63 10 -63 0z
m299 -181 c11 -7 10 -12 -7 -27 -12 -10 -19 -21 -17 -24 2 -4 -9 -7 -26 -8
-17 0 -34 -3 -37 -6 -3 -3 -13 4 -23 16 -24 27 -10 46 39 51 20 2 42 4 47 5 6
1 16 -2 24 -7z"/>
<path d="M2656 1462 c-3 -5 0 -15 8 -21 17 -14 68 -4 63 13 -4 14 -63 20 -71
8z"/>
<path d="M1553 1644 c-7 -3 -9 -12 -6 -20 4 -12 0 -12 -31 1 -45 19 -76 19
-104 -1 -25 -17 -29 -34 -7 -34 8 0 15 8 15 18 0 10 3 13 8 6 9 -13 42 -14 39
-1 -1 5 4 12 11 14 7 3 10 -1 6 -10 -3 -9 2 -16 15 -20 26 -6 22 -26 -12 -59
-17 -17 -29 -23 -33 -16 -4 6 0 16 9 23 19 14 22 31 7 40 -6 3 -15 -6 -22 -22
-15 -38 -16 -44 -4 -71 8 -19 7 -26 -7 -33 -9 -6 -17 -16 -17 -23 0 -17 -48
-59 -88 -75 -18 -8 -40 -26 -49 -42 -9 -15 -28 -31 -41 -34 -29 -7 -81 -45
-63 -45 7 0 25 7 41 15 35 18 58 11 66 -21 3 -13 12 -24 20 -24 8 0 13 4 12 9
-2 5 6 17 17 25 15 12 16 15 5 16 -13 0 -13 1 0 11 12 8 11 10 -5 7 -11 -2
-20 -10 -20 -17 0 -8 -6 -16 -14 -19 -8 -3 -11 0 -7 6 3 6 -2 15 -11 21 -17
10 -17 10 0 11 10 0 16 4 13 8 -2 4 11 6 30 4 19 -2 34 0 34 6 0 5 12 14 28
20 20 7 31 6 40 -5 7 -7 18 -10 24 -7 7 5 3 14 -11 25 -21 17 -25 17 -46 3
-13 -9 -26 -15 -29 -15 -19 3 -26 0 -21 -9 3 -5 -1 -10 -9 -10 -9 0 -16 6 -16
14 0 17 26 40 38 32 5 -3 29 4 53 16 24 12 38 23 31 26 -7 2 -19 -2 -28 -8 -8
-7 -17 -10 -21 -6 -4 3 4 14 17 24 35 25 34 24 58 65 12 20 19 44 15 53 -4 12
-2 15 8 12 8 -3 13 -15 11 -28 -1 -16 2 -21 13 -16 18 7 19 2 3 -24 -10 -16
-10 -22 2 -34 24 -23 57 -29 64 -11 3 8 1 15 -4 15 -17 0 -11 25 10 37 16 11
18 10 14 -2 -4 -8 -1 -15 6 -15 6 0 8 -5 4 -12 -4 -6 -3 -8 3 -5 6 4 8 18 5
32 -3 20 -10 25 -33 25 -23 0 -32 -7 -43 -32 -11 -26 -15 -29 -15 -12 -2 35
64 80 100 69 18 -6 20 -12 15 -46 l-6 -39 62 -1 c35 -1 82 -2 105 -3 23 -1 40
2 37 6 -3 4 0 8 6 8 8 0 8 6 0 21 -7 11 -9 23 -6 26 9 9 38 -6 31 -17 -9 -15
17 -11 39 5 28 21 34 19 31 -10 -2 -14 1 -23 6 -19 5 3 7 10 4 15 -4 5 -2 9 3
9 6 0 13 -7 16 -16 9 -22 8 -24 -10 -24 -8 0 -12 -4 -9 -10 5 -9 -8 -14 -19
-7 -10 5 -47 -55 -42 -68 8 -22 -12 -18 -24 5 -6 11 -7 20 -3 20 10 0 45 61
39 68 -12 11 -35 -8 -29 -24 5 -13 1 -15 -18 -10 -13 3 -18 3 -11 0 20 -9 14
-23 -8 -17 -14 4 -20 0 -20 -11 0 -10 -5 -14 -11 -11 -7 5 -4 14 8 27 14 16
14 20 3 16 -8 -2 -19 -19 -25 -36 -5 -18 -13 -32 -18 -32 -4 0 -6 -4 -2 -10 3
-5 14 -1 25 10 11 11 26 20 34 20 21 0 39 -27 32 -47 -6 -14 -9 -14 -15 -4 -7
10 -10 9 -14 -3 -8 -20 9 -20 46 -1 15 8 42 14 60 14 18 0 47 4 66 8 l34 8
-27 13 c-15 7 -25 8 -21 3 3 -6 -6 -6 -25 -1 -17 5 -32 5 -35 -1 -4 -5 -12 -9
-18 -9 -7 0 -6 4 3 10 8 5 11 10 6 10 -6 0 -5 5 2 12 9 9 15 9 24 0 17 -17 33
-15 18 3 -9 11 -9 15 -1 15 7 0 9 5 5 13 -4 6 -4 9 1 5 4 -4 15 -2 23 5 13 10
15 9 9 -5 -3 -10 -2 -18 3 -18 6 0 10 7 10 15 0 8 6 15 14 15 8 0 16 6 19 13
2 6 7 9 11 6 11 -10 -6 -41 -19 -35 -8 3 -11 -2 -8 -15 3 -12 0 -19 -8 -19
-10 0 -10 -3 -1 -12 14 -14 62 8 62 29 0 8 5 11 11 7 13 -8 -1 20 -25 51 -16
20 -16 20 -31 1 -8 -11 -15 -14 -15 -7 0 8 -7 10 -21 6 -14 -5 -19 -3 -15 3 4
6 -3 16 -16 23 l-22 12 23 18 c17 14 19 19 8 19 -9 0 -19 -4 -22 -10 -3 -5
-13 -10 -22 -10 -9 0 -25 -7 -35 -17 -17 -15 -18 -15 -18 10 0 15 -3 26 -8 24
-4 -1 -9 3 -10 8 -7 19 -24 35 -33 30 -4 -3 -6 -12 -3 -19 5 -14 -52 -44 -63
-32 -3 3 1 6 10 6 9 0 17 5 17 10 0 7 -7 7 -20 0 -11 -6 -24 -9 -29 -6 -4 3
-8 -1 -8 -8 0 -8 7 -12 15 -8 9 3 13 1 9 -4 -4 -7 6 -9 26 -6 18 3 36 11 40
19 5 7 12 11 17 8 16 -10 -38 -56 -72 -62 -40 -6 -35 4 6 11 16 3 31 8 35 12
3 4 -7 4 -23 1 -16 -2 -41 -1 -57 3 -23 7 -27 6 -22 -8 5 -14 3 -15 -8 -4 -19
17 -29 15 -23 -5 3 -10 -5 -1 -16 21 -18 31 -19 40 -8 47 7 5 9 9 5 9 -4 0 -2
6 5 14 7 7 19 11 27 8 8 -3 12 -1 9 4 -4 5 15 9 40 10 26 0 67 3 91 7 24 3 41
3 37 0 -3 -3 0 -13 7 -21 10 -13 9 -14 -3 -7 -9 5 -8 0 4 -13 21 -24 41 -28
52 -11 4 7 0 9 -14 5 -11 -4 -23 -2 -27 4 -4 6 6 10 24 10 17 0 31 -4 31 -10
0 -5 9 -10 20 -10 26 0 26 20 0 27 -16 4 -18 8 -9 20 9 11 9 17 -1 26 -10 9
-13 9 -17 0 -6 -18 -48 -16 -62 1 -15 18 -185 21 -175 4 4 -7 2 -8 -4 -4 -6 3
-27 -8 -47 -25 l-36 -32 -22 21 -21 22 43 0 c35 0 42 3 37 16 -3 8 -2 13 2 10
11 -6 38 11 30 19 -9 9 -120 16 -135 9z m42 -24 c-3 -5 1 -10 9 -10 9 0 16 5
16 10 0 6 5 10 10 10 6 0 10 -7 10 -15 0 -11 -11 -15 -36 -15 -31 0 -35 2 -24
15 14 17 24 20 15 5z m-36 -46 c2 -10 11 -24 20 -30 9 -7 14 -14 11 -16 -26
-20 -60 -36 -63 -30 -3 4 -3 26 -2 49 2 24 -1 45 -6 48 -5 4 -9 11 -9 17 0 17
45 -17 49 -38z"/>
<path d="M2275 1619 c-22 -3 -34 -7 -27 -8 9 -1 8 -8 -5 -28 -10 -15 -13 -24
-7 -20 7 4 14 0 18 -8 3 -8 1 -15 -3 -15 -5 0 -12 -8 -15 -17 -4 -10 -4 -14 0
-10 4 4 13 2 20 -4 8 -6 14 -6 18 0 4 5 2 13 -4 16 -8 5 -8 11 0 20 8 9 6 14
-6 19 -23 9 1 36 30 35 11 0 15 -3 9 -6 -7 -2 -13 -9 -13 -14 0 -4 7 -5 17 -2
11 4 14 3 9 -5 -4 -7 -3 -12 3 -12 5 0 11 5 13 12 6 16 58 17 58 0 0 -7 -4
-11 -8 -8 -5 3 -9 -2 -9 -11 0 -13 4 -12 18 5 20 26 29 28 29 8 0 -8 5 -18 12
-22 8 -5 9 -2 5 10 -4 10 -3 15 3 11 17 -11 11 -37 -10 -42 -11 -3 -20 -8 -20
-12 0 -9 69 -1 75 9 12 19 -16 57 -56 77 -51 25 -98 32 -154 22z"/>
<path d="M395 1551 c-127 -70 -273 -225 -326 -346 -11 -26 -19 -49 -16 -51 3
-3 13 15 22 40 10 25 22 44 29 43 6 -1 10 6 8 16 -2 10 3 17 12 17 9 0 21 10
27 23 29 55 164 182 272 255 40 28 55 42 45 42 -2 0 -35 -18 -73 -39z"/>
<path d="M1175 1570 c-3 -5 -14 -8 -24 -7 -30 2 -101 -25 -94 -36 3 -6 1 -7
-5 -3 -17 10 -60 -52 -54 -79 4 -24 44 -45 84 -45 12 0 16 -4 12 -12 -4 -7 -3
-8 5 -4 6 4 8 12 5 18 -4 6 1 8 12 4 11 -3 26 -1 34 4 11 7 11 10 2 10 -7 0
-10 5 -7 11 4 6 12 8 19 6 6 -3 12 6 12 20 1 13 9 32 18 42 16 18 22 46 8 37
-4 -2 -9 4 -9 15 -3 31 21 17 25 -14 2 -15 6 -27 8 -27 15 0 44 23 44 34 0 9
10 13 25 12 23 -1 31 -21 9 -21 -17 0 -34 -16 -29 -26 3 -5 -2 -6 -11 -2 -12
4 -15 3 -10 -5 11 -18 39 -15 33 3 -4 8 -2 17 3 20 6 4 10 0 10 -7 0 -10 2
-10 9 1 6 9 11 10 15 2 10 -15 29 -14 20 2 -4 7 -2 7 7 -2 10 -10 11 -15 2
-18 -7 -2 -9 -11 -6 -19 3 -8 1 -14 -5 -14 -5 0 -12 7 -16 15 -7 19 -26 20
-26 2 0 -8 9 -18 21 -23 21 -9 21 -10 2 -33 -15 -18 -20 -20 -20 -8 0 9 5 13
11 10 7 -4 6 -1 -1 7 -8 9 -16 9 -30 1 -10 -6 -15 -11 -11 -11 4 0 3 -11 -2
-25 -9 -25 -9 -25 23 -12 18 8 37 24 43 36 7 12 17 28 24 34 10 9 11 9 6 0 -4
-8 -2 -13 6 -13 8 0 9 -3 3 -8 -19 -14 -48 -52 -39 -52 5 1 22 11 37 24 l28
23 -24 56 c-24 53 -57 84 -77 72 -5 -3 -11 -1 -15 5 -10 17 -25 11 -25 -10 0
-11 -4 -20 -10 -20 -5 0 -10 8 -10 18 0 14 -8 19 -30 20 -16 0 -32 -3 -35 -8z
m7 -57 c9 -5 -24 -63 -36 -63 -5 0 -15 -8 -22 -17 -10 -13 -13 -14 -14 -4 0
10 -3 11 -14 2 -17 -15 -28 -1 -15 19 13 21 11 30 -6 30 -8 0 -15 5 -15 10 0
6 9 10 20 10 11 0 20 4 20 10 0 9 67 12 82 3z m-114 -60 c-4 -24 -25 -27 -30
-5 -4 12 1 18 14 19 13 1 18 -4 16 -14z"/>
<path d="M986 1553 c-10 -10 -15 -12 -11 -4 5 9 -1 7 -19 -4 -14 -9 -33 -15
-41 -11 -8 3 -15 0 -16 -7 -1 -21 -60 -60 -95 -62 -19 -1 -38 -5 -41 -9 -10
-10 -25 -7 -18 4 3 6 1 10 -5 10 -7 0 -10 -6 -7 -12 5 -17 80 -18 135 -2 38
11 43 10 52 -7 14 -26 35 -14 56 32 9 22 31 51 47 65 28 24 28 24 5 24 -13 0
-32 -8 -42 -17z m-26 -38 c-7 -8 -9 -15 -5 -15 4 0 2 -6 -5 -14 -14 -17 -40
-10 -40 10 0 8 10 19 23 24 33 13 41 12 27 -5z"/>
<path d="M1402 1540 c-13 -22 -9 -40 10 -40 6 0 8 9 5 20 -3 11 -1 20 4 20 5
0 9 5 9 10 0 17 -14 11 -28 -10z"/>
<path d="M371 1484 c-36 -36 -51 -56 -33 -43 17 12 32 27 32 31 0 5 5 6 10 3
6 -3 10 -1 10 5 0 6 6 8 13 4 6 -4 9 -3 4 1 -4 5 5 21 20 37 55 57 8 26 -56
-38z"/>
<path d="M2314 1508 c3 -7 9 -21 12 -30 7 -20 24 -24 24 -7 0 7 10 9 25 5 14
-4 25 -2 25 4 0 5 -6 10 -12 11 -7 1 -24 2 -38 2 -14 1 -24 7 -22 15 1 6 -3
12 -9 12 -6 0 -8 -6 -5 -12z"/>
<path d="M2289 1493 c-7 -47 -6 -51 11 -41 19 12 20 40 2 46 -7 2 -13 0 -13
-5z"/>
<path d="M2452 1491 c2 -9 -15 -18 -52 -28 -65 -16 -124 -42 -97 -43 11 0 15
-4 11 -12 -4 -7 -3 -8 4 -4 7 4 12 3 12 -2 0 -11 -70 -33 -82 -26 -4 3 -8 1
-8 -4 0 -5 -10 -12 -22 -15 -12 -4 -19 -9 -15 -13 3 -4 20 -1 38 6 26 11 32
11 40 -1 8 -13 13 -5 10 15 -1 5 5 4 13 -3 8 -7 21 -9 27 -5 18 10 139 14 139
4 0 -5 -6 -11 -12 -13 -8 -3 -5 -6 6 -6 12 -1 16 -6 13 -15 -4 -10 -1 -13 8
-9 10 3 12 10 6 21 -6 10 -4 24 6 39 9 13 13 26 9 30 -3 3 -6 1 -6 -6 0 -10
-6 -10 -23 2 -15 10 -29 12 -38 7 -21 -14 -97 -9 -110 6 -9 11 -7 14 13 14 13
0 29 5 36 12 8 8 12 8 12 1 0 -6 7 -14 16 -17 12 -5 15 -2 11 13 -3 14 0 17
12 14 25 -6 48 24 32 40 -10 9 -12 9 -9 -2z"/>
<path d="M504 1479 c-30 -11 -39 -28 -14 -26 11 1 20 5 20 9 0 4 5 8 12 8 6 0
4 -7 -5 -18 -10 -10 -14 -22 -10 -25 3 -4 1 -7 -4 -7 -6 0 -13 3 -16 8 -2 4
-2 2 -1 -5 2 -7 -1 -15 -6 -18 -12 -8 -13 -35 -1 -35 5 0 11 9 14 20 3 11 9
20 14 19 13 -3 63 12 63 20 0 3 -10 18 -23 32 -17 20 -27 24 -43 18z"/>
<path d="M2520 1476 c0 -8 4 -17 8 -20 13 -8 35 11 28 23 -10 16 -36 14 -36
-3z"/>
<path d="M1243 1462 c-4 -9 -13 -21 -20 -25 -7 -5 -11 -12 -8 -18 4 -5 1 -9
-4 -9 -6 0 -11 -7 -11 -16 0 -12 -4 -14 -12 -7 -7 5 -24 6 -38 2 -24 -7 -24
-7 -2 -8 12 -1 22 -5 22 -11 0 -9 -14 -14 -33 -11 -11 2 -44 -22 -47 -34 -1
-5 -7 -20 -13 -32 -13 -29 -2 -59 17 -44 7 6 17 7 22 3 4 -4 3 0 -4 9 -9 12
-9 18 1 29 9 10 9 11 0 6 -18 -10 -16 9 2 24 21 17 39 3 23 -18 -10 -14 -10
-15 2 -4 8 6 22 12 32 12 11 0 20 10 24 27 8 28 15 40 49 74 20 20 20 20 0 14
-18 -6 -18 -5 -3 7 9 7 24 18 34 24 17 10 16 11 -5 17 -15 4 -24 0 -28 -11z"/>
<path d="M408 1447 c-21 -6 -38 -16 -38 -23 0 -8 6 -11 14 -8 7 3 23 -7 35
-22 12 -15 24 -25 27 -22 3 3 -2 13 -11 21 -16 17 -20 47 -6 47 5 0 11 -3 14
-7 2 -5 2 -3 1 4 -2 6 2 14 9 17 20 8 -6 4 -45 -7z"/>
<path d="M331 1416 c-7 -8 -18 -13 -26 -10 -25 10 -125 -188 -125 -247 0 -37
26 -8 27 31 3 65 82 212 109 203 12 -4 40 24 32 32 -3 3 -11 -1 -17 -9z"/>
<path d="M873 1410 c4 -8 10 -23 13 -33 4 -10 13 -16 20 -13 24 9 33 -25 13
-45 -14 -14 -17 -27 -12 -51 3 -18 10 -37 14 -42 5 -6 9 -21 9 -34 0 -13 3
-21 8 -19 4 3 16 1 27 -3 20 -7 85 24 85 41 0 10 -36 30 -42 23 -3 -3 -8 2
-12 11 -4 11 5 22 29 36 19 12 34 28 34 37 -1 14 -2 14 -6 -1 -4 -14 -8 -15
-18 -7 -9 8 -15 8 -20 0 -3 -5 -1 -10 6 -10 7 0 10 -2 7 -5 -2 -3 -19 0 -37 6
-18 6 -30 14 -27 16 3 3 0 13 -7 23 -19 26 -91 87 -84 70z m74 -107 c8 -22 45
-75 58 -85 6 -5 4 -8 -4 -8 -8 0 -19 -7 -26 -17 -14 -19 -35 -9 -35 17 0 10
-5 22 -10 25 -12 7 -9 85 3 85 4 0 11 -8 14 -17z"/>
<path d="M1615 1411 c3 -5 1 -12 -5 -16 -5 -3 -10 -11 -10 -16 0 -5 11 -2 25
7 14 9 32 13 41 10 13 -5 14 -3 6 7 -12 14 -66 22 -57 8z"/>
<path d="M1694 1398 c1 -13 -4 -22 -10 -21 -7 1 -10 -6 -7 -17 3 -11 1 -20 -5
-20 -5 0 -12 9 -15 21 -3 12 -11 19 -17 17 -13 -4 -12 -24 1 -20 15 4 10 -17
-7 -26 -19 -11 -64 -4 -64 10 0 5 -4 6 -10 3 -5 -3 -7 0 -4 9 6 16 -23 36 -55
36 -14 0 -21 -6 -21 -20 0 -16 5 -19 30 -13 32 6 40 -7 15 -27 -20 -17 -19
-27 4 -47 11 -9 18 -20 15 -25 -3 -4 -12 -1 -20 7 -19 18 -29 13 -49 -26 -15
-28 -15 -29 10 -29 14 0 25 5 25 11 0 5 -4 7 -10 4 -5 -3 -10 -1 -10 4 0 14
17 14 25 1 3 -5 16 -10 28 -11 17 0 13 -5 -18 -19 -24 -12 -42 -15 -46 -9 -3
6 -12 9 -20 7 -8 -2 -13 3 -11 10 1 8 -2 11 -8 7 -6 -3 -8 -10 -5 -15 3 -4 -2
-10 -10 -13 -11 -5 -12 -1 -5 17 5 13 6 27 2 31 -4 4 3 4 16 1 16 -6 24 -3 29
11 4 10 13 23 21 29 11 8 12 13 3 18 -9 6 -9 11 0 22 6 8 10 17 7 20 -3 2 -13
-7 -22 -21 -9 -14 -12 -25 -6 -25 18 0 -29 -39 -55 -46 -14 -3 -25 -10 -25
-15 0 -5 -8 -9 -17 -9 -15 1 -14 4 5 20 14 11 20 24 16 31 -5 9 -2 10 10 6 11
-5 16 -3 14 5 -8 24 -29 19 -41 -11 -6 -17 -15 -31 -19 -31 -4 0 -8 -6 -8 -14
0 -8 -6 -16 -12 -19 -29 -10 13 -30 78 -36 59 -7 73 -5 113 16 25 12 53 23 61
23 19 0 43 37 34 52 -4 6 -3 8 4 4 14 -8 25 26 16 49 -5 13 -4 16 4 11 14 -8
55 11 48 23 -3 4 1 8 9 8 18 0 19 -9 3 -26 -11 -10 -7 -11 16 -5 l29 7 -33
-41 c-23 -29 -30 -46 -25 -59 6 -15 11 -9 27 27 10 24 23 47 29 50 11 8 -16
91 -34 102 -19 12 -24 10 -23 -14z m-92 -91 c10 -1 15 -8 12 -20 -4 -22 -14
-36 -14 -20 0 6 -9 9 -20 6 -22 -6 -49 16 -42 35 3 9 12 11 26 7 11 -4 28 -7
38 -8z m-17 -57 c-3 -5 -1 -10 4 -10 6 0 11 -4 11 -10 0 -5 -9 -10 -20 -10
-19 0 -27 20 -13 33 10 11 25 8 18 -3z"/>
<path d="M2589 1411 c21 -13 -4 -23 -42 -16 -30 6 -31 5 -13 -10 23 -18 27
-18 60 -5 28 10 26 40 -3 40 -13 0 -13 -2 -2 -9z"/>
<path d="M677 1403 c-9 -2 -15 -8 -12 -12 2 -5 -7 -6 -22 -3 -21 4 -25 2 -20
-12 4 -9 2 -16 -3 -16 -6 0 -10 4 -10 10 0 13 -29 1 -67 -27 -37 -29 -48 -51
-32 -69 13 -15 34 -19 25 -5 -4 5 3 7 14 4 11 -3 20 -10 20 -15 0 -5 -5 -6
-12 -2 -7 4 -8 3 -4 -4 4 -7 2 -12 -3 -12 -17 0 -13 -17 6 -24 9 -4 21 -1 27
5 8 9 7 10 -3 4 -10 -6 -12 -1 -6 24 5 26 4 31 -12 31 -17 1 -17 2 2 16 11 8
19 19 18 23 -2 10 74 51 94 51 8 0 11 5 7 12 -5 7 -3 8 6 3 10 -6 9 -11 -5
-21 -21 -16 -16 -27 9 -18 9 3 16 12 16 20 0 10 13 14 40 14 37 0 40 -2 30
-19 -5 -11 -22 -29 -36 -40 -18 -14 -21 -21 -12 -21 9 0 21 7 28 15 7 8 18 15
25 15 8 0 16 6 18 13 4 7 6 6 6 -4 1 -10 -10 -20 -25 -23 -17 -5 -24 -12 -20
-21 3 -8 3 -22 0 -30 -7 -18 -56 -20 -53 -2 4 29 -3 34 -46 33 -45 -1 -67 -14
-71 -41 -3 -19 29 -29 111 -36 35 -3 46 1 39 13 -5 7 -3 8 5 3 9 -5 10 -10 2
-18 -17 -17 -13 -25 21 -43 34 -17 93 -14 128 9 27 16 25 28 -11 60 -39 34
-62 36 -25 2 14 -13 26 -26 26 -29 0 -6 -79 -46 -91 -46 -6 0 -7 4 -4 10 3 6
-1 7 -9 4 -19 -7 -32 19 -20 38 5 7 9 16 9 19 0 9 32 38 37 34 3 -3 5 2 5 11
0 10 -7 14 -19 11 -10 -3 -16 -2 -13 3 2 4 18 10 34 13 17 4 35 16 42 28 10
20 9 21 -16 15 -21 -5 -26 -4 -23 6 7 17 -13 36 -31 30 -8 -3 -11 0 -7 7 10
15 -46 15 -62 -1 -9 -9 -12 -9 -12 0 0 12 -3 13 -33 5z m-25 -121 c4 11 8 10
21 0 9 -8 20 -11 26 -8 5 3 7 -3 4 -14 -4 -16 -9 -18 -24 -9 -13 6 -19 6 -19
-1 0 -5 -7 -10 -16 -10 -8 0 -12 5 -9 10 4 6 1 19 -7 28 -12 15 -11 16 4 4 13
-10 17 -10 20 0z"/>
<path d="M381 1381 c-8 -10 -21 -16 -31 -14 -20 5 -36 -12 -20 -22 8 -5 7 -11
-1 -21 -18 -22 5 -16 33 9 14 12 29 32 33 45 8 27 4 28 -14 3z"/>
<path d="M2683 1362 c-18 -8 -34 -21 -37 -29 -9 -22 15 -15 40 12 23 25 44 33
44 17 0 -11 -40 -48 -48 -45 -4 2 -7 -3 -8 -10 -4 -41 -4 -42 -19 -23 -12 16
-18 17 -27 8 -9 -9 -9 -12 0 -12 18 0 31 -42 21 -62 -5 -10 -16 -15 -24 -12
-8 4 -15 1 -15 -6 0 -6 5 -8 10 -5 6 3 10 1 10 -6 0 -6 12 0 27 15 25 25 33
46 34 89 0 17 2 17 22 4 12 -8 21 -22 21 -31 -3 -27 20 -17 44 20 26 42 27 50
6 71 -21 22 -63 24 -101 5z m104 -39 c6 -17 -18 -27 -28 -12 -6 10 -9 10 -9 2
0 -7 -7 -10 -16 -6 -15 6 -15 7 0 19 20 14 48 12 53 -3z"/>
<path d="M420 1335 c0 -11 9 -15 31 -13 17 1 33 7 36 12 4 5 -3 7 -14 4 -11
-3 -28 -1 -37 4 -12 7 -16 5 -16 -7z"/>
<path d="M2553 1321 c-30 -25 -29 -28 7 -23 29 4 43 22 18 22 -9 0 -8 4 2 10
8 5 11 10 5 10 -5 -1 -20 -9 -32 -19z"/>
<path d="M2820 1323 c0 -12 -35 -69 -51 -83 -3 -3 -8 -13 -12 -23 -4 -9 -18
-22 -33 -27 -16 -6 -24 -16 -21 -24 6 -15 -31 -36 -62 -36 -22 0 -45 -25 -37
-39 3 -5 -1 -12 -10 -15 -23 -9 -34 -7 -34 4 0 5 6 7 14 4 10 -4 14 3 12 25
-1 17 1 31 6 31 4 0 8 5 8 10 0 6 -7 10 -16 10 -9 0 -12 5 -8 13 6 9 5 9 -8 0
-8 -7 -17 -11 -19 -8 -3 2 -5 -4 -5 -14 0 -10 6 -17 12 -14 23 9 24 -16 2 -31
-33 -21 -68 -29 -68 -17 0 6 7 11 15 11 8 0 15 4 15 10 0 5 -3 9 -7 9 -5 -1
-17 -1 -28 0 -19 2 -19 3 3 13 30 15 28 27 -5 23 -16 -2 -34 2 -42 9 -12 8
-13 8 -7 -1 4 -7 3 -13 -2 -13 -5 0 -12 -9 -15 -20 -4 -17 -2 -18 15 -9 16 8
23 7 34 -8 7 -10 14 -23 14 -28 0 -17 -22 -35 -44 -36 -12 0 -15 -3 -8 -6 6
-2 9 -10 5 -16 -4 -6 7 -1 24 11 43 30 71 28 84 -5 5 -15 9 -36 7 -47 -5 -38
9 -45 48 -25 37 19 71 56 60 66 -13 13 -55 12 -50 -1 6 -15 -21 -40 -34 -32
-13 8 -21 56 -11 57 5 1 18 3 29 4 11 1 25 3 30 4 6 0 10 7 10 15 0 8 5 18 12
22 7 4 8 3 4 -4 -5 -8 3 -11 26 -8 18 2 37 12 43 21 5 10 25 38 43 62 17 24
32 47 32 53 0 5 8 15 18 22 25 18 65 78 58 85 -12 13 -46 9 -46 -4z"/>
<path d="M2270 1321 c0 -7 -4 -10 -9 -7 -5 3 -12 -1 -15 -10 -3 -8 -10 -12
-16 -9 -5 3 -10 0 -10 -7 -1 -7 -6 -3 -13 8 -11 20 -13 20 -26 6 -10 -10 -16
-12 -19 -4 -5 16 -42 -4 -42 -22 0 -8 -7 -16 -15 -20 -10 -4 -15 -20 -15 -52
0 -37 3 -45 15 -40 11 4 15 0 13 -11 -2 -9 4 -18 12 -20 13 -4 13 -3 0 6 -9 6
-10 11 -3 11 20 0 43 -12 38 -20 -6 -10 49 -30 81 -30 13 0 26 5 29 11 4 6 1
10 -6 8 -35 -4 -59 2 -59 16 0 8 3 14 8 14 18 -3 32 2 32 12 0 5 -4 8 -9 5 -5
-4 -12 0 -14 6 -4 10 -6 10 -6 1 -1 -7 -6 -13 -12 -13 -5 0 -7 5 -4 10 3 6 1
10 -5 10 -7 0 -9 -8 -5 -20 4 -11 2 -20 -4 -20 -6 0 -11 9 -11 20 0 14 -7 20
-21 20 -11 0 -17 4 -14 10 4 6 16 8 27 4 15 -4 18 -3 13 6 -6 9 -3 9 13 1 14
-7 23 -8 27 -1 8 14 -20 23 -50 18 -14 -3 -25 -2 -25 3 0 16 23 59 32 59 12 0
10 -14 -4 -30 -9 -10 -6 -9 7 1 25 20 56 33 73 30 6 -1 12 2 12 7 0 6 7 12 14
15 10 4 13 1 10 -8 -6 -15 12 -14 49 0 12 5 17 2 17 -9 0 -9 -4 -16 -10 -16
-5 0 -10 -7 -10 -15 0 -9 -10 -15 -22 -16 -18 -1 -19 -2 -5 -6 10 -3 24 1 32
7 8 6 20 8 26 4 7 -4 10 -3 7 2 -3 5 5 17 18 27 21 15 24 16 24 2 0 -8 -7 -15
-15 -15 -8 0 -15 -6 -15 -14 0 -8 -7 -16 -15 -20 -8 -3 -15 -12 -15 -20 0 -7
-7 -17 -16 -20 -13 -5 -14 -9 -4 -21 11 -13 14 -13 25 2 7 9 26 16 42 16 16 0
30 6 30 12 0 7 -8 10 -19 7 -10 -2 -18 1 -18 7 0 6 7 11 16 11 10 0 14 6 11
14 -9 22 18 40 32 22 9 -11 10 -25 2 -50 -10 -39 -6 -43 22 -22 18 14 24 42 6
31 -7 -5 -9 3 -7 21 2 16 -1 30 -7 32 -5 2 -25 12 -42 24 -23 13 -33 16 -33 7
0 -8 -5 -5 -13 5 -16 22 -117 36 -117 17z"/>
<path d="M2023 1300 c-35 -21 -39 -30 -23 -61 11 -20 64 -27 75 -9 3 6 -3 10
-15 10 -34 0 -20 31 19 45 19 6 37 17 39 23 6 20 -60 14 -95 -8z"/>
<path d="M329 1280 c21 -19 22 -20 5 -27 -23 -8 -35 -24 -27 -36 5 -9 47 32
56 56 6 16 -12 27 -41 27 -14 -1 -12 -5 7 -20z"/>
<path d="M1807 1266 c-15 -7 -24 -16 -20 -20 4 -4 -1 -12 -11 -18 -14 -8 -15
-12 -5 -18 19 -12 -7 -40 -38 -40 -15 0 -22 -4 -18 -11 4 -6 14 -8 22 -5 8 3
11 1 8 -4 -9 -15 24 -25 38 -11 9 9 9 14 -1 20 -16 10 30 36 51 28 16 -6 28
-54 15 -61 -5 -2 -3 -3 4 -2 15 3 18 24 6 47 -6 13 -1 18 24 23 43 9 71 7 88
-4 13 -9 13 -11 0 -20 -22 -15 -33 -12 -26 6 6 14 4 15 -9 4 -12 -10 -13 -15
-4 -21 10 -6 10 -11 1 -22 -7 -8 -11 -21 -9 -28 2 -8 2 -11 0 -7 -3 4 -16 -4
-31 -17 -14 -13 -24 -26 -22 -29 3 -2 26 -2 52 1 40 5 47 9 51 32 3 14 1 30
-4 36 -27 27 13 39 81 23 7 -2 14 2 16 8 5 12 -58 44 -87 44 -14 0 -19 5 -16
14 5 13 -49 47 -83 51 -8 1 -22 5 -30 8 -8 3 -27 0 -43 -7z m48 -7 c13 -19 -4
-59 -25 -59 -11 0 -20 5 -20 10 0 6 6 10 14 10 19 0 30 32 14 42 -9 5 -10 8
-1 8 6 0 15 -5 18 -11z"/>
<path d="M2866 1237 c-10 -23 -19 -44 -20 -47 -1 -3 -12 -22 -24 -42 -25 -40
-40 -53 -22 -18 6 11 8 20 6 20 -9 0 -35 -57 -29 -63 3 -4 1 -13 -5 -20 -7 -8
-9 -16 -6 -20 11 -10 -36 -28 -59 -22 -21 6 -21 5 -3 -9 17 -14 17 -16 3 -22
-9 -3 -14 -10 -11 -15 3 -5 -1 -6 -9 -3 -12 4 -24 -8 -73 -74 -1 -2 -16 6 -32
18 -17 13 -38 20 -46 17 -10 -4 -16 -1 -16 8 0 23 -16 18 -28 -10 -13 -29 -69
-48 -91 -31 -12 9 -10 12 7 14 12 2 22 7 22 10 0 14 -39 41 -45 32 -3 -5 -14
-7 -25 -5 -11 2 -27 -3 -36 -12 -15 -15 -15 -18 1 -30 17 -11 17 -13 2 -19
-21 -8 -22 -34 -2 -34 8 0 15 6 15 14 0 14 20 26 43 26 8 0 7 -4 -1 -12 -7 -7
-12 -19 -12 -28 0 -11 -12 -16 -45 -17 -25 -1 -43 2 -40 6 2 5 -3 8 -13 7 -13
-1 -17 6 -15 32 1 20 -2 30 -8 26 -6 -3 -24 6 -40 22 -30 29 -37 44 -18 44 6
0 16 6 23 13 18 18 50 87 43 93 -3 3 -16 -16 -29 -42 -15 -32 -29 -48 -39 -46
-20 3 -21 -27 -1 -50 8 -10 12 -24 9 -32 -4 -10 0 -14 14 -11 26 5 24 -13 -3
-36 -31 -25 -38 -24 -38 8 0 14 -3 24 -6 20 -4 -3 -21 5 -39 19 -28 21 -39 24
-75 18 -28 -5 -46 -15 -57 -30 l-15 -24 -24 36 c-13 19 -24 39 -24 44 0 5 -7
7 -15 4 -10 -4 -12 -11 -6 -22 7 -12 2 -22 -20 -38 -16 -11 -26 -24 -22 -27 7
-8 -16 -37 -29 -37 -6 0 -5 7 2 15 21 25 0 17 -42 -17 -22 -17 -50 -32 -62
-33 -11 -1 -30 -6 -40 -10 -14 -6 -17 -5 -12 3 5 8 0 12 -12 12 -11 0 -25 7
-32 15 -17 21 -29 19 -23 -4 5 -19 56 -46 80 -42 6 1 14 -3 18 -9 3 -5 0 -10
-7 -10 -8 0 -21 -9 -31 -20 -9 -11 -26 -20 -38 -20 -18 0 -20 -2 -9 -15 10
-12 10 -19 2 -27 -8 -8 -14 -4 -22 17 -7 20 -8 31 0 39 29 29 -5 86 -57 92
l-27 3 30 -24 c16 -13 34 -25 39 -25 6 0 3 -5 -5 -10 -13 -8 -12 -10 4 -10 14
0 11 -6 -15 -23 -39 -27 -49 -26 -49 8 0 13 -4 27 -10 30 -5 3 -10 17 -10 31
0 21 -2 23 -14 12 -8 -8 -10 -16 -4 -19 5 -3 12 -32 15 -63 4 -35 11 -60 19
-63 17 -6 18 -20 2 -26 -7 -2 -4 -2 7 1 11 2 31 4 45 3 46 -1 68 8 74 34 4 15
13 25 25 25 10 0 21 8 24 19 2 10 18 24 36 32 18 8 31 21 31 31 0 10 3 18 8
19 50 5 70 14 87 37 31 42 56 64 63 57 4 -4 -1 -11 -11 -16 -18 -11 -24 -39
-7 -39 5 0 7 7 4 15 -4 8 -1 15 5 15 6 0 10 -11 9 -24 -2 -19 -7 -23 -24 -20
-24 4 -58 -31 -47 -49 3 -6 2 -7 -4 -4 -10 7 -65 -72 -58 -83 3 -4 16 -10 29
-14 18 -4 33 2 62 29 21 19 44 35 52 35 7 0 10 4 7 10 -3 5 1 20 9 32 9 12 16
36 16 53 l0 30 26 -32 c16 -21 34 -33 49 -33 13 0 26 -4 29 -9 7 -10 56 -2 56
10 0 5 -5 9 -10 9 -6 0 -5 6 2 14 7 8 15 10 18 6 3 -4 12 -9 20 -12 11 -3 7
-11 -15 -29 -16 -13 -41 -36 -55 -50 -14 -14 -35 -29 -46 -33 -18 -5 -20 -3
-16 22 4 27 2 28 -30 24 -30 -3 -34 -8 -37 -35 -6 -60 -7 -67 -14 -73 -4 -4
-7 0 -7 8 0 10 -7 15 -17 13 -10 -2 -26 -4 -37 -4 -11 -1 -16 -6 -13 -15 4 -9
0 -12 -13 -9 -12 3 -20 -2 -23 -14 -4 -15 -5 -15 -6 3 -1 30 -27 50 -35 29 -3
-9 -2 -13 4 -10 6 3 10 0 10 -8 0 -18 -35 -34 -94 -42 -39 -6 -46 -5 -46 9 0
10 -5 14 -10 11 -6 -4 -8 -11 -4 -16 5 -8 -43 -2 -54 7 -2 1 -19 -4 -37 -12
-40 -16 -69 -18 -60 -4 3 5 2 10 -4 10 -5 0 -13 -4 -16 -10 -3 -5 -15 -10 -26
-10 -11 0 -17 5 -14 10 9 14 3 13 -49 -10 -51 -21 -59 -30 -22 -23 13 3 33 0
45 -7 17 -8 25 -8 35 3 11 10 27 12 60 7 24 -4 52 -2 62 3 12 7 23 6 36 -2 11
-7 24 -8 36 -2 28 15 146 30 157 20 13 -13 35 -11 32 2 -1 6 27 22 63 34 36
13 92 34 125 49 33 14 77 26 98 26 23 0 36 4 32 10 -3 6 -1 10 5 10 6 0 27 7
48 15 29 13 34 18 22 25 -13 9 -13 11 0 19 8 6 19 6 25 2 15 -13 55 -8 64 7 5
8 10 13 12 11 11 -7 99 36 99 48 0 7 8 17 17 20 9 4 24 14 34 24 13 13 25 15
60 9 24 -5 47 -6 51 -4 5 3 8 -3 8 -12 0 -15 3 -14 19 4 10 12 26 22 36 22 11
0 15 5 11 16 -3 8 -2 12 4 9 6 -3 10 1 10 10 0 9 4 14 8 11 14 -8 104 91 106
117 0 14 4 23 8 21 4 -2 15 9 24 26 10 16 21 30 25 30 9 0 34 62 31 78 -2 7 7
16 20 22 21 8 21 9 3 10 -17 0 -17 2 -5 10 13 9 13 10 0 10 -8 0 -24 -19 -34
-43z m-839 -349 c2 -19 0 -20 -8 -8 -9 12 -10 13 -7 1 3 -8 19 -16 36 -18 26
-3 34 0 43 21 13 28 29 26 29 -3 0 -34 -46 -52 -102 -42 -4 0 -12 10 -18 22
-9 15 -8 24 1 35 16 20 24 18 26 -8z m218 -16 c-6 -4 -10 -20 -10 -37 0 -25
-4 -30 -22 -28 -14 2 -30 -7 -43 -24 -11 -14 -23 -24 -26 -21 -3 3 10 20 28
39 18 18 33 38 33 45 0 15 37 45 45 38 2 -3 0 -8 -5 -12z m-331 -58 c18 -7 22
-44 5 -44 -6 0 -9 6 -6 14 3 8 -1 17 -10 20 -12 5 -14 1 -9 -20 7 -25 6 -25
-9 -10 -28 28 -9 54 29 40z"/>
<path d="M800 1230 c-21 -17 -23 -21 -10 -30 21 -14 27 -13 51 11 17 17 19 23
8 30 -19 12 -20 11 -49 -11z"/>
<path d="M1215 1222 c-16 -9 -36 -22 -43 -29 -8 -8 -23 -11 -34 -7 -13 4 -18
2 -14 -4 9 -15 -31 -35 -55 -29 -10 3 -22 1 -25 -4 -3 -5 -16 -9 -29 -9 -13 0
-28 -7 -33 -16 -7 -13 -13 -14 -28 -6 -14 8 -23 7 -36 -5 -15 -14 -16 -13 -12
9 4 21 3 21 -5 3 -4 -11 -7 -23 -4 -27 2 -5 -3 -8 -12 -8 -12 0 -14 6 -9 26 5
19 4 25 -5 20 -6 -4 -9 -12 -6 -17 4 -5 1 -9 -4 -9 -6 0 -11 5 -11 10 0 13
-37 13 -45 0 -3 -5 -12 -7 -20 -4 -8 4 -30 -3 -49 -14 -20 -12 -44 -18 -55
-15 -13 3 -21 1 -21 -7 0 -7 7 -10 16 -6 15 6 15 4 0 -19 -9 -14 -14 -31 -10
-37 4 -7 3 -8 -4 -4 -7 4 -12 1 -12 -6 0 -9 -3 -9 -10 2 -5 8 -10 10 -10 5 0
-16 39 -47 50 -40 6 4 10 0 10 -8 0 -25 -13 -27 -31 -5 l-19 21 0 -26 c0 -15
5 -27 10 -27 6 0 10 -4 10 -10 0 -5 -9 -10 -19 -10 -11 0 -23 -4 -26 -10 -9
-15 -36 -12 -57 7 -16 14 -18 15 -18 0 0 -9 4 -18 10 -22 15 -9 -21 -44 -38
-37 -12 4 -14 1 -9 -12 4 -10 7 -20 7 -23 0 -3 7 0 15 7 8 7 15 9 15 5 0 -4 7
-2 15 5 10 9 15 9 15 1 0 -6 8 -11 17 -11 13 0 14 3 5 12 -9 9 -8 16 5 30 9
10 22 18 30 18 8 0 11 5 8 10 -3 6 -1 10 5 10 6 0 29 19 51 42 21 23 42 39 46
35 4 -4 -3 -15 -16 -23 -12 -9 -20 -22 -17 -30 3 -8 0 -13 -6 -11 -6 1 -15
-13 -20 -31 -5 -18 -13 -30 -18 -27 -6 4 -10 2 -10 -3 0 -17 -66 -45 -93 -40
-15 3 -27 2 -27 -1 1 -46 140 -23 140 24 0 23 42 45 86 45 25 0 44 5 47 13 7
22 -5 46 -26 49 -11 2 -22 9 -25 17 -3 8 0 11 6 7 6 -3 14 -2 17 4 4 6 3 9 -2
8 -4 -2 -9 2 -10 7 -2 6 6 11 17 11 38 3 41 4 34 15 -4 8 -9 7 -15 -2 -6 -10
-9 -10 -9 -2 0 6 5 15 10 18 6 4 7 12 3 18 -14 23 -13 47 1 41 8 -3 12 -13 9
-22 -4 -15 -3 -15 6 -2 6 8 11 24 12 35 1 13 5 9 12 -13 8 -26 7 -36 -2 -41
-7 -5 -14 -20 -15 -33 -3 -22 1 -26 21 -23 13 1 26 -2 29 -6 10 -16 22 -9 26
15 4 19 1 23 -11 19 -9 -4 -21 -10 -28 -15 -7 -5 -14 -5 -18 2 -3 5 -1 10 5
10 7 0 10 7 6 15 -5 15 5 20 17 8 11 -11 67 -13 67 -3 0 6 -4 10 -10 10 -5 0
-10 9 -10 21 0 12 4 17 11 13 8 -4 9 1 5 17 -6 21 -5 21 4 6 6 -9 15 -15 21
-12 15 10 10 -2 -8 -21 -17 -17 -17 -17 5 -12 26 7 29 0 5 -17 -13 -10 -15
-16 -6 -26 11 -15 6 -79 -6 -79 -17 0 -18 13 -6 37 8 15 12 30 9 35 -11 17
-32 7 -38 -17 -5 -20 2 -36 29 -72 27 -35 35 -55 35 -88 0 -43 -27 -85 -55
-85 -18 0 -20 26 -2 34 6 4 2 4 -10 2 -24 -4 -49 17 -38 34 3 5 12 10 20 10
14 0 31 37 21 47 -3 4 -6 0 -6 -7 0 -16 -30 -39 -50 -40 -13 0 -13 1 0 10 9 6
10 10 3 10 -7 0 -17 -9 -23 -20 -14 -26 -30 -17 -30 16 0 16 -6 24 -17 24 -14
0 -15 -2 -4 -9 11 -7 11 -9 0 -13 -14 -5 -19 -32 -19 -91 0 -19 -4 -27 -12
-24 -7 2 -12 9 -11 14 1 5 -4 10 -11 10 -7 0 -13 -5 -13 -11 0 -6 -3 -21 -7
-33 -7 -22 0 -28 26 -24 4 0 12 -8 18 -19 6 -11 15 -18 19 -15 5 2 22 0 37 -5
26 -8 87 -17 136 -19 11 -1 16 -8 13 -21 -3 -16 -1 -18 13 -11 9 4 26 7 37 5
55 -9 80 -8 78 3 -2 8 5 8 27 0 17 -6 30 -17 30 -24 0 -7 4 -13 9 -13 5 0 18
-3 28 -6 13 -4 11 0 -7 15 l-25 21 94 -6 c92 -6 93 -6 86 15 -7 24 -2 26 26
11 12 -7 19 -7 19 -1 0 5 9 11 20 13 15 2 17 7 10 18 -9 13 -11 13 -20 0 -7
-11 -10 -12 -10 -2 0 9 -7 11 -20 7 -11 -3 -29 -3 -40 0 -18 6 -19 8 -4 22 12
12 20 13 38 5 15 -7 27 -7 33 -1 6 6 19 11 30 12 12 0 19 6 16 12 -6 16 26 41
36 29 5 -5 11 -18 14 -29 3 -14 5 -11 6 10 1 20 -6 34 -19 43 -12 7 -18 17
-15 21 2 5 -11 12 -30 15 -56 11 -135 -34 -121 -69 8 -21 24 -19 22 3 -1 12 8
18 27 20 20 2 27 8 23 17 -6 17 10 30 19 15 9 -14 -14 -52 -27 -44 -7 4 -8 3
-4 -4 7 -12 -47 -46 -57 -36 -3 3 -10 3 -15 0 -15 -9 3 -62 19 -58 10 2 9 -2
-3 -14 -17 -17 -18 -17 -37 0 -12 11 -29 16 -41 13 -13 -3 -20 0 -20 10 0 9
-6 13 -14 10 -17 -7 -76 20 -76 34 0 6 -4 7 -10 4 -16 -10 -12 -25 6 -25 14 0
14 -3 4 -15 -7 -8 -19 -15 -27 -15 -7 0 -16 -7 -19 -15 -5 -11 -10 -10 -27 6
-38 36 -91 51 -80 23 5 -15 3 -15 -23 -1 -32 17 -99 25 -110 14 -12 -12 -34
14 -34 40 0 20 4 24 20 20 15 -4 22 1 26 21 4 15 9 30 11 35 5 9 33 -18 33
-32 0 -24 76 -46 98 -28 9 7 20 6 37 -1 15 -7 25 -8 25 -2 0 6 -6 10 -14 10
-12 0 -26 20 -26 36 0 2 12 -3 28 -13 l27 -18 -27 36 c-14 20 -30 53 -34 75
-3 21 -13 52 -21 68 -18 34 -11 94 14 137 13 22 14 31 4 42 -16 20 -6 24 60
22 42 -1 56 2 52 11 -6 16 42 48 58 38 7 -4 9 -3 6 3 -3 5 14 20 39 33 24 14
44 28 44 32 0 14 -16 14 -45 0z m-312 -173 c-5 -5 -17 -7 -27 -3 -15 6 -14 8
6 26 21 18 23 18 26 3 2 -9 0 -21 -5 -26z m-119 -11 c-5 -37 -14 -51 -14 -20
0 11 -4 24 -10 27 -16 10 -11 25 9 25 15 0 18 -6 15 -32z m-29 -27 c-3 -12
-15 -21 -25 -21 -10 0 -20 -5 -22 -11 -2 -7 -9 -5 -17 5 -11 13 -11 16 0 16 8
0 25 9 39 20 29 22 34 20 25 -9z m57 -238 c12 -15 -7 -27 -29 -19 -12 5 -14 9
-5 18 7 7 13 21 13 33 1 20 1 20 6 0 3 -11 9 -25 15 -32z m-27 -73 c4 -6 -9
-10 -30 -10 -20 0 -34 3 -31 8 7 11 54 13 61 2z m376 -70 c5 0 9 -7 9 -15 0
-17 -45 -21 -55 -5 -9 15 5 32 22 26 8 -3 19 -6 24 -6z"/>
<path d="M1651 1220 c-13 -11 -18 -20 -12 -20 15 0 14 -30 -2 -36 -16 -6 -20
-47 -4 -41 7 2 22 18 34 35 13 21 23 28 26 20 3 -8 6 -9 6 -2 1 6 -5 17 -13
24 -8 6 -12 18 -9 26 7 18 3 17 -26 -6z"/>
<path d="M254 1215 c3 -11 8 -32 12 -47 9 -41 26 -34 22 10 -2 20 -7 35 -12
34 -5 -2 -13 2 -18 10 -7 9 -8 7 -4 -7z"/>
<path d="M346 1204 c-9 -8 -16 -18 -16 -22 0 -11 59 -42 79 -42 9 0 27 -7 39
-16 13 -9 29 -14 35 -11 7 3 21 -1 32 -9 25 -19 28 -18 59 13 26 26 26 27 9
44 -10 10 -31 20 -48 23 -16 2 -30 5 -30 6 0 2 -9 4 -20 5 -11 2 -40 8 -65 14
-58 14 -56 14 -74 -5z m72 -26 c-3 -7 -13 -13 -23 -13 -10 0 -20 6 -22 13 -3
7 5 12 22 12 17 0 25 -5 23 -12z m68 -12 c4 -12 11 -12 29 -4 16 7 28 7 41 -2
18 -11 17 -11 -3 -7 -14 3 -20 1 -17 -8 7 -16 -27 -29 -37 -14 -4 6 -12 8 -18
5 -6 -4 -11 -2 -11 4 0 6 -4 8 -10 5 -5 -3 -10 0 -10 7 0 9 -3 9 -10 -2 -8
-12 -10 -11 -10 8 0 17 6 22 25 22 14 0 28 -6 31 -14z"/>
<path d="M590 1201 c0 -5 9 -13 20 -16 11 -4 19 -14 18 -22 -5 -26 16 -25 28
1 9 19 9 23 -1 20 -6 -3 -18 2 -25 11 -14 16 -40 20 -40 6z"/>
<path d="M2275 1200 c3 -6 -1 -7 -9 -4 -9 3 -16 1 -16 -5 0 -6 12 -12 28 -12
15 -1 20 -3 11 -6 -10 -2 -19 -13 -22 -25 -5 -17 -2 -19 21 -14 15 4 33 7 40
8 6 1 12 5 12 10 0 10 -3 10 -35 -2 -17 -7 -24 -7 -20 0 3 6 13 10 21 10 19 0
18 20 -3 36 -21 16 -37 18 -28 4z"/>
<path d="M2792 1184 c-12 -8 -20 -20 -16 -25 4 -6 10 -6 18 0 7 6 15 9 17 6 3
-2 5 5 5 15 0 11 -1 20 -1 20 0 0 -11 -7 -23 -16z"/>
<path d="M687 1176 c-3 -8 0 -20 8 -26 8 -6 11 -19 8 -28 -5 -15 -3 -14 13 2
14 13 15 20 7 23 -7 3 -13 13 -13 24 0 22 -15 25 -23 5z"/>
<path d="M1237 1171 c1 -2 -2 -12 -8 -22 -8 -15 -6 -19 8 -20 32 -2 47 3 59
19 16 22 12 24 -17 14 -16 -6 -27 -5 -34 2 -5 6 -9 9 -8 7z"/>
<path d="M1589 1140 c-8 -5 -36 -10 -61 -11 -49 -3 -55 -19 -16 -40 15 -8 17
-14 9 -22 -15 -15 -14 -30 1 -21 7 4 8 3 4 -4 -11 -18 -39 -15 -32 3 7 19 -3
47 -14 40 -5 -3 -11 -1 -15 5 -3 5 -15 10 -27 10 -15 0 -19 -5 -15 -19 4 -17
2 -18 -14 -8 -13 8 -15 14 -6 20 20 14 -36 -4 -60 -19 -13 -8 -23 -19 -23 -25
0 -12 -35 -3 -68 18 -19 12 -21 17 -11 29 6 8 8 18 4 22 -4 4 -10 1 -12 -6 -3
-6 -9 -10 -14 -6 -5 3 -9 1 -9 -4 0 -5 -10 -8 -22 -7 -29 3 -81 -23 -73 -36 4
-5 1 -8 -5 -7 -7 2 -16 -7 -21 -19 -7 -19 -5 -23 9 -23 9 0 28 9 42 20 28 22
50 26 50 9 0 -6 6 -9 13 -6 6 2 18 -1 24 -8 20 -22 -17 -28 -41 -8 -18 16 -19
16 -7 1 7 -9 10 -21 7 -26 -6 -10 37 -8 54 3 6 4 18 -1 25 -11 9 -11 14 -14
15 -6 0 6 9 12 21 12 13 0 18 4 13 12 -4 7 -3 8 5 4 6 -4 8 -12 5 -18 -5 -7
-1 -9 9 -5 9 3 19 1 23 -5 4 -7 3 -8 -4 -4 -7 4 -12 2 -12 -4 0 -6 -4 -9 -8
-6 -4 2 -9 -4 -9 -15 -1 -10 2 -19 8 -19 19 0 8 -26 -12 -27 -12 -1 -29 -9
-39 -18 -12 -11 -20 -13 -25 -6 -3 6 -2 11 3 11 5 0 9 6 9 13 0 9 -9 12 -26 9
-25 -4 -25 -3 7 21 24 18 29 26 18 30 -9 4 -16 -1 -18 -10 -3 -15 -5 -15 -20
1 -10 10 -18 12 -18 6 0 -6 7 -13 15 -16 12 -5 10 -10 -8 -25 -12 -11 -17 -19
-12 -18 30 4 44 -2 39 -16 -7 -19 -42 -11 -62 14 -11 14 -11 13 -2 -6 8 -17 8
-23 0 -23 -6 0 -8 -5 -4 -11 4 -8 9 -8 17 0 17 17 27 13 20 -6 -5 -15 -3 -16
8 -5 7 6 20 12 29 11 19 0 -27 -21 -55 -24 -11 -1 -26 5 -33 14 -12 14 -12 14
-3 -4 8 -17 4 -23 -27 -40 -26 -15 -36 -27 -34 -40 2 -11 -6 -26 -19 -36 -33
-25 -18 -33 20 -12 28 16 33 16 42 3 9 -12 10 -11 6 8 -7 30 14 40 74 34 48
-4 109 12 109 29 0 12 -24 11 -36 -1 -5 -5 -30 -11 -54 -12 -34 -2 -44 0 -42
11 2 8 -2 17 -8 21 -6 4 12 5 40 4 28 -2 55 -6 60 -9 6 -4 10 -1 10 5 0 6 5 8
10 5 12 -8 12 13 -1 40 -9 19 -9 19 -5 -2 3 -16 -2 -22 -20 -26 -14 -2 -27 0
-30 4 -3 5 5 9 17 9 17 0 19 3 10 14 -10 12 -8 17 8 25 25 14 54 14 46 1 -9
-15 11 -12 22 3 18 22 22 57 7 57 -8 0 -14 5 -14 11 0 6 7 8 16 5 10 -4 24 2
35 15 23 27 25 36 2 18 -13 -11 -17 -11 -20 -1 -3 6 -9 10 -14 6 -5 -3 -9 2
-9 11 0 8 -7 18 -15 21 -11 5 -12 10 -4 26 9 17 13 18 20 7 6 -10 9 -11 9 -1
0 17 37 15 43 -2 4 -10 -3 -16 -21 -19 -25 -4 -25 -4 5 -6 17 0 35 -5 38 -11
11 -18 22 -10 29 20 5 27 26 43 26 20 0 -5 -4 -10 -8 -10 -4 0 -9 -11 -10 -24
-2 -23 0 -24 29 -16 23 7 37 5 51 -4 17 -12 17 -14 3 -20 -23 -9 -25 -8 -19 8
4 11 0 13 -15 9 -18 -4 -19 -8 -9 -20 7 -9 21 -19 33 -23 17 -7 17 -9 3 -9
-26 -1 -22 -34 7 -69 30 -36 60 -36 60 -1 0 21 -4 24 -32 21 -38 -4 -40 4 -16
60 18 40 39 53 27 16 -6 -21 -6 -21 22 2 24 20 29 32 29 64 0 35 -5 44 -34 63
-21 14 -28 23 -17 23 9 0 16 5 16 10 0 12 -1 12 -21 0z m41 -72 c0 -9 -5 -10
-50 -12 -16 0 -30 2 -30 7 0 4 7 7 15 7 8 0 14 3 14 8 -1 4 -1 10 0 14 1 8 51
-15 51 -24z m-402 -8 c7 0 12 -4 12 -8 0 -10 -27 -8 -52 2 -9 5 -14 14 -11 22
5 13 8 13 23 -1 9 -8 22 -15 28 -15z"/>
<path d="M297 1113 c8 -3 9 -12 3 -27 -4 -12 -5 -28 0 -35 4 -7 5 -23 3 -35
-3 -15 -2 -17 5 -8 5 8 12 13 16 13 20 -3 23 2 21 32 -2 17 1 39 5 48 7 12 2
15 -28 16 -20 0 -32 -2 -25 -4z"/>
<path d="M217 1090 c-24 -19 -26 -19 -30 -3 -3 10 -5 0 -6 -22 -1 -43 26 -112
52 -134 10 -7 17 -20 17 -27 0 -8 7 -14 15 -14 25 0 17 28 -12 47 -52 33 -57
65 -16 100 14 13 20 23 13 23 -9 0 -5 9 10 25 23 24 23 25 3 25 -11 0 -32 -9
-46 -20z"/>
<path d="M370 1098 c0 -7 7 -23 15 -35 12 -16 12 -22 2 -26 -9 -4 -9 -6 0 -6
18 -1 23 13 15 44 -8 30 -32 47 -32 23z"/>
<path d="M2300 1078 c0 -11 -18 -39 -40 -61 -26 -26 -37 -44 -31 -50 5 -5 7
-16 4 -23 -10 -26 22 -5 40 26 12 19 31 33 55 39 20 6 43 20 50 32 9 13 9 18
2 14 -6 -4 -18 2 -25 13 -21 29 -55 35 -55 10z"/>
<path d="M2101 1064 l-20 -26 22 -33 c12 -19 24 -32 26 -29 3 2 -1 10 -7 16
-18 18 -15 42 9 72 16 21 17 26 5 26 -8 0 -24 -12 -35 -26z"/>
<path d="M2404 1080 c-16 -6 -16 -7 -1 -13 10 -4 17 -1 17 6 0 8 3 8 9 -2 9
-14 31 -7 31 9 0 10 -28 9 -56 0z"/>
<path d="M456 1060 c-30 -5 -49 -30 -24 -30 8 0 20 6 27 13 11 10 14 10 18 0
7 -18 30 -16 37 3 5 14 4 15 -8 5 -11 -9 -15 -9 -18 1 -2 9 -13 12 -32 8z"/>
<path d="M1740 1060 c-6 -4 -22 -6 -34 -3 -19 4 -19 3 -3 -7 10 -6 14 -16 10
-23 -12 -19 -14 -47 -3 -47 5 0 7 -7 4 -15 -4 -8 -12 -15 -19 -15 -8 0 -17 -5
-21 -12 -4 -7 -3 -8 4 -4 7 4 12 2 12 -3 0 -22 -36 -10 -52 17 -13 20 -18 22
-18 10 0 -10 -4 -18 -10 -18 -5 0 -10 -4 -10 -10 0 -5 7 -7 15 -4 8 3 22 -1
31 -10 9 -9 24 -14 34 -11 24 8 46 -20 31 -39 -9 -10 -8 -15 4 -20 8 -3 15 0
15 6 0 7 13 9 36 5 33 -6 36 -4 31 15 -4 14 0 22 12 25 13 3 17 11 14 24 -3
12 0 19 8 20 8 0 4 4 -8 9 -13 5 -23 17 -23 26 0 10 5 14 14 11 22 -9 30 25
10 40 -20 15 -12 28 11 20 8 -4 15 -17 16 -29 0 -13 3 -17 6 -10 2 6 11 12 20
12 8 0 13 -6 10 -12 -2 -7 -14 -13 -26 -12 -20 1 -22 -3 -19 -28 3 -16 1 -31
-4 -34 -13 -8 1 -24 17 -18 7 3 12 14 10 25 -4 22 23 61 37 53 5 -3 5 -11 2
-17 -5 -9 -4 -9 5 -1 10 9 9 17 -4 38 -10 14 -25 26 -34 26 -9 0 -24 7 -35 15
-14 11 -21 11 -31 2 -7 -7 -11 -15 -8 -19 2 -5 -1 -8 -6 -8 -6 0 -11 6 -11 14
0 17 -23 27 -40 16z m26 -31 c0 -10 -4 -19 -9 -19 -4 0 -5 -4 -2 -10 3 -5 1
-10 -4 -10 -6 0 -11 5 -11 10 0 6 -7 10 -15 10 -12 0 -13 4 -4 18 15 25 45 25
45 1z m34 -16 c-1 -5 -7 -19 -15 -33 l-14 -25 -1 26 c0 14 3 29 7 32 9 9 23 9
23 0z m-45 -50 c-16 -42 -13 -60 12 -60 13 0 23 5 23 13 0 8 5 14 10 14 15 0
12 -16 -5 -30 -8 -7 -12 -17 -9 -22 4 -6 -3 -5 -14 1 -12 6 -27 10 -34 9 -16
-4 -19 61 -3 79 15 18 28 15 20 -4z"/>
<path d="M543 1046 c2 -5 -6 -19 -17 -32 -35 -38 -46 -53 -46 -64 0 -18 18
-11 39 16 13 16 27 24 36 20 9 -3 15 0 15 9 0 8 4 15 9 15 4 0 6 10 4 23 -3
14 -12 23 -24 23 -11 0 -18 -5 -16 -10z"/>
<path d="M23 995 c0 -33 2 -45 4 -27 2 18 2 45 0 60 -2 15 -4 0 -4 -33z"/>
<path d="M465 1000 c3 -5 -3 -10 -13 -10 -11 0 -22 -7 -26 -15 -7 -18 -4 -31
7 -27 11 3 9 -26 -3 -33 -18 -11 -11 -38 9 -32 10 2 26 0 35 -5 10 -6 16 -5
16 2 0 5 -4 10 -9 10 -19 0 -29 55 -15 81 16 29 17 39 3 39 -5 0 -7 -4 -4 -10z"/>
<path d="M2420 980 c0 -16 4 -30 8 -30 5 0 13 -10 19 -22 6 -15 12 -18 17 -10
4 7 3 12 -3 12 -6 0 -8 7 -4 16 5 12 7 13 14 2 5 -8 7 -2 6 17 -2 25 -7 30
-26 28 -13 -2 -20 1 -16 7 3 6 1 10 -4 10 -6 0 -11 -13 -11 -30z"/>
<path d="M291 968 c0 -16 1 -28 3 -28 2 0 11 -3 20 -6 10 -4 14 0 13 14 0 11
-6 18 -13 15 -7 -2 -14 4 -17 14 -3 12 -5 9 -6 -9z"/>
<path d="M1054 955 c-21 -32 -70 -46 -59 -16 5 13 4 14 -6 3 -11 -10 -10 -16
5 -30 11 -9 16 -11 12 -4 -4 6 -5 12 -2 12 3 0 15 -19 26 -42 11 -24 29 -54
39 -68 19 -24 20 -24 39 -7 26 24 34 54 15 61 -8 3 -31 7 -51 7 -31 2 -32 3
-9 6 15 2 25 9 22 14 -4 5 0 12 9 15 8 3 12 12 9 20 -4 10 0 12 11 8 9 -3 16
-1 16 6 0 6 4 9 8 6 4 -2 9 5 9 17 1 12 -1 17 -5 12 -4 -6 -17 -16 -30 -23
-20 -11 -23 -10 -31 10 -8 23 -8 23 -27 -7z"/>
<path d="M1419 955 c-1 -3 -2 -9 -3 -14 0 -5 -4 -13 -8 -17 -12 -12 -9 -36 3
-28 6 3 15 1 19 -6 11 -17 44 -4 37 15 -4 9 -1 12 9 8 9 -3 14 -15 12 -32 -3
-23 1 -26 29 -29 27 -3 31 -1 26 17 -3 12 -9 19 -13 16 -4 -3 -11 2 -14 11 -4
10 -2 13 7 8 6 -4 -4 7 -23 24 -30 27 -77 42 -81 27z"/>
<path d="M850 933 c-8 -10 -15 -27 -14 -38 0 -11 -4 -28 -9 -38 -16 -33 1 -30
22 4 17 27 21 30 27 16 3 -9 11 -17 17 -17 5 0 3 8 -6 18 -21 23 -21 31 1 49
15 13 15 14 0 9 -9 -3 -18 -1 -20 5 -2 5 -10 1 -18 -8z"/>
<path d="M364 925 c-4 -8 -10 -13 -14 -10 -5 3 -19 0 -32 -5 -22 -10 -22 -10
4 -7 16 2 33 -2 39 -9 9 -11 6 -16 -14 -23 -25 -10 -43 -28 -35 -37 3 -2 19 3
36 12 32 15 41 37 22 49 -7 4 -7 13 0 26 6 10 8 19 5 19 -3 0 -8 -7 -11 -15z"/>
<path d="M35 881 c9 -107 106 -254 240 -364 128 -106 366 -224 568 -282 106
-31 147 -38 147 -25 0 5 -7 11 -15 11 -17 2 -25 4 -45 12 -8 3 -49 16 -90 28
-41 11 -77 25 -80 30 -3 5 -17 11 -30 13 -14 2 -26 5 -27 7 -2 1 -6 2 -10 4
-23 6 -43 18 -43 25 0 5 15 4 33 -2 56 -17 101 -27 147 -34 25 -3 61 -9 80
-14 38 -9 128 -19 233 -25 37 -2 71 -6 75 -8 14 -8 108 -6 147 2 37 8 35 9
-30 10 -262 5 -527 45 -710 108 -305 106 -520 293 -580 506 l-15 52 5 -54z"/>
<path d="M2515 860 c0 -23 2 -26 18 -16 20 13 19 38 -3 41 -10 2 -15 -6 -15
-25z"/>
<path d="M1404 861 c-4 -9 -6 -20 -5 -25 1 -5 -4 -13 -11 -19 -10 -6 -9 -7 4
-4 9 3 18 2 20 -2 6 -15 58 -22 59 -9 0 7 2 28 3 46 1 17 -1 32 -6 32 -4 0 -8
-7 -8 -15 0 -8 -5 -15 -11 -15 -5 0 -8 4 -5 9 3 5 -3 11 -13 14 -12 3 -22 -1
-27 -12z"/>
<path d="M425 850 c7 -23 7 -24 -11 -10 -18 14 -18 14 -1 -6 9 -11 14 -24 10
-27 -3 -4 4 -7 17 -7 18 0 20 3 10 15 -6 8 -9 18 -6 23 3 6 -2 16 -11 23 -14
12 -15 11 -8 -11z"/>
<path d="M750 855 c-7 -9 -10 -18 -7 -22 4 -3 2 -12 -4 -19 -7 -8 -7 -19 -1
-30 7 -13 10 -10 17 17 9 38 13 69 10 69 -1 0 -8 -7 -15 -15z"/>
<path d="M2845 840 c-33 -15 -66 -25 -74 -22 -9 3 -12 1 -7 -6 6 -9 -20 -23
-49 -27 -5 -1 -28 -9 -50 -19 -22 -10 -42 -17 -44 -16 -2 1 -7 -3 -10 -8 -11
-16 -92 -54 -106 -48 -8 3 -12 0 -10 -7 3 -7 -22 -25 -56 -42 -83 -41 -83 -41
-68 -14 11 22 11 23 -4 10 -10 -7 -16 -21 -15 -30 2 -11 -21 -28 -72 -54 -56
-28 -66 -37 -40 -31 31 6 55 16 84 36 14 9 294 152 459 235 70 35 127 65 127
68 0 6 6 8 -65 -25z"/>
<path d="M2486 822 c-4 -7 -4 -17 -1 -22 4 -6 3 -10 -2 -9 -18 3 -30 -2 -51
-21 -12 -12 -22 -18 -22 -15 0 4 -13 -3 -29 -14 -15 -11 -31 -18 -35 -14 -3 3
-6 1 -6 -5 0 -7 -5 -12 -11 -12 -6 0 -43 -15 -84 -34 -53 -24 -76 -31 -84 -23
-8 8 -11 6 -11 -6 0 -9 -6 -17 -13 -17 -8 0 -36 -11 -62 -25 -46 -23 -102 -41
-117 -37 -4 1 -24 -4 -45 -12 -45 -16 -143 -33 -233 -41 -35 -3 -70 -10 -76
-16 -8 -7 -14 -6 -17 3 -4 10 -9 8 -17 -4 -6 -10 -16 -18 -23 -18 -7 0 -6 4 3
10 17 11 17 12 -32 14 -20 0 -34 -2 -32 -5 2 -4 -79 -6 -180 -5 -101 0 -182
-2 -179 -6 6 -11 -28 -9 -52 3 -16 8 -15 8 8 4 20 -4 27 -2 22 6 -5 7 -21 9
-41 6 -26 -4 -37 -1 -47 14 -8 10 -17 16 -20 12 -11 -10 -8 -25 3 -18 6 3 10
1 10 -5 0 -8 -7 -9 -17 -5 -29 12 -163 43 -223 51 -50 7 -52 9 -25 15 19 5 10
6 -22 3 -35 -4 -53 -2 -53 5 0 6 -5 11 -11 11 -5 0 -7 -4 -4 -10 3 -5 3 -10
-2 -10 -11 0 -40 20 -30 20 16 0 -17 26 -34 26 -13 0 -15 -4 -8 -17 10 -20 69
-40 184 -64 44 -9 132 -30 196 -46 64 -15 160 -33 215 -38 97 -9 360 -7 419 3
17 3 50 8 75 10 196 22 247 30 258 39 9 7 12 4 13 -9 0 -11 3 -14 6 -6 2 6 13
12 24 12 10 0 19 4 19 9 0 5 13 11 29 13 17 2 28 1 25 -3 -6 -11 67 -8 99 3
15 6 27 14 27 19 0 5 7 9 15 9 8 0 15 7 15 15 0 12 -8 9 -34 -11 -19 -15 -45
-29 -57 -31 -23 -3 -23 -3 -4 11 20 15 20 15 -2 13 -12 0 -19 -5 -17 -9 3 -4
0 -8 -5 -8 -23 0 -6 33 19 38 8 2 30 15 48 29 18 14 36 23 39 20 3 -3 24 6 46
19 36 21 70 38 157 78 40 18 119 74 113 79 -3 4 -1 7 5 7 7 0 12 5 12 11 0 5
-4 8 -9 5 -5 -4 -11 -1 -13 6 -3 9 -6 9 -12 0z"/>
<path d="M555 745 c40 -12 55 -11 55 4 0 4 -21 8 -47 8 l-48 0 40 -12z"/>
<path d="M638 748 c15 -15 15 -26 0 -25 -39 1 -68 -4 -68 -13 0 -17 116 -12
130 5 10 12 9 16 -6 21 -11 3 -27 10 -36 15 -25 13 -34 11 -20 -3z"/>
<path d="M395 688 c4 -10 15 -18 25 -18 10 0 20 -4 22 -9 3 -9 101 -61 115
-61 10 0 -16 25 -27 26 -6 1 -15 2 -21 3 -5 0 -7 6 -4 11 4 6 3 10 -2 9 -18
-3 -53 14 -53 26 0 7 -7 16 -16 19 -8 3 -12 2 -9 -4 9 -14 -9 -12 -24 3 -10
10 -11 9 -6 -5z"/>
<path d="M1682 680 c-6 -11 -12 -22 -12 -25 0 -9 44 -5 60 5 13 9 12 12 -4 25
-25 19 -29 19 -44 -5z"/>
<path d="M1900 355 c-36 -13 -60 -24 -54 -24 13 -1 134 39 134 45 0 7 -12 4
-80 -21z"/>
<path d="M1753 317 c-29 -5 -53 -13 -53 -18 0 -10 67 1 105 17 35 15 21 15
-52 1z"/>
<path d="M1590 289 c-25 -4 -76 -8 -114 -8 -38 -1 -66 -4 -63 -8 14 -14 204 2
222 18 5 5 7 8 5 8 -3 -1 -25 -5 -50 -10z"/>
<path d="M1006 200 c11 -11 20 -13 94 -24 25 -4 57 -9 73 -12 15 -3 27 -1 27
4 0 5 -6 9 -12 9 -37 1 -108 13 -132 23 -36 13 -63 13 -50 0z"/>
</g>
</svg>
