<?xml version="1.0" standalone="no"?>
<!DOCTYPE svg PUBLIC "-//W3C//DTD SVG 20010904//EN"
 "http://www.w3.org/TR/2001/REC-SVG-20010904/DTD/svg10.dtd">
<svg version="1.0" xmlns="http://www.w3.org/2000/svg"
 width="300.000000pt" height="261.000000pt" viewBox="0 0 300.000000 261.000000"
 preserveAspectRatio="xMidYMid meet">
<metadata>
Created by potrace 1.10, written by Peter Selinger 2001-2011
</metadata>
<g transform="translate(0.000000,261.000000) scale(0.100000,-0.100000)"
fill="#000000" stroke="none">
<path d="M1380 2139 c-14 -6 -36 -16 -50 -22 -14 -6 -33 -18 -42 -26 -10 -8
-18 -11 -18 -8 0 4 -28 -9 -63 -28 -35 -19 -70 -35 -79 -35 -8 0 -36 -20 -62
-45 -27 -25 -56 -45 -65 -45 -32 0 -166 -39 -226 -65 -281 -124 -461 -273
-541 -450 -24 -52 -27 -73 -27 -160 0 -116 17 -176 90 -317 37 -72 61 -103
139 -177 171 -164 378 -263 680 -327 116 -24 154 -27 369 -30 336 -5 522 27
783 132 278 112 474 311 557 563 25 75 17 215 -15 291 -65 151 -203 302 -335
367 -22 11 -56 29 -75 40 -19 11 -53 26 -75 33 -22 7 -49 18 -60 24 -11 7 -43
21 -71 31 -35 12 -73 38 -116 79 -89 86 -152 113 -274 120 -38 2 -87 11 -109
20 -24 11 -52 15 -71 11 -17 -3 -46 1 -65 9 -48 20 -148 28 -179 15z m130 -32
c8 -2 30 -11 49 -21 27 -14 38 -16 61 -6 22 9 34 9 56 -3 16 -8 48 -17 72 -21
24 -3 48 -8 53 -12 5 -3 16 -1 22 5 17 13 103 -9 154 -40 20 -13 62 -48 93
-79 48 -49 67 -61 138 -84 77 -26 82 -29 64 -42 -11 -8 -27 -11 -35 -8 -12 4
-14 0 -10 -15 4 -16 9 -18 28 -11 16 6 29 4 44 -6 12 -9 27 -13 34 -11 6 3 0
10 -15 16 -28 11 -36 25 -18 36 14 9 165 -70 241 -126 84 -62 181 -175 219
-254 76 -159 65 -283 -40 -470 -52 -92 -172 -219 -265 -280 -227 -149 -560
-236 -901 -236 -343 1 -584 48 -821 163 -170 82 -315 203 -384 319 -98 164
-133 308 -104 422 17 67 72 167 92 167 6 0 15 5 19 12 5 7 2 8 -7 3 -16 -9 35
50 66 76 11 9 38 33 59 53 22 19 56 43 75 53 20 10 38 22 39 26 9 19 213 110
309 138 35 10 45 10 60 -2 15 -12 16 -12 10 3 -5 15 2 19 45 24 45 6 52 10 64
41 8 19 22 36 32 39 47 16 119 48 133 60 8 8 22 14 30 14 9 0 26 10 39 22 25
23 131 50 165 42 11 -3 27 -6 35 -7z"/>
<path d="M1737 2023 c-4 -6 -4 -18 -1 -27 9 -23 86 -22 100 2 10 16 8 18 -27
17 -24 0 -39 -5 -39 -12 0 -22 -18 -14 -22 10 -2 14 -6 18 -11 10z"/>
<path d="M1241 1980 c-17 -22 -30 -40 -27 -40 12 0 46 35 46 46 0 7 8 10 20 7
14 -4 20 0 20 11 0 28 -25 17 -59 -24z"/>
<path d="M1351 2003 c-1 -18 -7 -23 -27 -23 -14 0 -23 -4 -20 -9 8 -13 -31
-44 -48 -38 -9 4 -20 -1 -25 -10 -8 -15 -10 -15 -26 0 -11 11 -14 22 -8 30 4
7 0 4 -9 -6 -19 -21 -16 -37 8 -37 11 0 13 -6 9 -21 -5 -14 -3 -20 5 -17 6 2
11 8 11 13 0 12 38 34 59 34 13 1 13 -1 0 -10 -13 -9 -12 -10 3 -5 9 3 24 9
32 12 17 7 21 -16 5 -32 -6 -6 -1 -10 17 -12 15 -1 34 -9 43 -17 9 -8 22 -15
28 -15 13 0 15 -10 6 -34 -8 -21 -23 -20 -46 1 -18 16 -18 16 -12 0 3 -9 10
-17 16 -17 5 0 6 -5 3 -10 -10 -16 25 -44 54 -45 22 0 26 -4 23 -27 -3 -20 1
-28 12 -28 9 0 16 -5 16 -11 0 -5 -6 -7 -12 -3 -7 3 -1 -4 14 -17 18 -16 29
-39 34 -69 5 -33 9 -40 14 -26 6 17 7 18 13 3 11 -29 27 -19 27 16 0 18 6 39
13 46 10 10 8 12 -8 9 -12 -2 -21 3 -21 12 -1 8 -2 20 -3 27 0 6 -9 9 -19 6
-11 -2 -26 5 -37 19 -13 15 -14 18 -3 10 19 -15 31 -2 22 23 -4 9 -13 14 -21
11 -8 -3 -24 0 -36 6 -12 7 -25 11 -29 10 -5 -1 -8 3 -8 9 0 5 -4 8 -9 4 -5
-3 -13 0 -17 6 -4 7 -3 9 4 5 6 -3 19 7 28 24 18 30 25 34 57 31 9 -1 17 3 17
9 0 8 -13 10 -41 6 -38 -5 -41 -4 -50 24 -7 19 -15 27 -25 23 -8 -3 -14 0 -14
6 0 6 -7 11 -15 11 -18 0 -21 56 -4 62 6 2 9 15 6 28 -4 23 -4 24 -6 3z"/>
<path d="M1440 2011 c0 -5 7 -11 15 -15 8 -3 18 -23 21 -45 4 -23 10 -38 15
-35 13 7 11 44 -2 44 -6 0 -8 8 -4 19 4 14 0 23 -14 30 -24 13 -31 14 -31 2z"/>
<path d="M1660 2003 c0 -12 20 -39 20 -29 0 6 9 0 20 -12 17 -18 25 -20 46
-12 41 16 64 12 64 -10 0 -11 -4 -20 -10 -20 -5 0 -10 -6 -10 -14 0 -7 -6 -19
-14 -25 -19 -16 -56 3 -56 28 0 11 -7 22 -16 25 -12 5 -15 2 -10 -10 3 -8 6
-22 6 -30 0 -7 16 -24 35 -36 19 -13 35 -29 35 -35 0 -7 9 -13 19 -13 17 0 19
5 14 35 -3 19 -1 40 4 47 6 7 13 25 17 40 7 32 -15 43 -73 33 -32 -5 -40 -3
-57 19 -18 25 -34 34 -34 19z"/>
<path d="M1600 1979 c0 -7 -10 -9 -25 -6 -16 3 -24 0 -22 -7 2 -6 12 -11 23
-12 39 -2 43 -4 38 -19 -4 -9 1 -17 12 -21 24 -9 54 -34 54 -46 0 -13 -17 -9
-34 8 -9 8 -20 13 -25 9 -6 -3 -14 2 -19 11 -6 11 -11 13 -16 5 -9 -14 -56
-15 -56 -1 0 6 3 9 8 9 4 -1 15 -1 25 0 24 1 11 21 -14 21 -10 0 -19 6 -19 13
0 6 -7 -1 -15 -17 -22 -41 -19 -55 13 -56 91 -2 114 -6 123 -23 11 -20 34 -22
45 -5 4 7 3 8 -4 4 -7 -4 -12 -2 -12 3 0 6 6 11 13 11 6 0 -4 16 -24 34 -40
38 -53 62 -37 72 7 4 6 9 -3 15 -19 12 -29 11 -29 -2z"/>
<path d="M1924 1949 c-3 -6 -1 -16 5 -22 9 -9 14 -8 21 3 5 8 10 18 10 23 0
11 -28 8 -36 -4z"/>
<path d="M1140 1921 c0 -7 -4 -9 -10 -6 -16 10 -12 -21 5 -35 22 -19 18 -42
-12 -67 -16 -13 -21 -21 -13 -19 8 2 29 7 45 10 28 6 29 6 10 -9 -18 -14 -18
-16 -2 -32 22 -22 25 -17 28 39 3 45 -14 83 -31 73 -4 -3 -11 2 -14 11 -5 12
-2 15 10 10 15 -6 15 -4 3 11 -7 10 -15 20 -16 22 -2 2 -3 -1 -3 -8z"/>
<path d="M1902 1900 c-6 -14 -11 -21 -11 -16 -1 12 -31 -14 -31 -27 0 -12 94
-1 122 14 16 9 17 13 7 25 -11 13 -14 13 -23 -5 -8 -14 -16 -17 -25 -12 -8 5
-10 14 -6 21 5 8 4 11 -3 6 -5 -3 -12 0 -15 6 -3 8 -9 3 -15 -12z"/>
<path d="M1040 1870 c0 -5 -7 -10 -15 -10 -8 0 -15 -4 -15 -10 0 -5 -7 -7 -16
-3 -13 5 -15 2 -7 -13 6 -10 8 -33 6 -51 -2 -18 1 -34 8 -39 9 -5 11 -1 7 14
-7 24 16 62 38 62 9 0 14 11 14 30 0 17 -4 30 -10 30 -5 0 -10 -4 -10 -10z"/>
<path d="M2027 1862 c-15 -10 -25 -21 -22 -24 3 -3 -11 -25 -31 -49 -25 -31
-35 -38 -34 -24 5 41 1 46 -27 39 -25 -7 -27 -6 -14 9 12 15 11 17 -3 17 -22
0 -20 -28 4 -48 12 -10 22 -31 23 -49 l2 -32 21 24 c12 14 26 25 32 25 15 0
45 -47 38 -58 -8 -14 131 -152 153 -152 28 0 37 20 12 27 -11 3 -18 9 -15 14
3 5 0 9 -7 9 -7 0 -5 8 6 20 21 23 11 27 -11 5 -21 -20 -37 -19 -59 5 -16 18
-16 20 -1 26 9 3 16 12 16 19 0 8 9 16 19 20 25 8 36 47 13 43 -10 -2 -20 -7
-24 -13 -4 -5 -6 0 -5 13 0 12 7 22 15 22 11 0 10 3 -2 15 -18 19 -33 19 -43
1 -4 -7 -15 -16 -23 -20 -8 -3 -3 -4 11 -1 24 4 27 1 32 -28 2 -17 3 -35 0
-39 -8 -14 -50 -8 -64 9 -8 10 -9 14 -2 10 27 -16 19 12 -12 46 -36 39 -37 67
-4 67 10 0 25 -9 33 -21 8 -13 19 -18 26 -14 9 6 8 10 -4 17 -9 5 -14 13 -11
17 2 5 -2 14 -10 21 -11 9 -12 17 -4 31 12 23 11 23 -24 1z"/>
<path d="M1277 1854 c-4 -4 -7 -19 -7 -33 0 -35 -23 -77 -41 -74 -27 5 -17
-56 14 -81 15 -12 27 -28 27 -37 0 -16 -34 -49 -50 -49 -10 0 -30 39 -36 70
-2 8 -7 16 -13 18 -5 2 -8 9 -5 17 4 10 -3 13 -29 12 l-35 -2 45 -43 c44 -43
51 -68 19 -66 -9 1 -16 -2 -16 -6 0 -11 30 -21 40 -15 5 3 14 -4 20 -15 8 -15
8 -20 -2 -20 -7 0 2 -9 20 -20 18 -11 37 -20 42 -20 6 0 23 -15 39 -32 16 -18
32 -30 36 -27 3 4 -6 19 -20 35 -15 16 -24 36 -22 45 3 12 0 16 -9 12 -8 -3
-14 -9 -14 -14 0 -5 -8 -9 -17 -9 -14 0 -15 2 -5 9 11 7 11 11 -2 24 -9 8 -16
19 -16 24 0 8 58 63 66 63 2 0 19 -15 37 -33 17 -18 40 -36 50 -40 19 -7 18
-34 -1 -30 -13 3 -4 -26 14 -45 10 -10 13 -7 13 15 1 37 4 63 6 63 1 0 16 -5
33 -11 32 -11 52 -39 27 -39 -8 0 -15 -4 -15 -10 0 -16 16 -12 41 10 13 10 18
19 12 20 -7 0 -13 7 -13 15 0 14 -11 19 -38 16 -7 -1 -15 5 -18 14 -4 8 -18
15 -34 15 -25 0 -88 40 -98 62 -2 4 -9 5 -15 2 -7 -2 -29 11 -49 30 l-36 34
24 11 c15 7 22 16 18 23 -5 8 0 9 16 5 17 -4 20 -3 11 6 -17 17 -13 55 7 66
15 9 16 11 1 26 -8 8 -18 12 -22 9z"/>
<path d="M2102 1829 c-16 -25 -15 -29 6 -29 14 0 15 2 2 10 -12 8 -11 10 8 10
24 0 30 15 9 23 -7 3 -19 -3 -25 -14z"/>
<path d="M1823 1818 c-24 -27 -27 -98 -4 -106 8 -3 12 1 9 9 -3 8 -1 23 5 34
9 17 19 85 13 85 -1 0 -12 -10 -23 -22z"/>
<path d="M770 1805 c0 -9 -7 -18 -15 -21 -8 -4 -12 -10 -9 -16 3 -5 -6 -22
-21 -38 -17 -18 -25 -35 -21 -45 8 -21 26 -10 26 16 0 10 8 27 18 37 9 11 25
33 34 50 14 27 15 32 3 32 -8 0 -15 -7 -15 -15z"/>
<path d="M1515 1799 c6 -18 4 -21 -10 -16 -10 5 -15 3 -13 -4 2 -7 16 -13 32
-15 15 -1 34 -8 42 -15 8 -6 17 -9 20 -6 3 3 -4 14 -17 24 -12 10 -31 26 -41
36 -20 19 -20 18 -13 -4z"/>
<path d="M1668 1814 c-14 -14 -8 -22 24 -33 26 -9 35 -9 47 5 15 14 13 15 -21
9 -29 -6 -37 -4 -40 10 -1 9 -6 13 -10 9z"/>
<path d="M860 1790 c0 -5 -7 -10 -15 -10 -8 0 -15 -4 -15 -8 0 -5 -10 -13 -22
-19 -12 -5 -17 -12 -12 -16 6 -3 27 6 47 20 31 22 39 24 52 13 9 -7 18 -10 21
-7 3 3 -8 13 -25 22 -17 9 -31 11 -31 5z"/>
<path d="M1055 1753 c-16 -14 -30 -33 -30 -42 -4 -46 -6 -51 -25 -51 -17 0
-50 38 -35 41 3 1 10 3 15 4 6 1 13 3 17 4 4 0 2 6 -5 13 -8 8 -15 8 -26 -2
-19 -15 -12 -59 11 -77 9 -7 13 -19 9 -29 -5 -13 -9 -15 -18 -6 -7 7 -20 12
-30 12 -11 0 -18 7 -18 20 0 21 -14 27 -25 11 -3 -6 -14 -9 -25 -8 -10 1 -17
4 -14 8 2 4 -1 11 -7 15 -9 5 -10 0 -7 -14 5 -18 2 -22 -18 -22 -13 0 -24 -4
-24 -10 0 -5 7 -7 15 -4 8 4 21 1 28 -4 8 -7 18 -7 27 -2 10 7 11 10 3 10 -7
0 -13 4 -13 8 0 13 43 7 48 -6 2 -7 9 -12 17 -12 7 0 18 -7 25 -15 10 -12 16
-13 26 -4 8 6 14 8 14 3 0 -5 5 -2 10 6 8 13 11 13 19 1 5 -7 13 -11 18 -8 6
4 8 -4 5 -19 -5 -26 33 -78 49 -68 5 3 17 0 28 -6 17 -8 22 -6 31 11 9 16 8
24 -6 40 -9 10 -14 22 -11 26 8 8 -11 33 -25 33 -6 0 -8 -13 -4 -32 l6 -32
-20 21 c-11 13 -17 29 -14 38 5 11 2 14 -9 9 -12 -4 -18 2 -23 20 -8 35 1 56
26 56 29 0 25 14 -7 28 -19 8 -21 10 -5 6 17 -4 22 -1 22 15 0 12 5 21 10 21
6 0 10 5 10 10 0 16 -13 11 -45 -17z"/>
<path d="M941 1733 c-9 -15 -12 -15 -20 -4 -5 8 -11 9 -15 3 -3 -6 -2 -13 4
-17 6 -4 8 -11 5 -16 -3 -5 0 -6 7 -3 18 7 51 54 39 54 -6 0 -15 -8 -20 -17z"/>
<path d="M1625 1736 c-22 -12 -27 -47 -7 -54 7 -2 10 2 6 11 -3 8 2 22 12 31
20 21 16 26 -11 12z"/>
<path d="M1691 1743 c-13 -3 -30 -11 -38 -18 -17 -17 -17 -39 0 -29 9 6 9 5 0
-8 -11 -13 -6 -18 32 -34 30 -12 45 -24 45 -37 0 -10 5 -15 10 -12 6 4 8 10 5
15 -8 13 25 61 37 54 5 -3 4 3 -3 13 -8 13 -19 18 -35 15 -14 -2 -24 0 -24 7
0 6 -4 11 -10 11 -5 0 -10 -9 -10 -20 0 -11 -4 -20 -10 -20 -12 0 -32 37 -23
43 15 10 58 11 71 3 8 -5 18 -4 25 3 6 6 9 11 7 12 -27 5 -59 5 -79 2z"/>
<path d="M2186 1725 c6 -34 19 -45 51 -45 12 0 25 -5 28 -10 8 -12 40 3 48 23
4 10 -3 12 -24 9 -18 -3 -29 0 -29 7 0 7 4 10 9 6 5 -3 12 -1 16 5 4 6 -6 10
-24 10 -16 0 -33 -4 -36 -10 -10 -16 -21 -12 -34 13 -11 20 -11 20 -5 -8z"/>
<path d="M1310 1719 c0 -12 4 -17 11 -14 5 4 19 -1 30 -11 16 -14 22 -15 32
-4 8 9 8 11 0 6 -6 -3 -20 5 -31 19 -24 30 -42 32 -42 4z"/>
<path d="M2436 1691 c21 -37 36 -52 57 -57 16 -3 31 -12 34 -20 3 -8 9 -14 14
-14 20 0 110 -63 106 -74 -3 -7 4 -18 15 -25 17 -10 19 -20 15 -53 -3 -22 -14
-46 -24 -53 -14 -12 -15 -14 -3 -15 8 0 20 -10 25 -22 6 -13 20 -24 33 -26 44
-6 53 -69 18 -117 -14 -20 -16 -19 -56 20 -34 33 -40 45 -36 67 4 20 2 26 -9
22 -10 -4 -12 0 -8 18 5 19 4 21 -8 11 -8 -6 -29 -13 -48 -15 -19 -2 -36 -8
-38 -14 -4 -13 32 -27 64 -24 16 1 23 -6 28 -29 4 -17 11 -33 16 -36 5 -4 9
-17 9 -31 0 -21 4 -24 39 -24 23 0 46 7 55 16 14 13 16 13 16 1 0 -14 -26 -32
-42 -29 -3 1 -11 -5 -17 -12 -9 -11 -7 -15 9 -19 11 -3 20 -1 20 5 0 6 12 8
26 5 19 -3 24 -1 19 11 -3 8 3 21 12 28 17 12 17 13 1 14 -11 0 -15 5 -12 15
4 8 10 12 15 9 5 -3 9 7 8 23 0 25 -1 26 -10 8 -7 -14 -8 -6 -4 29 3 27 2 46
-2 43 -3 -4 -17 11 -31 34 -18 30 -21 44 -13 52 15 15 14 27 -4 27 -9 0 -20
-12 -26 -26 -5 -15 -12 -25 -15 -22 -2 3 0 18 6 34 6 15 8 40 4 54 -4 14 -8
28 -8 32 -1 10 -109 98 -120 98 -4 0 -2 7 5 17 13 15 11 16 -13 11 -16 -3 -28
-2 -28 1 0 3 -20 20 -45 36 -24 17 -43 37 -42 45 1 8 -6 16 -17 18 -16 3 -15
-2 10 -47z"/>
<path d="M593 1713 c-19 -7 -16 -19 11 -37 l25 -16 -11 30 c-5 17 -11 30 -11
29 -1 0 -8 -3 -14 -6z"/>
<path d="M826 1701 c-4 -6 -13 -8 -21 -5 -9 4 -12 0 -9 -13 5 -21 -11 -43 -49
-68 l-29 -19 4 24 c4 31 -16 36 -41 11 -12 -12 -26 -21 -31 -21 -6 0 -15 -11
-20 -25 -5 -14 -13 -25 -17 -24 -20 3 -24 -2 -14 -15 15 -18 -6 -56 -31 -56
-20 0 -35 -20 -16 -21 53 -3 87 -34 88 -79 0 -14 3 -36 7 -49 5 -19 3 -22 -8
-16 -11 6 -11 5 -3 -4 9 -10 17 -9 38 4 23 15 40 55 17 41 -5 -3 -14 1 -21 9
-12 14 -11 29 5 69 7 16 5 17 -15 11 -14 -5 -20 -3 -16 3 4 6 -2 8 -14 5 -24
-6 -26 10 -6 50 13 24 13 27 -2 28 -14 0 -13 3 6 16 12 8 22 22 22 30 0 13 2
13 17 2 10 -9 14 -9 10 -2 -5 7 1 16 13 23 23 12 25 7 10 -21 -11 -20 -1 -26
16 -10 5 6 10 -3 11 -25 2 -18 -1 -34 -5 -34 -10 0 -10 -95 0 -105 7 -7 34 35
30 48 -1 4 3 7 8 7 6 0 10 -7 10 -15 0 -8 5 -15 10 -15 7 0 7 -6 0 -19 -11
-22 -13 -41 -2 -26 4 6 20 16 35 23 15 7 25 17 22 22 -3 6 -1 10 4 10 6 0 11
6 11 14 0 8 6 17 13 20 10 5 10 7 0 12 -20 9 -15 30 14 65 l27 32 -25 -8 c-30
-9 -28 -7 -39 -44 -5 -19 -5 -33 1 -37 14 -8 0 -24 -16 -17 -8 3 -15 0 -15 -6
0 -16 -27 -13 -34 4 -3 8 -13 15 -23 15 -16 0 -16 -2 -3 -11 12 -9 12 -10 -3
-5 -10 3 -22 6 -25 6 -4 0 -2 4 5 8 10 6 16 30 22 94 1 4 10 10 21 13 11 4 18
10 15 15 -3 5 1 12 9 17 8 4 16 15 18 23 2 8 10 20 18 27 8 6 12 14 8 18 -3 3
-9 2 -12 -4z"/>
<path d="M1900 1675 c-7 -8 -19 -15 -26 -15 -8 0 -14 -4 -14 -10 0 -5 -7 -7
-15 -4 -8 4 -15 1 -15 -5 0 -6 7 -11 15 -11 8 0 15 -9 15 -20 0 -19 -10 -24
-37 -21 -7 1 -13 -5 -13 -13 0 -9 -9 -21 -20 -28 -23 -15 -27 -33 -5 -24 11 4
15 -2 15 -23 0 -24 -5 -30 -30 -34 -21 -5 -28 -11 -24 -22 7 -17 24 -21 24 -5
0 6 4 10 10 10 5 0 7 -7 4 -15 -4 -9 0 -15 8 -15 9 0 14 13 15 41 1 23 10 53
20 68 10 14 18 29 18 33 0 3 4 10 8 15 5 4 7 4 5 -2 -4 -14 41 -57 52 -50 5 3
21 3 35 -1 19 -5 23 -10 16 -17 -19 -19 -12 -26 12 -14 24 11 24 11 -25 62
-26 27 -48 56 -48 62 0 7 17 15 38 19 27 4 38 11 38 24 0 19 -26 16 -26 -4 -1
-6 -9 -1 -19 11 -16 20 -21 21 -31 8z"/>
<path d="M2190 1658 c0 -10 29 -37 41 -38 16 -1 3 30 -18 39 -17 8 -23 7 -23
-1z"/>
<path d="M2350 1632 c-17 -46 -18 -68 -2 -64 7 1 17 -8 23 -20 12 -26 79 -81
88 -72 3 3 -5 14 -18 24 -22 16 -23 18 -6 21 15 3 10 10 -23 32 -23 15 -46 27
-52 27 -15 0 -12 22 6 49 10 14 13 26 7 32 -5 5 -15 -6 -23 -29z"/>
<path d="M565 1650 c-4 -6 -3 -16 1 -20 11 -11 64 -1 64 12 0 5 -10 6 -21 3
-13 -4 -25 -2 -29 5 -6 9 -9 9 -15 0z"/>
<path d="M2264 1621 c-7 -19 -6 -34 6 -54 14 -27 14 -30 -7 -44 -23 -16 -21
-43 4 -43 8 0 11 5 7 12 -4 6 1 17 12 25 15 11 16 17 8 31 -9 13 -6 24 14 50
27 35 25 43 -11 47 -18 2 -26 -4 -33 -24z"/>
<path d="M2432 1598 c-16 -16 -15 -29 2 -22 8 3 17 0 21 -5 3 -6 11 -9 16 -6
11 7 12 26 2 24 -20 -3 -34 2 -28 11 8 14 2 13 -13 -2z"/>
<path d="M1645 1576 c16 -12 17 -17 6 -45 -8 -17 -20 -31 -28 -31 -8 0 -13 -6
-10 -12 6 -21 31 -14 43 12 7 14 15 40 19 58 6 30 5 32 -21 32 -26 0 -27 -1
-9 -14z"/>
<path d="M2491 1578 c1 -7 -3 -26 -9 -41 -15 -36 -15 -37 3 -37 9 0 21 -11 27
-25 6 -14 17 -25 24 -25 7 0 16 -5 19 -11 4 -6 0 -9 -11 -7 -15 2 -19 -3 -19
-29 -1 -49 46 -56 59 -10 8 31 7 39 -4 32 -5 -3 -10 3 -10 14 0 12 -6 21 -12
21 -9 0 -8 4 2 10 11 8 8 9 -13 4 -22 -5 -26 -3 -21 10 4 10 1 16 -9 16 -22 0
-31 18 -18 34 6 7 8 16 4 19 -3 4 -2 7 4 7 5 0 10 7 10 15 0 8 -7 15 -14 15
-8 0 -13 -6 -12 -12z"/>
<path d="M2203 1549 c-11 -11 -6 -49 7 -49 13 0 20 29 9 35 -5 4 -7 11 -4 16
8 12 1 11 -12 -2z"/>
<path d="M956 1534 c-4 -9 -13 -14 -21 -10 -8 3 -15 1 -15 -4 0 -6 5 -10 12
-10 9 0 9 -3 0 -12 -19 -19 -14 -25 18 -20 28 4 43 22 19 22 -7 0 -9 10 -5 25
7 28 2 34 -8 9z"/>
<path d="M2544 1542 c-16 -10 -3 -37 18 -38 10 -1 15 2 12 7 -3 5 5 14 18 19
23 11 23 11 1 6 -13 -2 -23 0 -23 5 0 11 -11 11 -26 1z"/>
<path d="M2061 1532 c-20 -7 -50 -39 -43 -46 3 -4 16 4 28 15 19 18 26 20 39
9 8 -7 15 -19 15 -26 0 -8 5 -14 10 -14 6 0 9 -3 8 -7 -1 -5 8 -24 21 -43 13
-19 21 -27 17 -17 -7 22 7 22 28 -2 20 -22 13 -45 -19 -59 -21 -10 -27 -8 -39
9 -8 12 -18 19 -23 16 -4 -2 -16 -1 -27 2 -17 7 -17 8 -2 23 9 9 16 19 16 23
0 5 -48 -23 -60 -35 -3 -3 -16 -14 -29 -25 l-24 -20 11 22 c9 17 9 22 -3 26
-10 4 -12 1 -8 -10 5 -12 2 -15 -14 -11 -12 3 -20 0 -20 -8 0 -7 5 -10 10 -7
26 16 -3 -19 -48 -57 -39 -34 -51 -40 -53 -27 -3 16 -20 22 -49 18 -7 -1 -13
3 -13 10 0 6 -6 9 -14 6 -8 -3 -17 1 -20 10 -4 9 -9 13 -13 10 -8 -9 17 -38
27 -32 5 3 11 1 15 -5 3 -5 14 -10 25 -10 10 0 20 -7 24 -15 7 -19 -30 -39
-66 -37 -16 1 -28 -2 -28 -8 0 -9 29 -15 58 -11 8 1 22 -5 33 -15 10 -9 27
-14 39 -11 13 3 20 0 20 -9 0 -18 8 -18 27 2 11 11 26 14 47 9 17 -3 51 -6 76
-6 65 1 76 -9 56 -48 -9 -17 -21 -31 -27 -31 -8 0 -7 5 1 15 10 12 7 14 -19
12 -25 -2 -30 -6 -28 -25 1 -17 6 -22 20 -18 26 7 47 -3 48 -23 0 -10 2 -11 6
-3 2 6 13 12 23 12 10 0 22 5 25 10 4 6 12 10 18 9 25 -3 47 1 47 10 0 4 -21
8 -47 7 -26 -1 -48 4 -50 10 -2 7 6 10 22 9 31 -4 44 14 16 22 -22 6 -24 24
-4 30 23 8 91 -66 104 -112 10 -34 17 -44 29 -40 8 4 27 9 41 12 23 4 27 1 33
-27 9 -46 8 -50 -11 -51 -10 0 6 -11 35 -25 30 -14 51 -28 48 -31 -3 -3 -22
-6 -43 -7 -26 -1 -39 -6 -41 -17 -5 -26 28 -32 53 -9 12 11 32 20 46 20 l24 1
-25 20 c-14 11 -33 27 -42 34 -22 18 -23 29 -2 50 16 15 16 16 -2 13 -11 -2
-18 2 -16 10 1 7 -10 24 -25 37 -23 20 -26 27 -17 42 6 10 15 16 19 15 4 -2
11 1 15 7 8 15 40 3 40 -14 0 -7 -8 -16 -17 -20 -17 -6 -17 -7 2 -21 11 -8 46
-40 78 -71 45 -43 57 -61 53 -77 -5 -20 -4 -20 9 -3 14 19 10 46 -9 59 -11 7
52 38 78 38 9 0 19 -12 22 -26 8 -30 -9 -46 -43 -41 -13 2 -19 -1 -17 -7 9
-24 -22 -49 -59 -48 -20 1 -36 -2 -36 -6 7 -46 -20 -72 -69 -67 -34 4 -34 4
-7 -4 l30 -8 -30 -12 c-17 -7 -40 -9 -55 -5 -14 4 -34 8 -45 9 -11 0 -29 6
-40 13 -17 10 -17 11 -3 12 9 0 20 -4 23 -10 3 -5 11 -10 16 -10 6 0 7 5 4 10
-4 6 9 10 32 11 21 1 30 3 21 6 -10 2 -18 13 -18 24 0 10 -6 19 -13 19 -8 0
-22 9 -32 20 -10 11 -24 20 -31 20 -8 0 -19 9 -26 20 -15 24 -28 26 -28 4 0
-13 -3 -14 -14 -5 -11 9 -15 5 -19 -26 -2 -21 0 -42 4 -47 5 -6 9 1 9 17 0 28
17 37 26 14 3 -8 10 -14 17 -14 46 -2 99 -25 86 -37 -2 -2 -28 0 -56 3 -70 10
-69 -5 2 -47 31 -18 53 -38 50 -43 -6 -9 77 21 116 42 13 6 19 6 19 -1 0 -17
18 -11 47 16 l28 27 -32 -17 c-54 -27 -38 -11 49 51 101 71 117 77 58 23 -28
-26 -34 -34 -15 -22 17 11 40 30 53 42 23 21 30 36 12 25 -22 -13 -8 12 26 48
19 20 40 34 46 31 6 -4 6 2 -1 14 -10 18 -7 26 19 52 28 28 40 60 23 60 -15
-1 -65 -51 -67 -67 -4 -24 -63 -55 -89 -47 -20 6 -20 7 -1 17 20 12 25 13 63
15 13 1 22 4 19 7 -9 10 -79 12 -84 3 -3 -5 -9 -6 -14 -3 -4 3 -13 -2 -20 -10
-7 -8 -23 -12 -38 -10 -15 2 -44 7 -65 10 -21 3 -35 10 -32 15 9 15 -22 78
-52 107 -22 20 -24 25 -8 19 11 -4 32 -10 48 -13 24 -5 32 -14 28 -35 0 -5 6
-8 14 -8 23 0 18 18 -11 45 -19 18 -33 23 -50 19 -26 -7 -31 5 -12 24 8 8 8
12 1 12 -6 0 -16 -7 -23 -15 -13 -16 -31 -20 -29 -7 1 4 1 17 0 30 -1 21 -3
22 -16 8 -8 -8 -15 -19 -15 -25 0 -16 -19 -13 -36 4 -14 13 -13 15 3 15 12 1
8 5 -12 14 -16 7 -44 13 -62 12 -17 -1 -29 2 -27 6 3 5 -6 8 -20 8 -14 0 -28
5 -31 10 -9 14 -17 12 -45 -10 l-25 -20 42 2 c49 2 61 -5 43 -27 -7 -8 -9 -22
-6 -31 9 -25 -1 -32 -35 -25 -20 4 -33 13 -35 25 -6 41 -12 47 -39 34 -20 -9
-31 -9 -45 -1 -15 10 -22 7 -45 -18 -26 -30 -55 -35 -62 -12 -3 7 5 20 16 30
12 9 21 22 21 28 0 5 23 20 50 33 28 13 50 27 50 32 0 5 21 12 46 16 39 6 47
4 60 -15 20 -28 69 -28 84 0 7 11 26 27 44 34 25 11 31 19 31 39 -1 25 -20 38
-20 14 0 -26 -27 -18 -38 11 -11 31 -34 40 -54 20 -11 -11 -36 37 -31 62 2 8
-3 13 -11 11 -7 -1 -18 1 -25 6 -6 5 -17 7 -25 4z m169 -309 c0 -26 3 -28 42
-30 30 -2 50 -11 70 -30 31 -29 35 -43 14 -43 -8 0 -16 -7 -20 -15 -3 -8 -12
-15 -20 -15 -20 0 -86 39 -86 51 0 5 -7 9 -16 9 -9 0 -18 9 -21 21 -4 15 -8
17 -14 8 -6 -10 -11 -10 -23 0 -9 8 -16 18 -16 24 0 21 34 47 62 47 24 0 28
-4 28 -27z m-192 -28 c3 -15 0 -17 -19 -11 -13 4 -30 8 -36 8 -7 1 -13 8 -13
15 0 22 64 11 68 -12z"/>
<path d="M2249 1171 c7 -5 11 -13 7 -19 -3 -6 -1 -14 5 -17 13 -9 15 -6 23 25
6 19 5 21 -3 10 -7 -10 -11 -11 -11 -2 0 6 -8 12 -17 12 -14 0 -15 -2 -4 -9z"/>
<path d="M2310 1514 c-16 -28 -9 -49 16 -49 15 0 19 -7 19 -36 0 -31 3 -35 21
-31 20 4 71 -21 85 -42 4 -5 17 -1 30 8 18 12 19 16 7 16 -24 0 -78 49 -78 71
0 28 -15 23 -26 -8 l-11 -28 -15 36 c-9 20 -14 47 -11 61 6 32 -21 34 -37 2z"/>
<path d="M467 1518 c-3 -10 3 -20 21 -27 20 -10 23 -14 12 -21 -9 -6 -17 -5
-22 3 -5 9 -10 9 -19 0 -16 -16 -6 -26 28 -27 38 -1 40 -27 3 -51 -16 -11 -30
-26 -30 -32 0 -7 -4 -13 -9 -13 -5 0 -7 -9 -4 -20 3 -12 2 -20 -3 -18 -5 1
-19 -3 -31 -10 -19 -11 -24 -9 -34 10 -10 18 -8 24 10 39 20 16 30 36 13 25
-4 -2 -14 -1 -22 4 -13 8 -12 13 3 39 19 32 22 61 7 61 -5 0 -10 7 -10 15 0 8
-4 15 -10 15 -13 0 -13 -27 0 -35 13 -8 3 -43 -17 -67 -9 -10 -13 -28 -11 -43
5 -22 3 -23 -10 -13 -13 11 -14 10 -3 -10 7 -13 13 -44 13 -68 0 -33 5 -50 21
-64 30 -29 -2 -27 -38 2 l-28 21 12 -21 c6 -12 23 -29 36 -38 28 -18 33 -34
10 -34 -9 0 -12 -6 -8 -17 5 -13 3 -15 -12 -9 -18 6 -18 6 -2 -12 9 -10 17
-25 17 -33 0 -27 23 -39 76 -39 83 0 83 -24 2 -38 -39 -7 -45 -5 -65 19 -13
15 -23 32 -23 37 0 14 -18 25 -29 18 -5 -3 6 -23 25 -43 19 -20 34 -40 34 -44
0 -4 10 -7 23 -7 54 3 81 -2 70 -13 -12 -12 13 -58 47 -87 12 -9 12 -12 1 -10
-21 4 -23 -16 -2 -27 10 -6 46 -25 81 -43 34 -18 59 -28 55 -23 -4 7 7 11 29
11 20 0 36 -4 36 -9 0 -18 32 -41 56 -41 13 0 24 -4 24 -9 0 -5 -10 -7 -22 -5
-13 2 -3 -3 22 -12 25 -10 48 -22 52 -28 4 -6 18 -12 30 -13 13 -1 48 -4 78
-8 49 -5 59 -3 90 20 18 14 41 25 49 25 10 0 1 14 -24 38 -22 21 -41 45 -43
53 -2 8 -8 19 -14 24 -8 7 -9 4 -4 -9 3 -10 1 -25 -6 -33 -6 -8 -7 -13 -2 -12
22 4 34 -2 34 -17 0 -18 -23 -44 -40 -44 -15 0 -30 44 -23 69 4 16 2 20 -9 16
-7 -3 -30 10 -50 28 l-37 34 19 28 c18 27 18 30 2 42 -11 8 -12 12 -4 13 6 0
12 6 12 14 0 7 13 16 29 19 21 5 32 15 40 39 9 25 14 30 21 19 5 -10 7 1 4 30
-5 41 -4 43 10 25 9 -11 16 -16 16 -12 0 4 15 -3 33 -16 17 -13 41 -28 52 -34
11 -7 19 -18 17 -27 -1 -8 7 -17 18 -20 13 -3 20 0 20 10 0 8 6 13 13 10 6 -2
18 9 24 25 12 27 10 32 -22 64 -19 19 -35 40 -35 47 0 7 -5 4 -11 -6 -7 -12
-7 -22 -1 -30 7 -8 6 -18 -3 -30 -10 -15 -19 -16 -46 -10 -18 5 -34 14 -36 19
-2 6 15 29 38 53 31 31 44 39 54 31 9 -8 14 -3 19 22 9 45 -8 56 -30 19 -19
-32 -46 -50 -43 -28 3 23 -1 37 -10 37 -5 0 -9 -12 -10 -27 -1 -56 -3 -62 -22
-68 -10 -4 -23 -4 -28 -1 -12 8 -43 -23 -36 -35 4 -5 2 -9 -3 -9 -6 0 -8 -9
-5 -20 3 -12 -1 -22 -11 -26 -9 -3 -13 -11 -10 -16 4 -6 -4 -8 -17 -6 -16 2
-23 9 -21 20 1 9 -2 19 -8 23 -5 3 -10 -3 -10 -14 0 -11 5 -23 10 -26 16 -10
12 -23 -11 -35 -16 -9 -24 -8 -38 4 -10 9 -25 14 -34 10 -12 -4 -20 2 -29 22
-11 28 -12 28 -15 7 -3 -13 -11 -23 -19 -23 -17 0 -18 31 -1 49 10 12 8 13 -8
6 -11 -4 -28 -10 -37 -12 -10 -3 -18 -9 -18 -14 0 -5 8 -9 18 -9 16 -1 16 -1
0 -10 -20 -12 -48 -3 -48 16 0 15 -26 20 -33 7 -2 -5 2 -19 9 -33 8 -14 14
-20 14 -15 0 6 5 3 10 -5 8 -13 10 -13 10 1 0 9 8 15 19 14 30 -2 50 -24 45
-50 -2 -14 -6 -36 -8 -49 -11 -64 -37 -88 -65 -59 -11 12 -10 16 4 26 24 19 8
97 -21 97 -8 0 -14 -8 -14 -17 0 -10 -7 -31 -15 -46 -13 -26 -13 -30 6 -50 29
-32 6 -33 -46 -2 -50 29 -57 40 -20 31 19 -5 23 -3 19 9 -3 8 -11 13 -17 12
-7 -1 -11 9 -10 26 1 15 -2 27 -8 27 -5 0 -9 -7 -9 -15 0 -8 -4 -15 -10 -15
-5 0 -10 11 -10 25 0 14 -4 25 -10 25 -18 0 -10 35 15 62 17 18 31 25 47 21
19 -4 20 -3 8 6 -13 10 -13 12 -1 20 11 7 12 13 3 23 -7 9 -8 25 -3 44 6 22 4
32 -8 41 -13 10 -14 15 -4 32 11 17 10 19 -2 15 -8 -4 -15 -11 -15 -16 0 -6
-8 -17 -17 -24 -17 -13 -17 -13 0 -14 10 0 15 -5 12 -10 -4 -6 -1 -9 6 -8 6 2
14 -3 16 -9 3 -7 0 -13 -6 -13 -6 0 -11 -8 -11 -18 0 -47 -62 -84 -77 -46 -6
15 -8 15 -21 -2 -10 -13 -16 -15 -19 -6 -3 6 -8 10 -12 7 -5 -2 -16 1 -25 8
-14 10 -16 22 -10 65 6 50 8 52 38 52 21 0 36 -7 45 -21 12 -20 11 -21 -13
-17 -18 4 -26 1 -26 -8 0 -8 11 -14 25 -14 14 0 25 4 25 9 0 5 9 7 20 4 11 -3
20 0 20 6 0 6 -9 11 -19 11 -12 0 -21 9 -25 25 -4 14 -13 25 -21 25 -14 0 -14
3 0 23 8 13 12 26 9 30 -3 3 8 5 25 5 23 -1 31 -6 31 -19 0 -10 5 -21 10 -24
7 -4 10 6 8 28 -1 25 -6 33 -16 29 -8 -3 -28 -5 -45 -6 -27 -1 -32 -5 -32 -26
0 -32 -24 -36 -58 -10 -31 25 -27 43 8 34 17 -4 29 0 42 16 10 12 28 26 41 31
18 7 21 14 16 33 -4 19 -1 27 16 36 27 15 40 1 40 -44 0 -24 2 -27 15 -16 21
17 20 -3 -1 -36 -20 -29 -13 -42 10 -19 9 9 16 15 17 13 6 -27 5 -38 -4 -38
-7 0 -4 -5 6 -11 9 -6 14 -16 11 -22 -4 -7 6 -1 22 13 16 14 31 26 33 28 3 1
-6 1 -20 0 -19 -2 -24 2 -24 20 0 12 -7 27 -15 32 -8 5 -11 12 -8 16 4 3 -4
18 -18 33 -13 14 -22 31 -20 38 3 6 1 13 -4 15 -6 2 -4 15 4 29 13 25 12 26
-13 21 -21 -4 -24 -2 -13 9 15 16 16 29 1 29 -6 0 -19 10 -28 22 -15 17 -19
19 -24 6z m694 -488 c-24 -21 -41 -26 -41 -12 0 15 24 32 45 32 19 -1 19 -1
-4 -20z m-323 -89 c7 -1 12 -15 12 -36 0 -21 5 -35 13 -36 10 0 10 -2 0 -6
-19 -7 -16 -30 5 -42 15 -9 15 -11 -8 -21 l-25 -10 28 3 c15 3 27 1 27 -4 0
-12 -23 -24 -42 -21 -10 2 -18 -2 -18 -7 0 -6 10 -11 23 -12 21 0 21 -1 2 -9
-30 -13 -57 -12 -49 1 5 9 -1 10 -20 5 -22 -5 -28 -2 -36 19 -14 37 -12 78 4
100 12 16 16 17 30 6 9 -7 16 -10 16 -6 0 4 -10 15 -21 24 -18 15 -20 21 -10
39 8 15 19 20 34 18 12 -3 28 -5 35 -5z m112 -221 l32 -30 -25 -11 c-20 -9
-36 -7 -84 9 l-58 20 45 21 c25 11 48 21 51 21 4 0 21 -13 39 -30z"/>
<path d="M1720 1519 c0 -6 7 -9 15 -6 8 4 17 2 20 -3 4 -6 1 -10 -4 -10 -6 0
-11 -4 -11 -10 0 -5 7 -10 15 -10 18 0 20 21 3 38 -15 15 -38 16 -38 1z"/>
<path d="M1364 1444 c1 -32 7 -49 19 -55 14 -8 17 -6 17 12 0 28 -21 89 -31
89 -4 0 -6 -21 -5 -46z"/>
<path d="M1668 1465 c-11 -19 -10 -19 8 -5 12 9 11 5 -5 -12 -13 -15 -29 -26
-35 -25 -6 1 -10 -8 -8 -22 2 -13 0 -21 -5 -18 -5 3 -8 -10 -7 -29 4 -48 -13
-34 -21 19 -4 23 -16 58 -26 77 -19 34 -19 34 -19 8 0 -19 -4 -26 -14 -22 -20
8 -28 -12 -11 -26 10 -9 15 -9 15 -1 0 6 7 11 15 11 10 0 15 -10 15 -27 0 -39
-13 -55 -45 -55 -30 0 -58 21 -37 29 6 3 12 9 12 15 0 6 -12 3 -26 -7 -15 -9
-23 -12 -20 -6 8 13 -1 13 -29 1 -11 -5 -14 -9 -7 -9 7 -1 31 -10 55 -20 67
-30 75 -31 93 -14 15 16 18 15 35 -6 11 -13 19 -27 19 -32 0 -16 -32 -23 -50
-11 -15 9 -18 7 -16 -14 1 -24 29 -34 41 -14 3 6 18 7 33 3 28 -6 44 -22 36
-34 -8 -14 25 -17 36 -4 9 11 7 16 -10 25 -12 6 -19 17 -17 25 3 7 0 18 -6 24
-7 7 -7 12 -2 11 22 -5 35 1 35 15 0 19 -5 19 -34 0 -21 -14 -24 -14 -29 -1
-7 17 20 36 48 36 12 0 9 7 -12 26 -15 14 -22 23 -15 19 7 -4 12 1 12 14 0 12
11 24 29 32 18 8 27 18 24 29 -6 22 -43 20 -55 -5z"/>
<path d="M1189 1460 c13 -11 24 -30 25 -43 1 -17 8 -23 31 -24 54 -5 60 -6 66
-16 4 -5 13 -7 20 -4 8 3 -2 12 -26 22 -22 9 -53 29 -70 44 -16 16 -39 31 -50
35 -17 5 -17 3 4 -14z"/>
<path d="M870 1460 c0 -5 5 -10 10 -10 14 0 12 -16 -3 -32 -7 -7 -16 -21 -20
-31 -6 -15 -4 -16 13 -7 15 8 20 8 20 -2 0 -9 3 -9 9 2 6 8 9 31 9 52 0 30 -4
38 -19 38 -11 0 -19 -4 -19 -10z"/>
<path d="M975 1460 c-3 -5 -1 -10 4 -10 6 0 11 -11 11 -25 0 -14 -5 -25 -11
-25 -5 0 -7 5 -3 12 5 7 3 8 -6 3 -10 -6 -9 -11 5 -22 30 -21 36 -16 31 30 -3
23 -5 43 -5 45 -2 6 -21 1 -26 -8z"/>
<path d="M1992 1463 l-23 -5 21 -18 c15 -13 27 -16 38 -11 10 5 28 14 42 19
l25 11 -27 0 c-14 1 -32 3 -40 5 -7 2 -23 1 -36 -1z"/>
<path d="M2454 1462 c-13 -5 -20 -14 -18 -25 4 -29 9 -29 28 3 9 17 16 30 14
29 -2 -1 -12 -4 -24 -7z"/>
<path d="M1050 1450 c-13 -8 -13 -11 3 -27 9 -9 17 -12 17 -6 0 6 3 18 6 27 7
18 -4 20 -26 6z"/>
<path d="M1907 1432 c-23 -25 -21 -30 7 -25 13 3 27 0 30 -6 8 -12 36 -3 36
11 0 6 -6 8 -14 5 -8 -3 -20 0 -26 8 -8 10 -8 14 2 18 9 4 8 6 -3 6 -9 1 -23
-7 -32 -17z"/>
<path d="M1094 1424 c6 -15 -18 -37 -28 -26 -4 4 -6 0 -4 -8 2 -8 8 -19 13
-23 6 -5 0 -6 -12 -2 -12 3 -24 1 -28 -5 -4 -7 -12 -7 -25 0 -27 14 -34 12
-20 -5 7 -8 16 -12 21 -9 5 3 9 -6 9 -21 0 -17 -7 -29 -22 -35 -48 -20 -62
-38 -51 -63 7 -15 8 -29 2 -38 -14 -22 -11 -28 14 -25 45 5 63 29 27 39 -17 4
-18 8 -7 36 6 17 15 31 20 31 4 0 5 -5 2 -11 -4 -6 3 -5 14 3 15 9 20 20 16
35 -3 15 2 27 21 42 47 37 62 17 22 -27 -18 -20 -19 -24 -6 -19 14 5 19 -2 25
-31 4 -20 6 -40 5 -44 -3 -12 5 -9 23 8 11 12 19 13 29 5 7 -6 16 -8 19 -5 8
9 -19 34 -36 34 -15 0 -27 20 -27 46 0 8 10 14 23 14 20 1 20 2 5 11 -10 5
-18 17 -18 25 0 8 -4 13 -9 9 -5 -3 -12 -1 -16 5 -7 11 18 40 35 40 7 0 7 4
-2 13 -15 17 -40 18 -34 1z"/>
<path d="M1805 1401 c-3 -6 3 -14 12 -20 20 -11 22 -9 -32 -26 -21 -6 -19 -25
3 -25 10 0 32 15 50 34 26 28 29 35 16 40 -23 9 -42 7 -49 -3z"/>
<path d="M1152 1387 c-10 -12 -9 -16 4 -21 24 -9 52 -7 59 5 9 13 6 16 -26 24
-17 4 -30 1 -37 -8z"/>
<path d="M736 1358 c3 -4 15 -8 28 -8 20 0 22 -4 18 -31 -4 -24 -9 -30 -23
-26 -12 3 -19 0 -19 -9 0 -9 -11 -14 -29 -14 -17 0 -33 -4 -36 -10 -3 -5 3
-10 14 -10 14 0 19 -5 14 -16 -3 -8 -12 -13 -19 -10 -9 3 -14 -1 -14 -12 -1
-24 -24 -52 -44 -52 -20 0 -21 -16 0 -24 8 -3 12 -2 9 4 -3 6 -2 10 4 10 19 0
29 -33 32 -113 0 -9 4 -15 9 -12 10 6 8 40 -2 50 -10 11 29 115 44 115 5 0 7
8 4 18 -7 21 2 35 30 50 31 16 37 4 10 -22 -12 -11 -14 -15 -5 -8 10 8 22 11
28 7 6 -3 20 9 31 27 11 18 20 28 20 22 0 -7 8 -14 18 -17 9 -2 26 -8 37 -13
19 -7 19 -6 4 12 -8 10 -14 27 -12 37 6 23 33 22 33 -2 0 -11 5 -23 10 -26 13
-8 13 35 0 55 -7 12 -13 13 -28 3 -15 -9 -22 -9 -31 0 -8 8 -11 4 -11 -17 0
-24 -2 -26 -14 -17 -12 10 -17 8 -25 -8 -15 -27 -41 -17 -33 12 3 12 12 32 20
45 14 22 14 22 -31 21 -26 -1 -44 -6 -41 -11z"/>
<path d="M1275 1360 c-4 -6 -13 -9 -19 -7 -7 3 -13 -1 -13 -9 0 -8 4 -14 9
-14 14 0 9 -57 -7 -70 -8 -7 -24 -9 -37 -5 -22 7 -22 6 -6 -11 14 -14 20 -15
32 -4 13 10 19 10 31 0 13 -11 14 -10 9 5 -6 15 -3 17 14 13 25 -7 29 4 8 21
-23 19 -26 50 -6 61 9 5 21 6 25 2 4 -4 6 0 3 8 -6 19 -34 25 -43 10z"/>
<path d="M2336 1346 c3 -9 1 -16 -5 -16 -6 0 -8 -7 -4 -15 3 -9 10 -14 16 -12
16 5 17 35 1 48 -12 10 -13 9 -8 -5z"/>
<path d="M2490 1341 c-28 -8 -41 -41 -15 -41 33 0 95 -40 101 -66 8 -31 -11
-47 -37 -33 -10 5 -26 9 -37 9 -11 0 -31 15 -45 33 -20 26 -23 37 -15 53 6 10
7 16 3 12 -5 -4 -14 -3 -21 3 -15 13 -54 -5 -54 -25 0 -7 18 -22 39 -34 21
-12 41 -29 45 -37 3 -9 18 -15 36 -15 32 0 80 -40 80 -67 0 -19 36 1 51 29 10
19 9 20 -16 14 -25 -6 -26 -5 -20 22 7 32 -9 82 -25 82 -6 0 -22 7 -35 16 -20
13 -23 20 -14 35 5 10 8 19 7 18 -2 -1 -14 -4 -28 -8z"/>
<path d="M2257 1315 c-16 -12 -15 -14 15 -33 30 -19 34 -20 42 -5 6 11 5 18
-3 21 -6 2 -17 10 -24 17 -11 10 -16 10 -30 0z"/>
<path d="M1359 1313 c-1 -5 0 -16 1 -26 1 -11 -7 -21 -19 -24 -11 -3 -18 -9
-15 -14 3 -5 1 -9 -3 -9 -5 0 -9 -18 -9 -40 -1 -41 -19 -74 -35 -64 -5 3 -9 0
-9 -7 0 -6 -8 -9 -19 -6 -14 3 -17 0 -14 -14 6 -23 5 -23 45 1 39 24 49 25 42
5 -8 -21 12 -19 22 3 4 9 9 31 11 47 4 29 55 84 79 85 6 0 17 7 24 15 7 8 21
15 32 15 18 0 18 1 3 16 -9 9 -19 14 -22 10 -4 -3 -2 -6 3 -6 4 0 -2 -7 -14
-16 -26 -18 -58 -11 -72 17 -11 19 -29 26 -31 12z"/>
<path d="M245 1290 c-3 -5 1 -10 9 -10 8 0 20 -9 26 -21 7 -11 14 -18 17 -15
7 7 -25 56 -37 56 -5 0 -12 -4 -15 -10z"/>
<path d="M1506 1216 c3 -9 -3 -17 -15 -21 -12 -3 -21 -9 -21 -13 0 -15 -48
-62 -64 -62 -23 0 -20 -17 5 -23 12 -3 18 -3 15 0 -3 4 11 12 31 19 38 13 64
5 62 -20 0 -7 -2 -6 -6 2 -2 6 -14 12 -26 12 -19 -1 -17 -4 11 -18 18 -10 30
-21 26 -25 -4 -3 5 -12 19 -18 14 -6 32 -26 38 -43 l13 -31 3 28 c6 36 -3 60
-18 51 -19 -11 -1 49 19 65 12 10 14 15 5 18 -7 3 -13 11 -13 19 0 8 -7 14
-16 14 -14 0 -14 -2 1 -16 17 -17 16 -35 -1 -41 -6 -2 -26 9 -44 25 -34 30
-34 52 -1 52 10 0 21 8 23 18 4 14 -1 18 -23 20 -21 2 -27 -1 -23 -12z"/>
<path d="M841 1212 c-13 -2 -26 -12 -28 -23 -3 -10 -12 -19 -20 -19 -8 0 -11
5 -7 12 4 7 3 8 -5 4 -17 -11 -2 -29 20 -23 11 3 19 1 19 -4 0 -20 -33 -59
-50 -59 -13 0 -16 -6 -12 -25 2 -14 10 -25 17 -25 7 0 15 -7 19 -15 3 -8 11
-15 18 -14 10 0 10 2 1 6 -7 2 -13 16 -13 29 0 17 6 24 19 24 25 0 37 18 22
33 -29 29 0 93 37 80 6 -3 12 0 12 7 0 6 -4 9 -9 6 -5 -4 -11 -3 -13 1 -1 5
-14 7 -27 5z"/>
<path d="M1211 1181 c-10 -6 -10 -10 -1 -16 6 -4 9 -13 6 -20 -3 -9 2 -11 15
-8 16 5 17 8 7 21 -7 8 -11 17 -10 19 7 9 -4 12 -17 4z"/>
<path d="M887 1140 c-3 -13 -1 -18 6 -14 7 3 4 -1 -5 -9 -19 -15 -25 -32 -8
-22 6 3 10 -4 11 -17 1 -21 2 -20 9 5 5 16 14 35 20 42 7 8 9 19 5 25 -10 17
-32 11 -38 -10z"/>
<path d="M1730 1151 c-8 -5 -34 -12 -57 -16 -22 -3 -49 -12 -59 -20 -15 -11
-16 -15 -5 -29 15 -18 33 -12 24 9 -5 14 -1 16 47 20 8 0 20 3 25 6 6 4 22 9
38 13 15 3 27 11 27 16 0 12 -20 12 -40 1z"/>
<path d="M1800 1129 c0 -17 3 -19 14 -10 7 6 22 9 32 5 11 -3 9 1 -6 10 -34
21 -40 20 -40 -5z"/>
<path d="M2516 1129 c-14 -20 -14 -23 2 -35 9 -8 26 -13 37 -13 18 0 17 1 -5
14 -14 8 -20 14 -13 15 6 0 10 7 9 15 -4 26 -14 27 -30 4z"/>
<path d="M1876 1133 c-11 -11 -6 -44 5 -38 19 12 69 -16 76 -43 13 -52 7 -121
-11 -141 -10 -11 -23 -18 -27 -15 -5 3 -9 0 -9 -5 0 -6 -7 -11 -15 -11 -9 0
-12 6 -9 15 4 9 0 15 -10 15 -14 0 -20 12 -17 33 2 15 -19 6 -29 -12 -13 -25
-13 -34 1 -25 11 6 29 -12 29 -29 0 -4 -10 -11 -22 -16 -17 -6 -23 -16 -23
-37 0 -25 -4 -30 -29 -32 -16 -2 -41 -11 -54 -20 -25 -16 -25 -16 -20 6 4 12
2 20 -3 16 -5 -3 -9 -12 -9 -20 0 -8 -6 -17 -13 -20 -9 -3 -12 -16 -9 -34 2
-17 8 -28 12 -25 4 2 16 -2 26 -10 10 -8 27 -15 37 -15 9 0 17 -6 17 -14 0 -8
3 -21 6 -30 10 -25 -21 -19 -34 7 -10 22 -11 22 -11 -5 -1 -22 -6 -28 -23 -27
-13 0 -17 3 -10 6 6 2 9 9 6 15 -3 5 -15 2 -27 -9 -18 -15 -19 -15 -9 -1 8 9
12 25 10 35 -3 14 -7 10 -18 -14 -17 -37 -22 -39 -39 -19 -9 11 -9 15 1 19 8
4 7 6 -4 6 -21 1 -24 31 -5 51 10 12 9 12 -5 1 -10 -7 -18 -9 -18 -4 0 5 -16
7 -35 5 -19 -2 -35 -2 -35 1 0 8 61 37 77 37 8 0 12 4 8 10 -3 5 -12 7 -20 3
-11 -4 -15 2 -15 20 0 17 7 28 20 32 28 9 25 33 -5 33 -13 0 -23 -4 -20 -8 8
-12 -21 -31 -37 -25 -17 7 -33 -21 -18 -30 16 -10 11 -48 -10 -75 -11 -14 -20
-22 -20 -17 0 4 -16 0 -36 -8 -48 -20 -61 -19 -69 5 -3 11 -10 20 -15 20 -5 0
-7 -6 -4 -13 3 -8 0 -26 -6 -42 -8 -22 -8 -30 2 -37 9 -7 7 -8 -7 -4 -21 5
-119 9 -145 6 -40 -6 91 -21 224 -26 119 -5 150 -4 157 7 7 11 9 11 9 1 0 -7
4 -11 9 -8 4 3 48 6 97 7 49 1 94 5 99 9 6 5 53 10 105 13 52 3 96 9 98 15 1
5 14 7 27 4 14 -2 25 0 25 7 0 5 8 8 18 5 15 -5 15 -4 2 6 -12 9 -9 11 17 6
19 -3 53 2 85 14 29 10 44 19 33 20 -20 1 -20 1 0 10 30 13 42 12 59 -5 13
-14 16 -13 26 5 8 14 8 20 0 20 -6 0 -8 5 -5 10 8 13 8 13 -55 -10 -69 -25
-79 -25 -89 3 -9 21 -9 21 -17 3 -5 -14 -1 -24 17 -39 l24 -20 -26 6 c-14 4
-41 2 -60 -2 -82 -21 -87 -21 -92 -3 -4 9 -14 27 -23 40 -17 23 -17 23 12 17
25 -5 26 -4 7 4 -22 10 -63 46 -63 56 0 12 41 3 46 -10 5 -12 10 -13 20 -4 11
9 18 8 29 -1 13 -11 14 -10 10 1 -4 10 6 19 28 27 46 16 68 16 45 -2 -10 -7
-18 -19 -18 -27 1 -10 5 -8 15 5 14 19 52 15 40 -4 -3 -5 -2 -10 4 -10 5 0 13
5 16 10 3 6 1 10 -6 10 -8 0 -8 4 -1 13 5 6 6 21 2 32 -7 18 -8 19 -15 3 -5
-13 -14 -16 -34 -11 -14 3 -30 12 -34 20 -13 22 -28 15 -21 -11 4 -19 1 -24
-20 -28 -30 -6 -30 -7 -14 44 7 24 16 37 24 34 21 -8 25 23 4 34 -11 6 -20 16
-20 22 0 7 -12 25 -27 40 -21 22 -23 28 -10 28 11 0 14 5 10 17 -4 10 -2 14 4
10 6 -4 13 -1 16 7 3 8 -1 13 -11 12 -13 -1 -17 7 -17 32 0 22 -4 32 -15 32
-9 0 -24 6 -35 13 -28 19 -52 27 -59 20z m123 -267 c-9 -26 -18 -35 -28 -31
-9 3 -12 3 -8 -1 8 -8 -11 -34 -24 -34 -5 0 -9 7 -9 15 0 8 -4 15 -10 15 -5 0
-10 -20 -10 -44 0 -24 -3 -51 -6 -60 -4 -10 -1 -16 8 -16 22 0 50 -36 46 -57
-2 -13 -19 -21 -68 -30 -36 -6 -67 -10 -69 -8 -8 9 11 74 24 85 19 16 19 30 1
30 -8 0 -18 9 -21 20 -7 22 2 60 14 60 5 0 20 11 33 25 14 14 45 40 69 59 36
28 46 32 58 21 11 -11 11 -19 0 -49z m-233 -114 c17 -12 23 -50 9 -62 -10 -8
-17 -3 -29 21 -20 40 -10 61 20 41z m62 -47 c-6 -7 -14 -3 -23 9 -19 26 -9 39
14 18 11 -11 15 -21 9 -27z m-248 -33 c0 -10 -30 -54 -44 -65 -6 -5 2 -6 17
-2 20 4 27 2 22 -6 -5 -7 -21 -9 -44 -5 -20 4 -46 6 -58 6 -13 0 -23 5 -23 11
0 6 7 9 15 5 10 -3 15 1 15 11 0 28 31 53 67 53 18 0 33 -3 33 -8z m-140 -41
c0 -5 -7 -15 -17 -22 -15 -13 -13 -15 13 -20 l29 -7 -32 -1 c-38 -1 -48 11
-33 39 11 20 40 28 40 11z"/>
<path d="M1330 1077 c0 -9 -9 -26 -20 -37 -13 -13 -18 -28 -15 -43 7 -26 8
-76 3 -97 -1 -8 2 -16 7 -17 6 -2 10 7 10 19 0 27 18 34 35 13 7 -8 21 -15 31
-15 10 0 20 -4 23 -9 3 -5 15 -7 26 -4 13 3 29 -5 49 -25 17 -16 37 -32 45
-35 17 -7 30 19 15 29 -6 3 -9 15 -6 25 6 24 -2 24 -19 2 -13 -17 -14 -17 -20
4 -4 14 -17 24 -36 28 -31 7 -28 19 7 28 18 4 18 5 -2 6 -12 0 -25 6 -28 11
-11 18 -26 10 -23 -12 2 -19 -2 -24 -25 -26 -18 -2 -29 2 -33 12 -3 9 -12 16
-19 16 -7 0 -16 7 -19 16 -8 22 -7 74 2 74 4 0 27 -13 52 -30 32 -21 46 -26
52 -17 13 21 9 37 -11 37 -10 0 -33 14 -50 32 -23 24 -31 28 -31 15z"/>
<path d="M1736 1065 c-15 -8 -33 -15 -40 -15 -6 0 -27 -10 -46 -22 l-35 -21
27 -9 c14 -5 29 -16 32 -24 4 -9 2 -12 -5 -8 -6 4 -15 0 -20 -7 -7 -11 -9 -10
-9 4 0 9 -4 17 -10 17 -5 0 -10 -4 -10 -10 0 -5 -7 -10 -15 -10 -8 0 -15 -5
-15 -12 0 -9 -3 -9 -12 0 -20 20 -27 14 -25 -18 2 -35 10 -37 44 -10 28 22 63
27 63 9 0 -6 7 -4 15 5 20 19 19 35 -2 58 -15 17 -15 20 -3 28 8 5 28 8 44 7
28 -2 29 -5 29 -47 0 -25 -3 -52 -7 -61 -5 -12 -1 -15 16 -14 18 1 23 8 23 28
1 33 7 39 55 53 27 8 42 8 49 1 8 -8 11 -6 11 5 0 12 -7 15 -25 12 -28 -5 -31
-1 -11 18 7 8 17 24 21 37 7 22 6 22 -19 6 -14 -10 -26 -26 -26 -36 0 -12 -7
-19 -20 -19 -11 0 -20 -5 -20 -11 0 -5 -4 -7 -10 -4 -5 3 -10 15 -10 25 0 10
-6 21 -12 23 -7 3 -3 6 8 6 26 1 42 31 16 31 -9 0 -30 -7 -46 -15z"/>
<path d="M536 1005 c-11 -8 -16 -18 -13 -22 4 -4 12 -2 18 4 6 6 18 9 25 6 8
-3 22 -2 31 1 15 6 15 8 3 16 -21 14 -42 12 -64 -5z"/>
<path d="M1032 1013 c4 -23 -15 -43 -38 -37 -32 8 -31 -10 1 -24 37 -17 47
-15 40 8 -7 22 11 53 26 44 5 -3 9 0 9 5 0 6 -9 11 -20 11 -11 0 -19 -3 -18
-7z"/>
<path d="M1460 1000 c0 -11 6 -20 14 -20 8 0 16 -7 20 -15 3 -8 13 -15 23 -15
13 0 18 8 19 30 1 25 -1 28 -13 18 -10 -8 -17 -8 -21 -2 -4 6 -15 13 -24 17
-13 5 -18 1 -18 -13z"/>
<path d="M2066 1013 c-7 -7 23 -43 35 -43 5 0 6 7 3 15 -10 24 8 17 33 -12 16
-21 22 -24 23 -12 0 11 12 19 35 23 19 4 37 10 39 15 3 4 -15 3 -39 -2 -32 -7
-52 -7 -68 0 -35 17 -55 22 -61 16z"/>
<path d="M1220 973 c1 -10 7 -40 14 -68 11 -42 11 -53 0 -70 -12 -18 -11 -21
5 -22 11 -1 22 5 25 13 6 15 62 20 68 5 2 -5 14 -11 28 -13 21 -3 25 1 24 25
-2 45 -4 48 -14 42 -6 -4 -8 -16 -4 -27 5 -18 3 -20 -17 -13 -13 4 -38 8 -56
9 -44 2 -50 12 -24 46 14 20 17 30 9 30 -14 0 -44 40 -40 53 1 4 -2 7 -8 7 -5
0 -10 -8 -10 -17z"/>
<path d="M385 959 c-4 -6 -5 -11 -4 -12 31 -16 44 -27 41 -37 -1 -6 2 -9 6 -6
5 3 17 -3 27 -14 10 -11 23 -20 29 -20 6 0 -5 15 -24 32 -19 18 -34 36 -33 40
5 13 -35 29 -42 17z"/>
<path d="M2099 953 c-9 -2 -19 -15 -22 -29 -3 -16 0 -23 7 -21 6 2 11 9 11 16
0 6 7 16 15 21 17 11 11 18 -11 13z"/>
<path d="M1115 936 c16 -52 15 -51 31 -27 18 25 18 26 -13 35 -18 6 -22 4 -18
-8z"/>
<path d="M973 933 c-15 -5 -18 -53 -3 -53 9 0 26 48 19 54 -2 2 -10 1 -16 -1z"/>
<path d="M1060 910 c0 -5 -7 -10 -16 -10 -8 0 -12 -5 -8 -11 3 -6 0 -15 -7
-20 -12 -8 -12 -11 1 -19 23 -15 34 -12 20 5 -9 11 -9 15 -1 15 7 0 9 5 5 11
-4 8 1 9 16 4 20 -6 21 -5 11 14 -13 23 -21 27 -21 11z"/>
<path d="M1657 878 c-18 -37 -12 -65 9 -47 10 8 11 16 3 32 -10 17 -9 19 5 14
11 -5 16 -1 16 13 0 30 -16 24 -33 -12z"/>
<path d="M1766 895 c-10 -8 -22 -13 -25 -10 -11 6 -56 -33 -47 -42 5 -4 11 -2
13 5 3 6 12 12 20 12 8 0 13 -6 10 -13 -2 -6 1 -18 8 -24 17 -15 29 9 13 25
-8 8 -2 18 18 36 31 27 22 36 -10 11z"/>
<path d="M993 883 c-4 -9 -15 -25 -25 -35 -21 -21 -24 -42 -5 -35 6 2 11 11
11 20 -1 9 7 19 18 23 11 3 17 12 14 19 -3 8 0 16 7 19 9 3 8 5 -1 5 -7 1 -16
-7 -19 -16z"/>
<path d="M1094 859 c-8 -14 5 -29 25 -29 17 0 41 -18 41 -30 0 -4 -15 -7 -32
-7 -18 0 -27 2 -20 5 6 2 12 8 12 13 0 6 -4 7 -10 4 -5 -3 -10 -2 -10 3 0 6
-7 12 -15 15 -11 5 -12 1 -5 -19 8 -19 6 -26 -5 -30 -13 -5 -13 -8 0 -21 8 -8
15 -21 15 -29 0 -8 9 -14 21 -14 18 0 19 -2 9 -15 -11 -13 -8 -15 19 -15 37 0
38 -6 8 -42 -21 -25 -24 -26 -75 -17 -71 13 -88 6 -32 -13 57 -19 159 -16 175
6 7 9 20 13 33 9 12 -3 29 -2 38 1 13 5 14 9 4 21 -9 11 -16 12 -31 2 -23 -14
-43 2 -44 36 0 19 -5 22 -32 19 -37 -4 -93 29 -93 55 0 12 7 14 33 10 20 -3
40 0 51 9 19 13 19 14 -2 33 -12 10 -22 25 -22 33 0 17 -46 22 -56 7z"/>
<path d="M1400 811 c0 -5 7 -16 15 -25 8 -8 15 -19 15 -25 0 -6 9 -11 20 -11
11 0 20 5 20 11 0 5 -5 7 -12 3 -7 -5 -9 -2 -5 9 4 11 2 14 -7 11 -8 -3 -16 4
-19 15 -5 21 -27 30 -27 12z"/>
<path d="M1209 786 c20 -23 62 -29 80 -11 15 15 14 16 -9 10 -14 -3 -39 -1
-54 5 -25 9 -27 9 -17 -4z"/>
<path d="M2032 732 c-27 -21 -17 -36 33 -45 l30 -5 -24 19 c-13 11 -21 25 -17
34 7 19 6 19 -22 -3z"/>
</g>
</svg>
