<?xml version="1.0" standalone="no"?>
<!DOCTYPE svg PUBLIC "-//W3C//DTD SVG 20010904//EN"
 "http://www.w3.org/TR/2001/REC-SVG-20010904/DTD/svg10.dtd">
<svg version="1.0" xmlns="http://www.w3.org/2000/svg"
 width="275.000000pt" height="183.000000pt" viewBox="0 0 275.000000 183.000000"
 preserveAspectRatio="xMidYMid meet">
<metadata>
Created by potrace 1.10, written by Peter Selinger 2001-2011
</metadata>
<g transform="translate(0.000000,183.000000) scale(0.100000,-0.100000)"
fill="#000000" stroke="none">
<path d="M420 1760 c0 -72 -10 -87 -31 -47 -57 111 -203 134 -286 45 -28 -30
-53 -89 -53 -127 0 -46 18 -82 63 -129 l41 -42 -36 -30 c-46 -38 -73 -105 -65
-161 7 -52 49 -113 92 -134 43 -20 51 -32 25 -40 -33 -10 -80 -55 -100 -96
-39 -76 -21 -150 54 -216 l47 -42 -30 -16 c-44 -22 -83 -86 -88 -143 -6 -59
27 -126 78 -160 19 -13 35 -27 37 -31 1 -4 -15 -20 -36 -34 -45 -29 -82 -96
-82 -145 0 -38 23 -98 48 -125 77 -85 220 -70 280 28 15 25 30 45 35 45 4 0 7
-36 7 -80 0 -73 2 -80 20 -80 20 0 20 7 20 915 0 908 0 915 -20 915 -18 0 -20
-7 -20 -70z m-117 -7 c65 -33 87 -130 44 -194 -78 -117 -257 -65 -257 74 0 67
31 109 97 132 40 14 70 11 116 -12z m117 -288 c0 -63 -4 -115 -9 -115 -5 0
-19 16 -31 35 -11 19 -33 43 -48 53 l-26 20 47 52 c26 29 47 56 47 61 0 5 5 9
10 9 6 0 10 -45 10 -115z m-116 -54 c90 -59 87 -184 -6 -241 -89 -54 -208 17
-208 125 0 104 127 173 214 116z m116 -301 c0 -71 -3 -130 -7 -129 -5 0 -22
19 -38 42 -17 23 -48 51 -69 63 l-39 22 30 15 c32 17 103 91 103 107 0 6 5 10
10 10 6 0 10 -50 10 -130z m-113 -68 c60 -33 81 -132 40 -193 -78 -117 -257
-65 -257 74 0 112 114 174 217 119z m113 -290 c0 -65 -3 -122 -6 -125 -4 -4
-19 13 -35 38 -15 24 -42 51 -59 60 l-31 16 43 38 c24 21 50 50 57 65 8 14 18
26 23 26 4 0 8 -53 8 -118z m-92 -86 c34 -34 37 -41 37 -96 0 -56 -3 -62 -38
-97 -35 -36 -41 -38 -98 -38 -58 0 -62 2 -100 42 -33 36 -39 49 -39 85 0 65
30 112 90 140 8 4 37 6 63 4 41 -3 55 -10 85 -40z m92 -270 c0 -69 -3 -127 -7
-129 -5 -3 -19 12 -32 32 -12 21 -41 49 -63 64 l-39 25 43 30 c24 17 53 46 63
66 11 20 23 36 27 36 5 0 8 -56 8 -124z m-122 -66 c123 -75 75 -260 -68 -260
-87 0 -147 68 -138 154 12 100 122 157 206 106z"/>
<path d="M151 1638 c0 -24 3 -36 6 -28 4 8 13 20 21 26 18 13 9 44 -13 44 -11
0 -15 -11 -14 -42z"/>
<path d="M201 1639 c2 -30 3 -35 6 -16 2 15 9 25 14 22 15 -10 10 12 -6 25
-13 11 -15 7 -14 -31z"/>
<path d="M237 1653 c-6 -31 1 -53 15 -53 6 0 8 10 5 23 l-6 22 16 -22 c20 -29
53 -31 53 -3 0 11 -5 20 -11 20 -5 0 -7 -4 -4 -10 3 -5 -1 -10 -9 -10 -9 0
-16 9 -16 20 0 13 7 20 20 20 11 0 20 5 20 10 0 15 -27 12 -44 -6 -15 -14 -16
-14 -16 0 0 26 -17 18 -23 -11z"/>
<path d="M172 1303 c-1 -17 -8 -33 -14 -36 -7 -2 -10 -8 -5 -12 14 -16 28 12
24 46 l-4 34 -1 -32z"/>
<path d="M196 1295 c1 -35 14 -64 14 -31 0 9 7 19 15 22 24 10 19 44 -7 44
-20 0 -23 -5 -22 -35z"/>
<path d="M257 1323 c-25 -24 8 -77 41 -66 17 6 15 43 -3 43 -9 0 -12 -6 -8
-16 4 -12 2 -15 -8 -12 -24 8 -16 41 11 49 l25 7 -26 1 c-14 1 -29 -2 -32 -6z"/>
<path d="M150 944 c0 -9 8 -23 18 -30 16 -12 15 -13 -7 -14 -17 0 -22 -3 -15
-10 14 -14 44 -2 44 16 0 8 -7 17 -15 20 -21 9 -19 24 4 24 13 0 21 -9 26 -30
8 -39 20 -38 34 1 13 39 14 42 1 34 -5 -3 -10 -16 -11 -28 -1 -20 -2 -19 -12
6 -8 20 -18 27 -39 27 -19 0 -28 -5 -28 -16z"/>
<path d="M262 948 c-27 -27 1 -73 36 -61 18 7 15 43 -4 43 -14 0 -14 -3 -4
-15 10 -12 9 -15 -4 -15 -12 0 -16 7 -14 23 2 14 9 21 21 21 9 -1 17 2 17 7 0
13 -34 11 -48 -3z"/>
<path d="M150 576 c0 -29 4 -36 19 -36 10 0 24 7 32 16 16 20 1 48 -30 52 -18
3 -21 -1 -21 -32z m38 -4 c2 -15 -2 -22 -12 -22 -11 0 -16 9 -16 26 0 31 23
28 28 -4z"/>
<path d="M214 575 c0 -27 3 -32 13 -23 9 7 13 7 13 -1 0 -6 9 -11 20 -11 11 0
20 6 20 14 0 8 6 17 13 19 10 4 10 6 0 6 -19 1 -16 19 5 24 13 4 11 5 -5 6
-19 1 -23 -4 -23 -29 0 -16 -4 -30 -9 -30 -14 0 -19 23 -9 43 5 11 5 17 -2 17
-5 0 -10 -5 -10 -11 0 -8 -4 -8 -13 -1 -10 9 -13 4 -13 -23z"/>
<path d="M273 243 c-18 -6 -16 -32 2 -39 8 -4 12 -10 9 -15 -3 -5 -10 -7 -15
-4 -5 4 -9 1 -9 -4 0 -6 9 -11 20 -11 25 0 27 35 3 45 -17 7 -17 8 1 14 11 4
15 10 10 13 -5 3 -15 3 -21 1z"/>
<path d="M160 205 c0 -28 4 -35 20 -35 11 0 20 5 20 11 0 5 -4 8 -9 4 -5 -3
-12 -1 -16 5 -3 5 2 10 12 10 17 1 17 1 0 14 -18 14 -18 14 0 19 14 4 14 5 -4
6 -20 1 -23 -4 -23 -34z"/>
<path d="M211 203 c1 -21 3 -30 6 -20 2 9 11 17 19 17 8 0 14 9 14 20 0 13 -7
20 -20 20 -17 0 -20 -6 -19 -37z"/>
<path d="M1428 1741 c-32 -5 -69 -16 -83 -25 -22 -14 -25 -24 -25 -71 0 -49 3
-57 25 -67 50 -23 26 -112 -73 -271 -38 -62 -78 -137 -88 -167 -20 -62 -20
-74 -16 -613 l2 -349 28 -28 c39 -38 82 -49 250 -63 177 -14 397 1 466 32 84
37 81 15 81 531 0 522 6 485 -101 655 -76 121 -90 152 -98 211 -6 48 -5 51 19
62 24 11 26 16 23 74 l-3 63 -40 13 c-48 16 -287 24 -367 13z m350 -36 c12 -4
22 -11 22 -15 0 -32 -381 -40 -430 -10 -40 25 57 40 235 35 83 -1 160 -6 173
-10z m-203 -70 c55 0 130 4 168 8 67 8 67 8 67 -18 0 -35 -26 -40 -230 -40
-204 0 -230 5 -230 41 0 25 0 25 63 17 34 -4 107 -8 162 -8z m195 -112 c0 -50
25 -113 92 -230 67 -119 98 -202 98 -268 0 -50 1 -50 -142 -65 -162 -17 -451
-9 -585 16 -30 6 -33 9 -33 44 0 56 34 156 81 235 76 129 101 187 106 244 l5
56 189 0 189 0 0 -32z m-404 -604 c138 -13 471 -7 538 10 22 5 44 8 48 5 10
-7 10 -455 0 -471 -22 -34 -405 -55 -592 -33 -117 14 -141 18 -146 22 -2 2 -4
85 -4 183 -1 312 -2 308 14 302 8 -3 72 -11 142 -18z m-51 -524 c175 -23 455
-18 613 11 l32 6 0 -102 c0 -112 -7 -133 -50 -155 -78 -40 -516 -46 -630 -8
-71 23 -80 42 -80 166 0 53 1 97 3 97 1 0 52 -7 112 -15z"/>
<path d="M1257 842 c-14 -16 -17 -43 -17 -162 0 -144 0 -144 27 -167 31 -27
33 -27 59 -8 27 20 58 18 79 -5 13 -14 30 -20 64 -19 45 0 66 0 116 -1 129 -4
209 3 228 18 12 10 21 11 37 2 17 -9 26 -8 46 5 37 24 39 39 16 116 -16 53
-19 76 -11 96 23 60 27 102 12 122 -15 22 -67 29 -78 11 -4 -6 -21 -8 -40 -4
-28 5 -38 1 -59 -20 -24 -23 -26 -33 -28 -113 l-1 -88 -6 87 c-5 75 -9 89 -30
107 -27 24 -51 27 -69 9 -9 -9 -17 -8 -37 2 -18 10 -31 11 -48 3 -17 -8 -29
-7 -48 3 -32 18 -33 18 -68 -12 l-31 -26 -26 31 c-29 35 -63 40 -87 13z m61
-27 c1 -1 13 -32 25 -68 13 -37 26 -69 29 -72 3 -3 16 26 29 65 19 60 26 70
46 70 l23 0 0 -151 c0 -134 -2 -150 -16 -145 -9 3 -20 6 -26 6 -7 0 -9 25 -5
75 3 41 2 75 -1 75 -4 0 -14 -23 -22 -52 -8 -28 -20 -53 -26 -55 -6 -2 -20 27
-32 64 l-21 68 0 -83 c-1 -79 -2 -83 -22 -80 -20 3 -21 10 -22 150 -2 144 -1
148 18 142 11 -4 21 -7 23 -9z m555 -56 l-25 -71 25 -71 c27 -76 27 -87 -3
-87 -15 0 -24 14 -37 60 -10 33 -21 60 -25 60 -5 0 -8 -29 -8 -65 0 -63 -1
-65 -25 -65 l-25 0 0 144 0 144 25 4 c24 5 25 4 25 -55 0 -69 11 -66 30 8 14
52 24 65 52 65 15 0 14 -8 -9 -71z m-313 -104 l0 -145 -25 0 -25 0 0 145 0
145 25 0 25 0 0 -145z m98 25 l-3 -120 33 0 c28 0 32 -3 32 -25 0 -24 -3 -25
-55 -25 l-55 0 0 145 0 145 26 0 26 0 -4 -120z"/>
</g>
</svg>
