<?xml version="1.0" standalone="no"?>
<!DOCTYPE svg PUBLIC "-//W3C//DTD SVG 20010904//EN"
 "http://www.w3.org/TR/2001/REC-SVG-20010904/DTD/svg10.dtd">
<svg version="1.0" xmlns="http://www.w3.org/2000/svg"
 width="300.000000pt" height="196.000000pt" viewBox="0 0 300.000000 196.000000"
 preserveAspectRatio="xMidYMid meet">
<metadata>
Created by potrace 1.10, written by Peter Selinger 2001-2011
</metadata>
<g transform="translate(0.000000,196.000000) scale(0.100000,-0.100000)"
fill="#000000" stroke="none">
<path d="M314 1740 c-12 -5 -25 -14 -29 -20 -4 -6 -9 -72 -11 -147 -5 -131 -6
-137 -34 -179 -17 -23 -30 -45 -30 -49 0 -3 -11 -23 -24 -44 -22 -35 -55 -122
-85 -226 -17 -59 -29 -182 -24 -250 2 -33 15 -114 29 -180 14 -66 28 -137 31
-157 3 -21 10 -38 15 -38 4 0 6 10 3 23 -20 86 -45 227 -55 312 -10 85 -10
114 4 192 25 143 73 275 144 391 l45 74 3 132 c1 72 3 136 3 143 1 6 13 13 29
15 15 2 23 6 17 9 -5 4 -20 3 -31 -1z"/>
<path d="M1516 1739 c3 -5 75 -9 161 -9 86 0 153 3 150 6 -10 11 -317 13 -311
3z"/>
<path d="M1860 1738 c0 -5 18 -8 40 -8 22 0 40 4 40 9 0 5 -18 8 -40 7 -22 0
-40 -4 -40 -8z"/>
<path d="M1987 1738 c-7 -4 67 -8 164 -8 164 0 179 -2 219 -23 68 -36 90 -86
90 -206 0 -107 -13 -146 -48 -145 -13 0 -22 -5 -22 -14 0 -15 -138 -151 -154
-152 -5 0 -37 14 -71 31 l-63 31 30 57 c16 31 32 75 35 98 14 105 -68 235
-170 269 -120 40 -238 7 -302 -86 -54 -78 -66 -180 -30 -264 7 -17 19 -45 25
-62 8 -23 16 -30 29 -27 21 5 96 -43 81 -52 -5 -3 -10 -3 -10 1 0 4 -9 -5 -21
-20 -16 -21 -20 -35 -15 -61 8 -41 27 -53 80 -48 25 2 43 -1 48 -9 4 -7 8 -8
8 -3 0 7 32 11 80 11 76 0 80 -1 74 -21 -4 -11 -3 -16 2 -12 5 5 9 23 10 40 0
18 4 44 8 60 7 21 5 27 -8 27 -9 0 -16 7 -16 15 0 8 -7 15 -15 15 -25 0 -17
14 22 39 l36 23 46 -22 c25 -11 57 -29 70 -40 l25 -18 -58 -52 c-60 -56 -86
-95 -86 -131 0 -16 -4 -19 -17 -14 -10 5 -45 14 -78 21 -121 28 -237 -7 -329
-98 -69 -70 -99 -144 -99 -248 1 -84 17 -138 63 -204 31 -45 87 -93 97 -83 7
8 -22 37 -36 37 -6 0 -10 6 -8 13 1 6 -4 11 -12 9 -8 -2 -11 3 -8 13 4 8 1 15
-6 15 -7 0 -17 10 -23 23 -6 12 -20 38 -30 57 -22 43 -27 200 -6 208 6 2 10 7
7 11 -2 5 4 27 15 49 11 23 20 46 20 51 0 6 8 8 18 4 9 -3 14 -3 11 1 -4 4 11
26 32 49 l40 42 25 -29 c17 -19 31 -26 45 -23 32 8 52 -2 38 -19 -6 -8 -9 -14
-6 -14 4 0 -27 -33 -68 -74 -40 -41 -81 -86 -90 -100 -21 -32 -22 -88 -2 -116
31 -45 218 -230 232 -230 8 0 25 12 38 27 12 15 63 70 113 123 50 52 94 105
98 117 10 30 -5 55 -91 149 -41 44 -80 92 -88 107 -13 25 -12 26 26 32 21 4
43 14 49 23 9 15 14 13 41 -18 17 -19 65 -70 105 -112 58 -61 74 -84 74 -108
0 -16 5 -30 10 -30 6 0 10 11 10 25 0 23 3 21 43 -23 23 -26 48 -52 56 -58 8
-7 12 -22 9 -41 -3 -25 -1 -29 14 -25 11 3 18 -1 18 -10 0 -25 -21 -78 -29
-73 -5 2 -14 -6 -21 -19 -7 -14 -21 -27 -31 -29 -11 -3 -19 -10 -19 -17 0 -20
63 23 87 60 13 18 23 45 23 59 1 23 2 24 11 8 15 -26 -27 -106 -70 -134 -28
-19 -30 -23 -13 -23 30 0 81 56 93 103 9 36 14 42 39 44 22 2 67 42 215 190
103 103 193 200 202 217 20 39 12 108 -18 150 -13 18 -78 91 -145 162 -66 71
-141 152 -167 180 -42 45 -51 51 -82 48 l-35 -2 1 103 c2 99 0 106 -25 140
-48 62 -69 68 -269 69 -98 0 -184 -2 -190 -6z m19 -82 c92 -43 155 -155 140
-249 -31 -190 -240 -271 -398 -154 -14 11 -31 17 -36 13 -5 -3 -12 7 -15 22
-3 15 -12 45 -21 67 -44 114 19 259 134 309 54 23 136 20 196 -8z m558 -283
c8 -16 75 -93 151 -172 193 -204 206 -225 181 -285 -7 -17 -87 -104 -177 -193
-90 -89 -173 -174 -185 -189 -27 -36 -67 -27 -91 20 -10 19 -88 108 -175 199
-166 176 -182 202 -155 254 8 15 85 93 170 173 85 80 165 162 178 182 19 30
30 38 56 38 25 0 36 -6 47 -27z m-672 -234 l16 -34 7 28 c4 15 15 32 26 37 16
9 16 6 -4 -40 -12 -27 -27 -50 -33 -50 -5 0 -20 23 -31 51 -24 57 -8 64 19 8z
m146 -8 c4 -28 -14 -51 -42 -51 -47 0 -63 57 -24 84 19 13 25 14 43 2 11 -7
21 -23 23 -35z m-184 17 c14 -22 3 -31 -34 -30 -16 0 -30 -4 -30 -10 0 -6 13
-8 30 -6 34 5 40 -6 12 -21 -41 -22 -83 44 -50 77 17 17 58 11 72 -10z m121
-178 l50 -2 -50 -14 c-41 -11 -62 -11 -115 -1 l-65 12 45 5 c25 3 54 4 65 3
11 -1 43 -2 70 -3z m-55 -54 c0 -6 5 -5 12 2 18 18 108 16 108 -2 0 -12 -24
-15 -135 -15 -112 -1 -135 2 -135 14 0 12 15 14 75 12 41 -1 75 -6 75 -11z
m87 -147 c97 -100 122 -132 123 -157 0 -7 -45 -60 -100 -117 -55 -58 -100
-109 -100 -115 0 -6 -8 -10 -18 -8 -24 4 -232 223 -232 244 0 9 42 60 94 113
51 53 99 106 105 119 6 12 16 22 21 22 5 0 53 -45 107 -101z"/>
<path d="M1825 1611 c-44 -20 -87 -61 -65 -61 8 0 42 7 77 16 42 10 77 13 101
8 20 -4 50 -6 65 -5 27 3 29 1 22 -28 -6 -29 -5 -31 24 -31 38 0 39 9 4 51
-55 65 -150 86 -228 50z"/>
<path d="M1817 1541 c-65 -12 -91 -21 -99 -35 -9 -17 -7 -18 30 -11 l40 6 -33
-106 c-33 -103 -33 -106 -12 -103 17 2 26 21 52 108 31 101 33 105 65 111 17
4 36 11 42 17 23 23 -2 27 -85 13z"/>
<path d="M1963 1513 c-13 -28 -25 -39 -45 -41 -20 -2 -30 -12 -42 -43 -18 -44
-20 -75 -8 -83 5 -3 25 -3 44 0 33 6 35 9 58 83 13 42 27 86 31 99 12 38 -19
26 -38 -15z m-29 -90 c-4 -16 -13 -35 -20 -43 -12 -12 -14 -12 -14 2 0 26 18
68 30 68 6 0 8 -11 4 -27z"/>
<path d="M2040 1491 c-28 -8 -48 -43 -57 -98 l-6 -36 39 6 c21 4 45 14 51 24
18 23 8 29 -22 13 -14 -7 -28 -11 -31 -7 -11 11 6 25 40 31 25 5 36 13 40 32
11 42 -1 50 -54 35z"/>
<path d="M1733 1472 c-18 -3 -23 -10 -23 -35 0 -18 3 -43 7 -57 6 -22 9 -17
24 35 10 32 17 60 16 60 -1 0 -12 -1 -24 -3z"/>
<path d="M1811 1389 c-18 -55 -19 -60 -3 -57 10 2 24 23 34 53 21 63 21 65 4
65 -8 0 -23 -25 -35 -61z"/>
<path d="M2077 1374 c-10 -13 -30 -27 -45 -31 -15 -3 -39 -15 -53 -25 -28 -21
-68 -25 -146 -13 -44 6 -53 5 -53 -7 0 -24 68 -51 126 -51 69 0 125 33 166 95
32 51 36 73 5 32z m-52 -64 c-10 -17 -85 -49 -91 -39 -3 5 1 9 8 9 7 0 29 9
48 19 42 23 43 24 35 11z m-127 -31 c12 1 22 -2 22 -8 0 -5 -12 -8 -27 -7 -16
2 -34 4 -41 5 -7 0 -10 6 -7 11 4 6 12 7 18 3 7 -4 22 -6 35 -4z"/>
<path d="M2430 1159 c-44 -18 -90 -59 -112 -102 -30 -60 -29 -165 3 -203 6 -8
9 -17 6 -21 -9 -8 71 -57 118 -73 22 -7 58 -10 86 -7 70 9 161 70 143 98 -4 7
-3 9 3 6 6 -4 16 6 22 22 28 66 3 209 -34 195 -10 -4 -14 -12 -9 -23 3 -9 7
-22 7 -28 0 -7 4 -13 9 -13 12 0 10 -44 -4 -58 -7 -7 -22 -12 -34 -12 -13 0
-26 -5 -30 -12 -5 -8 -2 -9 10 -5 10 4 23 7 30 7 7 0 22 9 33 20 l22 19 -3
-24 c-1 -13 -9 -31 -16 -40 -8 -10 -19 -27 -25 -38 -20 -40 -88 -79 -141 -80
-53 -2 -124 26 -124 48 0 17 39 26 61 14 30 -15 92 -10 124 11 17 11 38 20 47
20 9 0 20 4 23 10 4 6 -6 7 -24 4 -49 -10 -61 -1 -50 38 5 18 17 44 27 58 21
31 18 80 -6 80 -13 0 -14 -2 -4 -9 10 -6 8 -24 -14 -85 -14 -42 -24 -86 -21
-96 3 -13 0 -20 -10 -20 -8 0 -11 5 -8 11 5 7 -5 8 -29 4 -45 -9 -53 7 -33 67
12 34 21 45 46 53 18 5 31 16 31 25 0 9 5 21 12 28 6 6 9 15 5 18 -14 14 -95
14 -137 -1 l-45 -15 40 5 c22 3 52 8 68 11 20 4 27 2 27 -10 0 -18 -13 -27
-46 -31 -34 -3 -37 -8 -69 -107 -19 -61 -33 -88 -46 -91 -15 -4 -18 1 -19 32
0 20 -1 59 -2 86 -3 50 -3 50 30 53 18 2 30 7 27 12 -3 5 -18 5 -34 0 -22 -6
-31 -5 -35 6 -3 9 -1 12 4 9 6 -3 10 -1 10 4 0 41 103 104 166 103 42 0 124
-35 124 -52 0 -12 11 -12 29 -1 21 13 0 36 -61 67 -50 26 -122 31 -168 13z
m41 -192 c-10 -23 -21 -54 -25 -69 -4 -18 -13 -28 -25 -28 -18 0 -19 2 -3 50
9 29 22 50 30 50 11 0 12 3 3 13 -13 16 4 38 25 30 10 -4 9 -13 -5 -46z"/>
<path d="M2511 946 c-6 -16 -10 -34 -8 -40 3 -6 10 2 16 18 6 16 10 34 8 40
-3 6 -10 -2 -16 -18z"/>
<path d="M2542 593 c-18 -21 -32 -42 -32 -47 0 -6 3 -6 8 0 4 5 23 26 41 47
19 20 30 37 25 37 -5 0 -24 -17 -42 -37z"/>
<path d="M1974 1135 c-4 -9 -2 -21 4 -27 15 -15 44 -1 40 19 -4 23 -36 29 -44
8z"/>
<path d="M1344 1690 c-6 -6 -127 -11 -299 -13 l-290 -2 303 -3 c263 -2 302 0
302 13 0 18 -3 18 -16 5z"/>
<path d="M2347 1675 c23 -14 54 -45 68 -68 26 -45 35 -35 10 12 -19 38 -72 81
-98 81 -17 0 -13 -6 20 -25z"/>
<path d="M650 1616 c0 -31 3 -37 16 -32 9 3 168 6 355 6 234 0 339 3 339 11 0
7 -104 9 -345 7 -190 -2 -346 0 -346 5 -1 4 -2 11 -3 16 -4 29 -16 18 -16 -13z"/>
<path d="M376 1604 c-10 -26 -7 -34 13 -34 14 0 18 5 14 20 -7 27 -20 34 -27
14z"/>
<path d="M842 1565 c8 -8 518 -11 518 -2 0 4 -118 7 -262 7 -144 0 -259 -2
-256 -5z"/>
<path d="M660 1501 c0 -35 2 -39 21 -34 11 3 17 9 12 12 -18 11 -24 44 -11 53
10 6 8 8 -4 8 -14 0 -18 -8 -18 -39z"/>
<path d="M1350 1525 c0 -13 -26 -15 -172 -15 -94 0 -169 -2 -166 -5 3 -3 78
-6 166 -6 141 0 163 -2 171 -17 8 -13 10 -9 11 21 0 20 -2 37 -5 37 -3 0 -5
-7 -5 -15z"/>
<path d="M370 1482 c0 -10 -6 -24 -12 -31 -11 -10 -8 -12 11 -9 18 2 25 10 27
31 2 18 -2 27 -12 27 -8 0 -14 -8 -14 -18z"/>
<path d="M462 1448 c14 -10 14 -14 1 -34 -11 -17 -12 -28 -4 -41 9 -15 10 -14
11 13 0 17 8 38 18 47 19 18 42 23 42 9 0 -4 26 -8 58 -8 31 -1 41 1 22 3 -19
2 -39 9 -44 14 -6 5 -35 9 -65 8 -45 0 -53 -2 -39 -11z"/>
<path d="M665 1440 c3 -6 27 -10 52 -10 57 0 53 5 -10 13 -31 4 -46 3 -42 -3z"/>
<path d="M833 1433 c37 -2 97 -2 135 0 37 2 6 3 -68 3 -74 0 -105 -1 -67 -3z"/>
<path d="M580 1365 c-7 -8 -18 -14 -24 -14 -19 4 -66 -13 -61 -21 11 -18 64
-4 85 23 22 28 22 39 0 12z"/>
<path d="M374 1296 c-93 -43 -173 -131 -214 -235 -28 -72 -42 -175 -31 -236 8
-47 9 -45 10 39 0 49 4 86 8 82 4 -3 13 16 20 43 36 141 114 235 258 310 57
30 13 27 -51 -3z"/>
<path d="M1594 1184 c-41 -27 -119 -106 -136 -137 -5 -11 26 16 69 60 43 43
87 83 98 90 11 7 17 12 14 12 -3 1 -24 -11 -45 -25z"/>
<path d="M355 1161 c-41 -19 -105 -76 -105 -93 0 -5 15 6 33 26 36 38 113 76
153 76 13 0 51 -13 84 -29 33 -15 55 -22 49 -15 -9 11 -8 18 2 32 13 15 12 16
-3 4 -13 -10 -17 -10 -21 0 -4 11 -6 11 -6 0 -1 -10 -6 -10 -21 -2 -11 6 -20
7 -20 3 0 -4 -5 -2 -12 5 -18 18 -87 14 -133 -7z"/>
<path d="M645 1160 c3 -5 19 -10 35 -10 16 0 32 5 35 10 4 6 -10 10 -35 10
-25 0 -39 -4 -35 -10z"/>
<path d="M745 1160 c-6 -10 184 -4 194 6 2 2 -39 4 -92 4 -55 0 -99 -4 -102
-10z"/>
<path d="M363 1104 c-17 -9 -39 -24 -49 -35 -17 -19 -16 -19 17 -13 19 4 42
11 52 16 23 12 136 0 156 -16 11 -9 13 -8 9 4 -7 23 -79 60 -118 60 -19 0 -49
-8 -67 -16z"/>
<path d="M591 1106 c-22 -26 14 -32 209 -33 130 -1 185 1 165 7 -16 5 -107 10
-203 10 -148 1 -171 4 -161 16 6 8 9 14 6 14 -2 0 -10 -6 -16 -14z"/>
<path d="M1085 1060 c3 -6 42 -10 86 -10 104 0 95 16 -11 18 -52 1 -79 -2 -75
-8z"/>
<path d="M400 1049 c-14 -4 -39 -7 -56 -8 -18 -1 -42 -10 -55 -21 l-24 -20 39
6 c31 5 38 4 34 -7 -3 -8 -13 -39 -23 -69 -10 -30 -22 -61 -28 -67 -7 -10 -4
-13 10 -13 15 0 24 17 43 83 23 74 28 82 52 85 27 3 55 27 41 35 -4 2 -19 1
-33 -4z"/>
<path d="M477 1020 c-8 -21 -18 -30 -34 -30 -17 0 -24 -8 -32 -37 -17 -58 -15
-64 17 -57 38 10 42 13 42 37 0 12 9 42 20 66 23 50 23 51 9 51 -6 0 -16 -13
-22 -30z m-21 -66 c-3 -9 -6 -20 -6 -25 0 -5 -7 -9 -16 -9 -11 0 -14 5 -10 16
3 9 6 20 6 25 0 5 7 9 16 9 11 0 14 -5 10 -16z"/>
<path d="M828 1045 c-2 -3 -73 -5 -157 -6 -150 -1 -189 -7 -94 -15 83 -7 424
9 373 17 -54 9 -115 11 -122 4z"/>
<path d="M516 988 c-8 -13 -18 -35 -21 -50 -6 -25 -4 -28 18 -28 13 0 30 7 38
16 11 13 9 14 -14 9 -16 -4 -27 -3 -27 3 0 6 14 13 30 17 17 4 30 10 30 15 0
5 3 15 6 24 10 26 -43 20 -60 -6z"/>
<path d="M938 1003 c-10 -2 -18 -8 -18 -12 0 -8 129 5 138 14 6 6 -96 5 -120
-2z"/>
<path d="M279 985 c-4 -16 -3 -65 1 -65 3 0 10 16 16 35 9 28 8 35 -2 35 -8 0
-15 -2 -15 -5z"/>
<path d="M214 918 c2 -32 6 -61 10 -65 4 -4 4 1 1 12 -6 16 -3 15 14 -5 29
-35 26 -43 -14 -38 -19 2 -35 0 -35 -4 0 -4 21 -8 46 -8 28 0 56 -7 72 -18 72
-50 159 -54 226 -12 50 31 38 37 -19 10 -117 -57 -264 20 -296 155 -5 21 -6
13 -5 -27z"/>
<path d="M363 930 c-5 -22 -7 -40 -3 -40 4 0 14 18 23 40 11 29 12 40 3 40 -6
0 -17 -18 -23 -40z"/>
<path d="M777 963 c51 -2 135 -2 185 0 51 1 10 3 -92 3 -102 0 -143 -2 -93 -3z"/>
<path d="M868 932 c-43 -2 -78 -7 -78 -12 0 -11 223 -2 255 10 20 8 -16 8
-177 2z"/>
<path d="M687 923 c-4 -3 -21 -7 -37 -8 -16 -1 -33 -5 -37 -10 -5 -4 15 -4 42
0 28 4 67 6 88 6 20 -1 37 3 37 9 0 11 -82 14 -93 3z"/>
<path d="M535 894 c-79 -47 -116 -55 -157 -33 -16 9 -24 8 -36 -5 -14 -14 -12
-17 21 -31 50 -21 92 -19 138 7 37 21 55 46 24 34 -31 -12 -13 4 20 18 19 8
35 20 35 25 0 6 -1 11 -2 10 -2 -1 -21 -12 -43 -25z"/>
<path d="M1348 811 c-2 -49 0 -102 3 -117 4 -16 7 24 8 89 0 64 -1 117 -3 117
-3 0 -6 -40 -8 -89z"/>
<path d="M603 853 c10 -3 14 -9 10 -16 -4 -7 1 -6 10 2 14 11 17 11 17 0 0
-10 3 -11 8 -3 4 7 35 12 71 13 35 0 66 3 69 6 3 3 -42 4 -99 4 -57 -1 -96 -3
-86 -6z"/>
<path d="M823 853 c-7 -3 -13 -9 -13 -14 0 -15 123 -6 128 9 2 6 -1 12 -8 12
-6 0 -8 -5 -4 -11 4 -7 0 -9 -14 -5 -29 10 -75 14 -89 9z"/>
<path d="M680 762 c0 -4 21 -6 48 -4 75 5 82 10 15 11 -35 0 -63 -2 -63 -7z"/>
<path d="M1373 668 c1 -37 5 -64 10 -59 5 5 4 35 -2 67 l-9 59 1 -67z"/>
<path d="M171 643 c0 -5 13 -30 28 -58 67 -121 295 -204 457 -165 30 7 58 18
61 23 4 6 -5 7 -23 3 -121 -31 -214 -27 -312 15 -74 31 -117 66 -163 130 -44
59 -50 66 -48 52z"/>
<path d="M2270 600 c0 -51 -39 -137 -88 -192 -26 -29 -38 -46 -26 -38 30 21
68 69 92 116 23 45 44 144 31 144 -5 0 -9 -13 -9 -30z"/>
<path d="M795 488 c-38 -21 -59 -36 -45 -32 35 9 120 56 120 66 0 4 -1 7 -2 7
-2 -1 -34 -19 -73 -41z"/>
<path d="M1349 440 c-4 -64 -3 -99 5 -107 8 -9 10 6 8 60 -5 134 -7 142 -13
47z"/>
<path d="M2363 471 c-10 -17 -43 -55 -72 -86 -34 -35 -47 -55 -37 -55 9 0 16
4 16 9 0 5 8 12 18 15 9 3 22 14 27 25 6 10 25 40 43 66 19 25 32 49 29 51 -2
3 -13 -9 -24 -25z"/>
<path d="M1477 424 c11 -16 31 -38 44 -49 16 -14 13 -6 -10 22 -38 49 -65 71
-34 27z"/>
<path d="M840 420 c-11 -7 3 -10 48 -10 35 0 62 4 62 10 0 13 -90 13 -110 0z"/>
<path d="M965 420 c-4 -6 11 -10 37 -9 36 1 39 2 18 9 -36 11 -48 11 -55 0z"/>
<path d="M1422 325 c7 -8 277 -10 284 -2 4 4 -59 7 -141 7 -82 0 -146 -2 -143
-5z"/>
</g>
</svg>
