<?xml version="1.0" standalone="no"?>
<!DOCTYPE svg PUBLIC "-//W3C//DTD SVG 20010904//EN"
 "http://www.w3.org/TR/2001/REC-SVG-20010904/DTD/svg10.dtd">
<svg version="1.0" xmlns="http://www.w3.org/2000/svg"
 width="300.000000pt" height="271.000000pt" viewBox="0 0 300.000000 271.000000"
 preserveAspectRatio="xMidYMid meet">
<metadata>
Created by potrace 1.10, written by Peter Selinger 2001-2011
</metadata>
<g transform="translate(0.000000,271.000000) scale(0.100000,-0.100000)"
fill="#000000" stroke="none">
<path d="M1380 2670 c-41 -6 -42 -7 -10 -8 19 0 58 3 85 8 47 7 48 7 10 7 -22
0 -60 -3 -85 -7z"/>
<path d="M955 2621 c-22 -3 -35 -8 -30 -12 6 -3 42 0 80 7 51 8 59 12 30 11
-22 0 -58 -3 -80 -6z"/>
<path d="M535 2569 c-116 -15 -181 -26 -145 -24 36 2 101 9 145 14 44 5 105
12 135 16 30 3 78 9 105 14 120 20 -37 7 -240 -20z"/>
<path d="M1870 2592 c0 -6 10 -19 23 -29 35 -27 99 -120 136 -196 18 -38 35
-66 38 -64 7 8 -56 127 -102 192 -47 65 -95 115 -95 97z"/>
<path d="M219 2523 c-1 -5 -1 -12 0 -17 1 -5 -7 -6 -18 -3 -30 7 -63 -23 -99
-90 -59 -111 -93 -290 -91 -473 l2 -95 8 70 c5 39 11 93 13 120 11 130 36 245
71 328 18 45 81 117 102 117 8 0 28 7 46 17 29 15 30 17 12 24 -26 10 -45 11
-46 2z"/>
<path d="M367 2477 c15 -25 91 -88 96 -79 8 11 -7 33 -24 36 -23 4 -59 30 -59
43 0 7 -5 13 -10 13 -7 0 -8 -6 -3 -13z"/>
<path d="M500 2326 c0 -7 41 -76 46 -76 13 0 1 31 -21 54 -14 15 -25 25 -25
22z"/>
<path d="M2070 2280 c0 -6 7 -27 15 -48 16 -37 58 -199 69 -262 3 -19 8 -46
11 -60 3 -14 7 -45 10 -69 3 -24 7 -46 9 -50 2 -3 7 -39 11 -79 3 -41 8 -83
11 -95 2 -12 13 -83 24 -157 42 -279 66 -384 127 -559 29 -82 31 -87 38 -80 2
3 -6 32 -20 64 -63 157 -101 333 -150 695 -20 146 -47 321 -60 390 -31 158
-95 367 -95 310z"/>
<path d="M686 1959 c3 -19 6 -42 6 -51 -1 -10 4 -18 9 -18 11 0 1 80 -12 94
-4 5 -6 -6 -3 -25z"/>
<path d="M278 1913 c-31 -36 -41 -93 -36 -207 10 -209 102 -396 196 -396 28 0
67 43 80 88 21 70 15 210 -14 308 -43 150 -100 224 -173 224 -24 0 -44 -7 -53
-17z m98 -29 c40 -27 85 -118 110 -221 4 -15 9 -74 11 -130 4 -86 2 -108 -16
-147 -14 -33 -26 -46 -40 -46 -25 0 -71 20 -71 32 0 4 -10 19 -22 33 -28 33
-65 131 -73 195 -19 151 -13 250 17 288 14 17 54 15 84 -4z"/>
<path d="M13 1655 c8 -166 68 -396 142 -547 82 -168 269 -328 382 -328 36 0
374 49 381 55 2 2 -12 45 -32 97 -40 105 -47 108 -14 5 25 -82 27 -80 -81 -96
-42 -7 -90 -17 -108 -22 -23 -7 -38 -7 -54 1 -15 8 -19 9 -15 1 13 -21 -116
-18 -148 3 -12 7 -24 13 -27 12 -8 -1 -78 51 -122 93 -143 133 -264 450 -293
766 -11 114 -17 89 -11 -40z"/>
<path d="M940 808 c0 -47 87 -262 139 -343 112 -174 276 -338 432 -433 60 -36
57 -25 -5 18 -31 22 -59 40 -62 40 -17 0 -188 165 -259 250 -68 81 -102 134
-141 220 -14 30 -32 67 -39 81 -8 14 -23 58 -34 99 -21 73 -31 96 -31 68z"/>
<path d="M2400 807 c0 -20 53 -112 113 -194 92 -125 231 -244 364 -311 23 -12
44 -26 47 -31 4 -5 -39 -17 -95 -27 -56 -10 -97 -20 -91 -22 9 -3 111 13 217
35 28 5 27 6 -32 33 -197 89 -383 266 -489 464 -19 33 -34 58 -34 53z"/>
<path d="M2585 200 c-44 -10 -71 -18 -60 -19 11 0 61 8 110 18 50 10 77 19 60
18 -16 0 -66 -8 -110 -17z"/>
<path d="M1960 87 c-58 -11 -100 -22 -95 -23 6 -2 66 7 135 20 69 13 112 24
95 24 -16 0 -77 -9 -135 -21z"/>
<path d="M1760 50 l-25 -8 25 0 c14 0 39 4 55 8 l30 8 -30 0 c-16 0 -41 -4
-55 -8z"/>
</g>
</svg>
