<?xml version="1.0" standalone="no"?>
<!DOCTYPE svg PUBLIC "-//W3C//DTD SVG 20010904//EN"
 "http://www.w3.org/TR/2001/REC-SVG-20010904/DTD/svg10.dtd">
<svg version="1.0" xmlns="http://www.w3.org/2000/svg"
 width="205.000000pt" height="245.000000pt" viewBox="0 0 205.000000 245.000000"
 preserveAspectRatio="xMidYMid meet">
<metadata>
Created by potrace 1.10, written by Peter Selinger 2001-2011
</metadata>
<g transform="translate(0.000000,245.000000) scale(0.100000,-0.100000)"
fill="#000000" stroke="none">
<path d="M828 2015 c-65 -44 -75 -135 -20 -188 58 -55 130 -57 182 -5 109 108
-35 280 -162 193z m107 -19 c33 -14 65 -59 65 -91 0 -25 -37 -73 -63 -81 -65
-22 -127 18 -127 82 0 47 15 73 53 89 40 18 32 17 72 1z"/>
<path d="M1070 2010 c-26 -26 -25 -60 1 -94 40 -50 119 -21 119 44 0 38 -32
70 -70 70 -17 0 -39 -9 -50 -20z m78 -32 c14 -14 -2 -48 -25 -48 -23 0 -44 32
-31 47 13 16 40 17 56 1z"/>
<path d="M1173 1880 l-33 -20 31 -43 c31 -44 40 -98 25 -144 -7 -22 -5 -23 39
-23 84 0 135 47 135 125 0 102 -108 160 -197 105z m143 -51 c30 -33 24 -87
-15 -121 -18 -16 -38 -27 -44 -25 -7 2 -14 23 -18 48 -3 24 -13 58 -22 76 -22
41 -21 42 5 52 28 10 70 -3 94 -30z"/>
<path d="M1040 1856 c0 -9 6 -16 14 -16 7 0 29 -3 47 -6 31 -6 33 -5 19 10 -8
8 -30 18 -48 22 -25 5 -32 3 -32 -10z"/>
<path d="M740 1780 c-42 -42 -10 -120 50 -120 38 0 70 32 70 70 0 38 -32 70
-70 70 -17 0 -39 -9 -50 -20z m79 -34 c9 -11 8 -18 -4 -30 -20 -20 -29 -20
-45 -1 -10 12 -10 18 0 30 16 19 34 19 49 1z"/>
<path d="M893 1745 c-10 -26 5 -88 27 -109 22 -23 26 -12 9 31 -6 15 -11 43
-10 61 0 33 -15 44 -26 17z"/>
<path d="M349 1618 c0 -2 -2 -13 -3 -25 l-3 -23 315 0 315 0 -37 25 -37 25
-274 0 c-151 0 -275 -1 -276 -2z"/>
<path d="M1141 1594 l-34 -24 301 0 302 0 -4 23 -3 22 -264 2 -264 1 -34 -24z"/>
<path d="M981 1588 c13 -11 38 -18 64 -18 27 0 47 6 58 18 15 16 11 17 -64 17
-78 0 -79 0 -58 -17z"/>
<path d="M715 1521 c-41 -17 -59 -50 -63 -115 -7 -102 26 -146 108 -146 53 0
99 42 102 92 5 104 -12 149 -64 167 -36 13 -55 13 -83 2z m73 -63 c18 -18 15
-113 -4 -132 -18 -19 -20 -19 -45 -6 -15 9 -19 22 -19 68 0 59 11 82 40 82 9
0 21 -5 28 -12z"/>
<path d="M370 1398 l26 -123 36 -3 c35 -3 36 -2 43 35 3 21 10 45 15 53 11 17
15 9 25 -52 6 -36 8 -38 44 -38 l38 0 22 103 c12 56 24 112 27 125 6 19 3 22
-24 22 -29 0 -31 -3 -43 -55 -7 -30 -15 -55 -19 -55 -4 0 -12 25 -19 55 -12
54 -13 55 -47 55 -29 0 -35 -4 -40 -27 -22 -99 -23 -99 -44 -15 -9 37 -14 42
-39 42 l-28 0 27 -122z m196 2 c26 0 30 -14 14 -54 -9 -24 -40 -37 -40 -17 0
4 -10 21 -22 36 l-22 28 -32 -39 c-18 -21 -36 -36 -39 -33 -3 4 -8 22 -12 42
-5 31 -3 36 17 39 15 2 30 17 43 42 l20 39 25 -42 c17 -30 31 -41 48 -41z"/>
<path d="M880 1395 l0 -125 36 0 35 0 -1 48 c-1 26 -1 51 -1 56 1 4 14 -16 29
-45 26 -50 31 -54 67 -57 l40 -3 0 126 0 125 -32 0 c-32 0 -32 -1 -35 -52 l-3
-53 -28 53 c-26 49 -29 52 -67 52 l-40 0 0 -125z m94 44 c36 -40 37 -41 56
-24 20 18 20 17 20 -38 0 -31 -4 -58 -9 -61 -5 -4 -24 12 -41 34 -35 44 -45
48 -72 23 -17 -15 -18 -14 -18 39 0 82 10 86 64 27z"/>
<path d="M1108 1395 l-3 -125 65 0 c43 0 73 5 87 15 30 21 47 83 39 137 -12
74 -43 98 -130 98 l-55 0 -3 -125z m106 59 c19 -19 22 -104 4 -122 -7 -7 -20
-12 -30 -12 -16 0 -18 9 -18 68 0 84 10 100 44 66z"/>
<path d="M1315 1395 l0 -125 78 0 77 0 0 30 c0 29 -2 30 -43 30 -48 0 -58 5
-50 26 3 9 21 14 49 14 41 0 44 2 44 28 0 25 -3 27 -42 27 -37 0 -43 3 -46 23
-3 20 1 22 42 22 42 0 46 2 46 25 0 25 -1 25 -77 25 l-78 0 0 -125z m54 -12
c-15 -18 -34 -1 -25 22 5 14 9 15 21 5 12 -10 13 -16 4 -27z"/>
<path d="M1500 1395 l0 -125 30 0 30 0 0 95 0 95 30 0 c23 0 30 -4 30 -20 0
-13 -7 -20 -19 -20 -33 0 -33 -16 1 -84 30 -61 35 -66 65 -66 l33 0 -25 51
c-25 49 -26 52 -9 70 23 26 23 82 -1 109 -15 17 -30 20 -92 20 l-73 0 0 -125z"/>
<path d="M1300 1233 c-51 -12 -163 -16 -510 -19 -431 -4 -445 -5 -448 -24 -3
-18 6 -19 315 -22 337 -3 305 -6 632 52 l125 23 17 -22 c22 -27 49 -28 44 -1
-5 24 -4 24 39 3 19 -9 33 -20 30 -24 -2 -4 5 -13 16 -19 14 -8 20 -8 20 0 0
7 7 6 19 -2 11 -8 37 -12 65 -10 42 4 47 7 44 26 -3 20 -8 21 -76 18 -57 -2
-81 2 -112 18 -47 24 -124 25 -220 3z"/>
<path d="M1355 1210 c3 -5 17 -10 31 -10 13 0 24 5 24 10 0 6 -14 10 -31 10
-17 0 -28 -4 -24 -10z"/>
<path d="M1122 1169 c-13 -5 -27 -7 -32 -4 -4 3 -13 -2 -20 -10 -11 -13 -7
-13 31 -2 24 8 48 14 52 14 5 1 11 4 15 7 8 9 -20 6 -46 -5z"/>
<path d="M1247 1173 c-15 -2 -25 -8 -22 -13 3 -5 -5 -8 -17 -8 -13 1 -36 1
-53 0 l-30 -2 34 -21 c26 -16 42 -19 70 -13 l36 7 -33 7 c-18 4 -35 10 -38 13
-6 5 27 2 96 -9 19 -3 46 -1 60 5 25 10 25 10 2 10 -12 1 -25 8 -28 16 -6 15
-21 16 -77 8z"/>
<path d="M1450 1167 c0 -17 41 -30 65 -21 27 11 11 29 -28 32 -27 2 -37 -1
-37 -11z"/>
<path d="M1590 1149 c0 -15 49 -42 65 -35 10 3 20 -5 30 -23 12 -24 12 -30 1
-34 -18 -7 -30 -57 -17 -70 7 -7 13 -3 20 14 7 18 9 7 5 -41 -10 -140 -15
-168 -30 -174 -8 -3 -14 -12 -14 -21 0 -18 16 -20 23 -2 3 6 6 -4 6 -23 1 -25
-2 -31 -8 -21 -8 12 -12 13 -26 1 -9 -7 -14 -19 -11 -27 3 -7 -1 -13 -9 -13
-7 0 -210 -52 -449 -115 -240 -63 -438 -115 -441 -115 -2 0 -2 7 1 15 4 9 0
15 -9 15 -21 0 -33 -20 -17 -30 8 -5 3 -10 -14 -14 -36 -9 -81 26 -103 80 -10
23 -21 40 -25 38 -4 -3 -5 3 -1 12 4 10 2 15 -4 11 -5 -4 -10 6 -10 23 0 19 6
30 14 30 11 0 11 4 2 22 l-12 22 -9 -24 c-5 -13 -6 -30 -4 -37 3 -7 1 -13 -4
-13 -6 0 -10 -12 -10 -26 0 -18 6 -28 20 -31 26 -7 61 -73 53 -101 -9 -35 -41
-11 -35 26 5 35 -15 53 -33 29 -11 -15 -14 -15 -31 4 -10 11 -19 26 -20 32 0
7 -2 18 -2 25 -1 7 -10 12 -20 10 -24 -4 -52 19 -52 42 0 10 -7 23 -15 30 -11
9 -15 9 -15 1 0 -7 -5 -9 -11 -5 -6 3 -9 19 -6 34 4 19 2 27 -8 27 -35 0 4
-59 114 -170 92 -93 121 -117 143 -117 40 0 1051 268 1065 283 10 10 33 259
33 359 0 37 -59 103 -94 104 -14 1 -26 -2 -26 -7z"/>
<path d="M825 1145 c-5 -2 -104 -20 -220 -41 -275 -50 -265 -42 -265 -221 0
-129 5 -173 20 -173 5 0 11 8 13 18 4 16 5 16 6 0 0 -10 6 -18 12 -18 8 0 10
15 7 45 -4 30 -2 42 5 38 6 -4 8 0 4 10 -5 12 -2 14 12 9 38 -15 80 -61 92
-101 7 -23 16 -38 21 -33 5 5 2 21 -7 38 -17 33 -19 54 -5 54 5 0 7 -7 4 -15
-4 -8 -1 -15 4 -15 16 0 24 18 12 25 -7 4 -3 17 10 35 17 23 18 30 6 39 -11
10 -16 8 -24 -5 -5 -9 -7 -25 -5 -34 7 -25 -48 -21 -77 5 -11 10 -33 21 -47
23 -25 3 -26 1 -20 -37 4 -33 2 -40 -14 -44 -17 -5 -19 1 -19 76 0 70 2 78 13
63 13 -18 14 -18 20 -2 8 20 -10 59 -23 51 -5 -3 -7 11 -5 32 2 21 4 44 4 51
1 19 18 14 18 -5 -1 -48 4 -73 13 -73 20 0 22 31 4 51 -17 19 -17 21 -2 30 10
5 15 15 12 22 -3 9 18 17 73 26 107 18 386 70 398 75 12 5 -36 6 -50 1z"/>
<path d="M1022 1126 c-29 -6 -50 -14 -47 -18 7 -7 -29 -1 -55 10 -26 10 -50
10 -50 0 0 -6 7 -7 16 -4 10 4 31 -6 54 -24 39 -31 60 -38 60 -19 0 6 7 8 16
5 9 -4 25 -4 36 0 17 5 17 7 -4 24 -13 11 -18 19 -12 20 6 0 18 -8 27 -18 12
-13 26 -17 47 -14 38 5 48 21 25 39 -21 15 -39 15 -113 -1z"/>
<path d="M810 1111 c0 -5 -9 -7 -19 -4 -11 3 -27 1 -36 -5 -16 -8 -16 -9 -1
-15 11 -5 15 -3 10 5 -5 7 1 9 17 5 13 -3 33 -2 43 2 17 7 18 8 3 14 -9 3 -17
2 -17 -2z"/>
<path d="M857 1093 c-26 -7 -17 -36 15 -47 19 -7 36 -6 54 3 23 10 25 14 13
26 -17 16 -57 25 -82 18z"/>
<path d="M1213 1085 c6 -13 3 -14 -14 -4 -25 13 -49 5 -49 -16 0 -10 -7 -15
-17 -13 -10 2 -17 9 -16 15 1 6 -9 8 -23 5 -21 -4 -23 -7 -12 -21 7 -9 13 -17
14 -19 1 -2 26 3 56 12 29 8 70 18 91 23 50 11 52 27 3 31 -32 3 -38 1 -33
-13z"/>
<path d="M1560 1088 c1 -25 37 -61 54 -55 19 7 13 45 -8 59 -18 12 -46 9 -46
-4z"/>
<path d="M777 1074 c-4 -4 -24 -8 -44 -9 -76 -4 -78 -6 -23 -26 53 -18 140
-18 140 1 0 23 -57 50 -73 34z"/>
<path d="M1008 1052 c-14 -6 -15 -9 -3 -26 11 -15 17 -17 29 -7 7 6 18 11 22
10 21 -4 24 2 10 16 -16 16 -31 18 -58 7z"/>
<path d="M426 1029 c-30 -30 -10 -34 24 -5 25 20 27 26 13 25 -10 0 -27 -9
-37 -20z"/>
<path d="M500 1036 c0 -18 31 -29 55 -20 17 7 17 8 -1 21 -24 17 -54 17 -54
-1z"/>
<path d="M917 1031 c-18 -6 -18 -7 0 -22 25 -22 92 -6 73 16 -13 16 -43 18
-73 6z"/>
<path d="M456 1004 c-20 -20 -20 -28 0 -45 14 -12 20 -9 41 15 19 23 22 31 11
37 -20 13 -35 11 -52 -7z"/>
<path d="M1612 988 c-14 -14 -16 -58 -2 -58 8 0 40 51 40 65 0 10 -26 5 -38
-7z"/>
<path d="M530 980 c-11 -7 -12 -12 -3 -21 15 -15 47 -7 51 14 4 19 -23 23 -48
7z"/>
<path d="M623 965 c-7 -19 -5 -22 29 -30 21 -5 29 -3 34 10 4 10 1 21 -7 26
-22 14 -49 11 -56 -6z"/>
<path d="M920 951 c-13 -11 -52 -32 -85 -47 -33 -16 -61 -29 -63 -30 -7 -4 11
-54 20 -54 16 0 130 59 166 87 32 24 33 26 16 44 -21 23 -23 23 -54 0z m-20
-63 c-18 -15 -25 -16 -31 -6 -11 17 -12 37 -1 23 12 -16 32 -16 32 1 0 9 5 12
12 8 8 -5 4 -13 -12 -26z"/>
<path d="M1640 920 c-11 -21 -5 -60 9 -60 16 0 33 29 29 51 -4 30 -24 35 -38
9z"/>
<path d="M470 915 c0 -15 26 -32 36 -23 2 3 2 13 -2 22 -8 20 -34 21 -34 1z"/>
<path d="M528 905 c-14 -32 3 -58 24 -37 10 10 10 15 -2 22 -12 8 -11 11 8 16
27 8 29 24 2 24 -12 0 -25 -10 -32 -25z"/>
<path d="M403 907 c4 -10 7 -25 7 -33 0 -8 5 -14 10 -14 16 0 11 36 -7 51 -15
12 -16 12 -10 -4z"/>
<path d="M594 905 c-4 -8 -3 -22 0 -30 8 -22 46 -1 46 25 0 24 -38 28 -46 5z"/>
<path d="M684 906 c-9 -22 2 -46 21 -46 12 0 15 8 13 27 -3 30 -25 42 -34 19z"/>
<path d="M447 873 c-13 -12 -7 -40 13 -58 18 -16 20 -16 26 -1 14 37 -16 83
-39 59z"/>
<path d="M1404 872 c-17 -11 -23 -92 -6 -92 7 0 15 7 19 16 4 11 8 12 13 4 5
-7 16 -9 29 -5 18 5 20 9 10 21 -9 11 -9 17 1 29 6 8 9 19 5 25 -7 11 -54 13
-71 2z"/>
<path d="M1344 859 c-27 -8 -32 -14 -37 -51 -3 -24 -4 -44 -3 -45 2 -2 17 0
34 3 31 6 46 34 19 34 -20 0 -16 29 5 36 10 3 18 12 18 20 0 8 -1 14 -2 13 -2
0 -17 -5 -34 -10z"/>
<path d="M1602 858 c-15 -15 -16 -45 -2 -53 13 -8 34 45 22 57 -4 4 -13 3 -20
-4z"/>
<path d="M634 846 c-8 -22 3 -49 19 -43 6 2 12 14 12 27 0 27 -22 39 -31 16z"/>
<path d="M1130 840 c0 -6 7 -13 15 -16 8 -4 15 -16 15 -28 -1 -19 -4 -17 -30
14 -17 19 -30 30 -30 24 0 -5 5 -15 12 -22 9 -9 9 -12 0 -12 -8 0 -12 -17 -12
-46 0 -38 3 -45 16 -40 9 3 18 6 20 6 3 0 2 5 -1 10 -3 6 -1 10 4 10 6 0 11
-4 11 -9 0 -5 9 -7 20 -4 16 4 20 14 20 49 0 32 -4 44 -15 44 -8 0 -15 7 -15
15 0 8 -7 15 -15 15 -8 0 -15 -5 -15 -10z"/>
<path d="M598 829 c-22 -12 -23 -42 -3 -59 24 -20 40 2 29 39 -7 25 -12 28
-26 20z"/>
<path d="M690 816 c-15 -29 -8 -56 15 -56 19 0 40 43 32 64 -9 24 -32 19 -47
-8z"/>
<path d="M1210 786 c0 -37 3 -46 18 -46 33 0 63 30 60 58 -3 23 -8 27 -40 30
l-38 3 0 -45z"/>
<path d="M1025 798 c2 -9 -3 -19 -10 -22 -18 -7 -28 -55 -14 -72 34 -41 103
12 81 61 -7 14 -20 25 -31 25 -11 0 -21 6 -24 13 -2 6 -3 4 -2 -5z"/>
<path d="M1590 749 c-9 -21 -10 -33 -2 -41 13 -13 47 35 38 57 -9 24 -22 18
-36 -16z"/>
<path d="M953 750 c-6 -24 -20 -26 -25 -3 -3 15 -4 15 -20 -1 -10 -10 -18 -13
-18 -8 0 5 -10 7 -23 5 -22 -4 -22 -7 -13 -49 11 -47 16 -50 49 -32 12 7 32
11 44 9 23 -2 26 3 36 72 5 32 -22 39 -30 7z"/>
<path d="M630 739 c0 -24 23 -21 28 4 2 10 -3 17 -12 17 -10 0 -16 -9 -16 -21z"/>
<path d="M557 744 c-12 -13 -7 -51 8 -64 22 -18 37 0 33 36 -3 28 -26 43 -41
28z"/>
<path d="M1303 743 c-17 -6 -17 -53 0 -53 24 0 51 26 44 44 -6 16 -21 19 -44
9z"/>
<path d="M681 726 c-11 -14 -5 -46 9 -46 15 0 30 28 24 44 -8 20 -18 20 -33 2z"/>
<path d="M1220 704 c-13 -33 -13 -34 5 -34 8 0 15 4 15 9 0 5 10 7 22 3 17 -4
20 -2 15 12 -4 10 -7 22 -7 27 0 21 -41 8 -50 -17z"/>
<path d="M1173 712 c-18 -3 -23 -10 -23 -33 0 -27 3 -30 23 -23 30 9 32 11 18
28 -9 11 -9 15 1 19 20 7 6 13 -19 9z"/>
<path d="M452 679 c2 -18 9 -34 16 -37 10 -3 13 5 10 29 -2 18 -9 34 -16 37
-10 3 -13 -5 -10 -29z"/>
<path d="M631 691 c-30 -30 -24 -56 14 -56 35 0 45 28 22 59 -14 19 -15 18
-36 -3z"/>
<path d="M402 679 c1 -12 9 -24 16 -27 9 -3 13 3 10 19 -1 12 -9 24 -16 27 -9
3 -13 -3 -10 -19z"/>
<path d="M1093 693 c-18 -3 -23 -11 -23 -34 0 -28 2 -29 23 -18 12 7 23 12 25
11 10 -8 19 2 18 20 -1 23 -9 27 -43 21z"/>
<path d="M1013 672 c-29 -3 -33 -7 -33 -34 0 -23 4 -29 16 -24 9 3 21 6 27 6
24 0 38 16 30 36 -6 14 -16 18 -40 16z"/>
<path d="M502 643 c4 -24 25 -27 30 -5 4 12 -1 18 -14 19 -13 1 -18 -4 -16
-14z"/>
<path d="M697 643 c-9 -8 -9 -48 -1 -56 14 -13 34 7 34 34 0 27 -17 39 -33 22z"/>
<path d="M442 609 c1 -12 9 -24 16 -27 9 -3 13 3 10 19 -1 12 -9 24 -16 27 -9
3 -13 -3 -10 -19z"/>
<path d="M584 594 c3 -9 6 -22 6 -30 0 -8 7 -14 16 -14 11 0 14 5 10 16 -3 9
-6 22 -6 30 0 8 -7 14 -16 14 -11 0 -14 -5 -10 -16z"/>
<path d="M633 595 c-3 -9 -3 -18 0 -22 10 -10 37 6 37 22 0 20 -29 20 -37 0z"/>
<path d="M713 544 c-7 -18 11 -39 26 -30 17 11 13 46 -4 46 -9 0 -18 -7 -22
-16z"/>
<path d="M661 531 c-14 -25 -14 -48 -1 -56 18 -11 41 16 38 43 -4 32 -23 39
-37 13z"/>
<path d="M612 516 c2 -15 8 -26 13 -26 15 0 12 43 -3 48 -10 3 -13 -4 -10 -22z"/>
</g>
</svg>
