<?xml version="1.0" standalone="no"?>
<!DOCTYPE svg PUBLIC "-//W3C//DTD SVG 20010904//EN"
 "http://www.w3.org/TR/2001/REC-SVG-20010904/DTD/svg10.dtd">
<svg version="1.0" xmlns="http://www.w3.org/2000/svg"
 width="300.000000pt" height="300.000000pt" viewBox="0 0 300.000000 300.000000"
 preserveAspectRatio="xMidYMid meet">
<metadata>
Created by potrace 1.10, written by Peter Selinger 2001-2011
</metadata>
<g transform="translate(0.000000,300.000000) scale(0.100000,-0.100000)"
fill="#000000" stroke="none">
<path d="M1033 2466 c-17 -14 -43 -26 -58 -26 -16 0 -38 -11 -56 -29 -23 -24
-29 -38 -29 -73 0 -24 7 -56 15 -71 20 -38 5 -67 -35 -67 -40 0 -90 -44 -90
-80 0 -21 -8 -33 -30 -47 -33 -19 -42 -40 -11 -23 11 5 26 10 33 10 7 -1 0 -8
-17 -17 -16 -9 -34 -22 -38 -29 -4 -8 -22 -21 -38 -30 -52 -27 -25 -26 36 1
32 14 60 23 63 20 3 -3 -24 -18 -59 -34 -45 -21 -57 -30 -40 -31 23 0 24 -1 6
-20 -10 -11 -27 -22 -38 -26 -12 -4 -28 -14 -37 -22 -14 -14 -13 -15 5 -8 42
17 58 19 51 8 -4 -7 -13 -12 -21 -12 -8 0 -31 -16 -52 -36 l-38 -35 58 25 c31
14 57 21 57 17 0 -5 -23 -18 -51 -30 -28 -13 -48 -25 -45 -28 3 -3 19 0 35 7
43 17 61 7 61 -34 0 -28 -4 -35 -24 -40 -14 -3 -33 -18 -44 -34 -22 -32 -36
-102 -20 -102 7 0 6 -5 -1 -14 -8 -9 -11 -48 -9 -112 3 -91 5 -99 25 -110 13
-6 20 -14 16 -17 -3 -4 -1 -7 5 -7 7 0 12 -7 12 -15 0 -8 -5 -15 -11 -15 -6 0
-4 -7 5 -15 17 -17 30 -54 23 -62 -3 -3 -22 -5 -41 -5 -20 0 -33 -4 -30 -9 3
-5 -2 -9 -10 -9 -8 0 -21 -6 -28 -12 -7 -7 -26 -20 -42 -28 -43 -22 -112 -86
-137 -126 -24 -40 -22 -93 7 -125 22 -24 39 -15 58 31 8 21 35 54 61 75 65 54
73 42 52 -82 -13 -78 -14 -102 -4 -122 22 -47 93 -37 119 16 9 18 24 29 46 34
35 7 35 7 46 -43 5 -21 14 -29 40 -34 28 -5 41 -1 69 20 42 32 48 32 77 1 25
-26 68 -33 87 -14 8 8 23 7 57 -6 55 -21 140 -16 180 11 25 15 28 15 45 0 26
-24 68 -20 95 9 l23 25 23 -25 c21 -23 29 -24 114 -22 90 3 116 9 116 28 0 19
35 46 65 52 17 3 40 8 52 12 19 6 22 3 25 -31 4 -53 40 -74 93 -55 29 10 39
10 51 0 20 -16 141 -18 182 -3 26 11 38 10 67 -2 75 -31 179 -7 215 50 10 18
25 57 31 87 6 30 15 58 20 63 11 13 11 -54 -1 -114 -7 -39 -6 -48 13 -68 28
-30 73 -26 99 8 10 14 23 51 28 84 13 82 16 88 60 118 44 30 48 46 24 83 -16
24 -21 25 -118 25 -69 -1 -107 -5 -119 -14 -15 -12 -23 -12 -48 1 -43 22 -139
20 -178 -3 -37 -22 -81 -103 -81 -150 0 -37 -21 -58 -50 -49 -23 7 -25 31 -8
104 9 41 9 56 -2 76 -18 33 -55 42 -89 22 -23 -13 -29 -13 -45 -1 -26 18 -52
18 -86 -3 -27 -15 -30 -15 -54 0 -32 22 -173 24 -201 4 -15 -12 -22 -12 -46 0
-30 15 -71 9 -90 -13 -16 -19 -33 -18 -54 6 -23 25 -50 25 -82 0 -25 -20 -25
-20 -50 0 -20 16 -41 20 -95 20 -81 0 -116 -16 -146 -68 l-19 -34 -12 33 c-18
51 -39 69 -83 69 -31 0 -46 -7 -70 -30 -16 -16 -31 -30 -33 -30 -6 0 -68 61
-64 64 23 19 253 65 579 116 145 22 586 72 839 95 336 30 412 46 196 40 -352
-9 -1100 -101 -1474 -181 -354 -76 -511 -153 -511 -253 0 -33 -14 -42 -24 -15
-19 48 3 103 61 154 77 68 222 118 508 175 487 96 948 145 1372 145 193 0 254
9 161 24 -24 4 -134 7 -245 7 -161 -1 -203 2 -203 12 0 27 21 36 48 21 32 -16
392 -20 421 -4 27 14 45 64 32 88 -6 12 -11 31 -11 44 0 13 -7 36 -15 52 -8
15 -15 41 -15 58 0 62 -23 85 -113 112 -45 14 -103 28 -129 31 -46 6 -62 17
-83 58 -6 12 -23 28 -39 37 -16 8 -50 36 -76 62 -56 55 -92 67 -215 75 -87 5
-91 7 -118 39 -32 39 -45 41 -73 16 -14 -13 -42 -21 -95 -25 -74 -6 -76 -6
-90 19 -15 28 -45 44 -84 44 -13 0 -41 12 -62 26 -31 21 -48 25 -93 23 -30 -1
-65 3 -78 10 -12 6 -28 11 -35 9 -12 -2 -77 29 -77 37 0 2 14 12 32 21 30 16
33 15 105 -16 70 -31 74 -32 98 -16 22 15 25 23 25 79 0 53 -4 67 -23 85 -13
12 -32 22 -42 22 -10 0 -35 11 -56 25 -56 39 -98 43 -136 11z m97 -21 c18 -9
30 -24 30 -35 0 -11 10 -24 21 -31 20 -10 21 -9 16 10 -6 24 1 26 38 9 23 -10
25 -16 25 -75 0 -34 -3 -63 -6 -63 -3 0 -39 15 -79 34 l-74 34 -4 64 -3 63 -2
-65 -2 -65 -77 -30 c-42 -17 -80 -31 -85 -33 -4 -2 -8 25 -8 60 0 64 0 64 35
81 l35 17 0 -26 c0 -22 2 -23 20 -14 11 6 20 21 20 35 0 16 8 26 28 33 37 14
39 14 72 -3z m-97 -230 c19 -8 37 -23 40 -35 6 -23 27 -27 27 -5 0 18 14 19
41 5 26 -15 24 -26 -9 -39 -21 -9 -28 -19 -30 -41 -3 -33 0 -35 29 -20 11 6
19 21 19 36 0 19 8 29 38 41 42 18 64 19 104 2 19 -8 28 -19 28 -34 0 -14 9
-26 25 -33 23 -11 25 -10 25 14 0 21 3 25 18 19 9 -4 25 -10 35 -12 12 -4 17
-15 17 -38 0 -31 -3 -34 -84 -69 -121 -52 -117 -54 -109 62 3 53 2 94 -2 90
-4 -4 -10 -48 -13 -99 l-7 -92 -102 -48 -103 -48 0 104 0 105 38 19 c44 24 36
27 -13 7 -20 -9 -36 -23 -37 -33 -1 -10 -5 18 -8 62 l-6 80 -2 -77 c-1 -42 -6
-79 -11 -82 -5 -3 -45 -21 -90 -41 l-81 -34 0 83 0 82 35 17 35 17 0 -25 c0
-28 3 -29 31 -15 11 6 19 21 19 35 0 16 9 29 28 39 34 19 33 19 75 1z m665
-227 c2 -93 1 -107 -13 -102 -12 5 -15 25 -15 100 0 83 -2 94 -17 94 -15 0
-16 2 -3 10 38 25 45 9 48 -102z m-79 66 c49 -10 37 -26 -14 -18 l-45 6 0
-235 0 -235 -77 -17 c-66 -14 -803 -185 -871 -202 -13 -3 -22 -1 -22 6 0 6 6
11 13 11 17 0 308 93 303 97 -2 2 -72 -17 -155 -42 -84 -26 -155 -44 -158 -41
-10 10 6 36 23 36 17 0 119 31 551 167 150 48 271 88 269 90 -2 3 -143 -38
-313 -90 -463 -143 -510 -157 -518 -157 -4 0 -5 39 -1 88 9 111 16 152 27 152
5 0 103 41 217 92 434 191 688 297 713 298 15 0 41 -3 58 -6z m334 -44 c37
-11 107 -63 97 -73 -3 -3 -25 -1 -50 3 -69 14 -138 11 -212 -9 l-68 -17 0 52
c0 50 2 53 28 57 39 7 160 -1 205 -13z m-303 -66 c0 -41 -4 -63 -10 -59 -18
11 -12 125 7 125 2 0 3 -30 3 -66z m-52 -163 c2 -169 0 -212 -10 -209 -10 4
-14 56 -16 217 -2 169 0 212 10 209 10 -4 14 -56 16 -217z m-618 169 c0 -10 7
-20 15 -24 9 -3 15 -18 15 -35 0 -31 -28 -54 -75 -63 -11 -1 -22 -6 -25 -9 -6
-7 -192 -89 -203 -89 -4 0 -7 38 -7 85 0 83 0 85 30 100 42 22 51 19 44 -12
-6 -22 -4 -25 10 -20 10 4 22 7 27 7 5 0 9 15 9 33 0 30 4 34 42 48 52 19 118
7 118 -21z m1126 -43 c31 -16 72 -83 58 -95 -3 -4 -8 -2 -10 3 -27 72 -67 93
-194 101 -100 7 -105 2 -86 -70 8 -32 16 -60 18 -61 2 -2 24 1 48 7 53 12 330
4 375 -10 l30 -10 -27 -1 c-56 -2 -58 -6 -58 -104 l0 -90 -23 34 c-30 45 -87
75 -168 90 -56 10 -75 9 -113 -3 -42 -14 -46 -14 -47 1 0 12 -2 11 -9 -4 -4
-12 -15 -27 -24 -34 -14 -12 -16 -8 -16 45 0 80 -17 176 -32 186 -7 4 -26 7
-43 6 -30 -3 -30 -4 -30 -63 l0 -60 46 -5 45 -5 3 -57 c3 -65 -19 -118 -48
-118 -10 0 -31 -3 -47 -6 l-29 -5 1 162 1 163 54 12 c77 18 285 12 325 -9z
m-216 -19 c0 8 21 12 70 12 63 0 71 -2 86 -25 9 -14 19 -23 22 -21 3 3 -1 12
-8 21 -7 8 -8 15 -2 15 12 0 28 -19 36 -46 6 -19 3 -21 -39 -21 -39 0 -45 3
-46 21 -2 19 -2 19 -6 -2 -4 -20 -10 -23 -49 -21 -38 2 -45 6 -51 28 -6 23 -7
24 -14 6 -6 -16 -8 -17 -8 -3 -1 9 -4 25 -7 35 -5 15 -4 15 5 3 7 -10 11 -11
11 -2z m-180 -149 l0 -129 -30 0 -30 0 0 129 c0 115 2 130 18 133 39 9 42 0
42 -133z m124 110 c12 -60 8 -69 -24 -69 -34 0 -50 23 -50 69 0 28 3 31 34 31
30 0 34 -4 40 -31z m528 -88 c-9 -5 4 -11 37 -15 l51 -7 0 -94 0 -95 -59 0
c-32 0 -73 3 -90 6 l-31 7 0 93 c0 103 -6 92 65 107 34 8 41 7 27 -2z m-210
-103 c38 -18 64 -38 78 -60 11 -18 20 -35 20 -38 0 -3 -45 -4 -100 -2 -99 3
-100 4 -115 32 -32 62 -97 68 -144 15 -28 -32 -51 -45 -51 -29 0 21 47 77 78
94 53 29 157 23 234 -12z m338 -54 c14 -36 12 -64 -4 -64 -9 0 -14 12 -14 34
0 19 -3 39 -7 45 -3 6 -1 11 5 11 6 0 15 -12 20 -26z m-495 -8 c30 -30 41 -87
26 -136 -26 -89 -110 -87 -130 3 -12 51 3 107 34 135 33 28 40 28 70 -2z
m-287 -13 c-5 -26 -38 -29 -38 -4 0 15 6 21 21 21 14 0 19 -5 17 -17z m110
-53 c-3 -16 -1 -30 4 -30 4 0 8 14 8 30 0 19 5 30 14 30 11 0 14 -14 13 -54
-2 -62 12 -55 -146 -77 -88 -12 -100 -8 -101 32 0 13 14 18 63 23 34 4 78 11
97 16 30 8 27 9 -20 5 -30 -3 -72 -8 -92 -11 -21 -4 -38 -3 -38 2 1 24 22 34
95 47 113 21 108 21 103 -13z m592 2 l105 -7 -2 -29 c-1 -16 -6 -33 -11 -38
-6 -6 -93 -7 -216 -2 -223 7 -215 5 -229 64 l-6 26 127 -4 c70 -2 174 -7 232
-10z m-916 -34 c34 -48 8 -148 -38 -148 -53 0 -63 128 -12 162 19 13 34 9 50
-14z m112 -33 c0 -53 -1 -55 -26 -55 -33 0 -50 17 -50 50 0 29 9 45 30 53 39
15 45 8 46 -48z m-225 8 c5 -13 9 -36 9 -51 0 -34 -35 -92 -55 -92 -24 0 -47
64 -39 107 13 68 64 90 85 36z m-111 -41 c0 -20 4 -51 9 -69 l9 -32 -51 -10
c-29 -6 -81 -12 -117 -14 -36 -2 -78 -9 -95 -16 -40 -17 -166 -43 -173 -36 -3
3 0 11 6 17 15 15 16 63 2 89 -12 21 -1 26 18 7 9 -9 12 -8 12 4 0 16 65 38
112 38 19 0 20 -2 8 -11 -12 -9 -12 -10 3 -5 10 3 30 6 43 6 13 0 24 5 24 11
0 5 -5 7 -12 3 -7 -5 -8 -3 -4 5 5 7 14 10 22 7 7 -3 16 0 20 6 4 7 9 6 14 -2
6 -9 13 -7 28 6 12 10 31 19 43 21 13 2 25 6 28 8 2 3 15 5 28 5 20 0 23 -5
23 -38z m608 -19 c-3 -18 -12 -20 -108 -25 -90 -4 -100 8 -14 17 37 4 77 11
88 15 31 13 38 12 34 -7z m-1030 -58 c18 -38 15 -65 -6 -65 -11 0 -22 -12 -29
-31 -25 -66 -76 -6 -57 68 6 27 16 39 34 44 41 11 46 10 58 -16z m-108 -7 c0
-5 -4 -7 -9 -4 -5 3 -6 -14 -3 -39 8 -74 -44 -124 -64 -62 -11 32 -5 79 11 97
15 17 65 23 65 8z m25 -288 c14 -5 28 -17 31 -25 11 -28 -7 -105 -30 -132 -20
-23 -32 -27 -77 -28 -58 0 -67 -8 -68 -57 -1 -25 -5 -28 -37 -28 -32 0 -36 2
-31 23 3 12 13 69 22 127 9 58 19 111 21 118 4 15 130 17 169 2z m219 -2 c2
-7 10 -70 18 -140 l14 -128 -33 0 c-30 0 -33 3 -33 30 0 29 -1 30 -49 30 -45
0 -50 -2 -61 -30 -10 -25 -18 -30 -45 -30 l-33 0 66 140 67 140 43 0 c25 0 44
-5 46 -12z m296 -8 c12 -12 20 -33 20 -55 0 -33 -2 -35 -35 -35 -31 0 -35 3
-35 25 0 29 -36 43 -68 26 -22 -12 -46 -100 -40 -143 4 -33 69 -33 83 0 13 30
75 32 75 3 0 -36 -47 -79 -94 -86 -62 -10 -124 9 -132 41 -15 60 18 196 54
225 36 28 144 27 172 -1z m136 -10 c-20 -103 -23 -101 42 -32 48 51 63 62 90
62 39 0 40 -9 6 -41 -14 -13 -39 -41 -56 -61 l-30 -38 23 -37 c12 -21 31 -53
41 -70 l20 -33 -44 0 c-44 0 -44 0 -73 60 -16 33 -32 60 -36 60 -4 0 -11 -21
-14 -47 -9 -70 -11 -73 -45 -73 -36 0 -36 -5 -10 140 26 146 24 140 60 140 30
0 31 -2 26 -30z m400 9 c22 -23 10 -110 -20 -146 -18 -20 -31 -25 -76 -26 -59
-2 -68 -10 -69 -59 -1 -25 -5 -28 -37 -28 -34 0 -35 2 -30 28 3 15 13 72 21
127 9 55 18 106 21 114 6 20 168 12 190 -10z m134 14 c0 -5 -11 -66 -23 -138
l-23 -130 -32 -3 c-18 -2 -32 0 -32 5 0 4 10 68 22 141 l23 132 32 0 c18 0 33
-3 33 -7z m120 0 c0 -5 -7 -48 -15 -98 -9 -49 -17 -96 -18 -104 -2 -11 11 -14
56 -12 l57 2 0 -30 0 -31 -96 0 -96 0 6 31 c3 17 13 75 22 128 8 53 17 102 19
109 5 13 65 17 65 5z m341 -14 c19 -19 21 -29 15 -85 -14 -140 -47 -179 -150
-179 -99 0 -113 24 -90 153 11 64 18 82 44 105 26 24 39 27 95 27 53 0 69 -4
86 -21z m267 -6 c-3 -24 -8 -29 -42 -33 l-40 -5 -12 -75 c-25 -151 -21 -140
-60 -140 -31 0 -34 2 -29 23 8 33 35 181 35 190 0 4 -16 7 -35 7 -30 0 -35 3
-35 23 0 13 3 27 7 30 3 4 53 7 110 7 l104 0 -3 -27z m-1104 -95 c-4 -24 -11
-51 -16 -61 -9 -18 -10 -18 -23 0 -21 26 -18 53 7 80 31 33 39 29 32 -19z
m-364 2 c19 -19 19 -19 -12 -45 -36 -31 -51 -20 -37 29 5 17 9 32 9 33 0 10
23 0 40 -17z"/>
<path d="M1101 1939 c-35 -17 -61 -32 -58 -35 3 -3 36 11 73 30 84 43 74 46
-15 5z"/>
<path d="M903 1570 c-230 -84 -291 -109 -268 -110 11 0 517 189 524 196 11 11
-32 -4 -256 -86z"/>
<path d="M900 1900 c0 -38 4 -59 10 -55 6 3 10 28 10 55 0 27 -4 52 -10 55 -6
4 -10 -17 -10 -55z"/>
<path d="M2290 1655 c0 -43 4 -75 10 -75 6 0 10 32 10 75 0 43 -4 75 -10 75
-6 0 -10 -32 -10 -75z"/>
<path d="M2330 1728 c-5 -26 -3 -148 3 -148 4 0 7 34 7 75 0 41 -2 75 -5 75
-3 0 -5 -1 -5 -2z"/>
<path d="M2363 1645 c0 -44 2 -61 4 -37 2 23 2 59 0 80 -2 20 -4 1 -4 -43z"/>
<path d="M2393 1645 c0 -44 2 -61 4 -37 2 23 2 59 0 80 -2 20 -4 1 -4 -43z"/>
<path d="M2423 1645 c0 -44 2 -61 4 -37 2 23 2 59 0 80 -2 20 -4 1 -4 -43z"/>
<path d="M2091 1611 c-11 -20 -5 -31 15 -31 6 0 11 8 10 17 0 11 7 19 21 21
27 4 66 -15 58 -29 -4 -5 -1 -9 4 -9 6 0 11 7 11 15 0 36 -101 50 -119 16z"/>
<path d="M1926 1558 c-21 -29 -20 -92 0 -112 33 -33 63 -11 71 52 10 71 -37
110 -71 60z m50 1 c3 -6 1 -15 -6 -19 -9 -5 -11 -21 -7 -49 6 -46 -9 -64 -30
-36 -25 35 -10 115 22 115 7 0 17 -5 21 -11z"/>
<path d="M2200 1503 c0 -5 28 -7 62 -5 113 5 125 9 31 10 -51 1 -93 -1 -93 -5z"/>
<path d="M1438 1465 c-13 -28 -2 -75 18 -82 7 -2 17 10 23 28 21 62 -15 110
-41 54z"/>
<path d="M1339 1475 c-1 -6 -1 -28 -1 -50 l0 -40 -8 35 c-7 35 -7 35 -9 5 -1
-41 14 -64 31 -47 15 15 16 78 0 94 -7 7 -12 8 -13 3z"/>
<path d="M779 1347 c-4 -36 -1 -77 7 -79 13 -4 17 63 5 75 -6 6 -11 8 -12 4z"/>
<path d="M688 1291 c-2 -25 0 -40 7 -38 14 5 19 57 7 69 -6 6 -11 -5 -14 -31z"/>
<path d="M650 993 c0 -10 -3 -28 -6 -40 -6 -21 -3 -23 28 -23 41 0 58 15 58
52 0 26 -3 28 -40 28 -31 0 -40 -4 -40 -17z"/>
<path d="M902 955 c-12 -25 -22 -48 -22 -50 0 -3 13 -5 30 -5 30 0 30 0 23 48
-3 26 -7 48 -8 49 0 2 -11 -18 -23 -42z"/>
<path d="M1680 993 c0 -10 -3 -28 -6 -40 -6 -21 -3 -23 29 -23 38 0 57 19 57
59 0 18 -6 21 -40 21 -31 0 -40 -4 -40 -17z"/>
<path d="M2277 1005 c-16 -16 -41 -140 -32 -155 8 -12 65 -13 83 -1 7 4 18 41
25 80 9 61 8 74 -4 82 -21 13 -56 11 -72 -6z m43 -61 c0 -32 -18 -66 -31 -59
-8 6 -6 33 7 73 6 22 24 13 24 -14z"/>
</g>
</svg>
